<svg width="72" height="20" viewBox="0 0 72 20" fill="none" xmlns="http://www.w3.org/2000/svg">
<g clip-path="url(#clip0_2318_17058)">
<path d="M10.1241 20.0039C6.65911 20.0218 1.95211 15.4325 0.620112 12.4503L0.611112 12.4414L0.584112 12.3789C-0.0908881 10.7807 -0.252888 9.4414 0.494112 7.6914C1.61911 5.01283 7.32511 -1.19253 11.4381 0.200331C14.3811 1.20033 26.4501 8.5039 14.8671 17.745C13.3821 18.9325 11.8881 19.995 10.1241 20.0039ZM4.92211 11.6825C6.26311 14.0039 9.26911 16.7182 11.6271 15.2093C16.4511 12.1378 16.3881 9.17355 13.7961 6.61997C10.7811 3.64676 8.89111 4.15569 6.48811 6.63783C5.92111 7.22712 5.44411 7.61105 4.86811 8.70926C4.46311 9.51283 4.38211 10.745 4.92211 11.6825Z" fill="#53B7D1"/>
<path d="M31.5451 14.5089C32.0041 14.5089 32.4181 14.5 32.8051 14.4821C33.1921 14.4642 33.5881 14.4285 33.9931 14.366C34.1101 14.3392 34.2361 14.4107 34.2631 14.5267C34.2721 14.5535 34.2721 14.5803 34.2631 14.616V15.9553C34.2631 16.1071 34.1641 16.2142 33.9751 16.2767C33.5071 16.4196 33.0211 16.5178 32.5351 16.5803C32.0131 16.6517 31.4911 16.6875 30.9691 16.6875C30.1321 16.7142 29.2951 16.5714 28.5031 16.2767C27.8641 16.0267 27.2971 15.616 26.8651 15.0892C26.4241 14.5267 26.1091 13.8839 25.9471 13.1875C25.7491 12.3571 25.6501 11.5 25.6591 10.6428V9.82138C25.6501 8.96424 25.7401 8.1071 25.9381 7.27674C26.0911 6.58924 26.4061 5.93745 26.8381 5.37495C27.2701 4.84817 27.8281 4.43745 28.4671 4.18745C29.2501 3.89281 30.0871 3.74995 30.9331 3.77674C31.9141 3.78567 32.8771 3.93745 33.8131 4.24103C33.8941 4.25888 33.9661 4.30353 34.0291 4.36603C34.0651 4.4196 34.0831 4.49103 34.0831 4.56245V5.84817C34.1011 5.96424 34.0201 6.08031 33.9031 6.09817C33.8761 6.1071 33.8491 6.09817 33.8131 6.09817C33.4801 6.05353 33.1111 6.01781 32.7151 5.99103C32.3191 5.96424 31.9141 5.95531 31.5091 5.95531C31.0141 5.93745 30.5281 6.01781 30.0601 6.18746C29.6821 6.33031 29.3491 6.58924 29.1151 6.9196C28.8541 7.2946 28.6831 7.72317 28.6021 8.17853C28.4941 8.76781 28.4401 9.36603 28.4491 9.97317V10.5267C28.4401 11.125 28.4941 11.7321 28.6111 12.3214C28.6921 12.7678 28.8721 13.1964 29.1421 13.5714C29.3851 13.9017 29.7181 14.1517 30.1051 14.2946C30.5731 14.4375 31.0591 14.5178 31.5451 14.5089ZM36.3511 4.27674C36.3511 4.08924 36.4411 3.99103 36.6211 3.99103H38.8531C38.9881 3.97317 39.1231 4.06245 39.1411 4.20531C39.1411 4.2321 39.1411 4.24995 39.1411 4.27674V13.491C39.1231 13.7589 39.1861 14.0267 39.3211 14.2589C39.5101 14.4553 39.7891 14.5446 40.0591 14.5089H44.3161C44.4511 14.491 44.5861 14.5803 44.6041 14.7232C44.6041 14.75 44.6041 14.7678 44.6041 14.7946V16.116C44.6041 16.3392 44.5051 16.4642 44.2981 16.4732C43.6411 16.5357 42.8851 16.5803 42.0301 16.625C41.1751 16.6696 40.3021 16.6875 39.3841 16.6875C38.9071 16.6964 38.4211 16.6517 37.9531 16.5446C37.6111 16.4732 37.2871 16.3125 37.0081 16.0892C36.7651 15.875 36.5851 15.5892 36.4951 15.2767C36.3871 14.875 36.3331 14.4642 36.3421 14.0446L36.3511 4.27674ZM49.0591 16.1696C49.0771 16.3125 48.9781 16.4553 48.8341 16.4732C48.8071 16.4732 48.7801 16.4732 48.7531 16.4732H46.5751C46.4311 16.491 46.2871 16.3928 46.2691 16.25C46.2691 16.2232 46.2691 16.1964 46.2691 16.1696V4.31245C46.2691 4.09817 46.3681 3.99103 46.5751 3.99103H48.7531C48.9601 3.99103 49.0591 4.09817 49.0591 4.31245V16.1696ZM57.4651 14.5089C57.9241 14.5089 58.3381 14.5 58.7251 14.4821C59.1121 14.4642 59.5081 14.4285 59.9131 14.366C60.0301 14.3392 60.1561 14.4107 60.1831 14.5267C60.1921 14.5535 60.1921 14.5803 60.1831 14.616V15.9553C60.1831 16.1071 60.0841 16.2142 59.8951 16.2767C59.4271 16.4196 58.9411 16.5178 58.4551 16.5803C57.9331 16.6517 57.4111 16.6875 56.8891 16.6875C56.0521 16.7142 55.2151 16.5714 54.4231 16.2767C53.7841 16.0267 53.2171 15.616 52.7851 15.0892C52.3441 14.5267 52.0291 13.8839 51.8671 13.1875C51.6691 12.3571 51.5701 11.5 51.5791 10.6428V9.82138C51.5701 8.96424 51.6601 8.1071 51.8581 7.27674C52.0111 6.58924 52.3261 5.93745 52.7581 5.37495C53.1901 4.84817 53.7481 4.43745 54.3871 4.18745C55.1701 3.89281 56.0071 3.74995 56.8531 3.77674C57.8341 3.78567 58.7971 3.93745 59.7331 4.24103C59.8141 4.25888 59.8861 4.30353 59.9491 4.36603C59.9851 4.4196 60.0031 4.49103 60.0031 4.56245V5.84817C60.0211 5.96424 59.9401 6.08031 59.8231 6.09817C59.7961 6.1071 59.7691 6.09817 59.7331 6.09817C59.4001 6.05353 59.0311 6.01781 58.6351 5.99103C58.2391 5.96424 57.8341 5.95531 57.4291 5.95531C56.9341 5.93745 56.4481 6.01781 55.9801 6.18746C55.6021 6.33031 55.2691 6.58924 55.0351 6.9196C54.7741 7.2946 54.6031 7.72317 54.5221 8.17853C54.4141 8.76781 54.3601 9.36603 54.3691 9.97317V10.5267C54.3601 11.125 54.4141 11.7321 54.5311 12.3214C54.6121 12.7678 54.7921 13.1964 55.0621 13.5714C55.3051 13.9017 55.6381 14.1517 56.0251 14.2946C56.4931 14.4375 56.9791 14.5178 57.4651 14.5089ZM71.2891 3.99103C71.3701 3.9821 71.4511 4.02674 71.4871 4.09817C71.5231 4.17853 71.5051 4.26781 71.4511 4.33031L67.6081 9.99995L71.9551 16.1517C72.0001 16.2053 72.0091 16.2857 71.9821 16.3571C71.9461 16.4375 71.8651 16.4821 71.7751 16.4732H69.2371C69.1291 16.4821 69.0301 16.4642 68.9311 16.4196C68.8501 16.375 68.7781 16.3035 68.7331 16.2232L65.0521 10.6607V16.1696C65.0701 16.3125 64.9711 16.4553 64.8181 16.4732C64.7911 16.4732 64.7641 16.4732 64.7461 16.4732H62.5681C62.4241 16.491 62.2801 16.3928 62.2621 16.25C62.2621 16.2232 62.2621 16.1964 62.2621 16.1785V4.31245C62.2621 4.09817 62.3611 3.99103 62.5681 3.99103H64.7461C64.9531 3.99103 65.0521 4.09817 65.0521 4.31245V9.33924L68.4901 4.19638C68.5801 4.06245 68.7421 3.9821 68.9041 3.9821L71.2891 3.99103Z" fill="#141521"/>
</g>
<defs>
<clipPath id="clip0_2318_17058">
<rect width="72" height="20" fill="white"/>
</clipPath>
</defs>
</svg>
