<svg width="60" height="24" viewBox="0 0 60 24" fill="none" xmlns="http://www.w3.org/2000/svg">
<g clip-path="url(#clip0_2327_16833)">
<path fill-rule="evenodd" clip-rule="evenodd" d="M11.8657 23.5277C18.2972 23.5277 23.5093 18.3093 23.5093 11.8701C23.5093 5.41976 18.2972 0.201375 11.8657 0.200012C5.43832 0.200012 0.220703 5.41976 0.220703 11.8701C0.220703 18.308 5.43975 23.5277 11.8657 23.5277ZM11.8643 4.19618C12.3176 4.19618 12.7654 4.21416 13.2008 4.25429V10.4775H10.5333V4.25429C10.9687 4.21416 11.4165 4.19618 11.8643 4.19618ZM16.3917 7.12926C17.4319 7.31473 18.4252 7.5722 19.3663 7.88085H19.3677V12.3836C19.3677 16.5182 16.0087 19.8956 11.8657 19.8956C7.72961 19.8956 4.37055 16.5182 4.37055 12.3836V7.88085C5.31158 7.5722 6.30495 7.31607 7.34522 7.12926V12.3546C7.34522 16.1168 8.94345 18.0934 11.8657 18.0934C14.7989 18.0934 16.3917 16.1168 16.3917 12.3546V7.12926ZM54.7412 6.07192C55.1311 5.42828 55.9121 5.00197 56.9554 5.00197C58.7149 5.00197 59.5649 6.1245 59.5688 7.51147V10.8432H57.9254V7.74405C57.9254 7.08238 57.5521 6.49828 56.7599 6.49828C55.9677 6.49828 55.5777 7.06027 55.5777 7.7205V10.8432H53.9338V7.7205C53.9338 7.06027 53.5191 6.49828 52.7214 6.49828C51.9292 6.49828 51.5792 7.08383 51.5792 7.74405V10.8432H49.9356V7.51013C49.9356 6.1245 50.8379 5.00197 52.5919 5.00197C53.4888 5.00197 54.3444 5.42828 54.7412 6.07192ZM41.4801 6.5052V5.11269H36.1481V6.5052H39.306L36.02 9.45213V10.8447H41.6785V9.45213H38.1996L41.4801 6.5052ZM47.0381 8.11365C47.0381 9.02582 46.5255 9.4466 45.7678 9.4466C45.0044 9.4466 44.5098 9.02582 44.5098 8.11365V5.11269H42.8662V8.17175C42.8662 10.1664 44.5208 10.9498 45.7733 10.9498C47.0091 10.9498 48.6804 10.1664 48.6804 8.17175V5.11269H47.0367V8.11365H47.0381ZM33.2988 8.11365C33.2988 9.02582 32.7863 9.4466 32.0286 9.4466C31.2653 9.4466 30.7706 9.02582 30.7706 8.11365V5.11269H29.1269V8.17175C29.1269 10.1664 30.7817 10.9498 32.0341 10.9498C33.2699 10.9498 34.9412 10.1664 34.9412 8.17175V5.11269H33.2975V8.11365H33.2988ZM31.9059 19.5138C32.1581 19.619 32.4694 19.6716 32.8387 19.6716C33.2079 19.6716 33.5593 19.6065 33.8927 19.4819C34.2247 19.3546 34.5155 19.1691 34.7634 18.9283C35.0128 18.6874 35.2098 18.3898 35.3573 18.0355C35.5047 17.6811 35.5777 17.277 35.5777 16.8243C35.5777 16.3717 35.5047 15.9675 35.3573 15.6131C35.2098 15.2588 35.0128 14.9612 34.7634 14.7203C34.5155 14.4795 34.2247 14.294 33.8927 14.1667C33.5606 14.038 33.2093 13.9742 32.8401 13.9742C32.4777 13.9742 32.1718 14.0158 31.9238 14.0989C31.6745 14.1819 31.4678 14.276 31.3011 14.3826C31.1054 14.503 30.947 14.6359 30.8258 14.7798H30.7582V11.7153H29.1297V19.6618H30.7582V18.6721H30.8367C30.9497 18.8604 31.1013 19.0265 31.2901 19.1719C31.4471 19.2951 31.6538 19.4086 31.9059 19.5138ZM33.489 17.8209C33.2134 18.0853 32.8277 18.2182 32.3289 18.2182C31.8316 18.2182 31.4457 18.0853 31.1702 17.8209C30.8947 17.5566 30.7568 17.2229 30.7568 16.8216C30.7568 16.4049 30.9002 16.0686 31.1868 15.8111C31.4733 15.5536 31.8536 15.4249 32.3289 15.4249C32.8263 15.4249 33.2134 15.5578 33.489 15.8221C33.7646 16.0866 33.9023 16.4201 33.9023 16.8216C33.9023 17.2229 33.7646 17.5566 33.489 17.8209ZM44.5443 13.984H46.1742V15.0027H46.2652C46.3629 14.8103 46.5021 14.64 46.684 14.4934C46.8356 14.3674 47.0408 14.2497 47.3012 14.139C47.5616 14.0283 47.8951 13.9729 48.3028 13.9729C48.6349 13.9729 48.9463 14.0199 49.2356 14.1127C49.5249 14.2054 49.7784 14.3522 49.9934 14.5529C50.2083 14.7536 50.3764 15.0068 50.4977 15.3114C50.6175 15.6159 50.6781 15.9799 50.6781 16.4035V19.6605H49.0482V16.8658C49.0482 16.3786 48.916 16.016 48.6528 15.7793C48.3883 15.5426 48.0411 15.4249 47.6112 15.4249C47.1359 15.4249 46.7777 15.5606 46.5366 15.8291C46.2954 16.099 46.1742 16.4451 46.1742 16.8658V19.6592H44.5443V13.984ZM53.6652 11.7139H52.0353V19.6605H53.6652V16.8797L56.2004 19.6605H58.1238L55.499 16.7427L57.9199 13.984H56.0071L53.6652 16.6402V11.7139ZM42.953 17.6866V13.8386H41.2679L41.2803 14.7743C40.9138 14.2248 40.2691 13.7237 39.1254 13.7237C37.158 13.7237 36.1467 15.2588 36.1467 16.798C36.1109 18.3566 37.2544 19.9083 39.0414 19.9083C39.9866 19.9083 40.8532 19.4861 41.2679 18.7428C41.4361 19.2327 41.8576 19.7698 42.7366 19.7698H43.7121V18.3317H43.4407C43.0976 18.3317 42.953 18.2058 42.953 17.6866ZM39.4809 18.423C38.5124 18.423 37.7904 17.7531 37.7904 16.8105C37.7904 15.8803 38.5124 15.2214 39.4809 15.2214C40.4798 15.2214 41.2018 15.8803 41.2018 16.8105C41.2018 17.7517 40.4798 18.423 39.4809 18.423Z" fill="#7000FF"/>
</g>
<defs>
<clipPath id="clip0_2327_16833">
<rect width="60" height="24" fill="white"/>
</clipPath>
</defs>
</svg>
