<svg width="16" height="16" viewBox="0 0 16 16" fill="none" xmlns="http://www.w3.org/2000/svg">
<path d="M2.01758 8.0171C2.01758 5.7608 2.01758 4.63266 2.71852 3.93172C3.41946 3.23077 4.54761 3.23077 6.8039 3.23077H9.19706C11.4534 3.23077 12.5815 3.23077 13.2824 3.93172C13.9834 4.63266 13.9834 5.7608 13.9834 8.0171V9.21368C13.9834 11.47 13.9834 12.5981 13.2824 13.2991C12.5815 14 11.4534 14 9.19706 14H6.8039C4.54761 14 3.41946 14 2.71852 13.2991C2.01758 12.5981 2.01758 11.47 2.01758 9.21368V8.0171Z" stroke="white" stroke-width="1.5"/>
<path d="M5.00879 3.23075V2.33331" stroke="white" stroke-width="1.5" stroke-linecap="round"/>
<path d="M10.9922 3.23075V2.33331" stroke="white" stroke-width="1.5" stroke-linecap="round"/>
<path d="M2.31641 6.22223H13.6839" stroke="white" stroke-width="1.5" stroke-linecap="round"/>
<path d="M11.5901 11.0085C11.5901 11.339 11.3223 11.6068 10.9918 11.6068C10.6614 11.6068 10.3936 11.339 10.3936 11.0085C10.3936 10.6781 10.6614 10.4103 10.9918 10.4103C11.3223 10.4103 11.5901 10.6781 11.5901 11.0085Z" fill="white"/>
<path d="M11.5901 8.61538C11.5901 8.94581 11.3223 9.21367 10.9918 9.21367C10.6614 9.21367 10.3936 8.94581 10.3936 8.61538C10.3936 8.28495 10.6614 8.01709 10.9918 8.01709C11.3223 8.01709 11.5901 8.28495 11.5901 8.61538Z" fill="white"/>
<path d="M8.59893 11.0085C8.59893 11.339 8.33106 11.6068 8.00063 11.6068C7.67021 11.6068 7.40234 11.339 7.40234 11.0085C7.40234 10.6781 7.67021 10.4103 8.00063 10.4103C8.33106 10.4103 8.59893 10.6781 8.59893 11.0085Z" fill="white"/>
<path d="M8.59893 8.61538C8.59893 8.94581 8.33106 9.21367 8.00063 9.21367C7.67021 9.21367 7.40234 8.94581 7.40234 8.61538C7.40234 8.28495 7.67021 8.01709 8.00063 8.01709C8.33106 8.01709 8.59893 8.28495 8.59893 8.61538Z" fill="white"/>
<path d="M5.60771 11.0085C5.60771 11.339 5.33985 11.6068 5.00942 11.6068C4.679 11.6068 4.41113 11.339 4.41113 11.0085C4.41113 10.6781 4.679 10.4103 5.00942 10.4103C5.33985 10.4103 5.60771 10.6781 5.60771 11.0085Z" fill="white"/>
<path d="M5.60771 8.61538C5.60771 8.94581 5.33985 9.21367 5.00942 9.21367C4.679 9.21367 4.41113 8.94581 4.41113 8.61538C4.41113 8.28495 4.679 8.01709 5.00942 8.01709C5.33985 8.01709 5.60771 8.28495 5.60771 8.61538Z" fill="white"/>
</svg>
