<svg width="20" height="20" viewBox="0 0 20 20" fill="none" xmlns="http://www.w3.org/2000/svg">
<g clip-path="url(#clip0_306_14519)">
<path d="M10.9059 17.8231L11.5943 18.2306V18.2306L10.9059 17.8231ZM11.3576 17.0599L10.6692 16.6524L11.3576 17.0599ZM8.643 17.0599L7.95456 17.4673L7.95456 17.4673L8.643 17.0599ZM9.09475 17.8231L9.78319 17.4156V17.4156L9.09475 17.8231ZM1.98416 13.2612L2.72326 12.955L2.72326 12.955L1.98416 13.2612ZM6.49164 15.8262L6.47786 16.6261H6.47786L6.49164 15.8262ZM4.23914 15.5162L3.933 16.2553L3.933 16.2553L4.23914 15.5162ZM18.0165 13.2612L18.7556 13.5673V13.5673L18.0165 13.2612ZM13.509 15.8262L13.4952 15.0263H13.4952L13.509 15.8262ZM15.7615 15.5162L16.0677 16.2553L16.0677 16.2553L15.7615 15.5162ZM16.3441 2.28066L15.9261 2.96277L16.3441 2.28066ZM17.7197 3.65625L18.4018 3.23825V3.23825L17.7197 3.65625ZM3.65658 2.28066L3.23858 1.59854V1.59854L3.65658 2.28066ZM2.28099 3.65625L1.59888 3.23825H1.59888L2.28099 3.65625ZM7.83599 16.0082L8.2382 15.3167L8.23819 15.3167L7.83599 16.0082ZM11.5943 18.2306L12.0461 17.4673L10.6692 16.6524L10.2174 17.4156L11.5943 18.2306ZM7.95456 17.4673L8.4063 18.2306L9.78319 17.4156L9.33144 16.6524L7.95456 17.4673ZM10.2174 17.4156C10.1738 17.4892 10.0977 17.5333 10.0003 17.5333C9.9029 17.5333 9.82679 17.4892 9.78319 17.4156L8.4063 18.2306C9.11871 19.4342 10.8819 19.4342 11.5943 18.2306L10.2174 17.4156ZM8.75033 2.46666H11.2503V0.866656H8.75033V2.46666ZM17.5337 8.74999V9.58332H19.1337V8.74999H17.5337ZM2.46699 9.58332V8.74999H0.866992V9.58332H2.46699ZM0.866992 9.58332C0.866992 10.5431 0.866559 11.303 0.908494 11.9176C0.950919 12.5394 1.03937 13.0707 1.24506 13.5673L2.72326 12.955C2.61179 12.6859 2.54165 12.349 2.50478 11.8087C2.46743 11.2612 2.46699 10.565 2.46699 9.58332H0.866992ZM6.50542 15.0263C5.45921 15.0083 4.94123 14.9411 4.54529 14.7771L3.933 16.2553C4.63757 16.5471 5.43181 16.6081 6.47786 16.6261L6.50542 15.0263ZM1.24506 13.5673C1.74914 14.7843 2.71603 15.7512 3.933 16.2553L4.54529 14.7771C3.72036 14.4354 3.06496 13.78 2.72326 12.955L1.24506 13.5673ZM17.5337 9.58332C17.5337 10.565 17.5332 11.2612 17.4959 11.8087C17.459 12.349 17.3889 12.6859 17.2774 12.955L18.7556 13.5673C18.9613 13.0707 19.0497 12.5394 19.0922 11.9176C19.1341 11.303 19.1337 10.5431 19.1337 9.58332H17.5337ZM13.5228 16.6261C14.5688 16.6081 15.3631 16.5471 16.0677 16.2553L15.4554 14.7771C15.0594 14.9411 14.5414 15.0083 13.4952 15.0263L13.5228 16.6261ZM17.2774 12.955C16.9357 13.78 16.2803 14.4354 15.4554 14.7771L16.0677 16.2553C17.2846 15.7512 18.2515 14.7843 18.7556 13.5673L17.2774 12.955ZM11.2503 2.46666C12.6297 2.46666 13.6081 2.4675 14.3687 2.53981C15.1173 2.611 15.5719 2.74574 15.9261 2.96277L16.7621 1.59854C16.1143 1.20157 15.3859 1.02932 14.5201 0.946998C13.6663 0.865812 12.5988 0.866656 11.2503 0.866656V2.46666ZM19.1337 8.74999C19.1337 7.40155 19.1345 6.33404 19.0533 5.48018C18.971 4.61441 18.7987 3.88605 18.4018 3.23825L17.0375 4.07424C17.2546 4.4284 17.3893 4.88298 17.4605 5.63163C17.5328 6.39218 17.5337 7.37057 17.5337 8.74999H19.1337ZM15.9261 2.96277C16.3791 3.24037 16.7599 3.62124 17.0375 4.07425L18.4018 3.23825C17.9922 2.56996 17.4304 2.00807 16.7621 1.59854L15.9261 2.96277ZM8.75033 0.866656C7.40189 0.866656 6.33438 0.865812 5.48052 0.946998C4.61475 1.02932 3.88638 1.20157 3.23858 1.59854L4.07458 2.96277C4.42873 2.74574 4.88331 2.611 5.63196 2.53981C6.39252 2.4675 7.37091 2.46666 8.75033 2.46666V0.866656ZM2.46699 8.74999C2.46699 7.37057 2.46784 6.39218 2.54015 5.63163C2.61133 4.88298 2.74608 4.4284 2.9631 4.07424L1.59888 3.23825C1.20191 3.88605 1.02965 4.61441 0.947334 5.48018C0.866148 6.33404 0.866992 7.40155 0.866992 8.74999H2.46699ZM3.23858 1.59854C2.57029 2.00807 2.00841 2.56995 1.59888 3.23825L2.9631 4.07424C3.2407 3.62124 3.62158 3.24037 4.07458 2.96277L3.23858 1.59854ZM9.33144 16.6524C9.16393 16.3694 9.01061 16.1087 8.86013 15.9022C8.69981 15.6822 8.50844 15.4738 8.2382 15.3167L7.43377 16.6997C7.44494 16.7062 7.48188 16.7277 7.56711 16.8446C7.66219 16.975 7.77167 17.1584 7.95456 17.4673L9.33144 16.6524ZM6.47786 16.6261C6.84702 16.6324 7.06927 16.6371 7.23597 16.6555C7.38783 16.6724 7.42524 16.6948 7.43378 16.6997L8.23819 15.3167C7.96532 15.1579 7.68487 15.0955 7.41206 15.0653C7.15409 15.0367 6.84488 15.0322 6.50542 15.0263L6.47786 16.6261ZM12.0461 17.4673C12.2289 17.1584 12.3384 16.975 12.4335 16.8446C12.5187 16.7277 12.5557 16.7062 12.5668 16.6997L11.7624 15.3167C11.4922 15.4738 11.3008 15.6822 11.1405 15.9022C10.99 16.1087 10.8367 16.3694 10.6692 16.6524L12.0461 17.4673ZM13.4952 15.0263C13.1557 15.0322 12.8465 15.0367 12.5886 15.0653C12.3158 15.0955 12.0353 15.1579 11.7624 15.3167L12.5668 16.6997C12.5754 16.6948 12.6128 16.6724 12.7646 16.6555C12.9313 16.6371 13.1536 16.6324 13.5228 16.6261L13.4952 15.0263Z" fill="white"/>
<path d="M6.66699 7.5H13.3337" stroke="white" stroke-width="1.6" stroke-linecap="round"/>
<path d="M6.66699 10.4167H11.2503" stroke="white" stroke-width="1.6" stroke-linecap="round"/>
</g>
<defs>
<clipPath id="clip0_306_14519">
<rect width="20" height="20" fill="white"/>
</clipPath>
</defs>
</svg>
