<svg width="24" height="24" viewBox="0 0 24 24" fill="none" xmlns="http://www.w3.org/2000/svg">
<path d="M20.5001 6H3.5" stroke="#8898AA" stroke-width="1.6" stroke-linecap="round"/>
<path d="M18.8337 8.5L18.3737 15.3991C18.1967 18.054 18.1082 19.3815 17.2432 20.1907C16.3782 21 15.0478 21 12.387 21H11.6136C8.95284 21 7.62244 21 6.75743 20.1907C5.89242 19.3815 5.80393 18.054 5.62693 15.3991L5.16699 8.5" stroke="#8898AA" stroke-width="1.6" stroke-linecap="round"/>
<path d="M9.5 11L10 16" stroke="#8898AA" stroke-width="1.6" stroke-linecap="round"/>
<path d="M14.5 11L14 16" stroke="#8898AA" stroke-width="1.6" stroke-linecap="round"/>
<path d="M15.4286 4.28571L16.1875 4.03273V4.03273L15.4286 4.28571ZM15.5257 4.57697L14.7667 4.82996L14.7667 4.82997L15.5257 4.57697ZM8.47434 4.57697L7.7154 4.32399L7.71539 4.32399L8.47434 4.57697ZM8.57143 4.28571L7.81248 4.03273L7.81248 4.03273L8.57143 4.28571ZM8.43922 4.68032L9.19151 4.95245L9.19151 4.95244L8.43922 4.68032ZM6.5 5.2C6.05817 5.2 5.7 5.55817 5.7 6C5.7 6.44183 6.05817 6.8 6.5 6.8V5.2ZM6.60915 5.99936L6.62941 6.7991L6.62942 6.7991L6.60915 5.99936ZM15.5608 4.68032L16.3131 4.40819L16.3131 4.40818L15.5608 4.68032ZM17.5 6.8C17.9418 6.8 18.3 6.44183 18.3 6C18.3 5.55817 17.9418 5.2 17.5 5.2V6.8ZM17.3909 5.99936L17.3706 6.7991L17.3706 6.7991L17.3909 5.99936ZM14.1554 3.01877L14.2815 2.22877L14.1554 3.01877ZM15.2493 3.8072L15.9588 3.43771L15.9588 3.43771L15.2493 3.8072ZM9.84461 3.01877L9.71846 2.22877L9.84461 3.01877ZM8.75071 3.8072L8.04116 3.43771L8.04115 3.43771L8.75071 3.8072ZM10.3553 3.8H13.6447V2.2H10.3553V3.8ZM14.6696 4.5387L14.7667 4.82996L16.2846 4.32399L16.1875 4.03273L14.6696 4.5387ZM9.23329 4.82996L9.33038 4.5387L7.81248 4.03273L7.7154 4.32399L9.23329 4.82996ZM7.71539 4.32399C7.69632 4.38122 7.69126 4.39621 7.68692 4.4082L9.19151 4.95244C9.20441 4.91678 9.21702 4.87875 9.23329 4.82996L7.71539 4.32399ZM6.5 6.8C6.55143 6.8 6.5915 6.80006 6.62941 6.7991L6.58888 5.19961C6.57614 5.19994 6.56033 5.2 6.5 5.2V6.8ZM7.68692 4.40819C7.51881 4.87295 7.08295 5.18709 6.58888 5.19962L6.62942 6.7991C7.78224 6.76989 8.79924 6.03687 9.19151 4.95245L7.68692 4.40819ZM14.7667 4.82997C14.7829 4.87864 14.7956 4.9168 14.8085 4.95246L16.3131 4.40818C16.3087 4.39622 16.3037 4.38119 16.2846 4.32398L14.7667 4.82997ZM17.5 5.2C17.4397 5.2 17.4239 5.19994 17.4111 5.19961L17.3706 6.7991C17.4085 6.80006 17.4486 6.8 17.5 6.8V5.2ZM14.8085 4.95245C15.2008 6.03687 16.2178 6.76989 17.3706 6.7991L17.4111 5.19962C16.9171 5.18709 16.4812 4.87295 16.3131 4.40819L14.8085 4.95245ZM13.6447 3.8C13.9348 3.8 13.9896 3.80242 14.0292 3.80876L14.2815 2.22877C14.0862 2.19758 13.8788 2.2 13.6447 2.2V3.8ZM16.1875 4.03273C16.1135 3.81063 16.0502 3.6132 15.9588 3.43771L14.5397 4.17669C14.5583 4.21231 14.5779 4.26352 14.6696 4.5387L16.1875 4.03273ZM14.0292 3.80876C14.248 3.8437 14.4374 3.98017 14.5397 4.17669L15.9588 3.43771C15.6226 2.79198 15.0005 2.34358 14.2815 2.22877L14.0292 3.80876ZM10.3553 2.2C10.1211 2.2 9.91384 2.19758 9.71846 2.22877L9.97076 3.80876C10.0104 3.80242 10.0652 3.8 10.3553 3.8V2.2ZM9.33037 4.5387C9.4221 4.26352 9.44173 4.21231 9.46027 4.17669L8.04115 3.43771C7.94977 3.6132 7.88651 3.81064 7.81248 4.03273L9.33037 4.5387ZM9.71846 2.22877C8.99953 2.34358 8.37741 2.79198 8.04116 3.43771L9.46027 4.17669C9.56261 3.98017 9.75195 3.8437 9.97076 3.80876L9.71846 2.22877Z" fill="#8898AA"/>
</svg>
