<svg width="24" height="24" viewBox="0 0 24 24" fill="none" xmlns="http://www.w3.org/2000/svg">
<path d="M17.3009 2.80624L16.7705 2.27591V2.27591L17.3009 2.80624ZM21.1938 6.69914L21.7241 7.22947L21.1938 6.69914ZM8.03811 15.0229L7.3266 14.7857L8.03811 15.0229ZM8.99089 12.1646L9.7024 12.4017L8.99089 12.1646ZM10.6872 9.41993L11.2175 9.95026L10.6872 9.41993ZM11.8354 15.0091L11.5983 14.2976L11.5983 14.2976L11.8354 15.0091ZM8.97709 15.9619L8.73992 15.2504H8.73992L8.97709 15.9619ZM13.7513 14.0926L13.2901 13.5012L13.2901 13.5012L13.7513 14.0926ZM12.9035 14.6166L12.5808 13.9395L12.5808 13.9395L12.9035 14.6166ZM9.38344 11.0965L8.7064 10.7739L8.7064 10.7739L9.38344 11.0965ZM9.90743 10.2487L10.4988 10.7099H10.4988L9.90743 10.2487ZM10.1 15.5876L10.3372 16.2991H10.3372L10.1 15.5876ZM17.1824 3.98539L17.8312 3.33657L16.7705 2.27591L16.1217 2.92473L17.1824 3.98539ZM20.6634 6.16881L20.0146 6.81762L21.0753 7.87828L21.7241 7.22947L20.6634 6.16881ZM16.652 3.45506C15.9033 3.4991 15.9034 3.49941 15.9034 3.49972C15.9034 3.49984 15.9034 3.50015 15.9034 3.50038C15.9034 3.50082 15.9035 3.50129 15.9035 3.50178C15.9036 3.50277 15.9036 3.50383 15.9037 3.50499C15.9039 3.50729 15.904 3.50995 15.9043 3.51294C15.9047 3.51892 15.9053 3.52625 15.906 3.53489C15.9075 3.55217 15.9096 3.5747 15.9128 3.60209C15.9191 3.65683 15.9292 3.73119 15.9455 3.82199C15.9781 4.00331 16.0354 4.25212 16.1361 4.54232C16.3375 5.12276 16.7151 5.8764 17.4193 6.58065L18.48 5.51999C17.9677 5.00771 17.6965 4.46372 17.5532 4.05066C17.4816 3.84411 17.4426 3.67221 17.4219 3.557C17.4116 3.49954 17.4059 3.45668 17.403 3.43127C17.4016 3.41858 17.4008 3.4103 17.4005 3.40679C17.4004 3.40504 17.4003 3.40448 17.4004 3.40517C17.4004 3.40551 17.4004 3.40617 17.4005 3.40714C17.4005 3.40763 17.4006 3.40819 17.4006 3.40884C17.4006 3.40916 17.4007 3.40951 17.4007 3.40987C17.4007 3.41005 17.4007 3.41034 17.4007 3.41043C17.4007 3.41072 17.4008 3.41102 16.652 3.45506ZM17.4193 6.58065C18.1236 7.2849 18.8772 7.66253 19.4577 7.8639C19.7479 7.96459 19.9967 8.02193 20.178 8.05448C20.2688 8.07078 20.3432 8.08094 20.3979 8.08721C20.4253 8.09035 20.4478 8.09253 20.4651 8.09401C20.4738 8.09475 20.4811 8.09532 20.4871 8.09575C20.4901 8.09596 20.4927 8.09614 20.495 8.09629C20.4962 8.09637 20.4972 8.09644 20.4982 8.0965C20.4987 8.09653 20.4992 8.09656 20.4996 8.09658C20.4998 8.0966 20.5002 8.09662 20.5003 8.09662C20.5006 8.09664 20.5009 8.09666 20.5449 7.34795C20.589 6.59925 20.5893 6.59927 20.5896 6.59928C20.5897 6.59929 20.5899 6.59931 20.5901 6.59932C20.5905 6.59934 20.5908 6.59936 20.5912 6.59938C20.5918 6.59942 20.5924 6.59946 20.5929 6.59949C20.5938 6.59955 20.5945 6.5996 20.5948 6.59962C20.5955 6.59967 20.595 6.59964 20.5932 6.59949C20.5897 6.59919 20.5814 6.59843 20.5687 6.59697C20.5433 6.59406 20.5005 6.58838 20.443 6.57807C20.3278 6.55739 20.1559 6.51843 19.9493 6.44677C19.5363 6.30346 18.9923 6.03227 18.48 5.51999L17.4193 6.58065ZM11.2175 9.95026L17.1824 3.98539L16.1217 2.92473L10.1568 8.8896L11.2175 9.95026ZM20.0146 6.81762L14.0497 12.7825L15.1104 13.8432L21.0753 7.87828L20.0146 6.81762ZM14.0497 12.7825C13.6332 13.199 13.468 13.3624 13.2901 13.5012L14.2126 14.684C14.4801 14.4753 14.7189 14.2347 15.1104 13.8432L14.0497 12.7825ZM12.0726 15.7206C12.5979 15.5455 12.9199 15.4395 13.2261 15.2936L12.5808 13.9395C12.377 14.0366 12.1571 14.1113 11.5983 14.2976L12.0726 15.7206ZM13.2901 13.5012C13.0703 13.6726 12.8324 13.8196 12.5808 13.9395L13.2261 15.2936C13.5761 15.1268 13.9069 14.9224 14.2126 14.684L13.2901 13.5012ZM8.74777 15.2522C8.74983 15.2543 8.75055 15.2573 8.74963 15.2601L7.3266 14.7857C7.14785 15.322 7.28742 15.9132 7.68711 16.3129L8.74777 15.2522ZM9.7024 12.4017C9.88868 11.8429 9.96337 11.623 10.0605 11.4192L8.7064 10.7739C8.56046 11.0801 8.45447 11.4021 8.27938 11.9274L9.7024 12.4017ZM10.1568 8.8896C9.76533 9.28111 9.52467 9.51994 9.31605 9.78742L10.4988 10.7099C10.6376 10.532 10.801 10.3668 11.2175 9.95026L10.1568 8.8896ZM10.0605 11.4192C10.1804 11.1676 10.3274 10.9297 10.4988 10.7099L9.31605 9.78742C9.07761 10.0931 8.87319 10.4239 8.7064 10.7739L10.0605 11.4192ZM7.68711 16.3129C8.0868 16.7126 8.67801 16.8521 9.21426 16.6734L8.73992 15.2504C8.74268 15.2495 8.74572 15.2502 8.74777 15.2522L7.68711 16.3129ZM20.6634 3.33657C21.4455 4.11867 21.4455 5.38671 20.6634 6.16881L21.7241 7.22947C23.092 5.86158 23.092 3.6438 21.7241 2.27591L20.6634 3.33657ZM21.7241 2.27591C20.3562 0.908028 18.1384 0.908028 16.7705 2.27591L17.8312 3.33657C18.6133 2.55448 19.8813 2.55448 20.6634 3.33657L21.7241 2.27591ZM11.5983 14.2976L9.86283 14.8761L10.3372 16.2991L12.0726 15.7206L11.5983 14.2976ZM9.86283 14.8761L8.73992 15.2504L9.21426 16.6734L10.3372 16.2991L9.86283 14.8761ZM8.74963 15.2601L9.12393 14.1372L7.70091 13.6628L7.3266 14.7857L8.74963 15.2601ZM9.12393 14.1372L9.7024 12.4017L8.27938 11.9274L7.70091 13.6628L9.12393 14.1372ZM10.6303 15.0573L8.94275 13.3697L7.88209 14.4303L9.56967 16.1179L10.6303 15.0573Z" fill="#8898AA"/>
<path d="M22.75 12C22.75 11.5858 22.4142 11.25 22 11.25C21.5858 11.25 21.25 11.5858 21.25 12H22.75ZM12 2.75C12.4142 2.75 12.75 2.41421 12.75 2C12.75 1.58579 12.4142 1.25 12 1.25V2.75ZM12 21.25C6.89137 21.25 2.75 17.1086 2.75 12H1.25C1.25 17.9371 6.06294 22.75 12 22.75V21.25ZM21.25 12C21.25 17.1086 17.1086 21.25 12 21.25V22.75C17.9371 22.75 22.75 17.9371 22.75 12H21.25ZM12 1.25C6.06294 1.25 1.25 6.06294 1.25 12H2.75C2.75 6.89137 6.89137 2.75 12 2.75V1.25Z" fill="#8898AA"/>
</svg>
