<svg width="80" height="80" viewBox="0 0 80 80" fill="none" xmlns="http://www.w3.org/2000/svg">
<g clip-path="url(#clip0_420_16131)">
<rect width="80" height="80" fill="#EDF1F5"/>
<path d="M54.5983 25.7788C48.3393 21.2574 41.5034 25.8947 40.2343 26.8511C40.1189 26.9381 39.9458 26.9091 39.8304 26.8221C34.1771 21.3154 22.1493 23.0544 20.5918 31.8941C19.1208 40.1543 28.9853 46.6754 35.5039 50.2693C39.3978 52.414 39.6862 54.8196 39.4843 56.0948C39.4555 56.2977 39.7439 56.4136 39.8593 56.2398C41.2438 54.2979 41.6187 51.6315 41.5322 49.5447C41.4168 45.7769 37.2922 46.3856 36.1962 45.603C35.2155 44.9074 36.0519 43.1105 36.2538 42.7627C36.2827 42.7337 36.2827 42.6758 36.2538 42.6468C35.7923 41.9512 36.2827 41.3136 36.4269 41.1397C36.4557 41.1107 36.4557 41.0817 36.4269 41.0527C36.1096 40.3282 36.4557 40.1253 36.6865 39.8354C36.9172 39.5456 37.2634 39.3138 36.9172 38.937C36.6 38.5602 36.1385 38.1834 36.3981 37.6907C36.5711 37.3139 37.6383 37.0821 38.2441 36.5024C38.1864 36.4734 38.1287 36.4445 38.071 36.4155C37.9845 36.3575 37.8979 36.2995 37.8402 36.2126C37.7825 36.1256 37.7249 36.0677 37.6672 35.9807C37.7249 36.0677 37.7825 36.1256 37.8691 36.1836C37.9556 36.2416 38.0133 36.2995 38.0998 36.3285C38.1864 36.3575 38.2729 36.3865 38.3594 36.3865C38.5036 36.2126 38.619 36.0097 38.6479 35.7778C38.8209 34.4156 39.1382 32.7057 40.0035 31.2275C40.8688 29.7494 41.8783 28.735 43.8109 32.9375C45.3684 36.3575 47.5894 37.4878 48.397 37.8066C48.57 37.8646 48.6277 38.0675 48.57 38.2124C46.2914 44.2698 47.9643 48.6752 48.6277 50.0374C48.7431 50.2693 49.0315 50.3852 49.2911 50.2403C54.656 47.284 57.3673 42.7048 57.3673 42.7048C59.9344 39.0529 61.5208 30.7638 54.5983 25.7788Z" fill="#8898AA"/>
</g>
<defs>
<clipPath id="clip0_420_16131">
<rect width="80" height="80" rx="8" fill="white"/>
</clipPath>
</defs>
</svg>
