<svg width="128" height="128" viewBox="0 0 128 128" fill="none" xmlns="http://www.w3.org/2000/svg">
<path d="M65.9727 115.155C94.1389 115.155 116.974 92.3205 116.974 64.0537C116.974 35.7869 94.1389 12.9521 65.9727 12.9521C37.8064 12.9521 14.9717 35.7869 14.9717 64.0537C14.9717 92.3205 37.8064 115.155 65.9727 115.155Z" fill="#F1F3F9" stroke="#D6DCE8" stroke-width="2" stroke-miterlimit="10"/>
<path d="M28.4506 36.994H100.979C103.896 36.994 106.109 39.2071 106.109 42.1243V88.0956C106.109 91.0128 103.896 93.2259 100.979 93.2259H28.4506C25.5334 93.2259 23.3203 91.0128 23.3203 88.0956V42.1243C23.3203 39.2071 25.7346 36.994 28.4506 36.994Z" fill="#F1F3F9" stroke="#D6DCE8" stroke-width="2" stroke-miterlimit="10"/>
<path d="M92.2055 42.1208L92.822 91.7517C92.822 93.4472 91.4348 94.7573 89.7393 94.7573H41.3415C39.646 94.7573 38.2588 93.3701 38.2588 91.7517V27.9405C38.2588 26.2451 39.646 24.9349 41.3415 24.9349H76.4068L92.2055 42.1208Z" fill="white" stroke="#D6DCE8" stroke-width="2" stroke-miterlimit="10"/>
<path d="M69.6247 35.3387H46.4277C45.8882 35.3387 45.4258 34.8763 45.4258 34.3368C45.4258 33.7974 45.8882 33.335 46.4277 33.335H69.6247C70.1642 33.335 70.6266 33.7974 70.6266 34.3368C70.6266 34.8763 70.1642 35.3387 69.6247 35.3387Z" fill="#D6DCE8"/>
<path d="M55.3674 40.8878H46.4277C45.8882 40.8878 45.4258 40.4254 45.4258 39.8859C45.4258 39.3464 45.8882 38.884 46.4277 38.884H55.2903C55.8298 38.884 56.2922 39.3464 56.2922 39.8859C56.2922 40.4254 55.8298 40.8878 55.3674 40.8878Z" fill="#D6DCE8"/>
<path d="M76.4062 24.9348V38.6527C76.4062 40.5793 78.1017 42.1207 80.0284 42.1207H92.2049" fill="#D6DCE8"/>
<path d="M85.7484 52.6068H77.3385H75.254H46.7178C46.3584 52.6068 45.999 52.967 45.999 53.4712C45.999 53.9034 46.2865 54.3356 46.7178 54.3356H75.254H77.3385H85.6765C86.1797 54.3356 86.4672 53.9754 86.4672 53.4712C86.4672 53.039 86.1797 52.6068 85.7484 52.6068Z" fill="#D6DCE8"/>
<path d="M107.517 66.4678V89.1014C107.517 92.0186 105.204 94.4328 102.186 94.4328H27.6459C24.7287 94.4328 22.3145 92.0186 22.3145 89.1014V64.5565" stroke="#1676EE" stroke-width="3" stroke-linecap="round" stroke-linejoin="round"/>
<path d="M101.18 53.7932H77.6415C75.3279 53.7932 73.1148 54.598 71.4047 56.0063L65.2685 61.036C63.5584 62.4443 61.3454 63.249 59.0317 63.249H32.475C29.759 63.249 27.5459 65.4621 27.5459 68.1781C27.5459 68.3793 27.5459 68.6811 27.6465 68.8823L32.5756 94.8354C32.978 97.2497 34.9898 99.0604 37.5047 99.0604H94.3401C96.7543 99.0604 98.8668 97.3503 99.2692 94.936L106.11 59.4265C106.613 56.7104 104.802 54.2962 102.086 53.7932C101.683 53.7932 101.382 53.7932 101.18 53.7932Z" fill="white"/>
<path d="M111.743 46.8519H81.1622C78.1444 46.8519 75.3278 47.8579 73.0142 49.7692L64.9667 56.3077C62.7536 58.1184 59.8364 59.225 56.8186 59.225H22.2144C18.6936 59.225 15.877 62.1422 15.877 65.5624C15.877 65.8641 15.877 66.1659 15.9775 66.4677L22.3149 100.368C22.8179 103.587 25.5339 105.9 28.6523 105.9H102.689C105.908 105.9 108.524 103.687 109.027 100.468L117.98 54.0947C118.583 50.5739 116.269 47.4555 112.749 46.7513C112.447 46.8519 112.044 46.8519 111.743 46.8519Z" fill="white" stroke="#D6DCE8" stroke-width="2" stroke-miterlimit="10"/>
<path d="M118.016 43.4469C119.94 43.4469 121.5 41.8872 121.5 39.9632C121.5 38.0392 119.94 36.4795 118.016 36.4795C116.092 36.4795 114.532 38.0392 114.532 39.9632C114.532 41.8872 116.092 43.4469 118.016 43.4469Z" fill="#F1F3F9"/>
<path d="M114.532 32.1459C115.846 32.1459 116.912 31.0808 116.912 29.7668C116.912 28.4529 115.846 27.3877 114.532 27.3877C113.218 27.3877 112.153 28.4529 112.153 29.7668C112.153 31.0808 113.218 32.1459 114.532 32.1459Z" fill="#F1F3F9"/>
<path d="M15.6291 39.9632C16.9431 39.9632 18.0083 38.898 18.0083 37.5841C18.0083 36.2701 16.9431 35.205 15.6291 35.205C14.3152 35.205 13.25 36.2701 13.25 37.5841C13.25 38.898 14.3152 39.9632 15.6291 39.9632Z" fill="#F1F3F9"/>
<path d="M10.2758 92.3039C12.716 92.3039 14.6942 90.3257 14.6942 87.8855C14.6942 85.4453 12.716 83.4672 10.2758 83.4672C7.8356 83.4672 5.85742 85.4453 5.85742 87.8855C5.85742 90.3257 7.8356 92.3039 10.2758 92.3039Z" fill="#F1F3F9"/>
<path d="M110.723 112.535L95.9443 97.7856C80.3444 109.258 58.9561 98.0724 58.9561 79.3483C58.9561 66.6061 69.3423 56.2812 82.0686 56.2812C100.46 56.2812 111.749 76.931 101.035 92.5412L115.896 107.373C117.333 108.807 117.333 111.101 115.896 112.535C114.459 113.969 112.16 113.969 110.723 112.535ZM82.0686 63.6152C73.3654 63.6152 66.2634 70.7033 66.2634 79.3893C66.2634 93.3606 83.0128 100.08 92.619 91.1072C103.498 80.9462 96.2316 63.6152 82.0686 63.6152Z" fill="#D6DCE8" stroke="#AAB2C5" stroke-width="2" stroke-miterlimit="10"/>
<path d="M80.4675 82.8308C80.4265 82.503 80.3854 82.1752 80.3854 81.8065C80.3854 80.4544 80.9602 79.2253 82.397 78.16L83.6286 77.2586C84.4086 76.685 84.737 76.0295 84.737 75.251C84.737 74.1038 83.9159 72.9976 82.1917 72.9976C80.3854 72.9976 79.6054 74.4316 79.6054 75.8656C79.6054 76.1524 79.6465 76.4392 79.6875 76.685L76.4855 76.5621C76.4034 76.1934 76.3623 75.7836 76.3623 75.4149C76.3623 72.6698 78.4149 70.0476 82.1507 70.0476C86.0917 70.0476 88.1443 72.5059 88.1443 75.0871C88.1443 77.0947 87.118 78.4878 85.6401 79.553L84.6138 80.2905C83.7107 80.9051 83.2591 81.7245 83.2591 82.7488V82.9127H80.4675V82.8308ZM81.9044 84.4696C83.0128 84.4696 83.9159 85.371 83.9159 86.4772C83.9159 87.5835 83.0128 88.4849 81.9044 88.4849C80.796 88.4849 79.8928 87.5835 79.8928 86.4772C79.8928 85.371 80.796 84.4696 81.9044 84.4696Z" fill="#989FB0"/>
</svg>
