<svg width="21" height="20" viewBox="0 0 21 20" fill="none" xmlns="http://www.w3.org/2000/svg">
<path d="M12.167 5H8.83366C7.70376 5 6.77699 5 6.00795 5.04537C4.63798 5.1262 3.7686 5.35101 3.1433 5.97631C2.16699 6.95262 2.16699 8.52397 2.16699 11.6667C2.16699 14.8094 2.16699 16.3807 3.1433 17.357C4.11961 18.3333 5.69096 18.3333 8.83366 18.3333H12.167C15.3097 18.3333 16.881 18.3333 17.8573 17.357C18.8337 16.3807 18.8337 14.8094 18.8337 11.6667C18.8337 8.52397 18.8337 6.95262 17.8573 5.97631C17.2321 5.35101 16.3627 5.1262 14.9927 5.04537C14.2237 5 13.2969 5 12.167 5Z" stroke="white" stroke-width="1.6" stroke-linecap="round"/>
<path d="M6.00781 5.04537C6.69402 5.02798 7.29937 4.54576 7.53287 3.90027C7.54005 3.88041 7.54741 3.85832 7.56214 3.81415L7.58352 3.75C7.61868 3.64453 7.63626 3.59178 7.65507 3.545C7.89523 2.9476 8.45801 2.54197 9.1007 2.50305C9.15103 2.5 9.20662 2.5 9.3178 2.5H11.6826C11.7938 2.5 11.8493 2.5 11.8997 2.50305C12.5424 2.54197 13.1051 2.9476 13.3453 3.545C13.3641 3.59178 13.3817 3.64452 13.4169 3.75L13.4382 3.81415C13.4529 3.85826 13.4603 3.88042 13.4675 3.90027C13.701 4.54576 14.3064 5.02798 14.9926 5.04537" stroke="white" stroke-width="1.6" stroke-linecap="round"/>
<path d="M18.5511 7.26645C16.0429 8.89678 14.7888 9.71194 13.4667 10.1227C11.5342 10.7231 9.46509 10.7231 7.53262 10.1227C6.21054 9.71194 4.95644 8.89678 2.44824 7.26645" stroke="white" stroke-width="1.6" stroke-linecap="round"/>
<path d="M7.16699 9.16666V10.8333" stroke="white" stroke-width="1.6" stroke-linecap="round"/>
<path d="M13.833 9.16666V10.8333" stroke="white" stroke-width="1.6" stroke-linecap="round"/>
</svg>
