<svg width="151" height="32" viewBox="0 0 151 32" fill="none" xmlns="http://www.w3.org/2000/svg">
<path d="M62.1638 18.5675H58.5067L57.4566 15.2363H52.0978L51.0477 18.5675H47.3906L52.8581 3.57709H56.8773L62.1638 18.5675ZM56.6601 12.6293L55.0669 7.59625C54.9582 7.23417 54.8496 6.76345 54.8134 6.25653H54.741C54.7048 6.69104 54.6324 7.12554 54.4875 7.56005L52.8581 12.6293H56.6601Z" fill="#F8F9FA"/>
<path d="M73.5321 7.84975L69.1871 19.4003C68.137 22.1884 66.58 23.5643 64.4799 23.5643C63.6833 23.5643 63.0316 23.4557 62.4884 23.2747V20.6314C62.9229 20.8849 63.3937 21.0297 63.9368 21.0297C64.7696 21.0297 65.3851 20.6314 65.711 19.8348L66.2904 18.4951L61.9453 7.81354H65.6024L67.5939 14.3311C67.7025 14.7294 67.8111 15.2001 67.8835 15.7795H67.9197C67.9922 15.3812 68.1008 14.9104 68.2818 14.3673L70.3095 7.84975H73.5321Z" fill="#F8F9FA"/>
<path d="M79.8694 18.821C78.0952 18.821 76.683 18.3141 75.6692 17.3364C74.6554 16.3226 74.1484 14.9829 74.1484 13.2811C74.1484 11.5068 74.6916 10.1309 75.7416 9.11706C76.7917 8.10322 78.24 7.63251 80.0505 7.63251C81.8247 7.63251 83.2368 8.13943 84.2144 9.11706C85.2283 10.1309 85.7352 11.4344 85.7352 13.1C85.7352 14.8742 85.2283 16.2864 84.1782 17.3002C83.092 18.3141 81.6798 18.821 79.8694 18.821ZM79.9418 10.1309C79.1452 10.1309 78.5659 10.3844 78.1314 10.9275C77.6969 11.4706 77.4796 12.231 77.4796 13.2086C77.4796 15.2725 78.3124 16.2864 79.978 16.2864C81.5712 16.2864 82.3678 15.2363 82.3678 13.1362C82.3316 11.1085 81.535 10.1309 79.9418 10.1309Z" fill="#F8F9FA"/>
<path d="M91.1309 18.5675H87.8359V2.70813H91.1309V18.5675Z" fill="#F8F9FA"/>
<path d="M105.07 12.5568C105.07 16.7571 103.224 18.8209 99.5667 18.8209C96.0544 18.8209 94.3164 16.7933 94.3164 12.7741V3.57709H95.6923V12.6655C95.6923 14.2949 96.0182 15.526 96.67 16.3588C97.3217 17.1916 98.3718 17.5899 99.7477 17.5899C102.355 17.5899 103.694 15.9967 103.694 12.8103V3.57709H105.07V12.5568Z" fill="#F8F9FA"/>
<path d="M115.68 18.0968C114.883 18.5675 113.905 18.821 112.783 18.821C112.022 18.821 111.335 18.7124 110.719 18.4227C110.103 18.133 109.596 17.771 109.162 17.3002C108.727 16.8295 108.402 16.2502 108.184 15.5984C107.967 14.9467 107.822 14.2225 107.822 13.4621C107.822 12.6655 107.931 11.9051 108.184 11.181C108.438 10.4568 108.8 9.84125 109.234 9.33433C109.669 8.82741 110.284 8.39291 110.936 8.06703C111.624 7.77736 112.385 7.59631 113.254 7.59631C114.123 7.59631 114.955 7.77736 115.68 8.10324V9.51538C114.883 9.00845 114.05 8.75499 113.145 8.75499C112.493 8.75499 111.95 8.86362 111.443 9.11708C110.936 9.37054 110.538 9.69642 110.212 10.0947C109.886 10.493 109.633 10.9999 109.452 11.5431C109.271 12.0862 109.198 12.7017 109.198 13.3173C109.198 13.8966 109.271 14.4398 109.415 14.9467C109.56 15.4536 109.778 15.9243 110.103 16.3226C110.429 16.7209 110.791 17.0468 111.262 17.264C111.733 17.4813 112.276 17.6261 112.928 17.6261C113.942 17.6261 114.847 17.3365 115.643 16.7209V18.0968H115.68Z" fill="#F8F9FA"/>
<path d="M125.456 18.5675V12.2672C125.456 11.0723 125.238 10.2033 124.804 9.62399C124.369 9.04465 123.681 8.75498 122.776 8.75498C122.342 8.75498 121.943 8.8274 121.545 9.00845C121.147 9.18949 120.821 9.44295 120.531 9.76883C120.241 10.0947 119.988 10.493 119.843 10.9637C119.662 11.4344 119.59 11.9776 119.59 12.5569V18.5313H118.25V2.70813H119.59V9.69641H119.626C120.459 8.28427 121.654 7.59631 123.211 7.59631C124.405 7.59631 125.311 7.95839 125.89 8.68257C126.506 9.40674 126.795 10.493 126.795 11.9051V18.5313H125.456V18.5675Z" fill="#F8F9FA"/>
<path d="M137.006 18.5675V16.7571H136.97C136.246 18.133 135.123 18.821 133.603 18.821C131.068 18.821 129.801 17.264 129.801 14.15V7.84973H131.141V13.8966C131.141 15.1639 131.358 16.1415 131.828 16.7571C132.299 17.3726 132.987 17.6623 133.929 17.6623C134.399 17.6623 134.798 17.5899 135.196 17.4088C135.558 17.2278 135.92 16.9743 136.174 16.6484C136.463 16.3226 136.68 15.9243 136.825 15.4898C136.97 15.0553 137.043 14.5483 137.043 13.969V7.84973H138.382V18.5675H137.006Z" fill="#F8F9FA"/>
<path d="M149.029 18.5676V12.4121C149.029 9.98609 148.16 8.7912 146.386 8.7912C145.915 8.7912 145.48 8.89983 145.082 9.08087C144.684 9.26191 144.358 9.51537 144.068 9.84125C143.779 10.1671 143.561 10.5654 143.38 10.9999C143.199 11.4344 143.127 11.9414 143.127 12.4483V18.5676H141.787V7.84977H143.127V9.69642H143.163C143.96 8.28428 145.155 7.59631 146.748 7.59631C147.906 7.59631 148.812 7.9584 149.427 8.71878C150.043 9.47917 150.332 10.5654 150.332 12.0138V18.5313H149.029V18.5676Z" fill="#F8F9FA"/>
<path d="M79.0986 27.8207H78.6081V27.3303C78.3629 27.7227 78.0687 27.9188 77.6273 27.9188C77.3331 27.9188 77.0388 27.8207 76.8917 27.6736C76.6955 27.5265 76.6465 27.2813 76.6465 26.987C76.6465 26.3985 76.9898 26.0553 77.6764 25.9572L78.6081 25.81C78.6081 25.2706 78.412 24.9763 77.9706 24.9763C77.5783 24.9763 77.235 25.1235 76.9407 25.3687V24.8292C77.235 24.6331 77.6273 24.535 78.0196 24.535C78.7553 24.535 79.1476 24.9273 79.1476 25.712V27.8207H79.0986ZM78.5591 26.2024L77.7744 26.3005C77.5292 26.3495 77.3821 26.3985 77.235 26.4966C77.1369 26.5947 77.0388 26.7418 77.0388 26.938C77.0388 27.0851 77.0879 27.2322 77.1859 27.3303C77.284 27.4284 77.4311 27.4774 77.6273 27.4774C77.8725 27.4774 78.0687 27.3794 78.2648 27.2322C78.412 27.0361 78.5101 26.8399 78.5101 26.5457V26.2024H78.5591Z" fill="#F8F9FA"/>
<path d="M82.5814 24.633L81.1101 28.3111C80.8649 28.9486 80.4726 29.2919 80.0312 29.2919C79.8841 29.2919 79.786 29.2919 79.6879 29.2429V28.8015C79.786 28.8505 79.8841 28.8505 79.9822 28.8505C80.2274 28.8505 80.4235 28.7034 80.5707 28.4092L80.8159 27.8207L79.5898 24.633H80.1783L81.0611 27.0851C81.0611 27.1341 81.1101 27.1831 81.1101 27.3303C81.1101 27.2812 81.1592 27.1831 81.1592 27.0851L82.0419 24.633H82.5814Z" fill="#F8F9FA"/>
<path d="M84.4443 27.8698C83.9539 27.8698 83.6106 27.7227 83.3164 27.4284C83.0221 27.1342 82.875 26.7418 82.875 26.2514C82.875 25.712 83.0221 25.3196 83.3164 24.9763C83.6106 24.6821 84.0029 24.535 84.4934 24.535C84.9838 24.535 85.3271 24.6821 85.6213 24.9763C85.9155 25.2706 86.0136 25.6629 86.0136 26.2024C86.0136 26.6928 85.8665 27.1342 85.5723 27.4284C85.278 27.7227 84.8857 27.8698 84.4443 27.8698ZM84.4443 24.9763C84.101 24.9763 83.8558 25.0744 83.6597 25.3196C83.4635 25.5648 83.3654 25.8591 83.3654 26.2514C83.3654 26.6437 83.4635 26.938 83.6597 27.1342C83.8558 27.3303 84.101 27.4775 84.4443 27.4775C84.7876 27.4775 85.0328 27.3794 85.229 27.1342C85.4251 26.938 85.4742 26.5947 85.4742 26.2024C85.4742 25.8101 85.3761 25.5158 85.229 25.2706C85.0328 25.0744 84.7876 24.9763 84.4443 24.9763Z" fill="#F8F9FA"/>
<path d="M87.3381 27.8207H86.8477V23.1127H87.3381V27.8207Z" fill="#F8F9FA"/>
<path d="M88.8576 27.8207H88.3672V23.1127H88.8576V27.8207Z" fill="#F8F9FA"/>
<path d="M92.1923 27.8207H91.7019V27.3303C91.4567 27.7227 91.1624 27.9188 90.7211 27.9188C90.4268 27.9188 90.1326 27.8207 89.9854 27.6736C89.7893 27.5265 89.7402 27.2813 89.7402 26.987C89.7402 26.3985 90.0835 26.0553 90.7701 25.9572L91.7019 25.81C91.7019 25.2706 91.5057 24.9763 91.0643 24.9763C90.672 24.9763 90.3287 25.1235 90.0345 25.3687V24.8292C90.3287 24.6331 90.7211 24.535 91.1134 24.535C91.849 24.535 92.2413 24.9273 92.2413 25.712V27.8207H92.1923ZM91.7019 26.2024L90.9172 26.3005C90.672 26.3495 90.5249 26.3985 90.3778 26.4966C90.2797 26.5947 90.1816 26.7418 90.1816 26.938C90.1816 27.0851 90.2306 27.2322 90.3287 27.3303C90.4268 27.4284 90.5739 27.4774 90.7701 27.4774C91.0153 27.4774 91.2115 27.3794 91.4076 27.2322C91.5548 27.0361 91.6528 26.8399 91.6528 26.5457V26.2024H91.7019Z" fill="#F8F9FA"/>
<path d="M94.841 25.1234C94.7429 25.0744 94.6448 25.0254 94.4487 25.0254C94.2525 25.0254 94.0564 25.1234 93.9092 25.3196C93.7621 25.5158 93.7131 25.81 93.7131 26.1533V27.7717H93.2227V24.584H93.7131V25.2215C93.7621 24.9763 93.9092 24.8292 94.0564 24.6821C94.2035 24.5349 94.3506 24.4859 94.5468 24.4859C94.6939 24.4859 94.792 24.4859 94.841 24.5349V25.1234Z" fill="#F8F9FA"/>
<path d="M99.6968 27.8207H99.2064V27.3303C99.0103 27.7226 98.667 27.9188 98.2256 27.9188C97.49 27.9188 97.0977 27.4774 97.0977 26.5456V24.633H97.5881V26.4475C97.5881 27.1341 97.8333 27.4774 98.3727 27.4774C98.6179 27.4774 98.8141 27.3793 99.0103 27.1831C99.1574 26.987 99.2555 26.7418 99.2555 26.4475V24.633H99.7459V27.8207H99.6968Z" fill="#F8F9FA"/>
<path d="M102.884 27.6736C102.638 27.8208 102.344 27.9189 102.001 27.9189C101.559 27.9189 101.167 27.7717 100.922 27.4775C100.628 27.1832 100.48 26.7909 100.48 26.3495C100.48 25.8101 100.628 25.4177 100.922 25.0745C101.216 24.7312 101.608 24.584 102.148 24.584C102.442 24.584 102.687 24.6331 102.884 24.7312V25.2706C102.638 25.1235 102.393 25.0254 102.148 25.0254C101.805 25.0254 101.559 25.1235 101.363 25.3687C101.167 25.6139 101.069 25.9082 101.069 26.3005C101.069 26.6928 101.167 26.9871 101.363 27.1832C101.559 27.3794 101.805 27.5265 102.148 27.5265C102.442 27.5265 102.687 27.4284 102.933 27.2323V27.6736H102.884Z" fill="#F8F9FA"/>
<path d="M106.318 27.8207H105.828V26.0062C105.828 25.3196 105.582 25.0254 105.092 25.0254C104.847 25.0254 104.651 25.1235 104.454 25.3196C104.307 25.5158 104.209 25.761 104.209 26.0552V27.8698H103.719V23.1618H104.209V25.2215C104.454 24.8292 104.798 24.633 105.239 24.633C105.975 24.633 106.318 25.0744 106.318 25.9081V27.8207Z" fill="#F8F9FA"/>
<path d="M109.847 27.8207H109.357V27.3303C109.161 27.7226 108.817 27.9188 108.376 27.9188C107.64 27.9188 107.248 27.4774 107.248 26.5456V24.633H107.738V26.4475C107.738 27.1341 107.984 27.4774 108.523 27.4774C108.768 27.4774 108.964 27.3793 109.161 27.1831C109.308 26.987 109.406 26.7418 109.406 26.4475V24.633H109.896V27.8207H109.847Z" fill="#F8F9FA"/>
<path d="M113.525 27.8208H113.035V26.0062C113.035 25.3197 112.789 24.9764 112.299 24.9764C112.054 24.9764 111.809 25.0745 111.661 25.2706C111.514 25.4668 111.416 25.712 111.416 26.0062V27.8208H110.926V24.6331H111.416V25.1725C111.661 24.7802 112.005 24.584 112.446 24.584C112.789 24.584 113.084 24.6821 113.231 24.9273C113.378 25.1725 113.525 25.4668 113.525 25.9082V27.8208Z" fill="#F8F9FA"/>
<path d="M120.734 27.8207H120.244V26.0062C120.244 25.6629 120.195 25.4177 120.096 25.2216C119.998 25.0254 119.802 24.9763 119.557 24.9763C119.361 24.9763 119.165 25.0744 119.018 25.2706C118.87 25.4668 118.772 25.712 118.772 26.0062V27.8207H118.282V25.9081C118.282 25.2706 118.037 24.9763 117.546 24.9763C117.301 24.9763 117.154 25.0744 117.007 25.2706C116.86 25.4668 116.811 25.712 116.811 26.0062V27.8207H116.32V24.6331H116.811V25.1235C117.056 24.7311 117.35 24.535 117.792 24.535C117.988 24.535 118.184 24.584 118.38 24.7311C118.527 24.8292 118.674 25.0254 118.723 25.2216C118.969 24.7802 119.312 24.584 119.802 24.584C120.489 24.584 120.832 25.0254 120.832 25.8591V27.8207H120.734Z" fill="#F8F9FA"/>
<path d="M124.02 27.8207H123.53V27.3303C123.285 27.7227 122.991 27.9188 122.549 27.9188C122.255 27.9188 121.961 27.8207 121.814 27.6736C121.617 27.5265 121.568 27.2813 121.568 26.987C121.568 26.3985 121.912 26.0553 122.598 25.9572L123.53 25.81C123.53 25.2706 123.334 24.9763 122.892 24.9763C122.5 24.9763 122.157 25.1235 121.863 25.3687V24.8292C122.157 24.6331 122.549 24.535 122.942 24.535C123.677 24.535 124.069 24.9273 124.069 25.712V27.8207H124.02ZM123.481 26.2024L122.696 26.3005C122.451 26.3495 122.304 26.3985 122.157 26.4966C122.059 26.5947 121.961 26.7418 121.961 26.938C121.961 27.0851 122.01 27.2322 122.108 27.3303C122.206 27.4284 122.353 27.4774 122.549 27.4774C122.794 27.4774 122.991 27.3794 123.187 27.2322C123.334 27.0361 123.432 26.8399 123.432 26.5457V26.2024H123.481Z" fill="#F8F9FA"/>
<path d="M127.307 24.633L126.228 26.2514L127.258 27.8207H126.67L126.032 26.7908C125.983 26.7418 125.934 26.6437 125.885 26.5456C125.885 26.5456 125.836 26.6437 125.738 26.7908L125.1 27.8207H124.512L125.591 26.2514L124.561 24.633H125.149L125.787 25.7119C125.836 25.81 125.885 25.859 125.934 25.9571L126.719 24.633H127.307Z" fill="#F8F9FA"/>
<path d="M127.699 27.6736V27.1342C127.993 27.3303 128.288 27.4284 128.631 27.4284C129.072 27.4284 129.318 27.2813 129.318 26.987C129.318 26.889 129.318 26.8399 129.269 26.7909C129.219 26.7418 129.17 26.6928 129.121 26.6437C129.072 26.5947 128.974 26.5457 128.876 26.4966C128.778 26.4476 128.68 26.3985 128.582 26.3985C128.435 26.3495 128.337 26.3005 128.19 26.2514C128.043 26.2024 127.993 26.1533 127.944 26.0553C127.895 26.0062 127.797 25.9081 127.797 25.81C127.748 25.712 127.748 25.6139 127.748 25.4668C127.748 25.3196 127.797 25.1725 127.846 25.0744C127.895 24.9763 127.993 24.8783 128.141 24.7802C128.239 24.6821 128.386 24.6331 128.533 24.584C128.68 24.535 128.827 24.535 128.974 24.535C129.269 24.535 129.514 24.584 129.71 24.6821V25.2216C129.465 25.0744 129.219 24.9763 128.925 24.9763C128.827 24.9763 128.729 24.9763 128.68 25.0254C128.582 25.0254 128.533 25.0744 128.484 25.1235C128.435 25.1725 128.386 25.2216 128.337 25.2706C128.288 25.3196 128.288 25.3687 128.288 25.4668C128.288 25.5648 128.288 25.6139 128.337 25.6629C128.386 25.712 128.435 25.761 128.484 25.81C128.533 25.8591 128.631 25.9081 128.68 25.9081C128.778 25.9572 128.876 26.0062 128.974 26.0062C129.121 26.0553 129.219 26.1043 129.367 26.1533C129.514 26.2024 129.563 26.2514 129.661 26.3495C129.759 26.3985 129.808 26.4966 129.857 26.5947C129.906 26.6928 129.906 26.7909 129.906 26.938C129.906 27.0851 129.857 27.2322 129.808 27.3303C129.759 27.4284 129.661 27.5265 129.514 27.6246C129.367 27.7227 129.269 27.7717 129.121 27.7717C128.974 27.8207 128.827 27.8207 128.631 27.8207C128.239 27.8698 127.944 27.8207 127.699 27.6736Z" fill="#F8F9FA"/>
<path d="M133.191 27.8207H132.701V27.3303C132.504 27.7226 132.161 27.9188 131.72 27.9188C130.984 27.9188 130.592 27.4774 130.592 26.5456V24.633H131.082V26.4475C131.082 27.1341 131.327 27.4774 131.867 27.4774C132.112 27.4774 132.308 27.3793 132.504 27.1831C132.652 26.987 132.75 26.7418 132.75 26.4475V24.633H133.24V27.8207H133.191Z" fill="#F8F9FA"/>
<path d="M134.023 27.6736V27.1342C134.318 27.3303 134.612 27.4284 134.955 27.4284C135.397 27.4284 135.642 27.2813 135.642 26.987C135.642 26.889 135.642 26.8399 135.593 26.7909C135.544 26.7418 135.495 26.6928 135.446 26.6437C135.397 26.5947 135.299 26.5457 135.2 26.4966C135.102 26.4476 135.004 26.3985 134.906 26.3985C134.759 26.3495 134.661 26.3005 134.514 26.2514C134.367 26.2024 134.318 26.1533 134.269 26.0553C134.22 26.0062 134.122 25.9081 134.122 25.81C134.072 25.712 134.072 25.6139 134.072 25.4668C134.072 25.3196 134.122 25.1725 134.171 25.0744C134.22 24.9763 134.318 24.8783 134.465 24.7802C134.563 24.6821 134.71 24.6331 134.857 24.584C135.004 24.535 135.151 24.535 135.299 24.535C135.593 24.535 135.838 24.584 136.034 24.6821V25.2216C135.789 25.0744 135.544 24.9763 135.249 24.9763C135.151 24.9763 135.053 24.9763 135.004 25.0254C134.906 25.0254 134.857 25.0744 134.808 25.1235C134.759 25.1725 134.71 25.2216 134.661 25.2706C134.612 25.3196 134.612 25.3687 134.612 25.4668C134.612 25.5648 134.612 25.6139 134.661 25.6629C134.71 25.712 134.759 25.761 134.808 25.81C134.857 25.8591 134.955 25.9081 135.004 25.9081C135.102 25.9572 135.2 26.0062 135.299 26.0062C135.446 26.0553 135.544 26.1043 135.691 26.1533C135.838 26.2024 135.887 26.2514 135.985 26.3495C136.083 26.3985 136.132 26.4966 136.181 26.5947C136.23 26.6928 136.23 26.7909 136.23 26.938C136.23 27.0851 136.181 27.2322 136.132 27.3303C136.083 27.4284 135.985 27.5265 135.838 27.6246C135.691 27.7227 135.593 27.7717 135.446 27.7717C135.299 27.8207 135.151 27.8207 134.955 27.8207C134.514 27.8698 134.269 27.8207 134.023 27.6736Z" fill="#F8F9FA"/>
<path d="M139.174 27.3303V27.7717H138.684V23.0637H139.174V25.1725C139.419 24.7311 139.812 24.535 140.253 24.535C140.645 24.535 140.989 24.6821 141.234 24.9763C141.479 25.2706 141.577 25.6629 141.577 26.1043C141.577 26.6437 141.43 27.0851 141.185 27.3794C140.94 27.7226 140.547 27.8698 140.106 27.8698C139.713 27.8698 139.37 27.6736 139.174 27.3303ZM139.174 26.0552V26.4966C139.174 26.7418 139.272 26.987 139.419 27.1832C139.566 27.3794 139.812 27.4774 140.057 27.4774C140.351 27.4774 140.596 27.3794 140.792 27.1341C140.989 26.8889 141.038 26.5457 141.038 26.1533C141.038 25.81 140.939 25.5158 140.792 25.3196C140.645 25.1235 140.4 25.0254 140.106 25.0254C139.812 25.0254 139.566 25.1235 139.37 25.3196C139.174 25.5158 139.174 25.761 139.174 26.0552Z" fill="#F8F9FA"/>
<path d="M142.901 27.8207H142.41V23.1127H142.901V27.8207Z" fill="#F8F9FA"/>
<path d="M145.255 27.8698C144.764 27.8698 144.421 27.7227 144.127 27.4284C143.833 27.1342 143.686 26.7418 143.686 26.2514C143.686 25.712 143.833 25.3196 144.127 24.9763C144.421 24.6821 144.814 24.535 145.304 24.535C145.794 24.535 146.138 24.6821 146.432 24.9763C146.726 25.2706 146.824 25.6629 146.824 26.2024C146.824 26.6928 146.677 27.1342 146.383 27.4284C146.089 27.7227 145.745 27.8698 145.255 27.8698ZM145.304 24.9763C144.961 24.9763 144.715 25.0744 144.519 25.3196C144.323 25.5648 144.225 25.8591 144.225 26.2514C144.225 26.6437 144.323 26.938 144.519 27.1342C144.715 27.3303 144.961 27.4775 145.304 27.4775C145.647 27.4775 145.892 27.3794 146.089 27.1342C146.285 26.938 146.334 26.5947 146.334 26.2024C146.334 25.8101 146.236 25.5158 146.089 25.2706C145.892 25.0744 145.647 24.9763 145.304 24.9763Z" fill="#F8F9FA"/>
<path d="M150.405 27.5265C150.405 28.7034 149.866 29.2919 148.738 29.2919C148.345 29.2919 148.002 29.1939 147.708 29.0467V28.5563C148.051 28.7525 148.394 28.8506 148.738 28.8506C149.522 28.8506 149.915 28.4582 149.915 27.5755V27.2322C149.67 27.6245 149.326 27.8207 148.836 27.8207C148.443 27.8207 148.1 27.6736 147.855 27.3793C147.61 27.0851 147.512 26.6928 147.512 26.2514C147.512 25.7119 147.659 25.2706 147.904 24.9763C148.149 24.633 148.542 24.4859 148.983 24.4859C149.424 24.4859 149.719 24.6821 149.915 25.0254V24.584H150.405V27.5265ZM149.866 26.3495V25.8591C149.866 25.6138 149.768 25.3686 149.62 25.2215C149.473 25.0254 149.228 24.9273 148.983 24.9273C148.689 24.9273 148.444 25.0254 148.247 25.2706C148.051 25.5158 148.002 25.81 148.002 26.2514C148.002 26.5947 148.1 26.8889 148.247 27.0851C148.394 27.2812 148.64 27.4284 148.934 27.4284C149.228 27.4284 149.473 27.3303 149.62 27.1341C149.817 26.938 149.866 26.6928 149.866 26.3495Z" fill="#F8F9FA"/>
<path d="M34.2303 2.06163C28.066 -2.36978 21.3337 2.17525 20.0838 3.11267C19.9702 3.19789 19.7997 3.16948 19.6861 3.08426C14.1184 -2.31297 2.27293 -0.608582 0.738975 8.0554C-0.709758 16.1512 9.00527 22.5427 15.4251 26.0651C19.26 28.1672 19.5441 30.5249 19.3452 31.7748C19.3168 31.9737 19.6009 32.0873 19.7145 31.9168C21.078 30.0136 21.4473 27.4002 21.3621 25.3549C21.2485 21.6621 17.1863 22.2586 16.1069 21.4917C15.1411 20.8099 15.9649 19.0487 16.1637 18.7078C16.1921 18.6794 16.1921 18.6226 16.1637 18.5942C15.7092 17.9124 16.1921 17.2875 16.3341 17.1171C16.3626 17.0887 16.3626 17.0603 16.3341 17.0318C16.0217 16.3217 16.3626 16.1228 16.5898 15.8388C16.8171 15.5547 17.1579 15.3275 16.8171 14.9582C16.5046 14.5889 16.0501 14.2196 16.3057 13.7367C16.4762 13.3674 17.5272 13.1402 18.1238 12.572C18.067 12.5436 18.0101 12.5152 17.9533 12.4868C17.8681 12.43 17.7829 12.3732 17.7261 12.288C17.6693 12.2027 17.6124 12.1459 17.5556 12.0607C17.6124 12.1459 17.6693 12.2027 17.7545 12.2596C17.8397 12.3164 17.8965 12.3732 17.9817 12.4016C18.067 12.43 18.1522 12.4584 18.2374 12.4584C18.3794 12.288 18.493 12.0891 18.5215 11.8619C18.6919 10.5268 19.0044 8.85078 19.8566 7.40205C20.7087 5.95332 21.703 4.95909 23.6062 9.07803C25.1402 12.43 27.3275 13.5379 28.1229 13.8503C28.2933 13.9071 28.3501 14.106 28.2933 14.248C26.0492 20.185 27.6968 24.5028 28.3501 25.8379C28.4637 26.0651 28.7478 26.1787 29.0035 26.0367C34.2871 23.1392 36.9573 18.651 36.9573 18.651C39.4855 15.0718 41.0478 6.94754 34.2303 2.06163Z" fill="#F8F9FA"/>
</svg>
