<svg width="97" height="19" viewBox="0 0 97 19" fill="none" xmlns="http://www.w3.org/2000/svg">
<path d="M11.8036 4.55033C6.96183 3.39206 3.57819 6.14452 1.49691 3.04957C1.49068 3.0371 1.48445 3.03087 1.47822 3.01842C1.42214 2.93124 1.49691 2.8067 1.59661 2.8316C5.8838 3.85288 6.58172 3.21769 8.38259 3.43564C10.0463 3.63492 11.8036 4.55033 11.8036 4.55033Z" fill="white"/>
<path d="M12.6564 5.32866C8.39406 4.69971 5.37184 7.88184 3.09115 5.43453C3.08492 5.42831 3.07869 5.41586 3.06622 5.40963C3.00391 5.34113 3.04753 5.21658 3.141 5.22281C7.03563 5.50926 7.95163 4.82426 9.55318 4.75576C11.0486 4.69349 12.6564 5.32866 12.6564 5.32866Z" fill="white"/>
<path d="M13.4477 6.33136C9.72746 5.82696 8.1323 9.16476 5.1163 7.12222C5.11007 7.116 5.10384 7.10977 5.09138 7.09732C5.02907 7.04127 5.04776 6.87937 5.135 6.87937C8.4314 6.8856 9.29133 6.11963 10.681 5.9515C12.5629 5.72731 13.4477 6.33136 13.4477 6.33136Z" fill="white"/>
<path d="M15.125 7.4335C13.1808 7.639 13.4862 9.19581 11.3551 8.84709C11.0747 8.80349 11.137 8.60422 11.2616 8.56686C13.05 8.05622 13.05 7.71372 13.6919 7.4584C14.3025 7.228 15.125 7.4335 15.125 7.4335Z" fill="white"/>
<path d="M14.2441 6.95392C11.44 7.00997 10.7235 9.02137 8.36174 8.36751C8.0003 8.26786 8.12494 7.99386 8.31812 7.96896C11.0226 7.53928 11.1533 7.14074 12.1566 6.90409C13.0975 6.67992 14.2441 6.95392 14.2441 6.95392Z" fill="white"/>
<path d="M12.6439 4.54407C12.6251 4.5752 12.5816 4.58143 12.5504 4.56898C11.9709 4.23893 11.4288 3.85284 10.8057 3.42939C10.2199 3.03707 8.96117 2.50152 6.34399 2.62607C5.09771 2.68834 3.20337 2.94366 1.24671 1.6048C0.773124 1.2872 0.293305 0.745432 0.0440488 0.241032C0.0191249 0.197435 0.00666311 0.141387 0.000432137 0.0853386C-0.00579884 0.0292903 0.0565105 -0.0142895 0.112606 0.00438762C4.9544 1.9473 6.33776 1.18758 9.38491 1.89125C10.6374 2.18394 12.189 4.0023 12.6377 4.45688C12.6626 4.47557 12.6626 4.51293 12.6439 4.54407Z" fill="white"/>
<path d="M16.856 15.1926C16.7998 15.3668 16.8123 15.5724 16.7002 15.7219C16.563 15.9212 16.2266 15.9399 16.0645 15.7592C15.9586 15.6659 15.9586 15.5164 15.9212 15.398C15.6783 14.3332 15.4414 13.2682 15.2046 12.1972C15.1798 12.1225 15.2046 12.0726 15.2794 12.0416C15.3979 12.0104 15.4103 12.1412 15.4476 12.216C15.7155 12.9446 15.9648 13.6793 16.239 14.4079C16.3262 14.6571 16.6192 14.576 16.8123 14.6384C17.0179 14.769 16.8933 15.0119 16.856 15.1926Z" fill="white"/>
<path d="M17.1745 12.2533C17.1996 12.3219 17.1621 12.4028 17.0874 12.4152C17.0438 12.4214 17.0063 12.4152 16.9939 12.3529C16.8131 11.9917 16.6573 11.6119 16.4704 11.2508C16.2275 11.0452 15.9719 10.8335 15.8225 10.5408C15.5545 10.0675 15.5793 9.45103 15.8785 8.99644C15.9033 8.96529 15.922 8.92794 15.9471 8.89679C15.9907 8.83454 16.0841 8.84699 16.109 8.92171C16.1277 8.97776 16.1401 9.03379 16.1652 9.08362C16.5016 10.136 16.8257 11.2009 17.1745 12.2533Z" fill="white"/>
<path d="M17.2249 7.24047C17.2124 7.5207 17.1066 7.78224 17.0379 8.05002C17.0316 8.06869 17.0255 8.08115 17.0068 8.08737C16.9632 8.10607 16.9196 8.07492 16.9196 8.03134C16.9258 7.66392 17.0567 7.30275 16.9632 6.94155C16.8262 6.44961 16.4896 6.01993 16.4647 5.49684C16.4521 5.22284 16.5207 4.95507 16.5769 4.68729C16.3774 4.27007 16.2839 3.79056 16.3898 3.33598C16.4085 3.27993 16.4148 3.27993 16.446 3.32351C16.6392 3.60375 16.8946 3.88397 16.8946 4.25138C16.8697 4.77447 16.583 5.29756 16.7763 5.82066C16.9321 6.2877 17.2685 6.7236 17.2249 7.24047Z" fill="white"/>
<path d="M18.8683 5.43447C18.8559 6.11946 18.2577 6.66746 18.3263 7.36492C18.3263 7.6327 18.3947 7.90669 18.3636 8.17447C18.32 8.4111 18.052 8.44847 17.8589 8.50451C17.7468 8.55434 17.6221 8.42356 17.6533 8.31147C17.6533 7.50192 17.6533 6.68615 17.6533 5.87661C17.6657 5.54034 17.7468 5.18537 17.9773 4.93006C18.1206 4.76192 18.2701 4.59379 18.4259 4.42565C18.457 4.38828 18.4757 4.3447 18.4696 4.3011C18.457 4.15165 18.4259 4.02088 18.4945 3.8465C18.6004 3.62855 18.7376 3.49778 18.8808 3.35456C18.9058 3.32965 18.9431 3.3421 18.9494 3.37323C19.0491 3.81538 18.9494 4.29487 18.7437 4.69342C18.7936 4.93006 18.8683 5.17914 18.8683 5.43447Z" fill="white"/>
<path d="M26.7392 2.93126C25.8917 3.16789 25.4991 3.45434 25.1627 3.72211C25.1627 3.72211 25.9292 3.45434 27.032 3.33603C30.1603 2.99353 30.3409 4.15803 33.843 2.80671C33.9614 2.78803 33.9925 2.88144 33.9614 2.93126C33.494 3.7408 32.9768 4.63752 31.0202 4.71847C28.8891 4.80567 27.7799 3.95253 25.7795 4.20785C24.5022 4.36975 23.8416 4.7683 23.4739 5.01117C27.8359 4.1767 27.4745 6.09471 31.7492 5.07344C31.7991 5.06097 31.8553 5.04852 31.9051 5.05475C32.0172 5.0672 32.0609 5.20422 31.9923 5.27894C31.9611 5.31629 31.9176 5.35367 31.8864 5.39102C31.3256 5.99507 30.7335 6.65516 28.7394 6.50571C26.3965 6.33134 26.247 4.88039 21.7728 5.98884C26.1098 5.97016 26.0351 7.38998 29.3004 6.96653C29.4126 6.95408 29.481 7.09108 29.3938 7.1658C29.344 7.20938 29.2878 7.24675 29.2442 7.28412C28.752 7.6702 28.0353 8.14347 26.6893 7.86947C23.8852 7.28412 24.2405 6.12584 20.6325 6.76103C23.4428 6.83576 23.2497 7.92552 26.1348 8.1933C26.1348 8.1933 26.1348 8.1933 26.141 8.1933C26.2967 8.21197 26.3405 8.41747 26.2096 8.50467C26.1098 8.57316 25.9976 8.62297 25.8917 8.66657C23.7856 9.48234 22.8072 6.84198 20.2212 7.43358C22.0719 7.59548 21.9223 8.2182 23.5924 8.67279C23.773 8.72262 23.7545 8.96549 23.5549 8.98416C21.5735 9.18344 21.748 7.8508 20.5328 7.80098C20.2088 7.78852 19.9097 7.96289 19.7476 8.24934C19.2678 9.08379 19.4609 9.87466 19.4297 10.3044C19.5419 10.7527 19.7103 11.1887 19.7164 11.6618C19.7227 11.9919 19.6916 12.3344 19.5855 12.652C19.3862 13.312 19.1868 13.9723 18.9811 14.6386C18.9376 14.7755 18.9437 14.925 18.9936 15.0557C19.0683 15.2551 19.1432 15.4481 19.1744 15.6598C19.2491 16.0147 19.1992 16.3821 19.0746 16.7246C18.8129 17.366 18.5511 18.0074 18.2894 18.6551C18.2396 18.7734 18.2023 18.898 18.1149 18.9976C17.9842 19.0226 17.9966 18.8544 18.009 18.7734C18.2646 16.3759 18.5075 13.9784 18.7568 11.5809L18.9563 11.008C18.5637 11.3442 18.3892 11.8113 18.1337 12.2286C18.1025 12.3281 17.953 12.3468 17.9219 12.2348C17.9467 11.8175 18.0027 11.4004 18.0153 10.9831C18.0526 10.5597 18.0465 10.13 18.1898 9.72521C18.3517 9.31421 18.6633 8.98416 18.9064 8.62921C19.3051 8.11857 19.6042 7.53943 19.8099 6.92916C19.9345 6.55553 20.1964 6.22548 20.5328 6.01999C21.6981 5.28517 22.3772 4.64998 23.4802 3.81553C24.4959 3.04956 25.2811 2.45174 25.7298 2.27116C27.7799 1.43047 31.8988 2.33344 35.4258 0.0418052C35.513 -0.00801732 35.6252 0.091611 35.5567 0.234836C35.2264 1.0693 34.8339 1.60485 33.899 2.06567C31.2071 3.39208 28.1163 2.54516 26.7392 2.93126Z" fill="white"/>
<path d="M18.5645 4.36975C18.5645 4.36975 18.3338 3.96497 17.773 3.91515C17.3493 3.8778 17.1562 4.02102 17.1562 4.02102C17.1562 4.02102 17.6672 3.87157 18.066 4.22652C18.4648 4.58147 18.2467 4.88661 18.2467 4.88661C18.2467 4.88661 18.6828 4.63129 18.5645 4.36975Z" fill="white"/>
<path d="M18.5375 4.31357C18.5375 4.31357 18.2447 4.00221 17.6465 3.97729C17.6465 3.97729 18.0016 4.06447 18.0454 4.25752C18.1201 4.62494 17.7961 5.11689 17.7338 5.35353C17.6839 5.56525 18.5375 4.31357 18.5375 4.31357Z" fill="white"/>
<path d="M71.1674 12.5722C70.3564 12.7061 69.5353 12.7682 68.7135 12.7578C67.1723 12.7578 65.5195 11.7429 65.5195 8.90898V7.25041C65.5195 4.24556 67.2521 3.39095 68.8228 3.39095C69.6078 3.38394 70.3919 3.44182 71.1674 3.56398C71.2767 3.57665 71.3777 3.62518 71.3777 3.74968V4.36794C71.3777 4.45446 71.3293 4.49246 71.2178 4.49246H71.1695C70.4418 4.43125 69.8742 4.40592 68.8248 4.40592C67.6789 4.40592 66.6423 5.0242 66.6423 7.25041V8.90898C66.6423 10.9517 67.5676 11.7556 68.7155 11.7556C69.4663 11.7556 69.9772 11.7071 70.2673 11.6816V8.143C70.2648 8.11177 70.2685 8.08032 70.2786 8.05062C70.2884 8.02092 70.3044 7.99355 70.3252 7.97024C70.3462 7.94692 70.3715 7.92812 70.4 7.91503C70.4284 7.90192 70.459 7.89476 70.4902 7.89401H71.1569C71.2202 7.89727 71.2799 7.925 71.3234 7.97142C71.3669 8.01781 71.3908 8.07931 71.3903 8.143V12.3C71.3921 12.3648 71.3705 12.428 71.3297 12.4781C71.2886 12.5281 71.2309 12.5616 71.1674 12.5722Z" fill="#8898AA"/>
<path d="M75.9876 6.73132C75.4135 6.70847 74.8388 6.75024 74.2739 6.85582V12.4245C74.277 12.4849 74.2569 12.5441 74.2177 12.5899C74.1786 12.6359 74.1236 12.665 74.0636 12.6713H73.4223C73.3602 12.6681 73.302 12.6403 73.2601 12.5941C73.2184 12.5478 73.1966 12.4869 73.1995 12.4245V6.41057C73.203 6.34843 73.2254 6.28884 73.2631 6.23954C73.3011 6.19025 73.3529 6.15352 73.4118 6.13415C74.114 5.82396 74.9658 5.78809 75.9876 5.78809C76.1495 5.78809 76.2484 5.80074 76.2484 5.97377V6.54141C76.2484 6.67013 76.2232 6.73132 75.9876 6.73132Z" fill="#8898AA"/>
<path d="M80.0792 12.7577C78.2667 12.7577 77.3457 11.5572 77.3457 9.73818V8.79705C77.3457 6.97811 78.2708 5.77954 80.0792 5.77954C81.8875 5.77954 82.8128 6.97811 82.8128 8.79705V9.73818C82.8128 11.5572 81.8812 12.7577 80.0792 12.7577ZM81.7445 8.79705C81.7445 7.53096 81.2378 6.73122 80.0792 6.73122C78.9206 6.73122 78.4264 7.52464 78.4264 8.79705V9.73818C78.4264 11.0042 78.9206 11.8061 80.0792 11.8061C81.2378 11.8061 81.7445 11.0127 81.7445 9.73818V8.79705Z" fill="#8898AA"/>
<path d="M86.9261 12.7579H86.8085C85.9673 12.7579 84.2684 12.2873 84.2684 9.85018V6.1131C84.2657 6.08162 84.2696 6.04993 84.2798 6.02006C84.29 5.99017 84.3064 5.96275 84.3278 5.93953C84.3491 5.91632 84.375 5.89782 84.4039 5.88519C84.4329 5.87257 84.464 5.86611 84.4954 5.86621H85.1368C85.1678 5.86669 85.1986 5.87357 85.2269 5.88645C85.2553 5.89933 85.2807 5.91792 85.3016 5.94107C85.3226 5.96423 85.3384 5.99145 85.3485 6.02104C85.3585 6.05064 85.3623 6.08197 85.3597 6.1131V9.85018C85.3597 11.3273 85.9905 11.8062 86.8148 11.8062H86.9261C87.7504 11.8062 88.3812 11.3356 88.3812 9.85018V6.1131C88.3787 6.08214 88.3824 6.05098 88.3923 6.02153C88.4021 5.99208 88.4178 5.96496 88.4386 5.94184C88.4592 5.91872 88.4844 5.90007 88.5125 5.88708C88.5406 5.87407 88.571 5.86698 88.602 5.86621H89.2433C89.2745 5.86669 89.3051 5.87357 89.3336 5.88645C89.3618 5.89933 89.3873 5.91792 89.4083 5.94107C89.4291 5.96423 89.4451 5.99145 89.4551 6.02104C89.465 6.05064 89.4689 6.08197 89.4662 6.1131V9.85018C89.4662 12.2873 87.763 12.7579 86.9261 12.7579Z" fill="#8898AA"/>
<path d="M93.6703 12.7579C93.1866 12.7514 92.7043 12.7063 92.2278 12.6229V14.8617C92.2278 14.8926 92.2219 14.923 92.2101 14.9515C92.1984 14.9798 92.1812 15.0056 92.1595 15.0275C92.1378 15.0492 92.112 15.0665 92.0838 15.0782C92.0554 15.0899 92.0251 15.096 91.9944 15.096H91.3637C91.3335 15.0957 91.3037 15.0894 91.2762 15.0775C91.2486 15.0655 91.2237 15.048 91.2029 15.0261C91.182 15.0044 91.1658 14.9784 91.1553 14.9503C91.1445 14.9221 91.1396 14.8919 91.1408 14.8617V6.34521C91.1408 6.18485 91.1786 6.11099 91.3994 6.06246C92.1425 5.88164 92.9037 5.78609 93.6683 5.77759C95.5059 5.77759 96.3576 6.97614 96.3576 8.83308V9.72146C96.3597 11.6691 95.4701 12.7579 93.6703 12.7579ZM95.2725 8.83519C95.2725 7.53534 94.892 6.6955 93.6703 6.6955C93.187 6.69831 92.7047 6.73923 92.2278 6.81789V11.7177C92.7048 11.7962 93.187 11.8379 93.6703 11.8422C94.8794 11.8422 95.2725 11.0508 95.2725 9.73201V8.83519Z" fill="#8898AA"/>
<path d="M49.7064 12.6567C49.1512 12.7432 47.6035 12.8529 47.0674 12.8529C44.6872 12.8529 43.0723 12.2536 43.0723 9.25305V3.78355C43.0728 3.75186 43.0796 3.72061 43.0924 3.69161C43.1051 3.66262 43.1233 3.63644 43.1463 3.61464C43.1691 3.59283 43.1962 3.57581 43.2257 3.5646C43.2553 3.55339 43.2868 3.54819 43.3183 3.54931H45.3285C45.36 3.54791 45.3917 3.55289 45.4213 3.56401C45.4509 3.57512 45.4782 3.5921 45.5012 3.61396C45.524 3.63583 45.5424 3.66212 45.555 3.69125C45.5675 3.72039 45.5742 3.75178 45.5745 3.78355V9.25305C45.5745 10.3672 45.9446 10.7302 46.8214 10.7302C47.2172 10.7289 47.6125 10.7035 48.0053 10.6542V3.78355C48.0055 3.75178 48.0121 3.72039 48.0247 3.69125C48.0373 3.66212 48.0557 3.63583 48.0787 3.61396C48.1016 3.5921 48.1287 3.57512 48.1583 3.56401C48.188 3.55289 48.2196 3.54791 48.2513 3.54931H50.2488C50.314 3.54643 50.3775 3.5694 50.426 3.61322C50.4744 3.65705 50.5036 3.71824 50.5074 3.78355V11.703C50.5074 12.3951 50.2971 12.5701 49.7064 12.6567Z" fill="white"/>
<path d="M54.38 12.7432H52.3572C52.2925 12.7416 52.231 12.7147 52.1857 12.668C52.1406 12.6215 52.1152 12.5591 52.1152 12.4943V3.78353C52.1159 3.75221 52.1226 3.72132 52.135 3.6926C52.1474 3.66388 52.1655 3.6379 52.1879 3.61615C52.2104 3.5944 52.2368 3.5773 52.2659 3.56583C52.2948 3.55437 52.326 3.54875 52.3572 3.54931H54.38C54.4115 3.54789 54.4432 3.55287 54.4728 3.56398C54.5024 3.5751 54.5296 3.59209 54.5525 3.61396C54.5754 3.63581 54.5938 3.6621 54.6064 3.69125C54.619 3.72037 54.6257 3.75177 54.626 3.78353V12.4943C54.6262 12.5269 54.62 12.5591 54.6078 12.5893C54.5955 12.6195 54.5775 12.647 54.5547 12.6702C54.5317 12.6933 54.5046 12.7116 54.4745 12.7242C54.4445 12.7367 54.4123 12.7432 54.38 12.7432Z" fill="white"/>
<path d="M61.5296 12.6313C60.9687 12.7918 60.3866 12.8666 59.8033 12.8528C57.5345 12.8528 56.0059 11.6163 56.0059 8.7824V7.51631C56.0059 4.67393 57.5345 3.43739 59.8033 3.43739C60.3866 3.42482 60.9683 3.4995 61.5296 3.65896C61.7273 3.72227 61.801 3.75813 61.801 3.93118V5.51589C61.801 5.67625 61.7273 5.75011 61.5908 5.75011H61.5528C60.9797 5.68292 60.4035 5.6463 59.8265 5.64039C59.16 5.64039 58.5648 5.93582 58.5648 7.50786V8.77395C58.5648 10.3333 59.1578 10.6435 59.8265 10.6435C60.4035 10.637 60.9797 10.5997 61.5528 10.5317H61.5759C61.7232 10.5317 61.7862 10.6056 61.7862 10.7659V12.359C61.801 12.5195 61.7273 12.5701 61.5296 12.6313Z" fill="white"/>
</svg>
