<svg width="24" height="24" viewBox="0 0 24 24" fill="none" xmlns="http://www.w3.org/2000/svg">
    <path d="M4.01207 15.7618L5.70156 10.6933C6.46758 8.39525 6.85059 7.24623 7.75684 7.03229C8.6631 6.81835 9.51953 7.67478 11.2324 9.38764L14.6114 12.7666C16.3242 14.4795 17.1807 15.3359 16.9667 16.2422C16.7528 17.1484 15.6038 17.5314 13.3057 18.2975L8.23724 19.987C5.47183 20.9088 4.08912 21.3697 3.35924 20.6398C2.62936 19.9099 3.09026 18.5272 4.01207 15.7618Z" stroke="#F5365C" stroke-width="1.6" stroke-linecap="round"/>
    <path d="M12.2356 18.3462C12.2356 18.3462 11.4774 16.0651 11.4774 14.5554C11.4774 13.0456 12.2356 10.7645 12.2356 10.7645M8.06566 19.4835C8.06566 19.4835 7.42533 16.7316 7.30749 14.9345C7.11278 11.9652 8.06566 7.35272 8.06566 7.35272" stroke="#F5365C" stroke-width="1.5" stroke-linecap="round"/>
    <path d="M14.5098 10.0061L14.6538 9.28614C14.7991 8.55924 15.3229 7.96597 16.0261 7.73155C16.7294 7.49714 17.2531 6.90387 17.3985 6.17697L17.5425 5.45703" stroke="#F5365C" stroke-width="1.5" stroke-linecap="round"/>
    <path d="M17.5693 13.2533L17.7822 13.3762C18.4393 13.7556 19.2655 13.6719 19.8332 13.1685C20.3473 12.7126 21.0794 12.597 21.709 12.8723L22.0005 12.9997" stroke="#F5365C" stroke-width="1.5" stroke-linecap="round"/>
    <path d="M9.79538 2.77918C9.45789 3.33124 9.54247 4.04262 10 4.50015L10.0979 4.59803C10.491 4.99119 10.636 5.56877 10.4751 6.101" stroke="#F5365C" stroke-width="1.5" stroke-linecap="round"/>
    <path d="M6.92761 3.94079C7.13708 3.73132 7.47669 3.73132 7.68616 3.94079C7.89563 4.15026 7.89563 4.48988 7.68616 4.69935C7.47669 4.90882 7.13708 4.90882 6.92761 4.69935C6.71814 4.48988 6.71814 4.15026 6.92761 3.94079Z" fill="#F5365C"/>
    <path d="M12.1571 7.1571C12.3666 6.94763 12.7062 6.94763 12.9157 7.1571C13.1251 7.36657 13.1251 7.70619 12.9157 7.91566C12.7062 8.12512 12.3666 8.12512 12.1571 7.91566C11.9476 7.70619 11.9476 7.36657 12.1571 7.1571Z" fill="#F5365C"/>
    <path d="M17.1571 10.1571C17.3666 9.94763 17.7062 9.94763 17.9157 10.1571C18.1251 10.3666 18.1251 10.7062 17.9157 10.9157C17.7062 11.1251 17.3666 11.1251 17.1571 10.9157C16.9476 10.7062 16.9476 10.3666 17.1571 10.1571Z" fill="#F5365C"/>
    <path d="M19.0585 15.3134C19.2679 15.1039 19.6076 15.1039 19.817 15.3134C20.0265 15.5228 20.0265 15.8624 19.817 16.0719C19.6076 16.2814 19.2679 16.2814 19.0585 16.0719C18.849 15.8624 18.849 15.5228 19.0585 15.3134Z" fill="#F5365C"/>
    <path d="M19.3613 7.71421C18.691 8.38447 19.172 10.3279 19.172 10.3279C19.172 10.3279 21.1154 10.8089 21.7856 10.1386C22.4955 9.42869 22.0938 8.49693 21 8.49985C21.0029 7.406 20.0712 7.00432 19.3613 7.71421Z" stroke="#F5365C" stroke-linejoin="round"/>
    <path d="M15.1886 3.41742L15.161 3.51453C15.1307 3.6212 15.1155 3.67453 15.1227 3.72689C15.1299 3.77925 15.1586 3.8247 15.2159 3.91561L15.2681 3.99838C15.47 4.31829 15.5709 4.47825 15.5022 4.60909C15.4334 4.73992 15.2405 4.75498 14.8547 4.7851L14.7548 4.7929C14.6452 4.80146 14.5904 4.80574 14.5424 4.83093C14.4945 4.85612 14.4589 4.89937 14.3877 4.98586L14.3229 5.06461C14.0723 5.36899 13.947 5.52118 13.804 5.50161C13.6611 5.48204 13.5952 5.30367 13.4634 4.94693L13.4293 4.85463C13.3919 4.75326 13.3731 4.70257 13.3363 4.66578C13.2995 4.62899 13.2489 4.61027 13.1475 4.57281L13.0552 4.53871C12.6985 4.40691 12.5201 4.34101 12.5005 4.19809C12.4809 4.05516 12.6331 3.92986 12.9375 3.67926L13.0163 3.61442C13.1028 3.54321 13.146 3.5076 13.1712 3.45968C13.1964 3.41175 13.2007 3.35693 13.2092 3.24729L13.217 3.14747C13.2471 2.76163 13.2622 2.56871 13.393 2.49995C13.5239 2.43118 13.6838 2.53211 14.0037 2.73397L14.0865 2.7862C14.1774 2.84356 14.2229 2.87224 14.2752 2.87941C14.3276 2.88658 14.3809 2.87142 14.4876 2.84111L14.5847 2.81352C14.9601 2.70686 15.1477 2.65353 15.2482 2.75396C15.3486 2.85439 15.2953 3.04207 15.1886 3.41742Z" stroke="#F5365C"/>
</svg>
