<svg width="132" height="28" viewBox="0 0 132 28" fill="none" xmlns="http://www.w3.org/2000/svg">
    <path d="M53.8738 16.2465H50.6738L49.755 13.3317H45.066L44.1472 16.2465H40.9473L45.7313 3.12994H49.2481L53.8738 16.2465ZM49.058 11.0506L47.664 6.64671C47.5689 6.32988 47.4739 5.91801 47.4422 5.47445H47.3788C47.3472 5.85465 47.2838 6.23484 47.1571 6.61503L45.7313 11.0506H49.058Z" fill="#333333"/>
    <path d="M63.822 6.86848L60.0201 16.9752C59.1013 19.4148 57.739 20.6187 55.9014 20.6187C55.2044 20.6187 54.6341 20.5237 54.1588 20.3653V18.0524C54.539 18.2742 54.9509 18.401 55.4261 18.401C56.1548 18.401 56.6934 18.0524 56.9786 17.3554L57.4855 16.1832L53.6836 6.8368H56.8835L58.6261 12.5397C58.7211 12.8882 58.8162 13.3001 58.8795 13.807H58.9112C58.9746 13.4585 59.0696 13.0466 59.228 12.5714L61.0023 6.86848H63.822Z" fill="#333333"/>
    <path d="M69.3662 16.4683C67.8138 16.4683 66.5781 16.0248 65.691 15.1693C64.8039 14.2822 64.3604 13.11 64.3604 11.6209C64.3604 10.0684 64.8356 8.8645 65.7544 7.97738C66.6732 7.09027 67.9405 6.6784 69.5246 6.6784C71.0771 6.6784 72.3127 7.12195 73.1681 7.97738C74.0552 8.8645 74.4988 10.0051 74.4988 11.4625C74.4988 13.0149 74.0552 14.2505 73.1364 15.1377C72.186 16.0248 70.9503 16.4683 69.3662 16.4683ZM69.4296 8.8645C68.7325 8.8645 68.2256 9.08628 67.8454 9.56151C67.4652 10.0368 67.2751 10.7021 67.2751 11.5575C67.2751 13.3634 68.0038 14.2505 69.4612 14.2505C70.8553 14.2505 71.5523 13.3317 71.5523 11.4942C71.5206 9.71993 70.8236 8.8645 69.4296 8.8645Z" fill="#333333"/>
    <path d="M79.22 16.2465H76.3369V2.36956H79.22V16.2465Z" fill="#333333"/>
    <path d="M91.4175 10.9872C91.4175 14.6624 89.8017 16.4683 86.6018 16.4683C83.5286 16.4683 82.0078 14.6941 82.0078 11.1773V3.12994H83.2117V11.0823C83.2117 12.508 83.4969 13.5852 84.0672 14.3139C84.6375 15.0426 85.5563 15.3911 86.7602 15.3911C89.0414 15.3911 90.2136 13.9971 90.2136 11.209V3.12994H91.4175V10.9872Z" fill="#333333"/>
    <path d="M100.7 15.8347C100.003 16.2466 99.1479 16.4683 98.1657 16.4683C97.5004 16.4683 96.8984 16.3733 96.3598 16.1198C95.8212 15.8664 95.3776 15.5495 94.9975 15.1377C94.6173 14.7258 94.3321 14.2189 94.142 13.6486C93.9519 13.0783 93.8252 12.4446 93.8252 11.7793C93.8252 11.0823 93.9202 10.417 94.142 9.78331C94.3638 9.14965 94.6806 8.61105 95.0608 8.16749C95.441 7.72394 95.9796 7.34375 96.5499 7.0586C97.1519 6.80514 97.8172 6.64673 98.5776 6.64673C99.338 6.64673 100.067 6.80514 100.7 7.09029V8.32591C100.003 7.88235 99.2746 7.66057 98.4825 7.66057C97.9123 7.66057 97.437 7.75562 96.9935 7.9774C96.5499 8.19917 96.2014 8.48432 95.9162 8.83283C95.6311 9.18134 95.4093 9.62489 95.2509 10.1001C95.0925 10.5754 95.0291 11.114 95.0291 11.6526C95.0291 12.1595 95.0925 12.6347 95.2192 13.0783C95.346 13.5219 95.5361 13.9337 95.8212 14.2822C96.1063 14.6307 96.4232 14.9159 96.835 15.106C97.2469 15.2961 97.7222 15.4228 98.2924 15.4228C99.1796 15.4228 99.9716 15.1693 100.669 14.6307V15.8347H100.7Z" fill="#333333"/>
    <path d="M109.255 16.2465V10.7338C109.255 9.68825 109.065 8.92786 108.685 8.42094C108.305 7.91402 107.703 7.66056 106.911 7.66056C106.53 7.66056 106.182 7.72393 105.833 7.88234C105.485 8.04075 105.2 8.26253 104.946 8.54767C104.693 8.83282 104.471 9.18133 104.344 9.5932C104.186 10.0051 104.122 10.4803 104.122 10.9872V16.2149H102.95V2.36956H104.122V8.48431H104.154C104.883 7.24869 105.928 6.64672 107.291 6.64672C108.336 6.64672 109.128 6.96354 109.635 7.5972C110.174 8.23085 110.427 9.18133 110.427 10.4169V16.2149H109.255V16.2465Z" fill="#333333"/>
    <path d="M119.361 16.2465V14.6624H119.33C118.696 15.8664 117.714 16.4683 116.383 16.4683C114.166 16.4683 113.057 15.106 113.057 12.3813V6.86849H114.229V12.1595C114.229 13.2684 114.419 14.1238 114.831 14.6624C115.243 15.201 115.845 15.4545 116.668 15.4545C117.08 15.4545 117.429 15.3911 117.777 15.2327C118.094 15.0743 118.411 14.8525 118.633 14.5674C118.886 14.2822 119.076 13.9337 119.203 13.5535C119.33 13.1733 119.393 12.7298 119.393 12.2229V6.86849H120.565V16.2465H119.361Z" fill="#333333"/>
    <path d="M129.88 16.2466V10.8605C129.88 8.73778 129.12 7.69226 127.568 7.69226C127.156 7.69226 126.776 7.7873 126.427 7.94572C126.079 8.10413 125.793 8.32591 125.54 8.61105C125.286 8.89619 125.096 9.2447 124.938 9.62489C124.78 10.0051 124.716 10.4486 124.716 10.8922V16.2466H123.544V6.86851H124.716V8.48432H124.748C125.445 7.2487 126.49 6.64673 127.884 6.64673C128.898 6.64673 129.69 6.96355 130.229 7.62889C130.768 8.29422 131.021 9.2447 131.021 10.512V16.2149H129.88V16.2466Z" fill="#333333"/>
    <path d="M68.6915 24.3431H68.2623V23.914C68.0478 24.2573 67.7903 24.4289 67.4041 24.4289C67.1467 24.4289 66.8892 24.3431 66.7605 24.2144C66.5888 24.0856 66.5459 23.8711 66.5459 23.6136C66.5459 23.0987 66.8463 22.7983 67.447 22.7125L68.2623 22.5838C68.2623 22.1117 68.0907 21.8543 67.7045 21.8543C67.3612 21.8543 67.0608 21.983 66.8034 22.1976V21.7255C67.0608 21.5539 67.4041 21.4681 67.7474 21.4681C68.3911 21.4681 68.7344 21.8114 68.7344 22.4979V24.3431H68.6915ZM68.2194 22.927L67.5329 23.0129C67.3183 23.0558 67.1896 23.0987 67.0608 23.1845C66.975 23.2703 66.8892 23.3991 66.8892 23.5707C66.8892 23.6994 66.9321 23.8282 67.0179 23.914C67.1037 23.9998 67.2325 24.0427 67.4041 24.0427C67.6187 24.0427 67.7903 23.9569 67.962 23.8282C68.0907 23.6565 68.1765 23.4849 68.1765 23.2274V22.927H68.2194Z" fill="#333333"/>
    <path d="M71.7377 21.5539L70.4504 24.7722C70.2358 25.3301 69.8925 25.6304 69.5063 25.6304C69.3776 25.6304 69.2918 25.6304 69.2059 25.5875V25.2013C69.2918 25.2442 69.3776 25.2442 69.4634 25.2442C69.678 25.2442 69.8496 25.1155 69.9783 24.858L70.1929 24.3431L69.1201 21.5539H69.635L70.4075 23.6994C70.4075 23.7423 70.4504 23.7853 70.4504 23.914C70.4504 23.8711 70.4933 23.7853 70.4933 23.6994L71.2657 21.5539H71.7377Z" fill="#333333"/>
    <path d="M73.3692 24.386C72.9401 24.386 72.6398 24.2573 72.3823 23.9998C72.1248 23.7424 71.9961 23.3991 71.9961 22.97C71.9961 22.4979 72.1248 22.1546 72.3823 21.8543C72.6398 21.5968 72.983 21.4681 73.4122 21.4681C73.8413 21.4681 74.1416 21.5968 74.3991 21.8543C74.6566 22.1117 74.7424 22.455 74.7424 22.927C74.7424 23.3562 74.6137 23.7424 74.3562 23.9998C74.0987 24.2573 73.7554 24.386 73.3692 24.386ZM73.3692 21.8543C73.0689 21.8543 72.8543 21.9401 72.6827 22.1546C72.511 22.3692 72.4252 22.6267 72.4252 22.97C72.4252 23.3132 72.511 23.5707 72.6827 23.7424C72.8543 23.914 73.0689 24.0427 73.3692 24.0427C73.6696 24.0427 73.8842 23.9569 74.0558 23.7424C74.2275 23.5707 74.2704 23.2703 74.2704 22.927C74.2704 22.5838 74.1846 22.3263 74.0558 22.1117C73.8842 21.9401 73.6696 21.8543 73.3692 21.8543Z" fill="#333333"/>
    <path d="M75.9008 24.3431H75.4717V20.2236H75.9008V24.3431Z" fill="#333333"/>
    <path d="M77.2309 24.3431H76.8018V20.2236H77.2309V24.3431Z" fill="#333333"/>
    <path d="M80.1485 24.3431H79.7194V23.914C79.5048 24.2573 79.2473 24.4289 78.8611 24.4289C78.6037 24.4289 78.3462 24.3431 78.2175 24.2144C78.0458 24.0856 78.0029 23.8711 78.0029 23.6136C78.0029 23.0987 78.3033 22.7983 78.9041 22.7125L79.7194 22.5838C79.7194 22.1117 79.5477 21.8543 79.1615 21.8543C78.8182 21.8543 78.5179 21.983 78.2604 22.1976V21.7255C78.5179 21.5539 78.8611 21.4681 79.2044 21.4681C79.8481 21.4681 80.1914 21.8114 80.1914 22.4979V24.3431H80.1485ZM79.7194 22.927L79.0328 23.0129C78.8182 23.0558 78.6895 23.0987 78.5608 23.1845C78.475 23.2703 78.3891 23.3991 78.3891 23.5707C78.3891 23.6994 78.432 23.8282 78.5179 23.914C78.6037 23.9998 78.7324 24.0427 78.9041 24.0427C79.1186 24.0427 79.2903 23.9569 79.4619 23.8282C79.5906 23.6565 79.6765 23.4849 79.6765 23.2274V22.927H79.7194Z" fill="#333333"/>
    <path d="M82.4659 21.983C82.38 21.9401 82.2942 21.8972 82.1226 21.8972C81.9509 21.8972 81.7793 21.983 81.6506 22.1547C81.5218 22.3263 81.4789 22.5838 81.4789 22.8841V24.3002H81.0498V21.511H81.4789V22.0688C81.5218 21.8543 81.6506 21.7255 81.7793 21.5968C81.908 21.4681 82.0368 21.4252 82.2084 21.4252C82.3371 21.4252 82.423 21.4252 82.4659 21.4681V21.983Z" fill="#333333"/>
    <path d="M86.7137 24.3431H86.2846V23.914C86.113 24.2573 85.8126 24.4289 85.4264 24.4289C84.7827 24.4289 84.4395 24.0427 84.4395 23.2274V21.5539H84.8686V23.1416C84.8686 23.7423 85.0831 24.0427 85.5551 24.0427C85.7697 24.0427 85.9413 23.9569 86.113 23.7853C86.2417 23.6136 86.3275 23.3991 86.3275 23.1416V21.5539H86.7567V24.3431H86.7137Z" fill="#333333"/>
    <path d="M89.503 24.2144C89.2885 24.3431 89.031 24.4289 88.7306 24.4289C88.3444 24.4289 88.0012 24.3002 87.7866 24.0427C87.5291 23.7853 87.4004 23.442 87.4004 23.0558C87.4004 22.5838 87.5291 22.2405 87.7866 21.9401C88.0441 21.6397 88.3874 21.511 88.8594 21.511C89.1168 21.511 89.3314 21.5539 89.503 21.6397V22.1117C89.2885 21.983 89.0739 21.8972 88.8594 21.8972C88.559 21.8972 88.3444 21.983 88.1728 22.1976C88.0011 22.4121 87.9153 22.6696 87.9153 23.0129C87.9153 23.3562 88.0011 23.6136 88.1728 23.7853C88.3444 23.9569 88.559 24.0856 88.8594 24.0856C89.1168 24.0856 89.3314 23.9998 89.546 23.8282V24.2144H89.503Z" fill="#333333"/>
    <path d="M92.5067 24.3431H92.0776V22.7554C92.0776 22.1546 91.8631 21.8972 91.4339 21.8972C91.2194 21.8972 91.0477 21.983 90.8761 22.1546C90.7474 22.3263 90.6615 22.5408 90.6615 22.7983V24.386H90.2324V20.2666H90.6615V22.0688C90.8761 21.7255 91.1765 21.5539 91.5627 21.5539C92.2063 21.5539 92.5067 21.9401 92.5067 22.6696V24.3431Z" fill="#333333"/>
    <path d="M95.5966 24.3431H95.1674V23.914C94.9958 24.2573 94.6954 24.4289 94.3092 24.4289C93.6656 24.4289 93.3223 24.0427 93.3223 23.2274V21.5539H93.7514V23.1416C93.7514 23.7423 93.9659 24.0427 94.438 24.0427C94.6525 24.0427 94.8242 23.9569 94.9958 23.7853C95.1245 23.6136 95.2104 23.3991 95.2104 23.1416V21.5539H95.6395V24.3431H95.5966Z" fill="#333333"/>
    <path d="M98.8153 24.3431H98.3862V22.7554C98.3862 22.1546 98.1716 21.8543 97.7425 21.8543C97.528 21.8543 97.3134 21.9401 97.1847 22.1117C97.0559 22.2834 96.9701 22.4979 96.9701 22.7554V24.3431H96.541V21.5539H96.9701V22.0259C97.1847 21.6826 97.4851 21.511 97.8713 21.511C98.1716 21.511 98.4291 21.5968 98.5578 21.8114C98.6866 22.0259 98.8153 22.2834 98.8153 22.6696V24.3431Z" fill="#333333"/>
    <path d="M105.123 24.3431H104.694V22.7554C104.694 22.455 104.651 22.2405 104.565 22.0688C104.479 21.8972 104.307 21.8543 104.093 21.8543C103.921 21.8543 103.75 21.9401 103.621 22.1117C103.492 22.2834 103.406 22.4979 103.406 22.7554V24.3431H102.977V22.6696C102.977 22.1117 102.763 21.8543 102.334 21.8543C102.119 21.8543 101.99 21.9401 101.861 22.1117C101.733 22.2834 101.69 22.4979 101.69 22.7554V24.3431H101.261V21.5539H101.69V21.983C101.904 21.6397 102.162 21.4681 102.548 21.4681C102.72 21.4681 102.891 21.511 103.063 21.6397C103.192 21.7255 103.32 21.8972 103.363 22.0688C103.578 21.6826 103.878 21.511 104.307 21.511C104.908 21.511 105.209 21.8972 105.209 22.6267V24.3431H105.123Z" fill="#333333"/>
    <path d="M107.998 24.3431H107.569V23.914C107.354 24.2573 107.097 24.4289 106.711 24.4289C106.453 24.4289 106.196 24.3431 106.067 24.2144C105.895 24.0856 105.853 23.8711 105.853 23.6136C105.853 23.0987 106.153 22.7983 106.754 22.7125L107.569 22.5838C107.569 22.1117 107.397 21.8543 107.011 21.8543C106.668 21.8543 106.367 21.983 106.11 22.1976V21.7255C106.367 21.5539 106.711 21.4681 107.054 21.4681C107.698 21.4681 108.041 21.8114 108.041 22.4979V24.3431H107.998ZM107.526 22.927L106.839 23.0129C106.625 23.0558 106.496 23.0987 106.367 23.1845C106.282 23.2703 106.196 23.3991 106.196 23.5707C106.196 23.6994 106.239 23.8282 106.325 23.914C106.41 23.9998 106.539 24.0427 106.711 24.0427C106.925 24.0427 107.097 23.9569 107.269 23.8282C107.397 23.6565 107.483 23.4849 107.483 23.2274V22.927H107.526Z" fill="#333333"/>
    <path d="M110.873 21.5539L109.929 22.9699L110.83 24.3431H110.315L109.757 23.442C109.714 23.3991 109.671 23.3132 109.628 23.2274C109.628 23.2274 109.585 23.3132 109.5 23.442L108.942 24.3431H108.427L109.371 22.9699L108.47 21.5539H108.985L109.542 22.4979C109.585 22.5837 109.628 22.6267 109.671 22.7125L110.358 21.5539H110.873Z" fill="#333333"/>
    <path d="M111.217 24.2144V23.7424C111.474 23.914 111.732 23.9998 112.032 23.9998C112.418 23.9998 112.633 23.8711 112.633 23.6136C112.633 23.5278 112.633 23.4849 112.59 23.442C112.547 23.3991 112.504 23.3562 112.461 23.3132C112.418 23.2703 112.332 23.2274 112.247 23.1845C112.161 23.1416 112.075 23.0987 111.989 23.0987C111.86 23.0558 111.775 23.0129 111.646 22.97C111.517 22.927 111.474 22.8841 111.431 22.7983C111.388 22.7554 111.303 22.6696 111.303 22.5838C111.26 22.4979 111.26 22.4121 111.26 22.2834C111.26 22.1546 111.303 22.0259 111.346 21.9401C111.388 21.8543 111.474 21.7684 111.603 21.6826C111.689 21.5968 111.818 21.5539 111.946 21.511C112.075 21.4681 112.204 21.4681 112.332 21.4681C112.59 21.4681 112.805 21.511 112.976 21.5968V22.0688C112.762 21.9401 112.547 21.8543 112.29 21.8543C112.204 21.8543 112.118 21.8543 112.075 21.8972C111.989 21.8972 111.946 21.9401 111.903 21.983C111.86 22.0259 111.818 22.0688 111.775 22.1117C111.732 22.1546 111.732 22.1976 111.732 22.2834C111.732 22.3692 111.732 22.4121 111.775 22.455C111.818 22.4979 111.86 22.5408 111.903 22.5838C111.946 22.6267 112.032 22.6696 112.075 22.6696C112.161 22.7125 112.247 22.7554 112.332 22.7554C112.461 22.7983 112.547 22.8412 112.676 22.8841C112.805 22.927 112.847 22.9699 112.933 23.0558C113.019 23.0987 113.062 23.1845 113.105 23.2703C113.148 23.3561 113.148 23.442 113.148 23.5707C113.148 23.6994 113.105 23.8282 113.062 23.914C113.019 23.9998 112.933 24.0856 112.804 24.1715C112.676 24.2573 112.59 24.3002 112.461 24.3002C112.332 24.3431 112.204 24.3431 112.032 24.3431C111.689 24.386 111.431 24.3431 111.217 24.2144Z" fill="#333333"/>
    <path d="M116.022 24.3431H115.593V23.914C115.422 24.2573 115.121 24.4289 114.735 24.4289C114.091 24.4289 113.748 24.0427 113.748 23.2274V21.5539H114.177V23.1416C114.177 23.7423 114.392 24.0427 114.864 24.0427C115.078 24.0427 115.25 23.9569 115.422 23.7853C115.55 23.6136 115.636 23.3991 115.636 23.1416V21.5539H116.065V24.3431H116.022Z" fill="#333333"/>
    <path d="M116.752 24.2144V23.7424C117.009 23.914 117.267 23.9998 117.567 23.9998C117.953 23.9998 118.168 23.8711 118.168 23.6136C118.168 23.5278 118.168 23.4849 118.125 23.442C118.082 23.3991 118.039 23.3562 117.996 23.3132C117.953 23.2703 117.868 23.2274 117.782 23.1845C117.696 23.1416 117.61 23.0987 117.524 23.0987C117.396 23.0558 117.31 23.0129 117.181 22.97C117.052 22.927 117.009 22.8841 116.967 22.7983C116.924 22.7554 116.838 22.6696 116.838 22.5838C116.795 22.4979 116.795 22.4121 116.795 22.2834C116.795 22.1546 116.838 22.0259 116.881 21.9401C116.924 21.8543 117.009 21.7684 117.138 21.6826C117.224 21.5968 117.353 21.5539 117.481 21.511C117.61 21.4681 117.739 21.4681 117.868 21.4681C118.125 21.4681 118.34 21.511 118.511 21.5968V22.0688C118.297 21.9401 118.082 21.8543 117.825 21.8543C117.739 21.8543 117.653 21.8543 117.61 21.8972C117.524 21.8972 117.481 21.9401 117.439 21.983C117.396 22.0259 117.353 22.0688 117.31 22.1117C117.267 22.1546 117.267 22.1976 117.267 22.2834C117.267 22.3692 117.267 22.4121 117.31 22.455C117.353 22.4979 117.396 22.5408 117.439 22.5838C117.481 22.6267 117.567 22.6696 117.61 22.6696C117.696 22.7125 117.782 22.7554 117.868 22.7554C117.996 22.7983 118.082 22.8412 118.211 22.8841C118.34 22.927 118.383 22.9699 118.468 23.0558C118.554 23.0987 118.597 23.1845 118.64 23.2703C118.683 23.3561 118.683 23.442 118.683 23.5707C118.683 23.6994 118.64 23.8282 118.597 23.914C118.554 23.9998 118.468 24.0856 118.34 24.1715C118.211 24.2573 118.125 24.3002 117.996 24.3002C117.868 24.3431 117.739 24.3431 117.567 24.3431C117.181 24.386 116.967 24.3431 116.752 24.2144Z" fill="#333333"/>
    <path d="M121.257 23.914V24.3002H120.828V20.1807H121.257V22.0259C121.472 21.6397 121.815 21.4681 122.201 21.4681C122.545 21.4681 122.845 21.5968 123.059 21.8543C123.274 22.1117 123.36 22.455 123.36 22.8412C123.36 23.3132 123.231 23.6994 123.017 23.9569C122.802 24.2573 122.459 24.386 122.073 24.386C121.729 24.386 121.429 24.2144 121.257 23.914ZM121.257 22.7983V23.1845C121.257 23.3991 121.343 23.6136 121.472 23.7853C121.601 23.9569 121.815 24.0427 122.03 24.0427C122.287 24.0427 122.502 23.9569 122.673 23.7423C122.845 23.5278 122.888 23.2274 122.888 22.8841C122.888 22.5837 122.802 22.3263 122.673 22.1546C122.545 21.983 122.33 21.8972 122.073 21.8972C121.815 21.8972 121.601 21.983 121.429 22.1546C121.257 22.3263 121.257 22.5408 121.257 22.7983Z" fill="#333333"/>
    <path d="M124.519 24.3431H124.09V20.2236H124.519V24.3431Z" fill="#333333"/>
    <path d="M126.578 24.386C126.149 24.386 125.849 24.2573 125.591 23.9998C125.334 23.7424 125.205 23.3991 125.205 22.97C125.205 22.4979 125.334 22.1546 125.591 21.8543C125.849 21.5968 126.192 21.4681 126.621 21.4681C127.05 21.4681 127.351 21.5968 127.608 21.8543C127.866 22.1117 127.951 22.455 127.951 22.927C127.951 23.3562 127.823 23.7424 127.565 23.9998C127.308 24.2573 127.007 24.386 126.578 24.386ZM126.621 21.8543C126.321 21.8543 126.106 21.9401 125.935 22.1546C125.763 22.3692 125.677 22.6267 125.677 22.97C125.677 23.3132 125.763 23.5707 125.935 23.7424C126.106 23.914 126.321 24.0427 126.621 24.0427C126.922 24.0427 127.136 23.9569 127.308 23.7424C127.479 23.5707 127.522 23.2703 127.522 22.927C127.522 22.5838 127.436 22.3263 127.308 22.1117C127.136 21.9401 126.922 21.8543 126.621 21.8543Z" fill="#333333"/>
    <path d="M131.084 24.0857C131.084 25.1155 130.612 25.6305 129.626 25.6305C129.282 25.6305 128.982 25.5446 128.724 25.4159V24.9868C129.025 25.1584 129.325 25.2443 129.626 25.2443C130.312 25.2443 130.655 24.901 130.655 24.1286V23.8282C130.441 24.1715 130.14 24.3431 129.711 24.3431C129.368 24.3431 129.068 24.2144 128.853 23.9569C128.639 23.6995 128.553 23.3562 128.553 22.97C128.553 22.4979 128.681 22.1117 128.896 21.8543C129.111 21.5539 129.454 21.4252 129.84 21.4252C130.226 21.4252 130.484 21.5968 130.655 21.8972V21.511H131.084V24.0857ZM130.612 23.0558V22.6267C130.612 22.4121 130.527 22.1976 130.398 22.0688C130.269 21.8972 130.055 21.8114 129.84 21.8114C129.583 21.8114 129.368 21.8972 129.196 22.1117C129.025 22.3263 128.982 22.5838 128.982 22.97C128.982 23.2703 129.068 23.5278 129.196 23.6995C129.325 23.8711 129.54 23.9998 129.797 23.9998C130.055 23.9998 130.269 23.914 130.398 23.7424C130.57 23.5707 130.612 23.3562 130.612 23.0558Z" fill="#333333"/>
    <path d="M29.4319 1.80392C24.0382 -2.07356 18.1474 1.90335 17.0538 2.72358C16.9544 2.79815 16.8052 2.77329 16.7058 2.69873C11.8341 -2.02385 1.46928 -0.532509 0.127071 7.04847C-1.14057 14.1323 7.36008 19.7249 12.9775 22.807C16.333 24.6463 16.5815 26.7093 16.4075 27.803C16.3827 27.9769 16.6312 28.0764 16.7307 27.9272C17.9237 26.2619 18.2469 23.9752 18.1723 22.1856C18.0729 18.9543 14.5185 19.4763 13.574 18.8052C12.7289 18.2087 13.4497 16.6676 13.6237 16.3693C13.6486 16.3445 13.6486 16.2948 13.6237 16.2699C13.226 15.6734 13.6486 15.1266 13.7728 14.9774C13.7977 14.9526 13.7977 14.9277 13.7728 14.9029C13.4994 14.2815 13.7977 14.1075 13.9965 13.8589C14.1954 13.6104 14.4937 13.4115 14.1954 13.0884C13.922 12.7653 13.5243 12.4422 13.748 12.0196C13.8971 11.6965 14.8168 11.4976 15.3388 11.0005C15.289 10.9757 15.2393 10.9508 15.1896 10.926C15.1151 10.8762 15.0405 10.8265 14.9908 10.752C14.9411 10.6774 14.8914 10.6277 14.8416 10.5531C14.8914 10.6277 14.9411 10.6774 15.0156 10.7271C15.0902 10.7768 15.1399 10.8265 15.2145 10.8514C15.289 10.8762 15.3636 10.9011 15.4382 10.9011C15.5625 10.752 15.6619 10.578 15.6867 10.3791C15.8359 9.21091 16.1093 7.74443 16.8549 6.47679C17.6006 5.20915 18.4706 4.3392 20.1359 7.94327C21.4781 10.8762 23.392 11.8456 24.088 12.119C24.2371 12.1687 24.2868 12.3427 24.2371 12.467C22.2735 17.6618 23.7151 21.4399 24.2868 22.6081C24.3862 22.807 24.6348 22.9064 24.8585 22.7821C29.4816 20.2468 31.8181 16.3196 31.8181 16.3196C34.0302 13.1878 35.3973 6.0791 29.4319 1.80392Z" fill="url(#paint0_linear_112_11433)"/>
    <defs>
        <linearGradient id="paint0_linear_112_11433" x1="25.2267" y1="34.0059" x2="12.0315" y2="-5.29829" gradientUnits="userSpaceOnUse">
            <stop offset="0.0137453" stop-color="#E30613"/>
            <stop offset="1" stop-color="#E6007E"/>
        </linearGradient>
    </defs>
</svg>
