<svg width="92" height="24" viewBox="0 0 92 24" fill="none" xmlns="http://www.w3.org/2000/svg">
    <path d="M13.8738 14.2465H10.6738L9.75503 11.3317H5.066L4.14721 14.2465H0.947266L5.73134 1.12994H9.24811L13.8738 14.2465ZM9.05801 9.05059L7.66398 4.64671C7.56893 4.32988 7.47388 3.91801 7.4422 3.47445H7.37883C7.34715 3.85465 7.28379 4.23484 7.15706 4.61503L5.73134 9.05059H9.05801Z" fill="#333333"/>
    <path d="M23.822 4.86848L20.0201 14.9752C19.1013 17.4148 17.739 18.6187 15.9014 18.6187C15.2044 18.6187 14.6341 18.5237 14.1588 18.3653V16.0524C14.539 16.2742 14.9509 16.401 15.4261 16.401C16.1548 16.401 16.6934 16.0524 16.9786 15.3554L17.4855 14.1832L13.6836 4.8368H16.8835L18.6261 10.5397C18.7211 10.8882 18.8162 11.3001 18.8795 11.807H18.9112C18.9746 11.4585 19.0696 11.0466 19.228 10.5714L21.0023 4.86848H23.822Z" fill="#333333"/>
    <path d="M29.3662 14.4683C27.8138 14.4683 26.5781 14.0248 25.691 13.1693C24.8039 12.2822 24.3604 11.11 24.3604 9.62088C24.3604 8.06844 24.8356 6.8645 25.7544 5.97738C26.6732 5.09027 27.9405 4.6784 29.5246 4.6784C31.0771 4.6784 32.3127 5.12195 33.1681 5.97738C34.0552 6.8645 34.4988 8.00507 34.4988 9.46247C34.4988 11.0149 34.0552 12.2505 33.1364 13.1377C32.186 14.0248 30.9503 14.4683 29.3662 14.4683ZM29.4296 6.8645C28.7325 6.8645 28.2256 7.08628 27.8454 7.56151C27.4652 8.03675 27.2751 8.70209 27.2751 9.55752C27.2751 11.3634 28.0038 12.2505 29.4612 12.2505C30.8553 12.2505 31.5523 11.3317 31.5523 9.49415C31.5206 7.71993 30.8236 6.8645 29.4296 6.8645Z" fill="#333333"/>
    <path d="M39.22 14.2465H36.3369V0.369564H39.22V14.2465Z" fill="#333333"/>
    <path d="M51.4175 8.98722C51.4175 12.6624 49.8017 14.4683 46.6018 14.4683C43.5286 14.4683 42.0078 12.6941 42.0078 9.17732V1.12994H43.2117V9.08227C43.2117 10.508 43.4969 11.5852 44.0672 12.3139C44.6375 13.0426 45.5563 13.3911 46.7602 13.3911C49.0414 13.3911 50.2136 11.9971 50.2136 9.209V1.12994H51.4175V8.98722Z" fill="#333333"/>
    <path d="M60.7003 13.8347C60.0033 14.2466 59.1479 14.4683 58.1657 14.4683C57.5004 14.4683 56.8984 14.3733 56.3598 14.1198C55.8212 13.8664 55.3776 13.5495 54.9975 13.1377C54.6173 12.7258 54.3321 12.2189 54.142 11.6486C53.9519 11.0783 53.8252 10.4446 53.8252 9.77931C53.8252 9.08229 53.9202 8.41696 54.142 7.78331C54.3638 7.14965 54.6806 6.61105 55.0608 6.16749C55.441 5.72394 55.9796 5.34375 56.5499 5.0586C57.1519 4.80514 57.8172 4.64673 58.5776 4.64673C59.338 4.64673 60.0667 4.80514 60.7003 5.09029V6.32591C60.0033 5.88235 59.2746 5.66057 58.4825 5.66057C57.9123 5.66057 57.437 5.75562 56.9935 5.9774C56.5499 6.19917 56.2014 6.48432 55.9162 6.83283C55.6311 7.18134 55.4093 7.62489 55.2509 8.10013C55.0925 8.57537 55.0291 9.11398 55.0291 9.65258C55.0291 10.1595 55.0925 10.6347 55.2192 11.0783C55.346 11.5219 55.5361 11.9337 55.8212 12.2822C56.1063 12.6307 56.4232 12.9159 56.835 13.106C57.2469 13.2961 57.7222 13.4228 58.2924 13.4228C59.1796 13.4228 59.9716 13.1693 60.6686 12.6307V13.8347H60.7003Z" fill="#333333"/>
    <path d="M69.255 14.2465V8.73377C69.255 7.68825 69.0649 6.92786 68.6847 6.42094C68.3046 5.91402 67.7026 5.66056 66.9105 5.66056C66.5303 5.66056 66.1818 5.72393 65.8333 5.88234C65.4848 6.04075 65.1997 6.26253 64.9462 6.54767C64.6927 6.83282 64.471 7.18133 64.3442 7.5932C64.1858 8.00507 64.1225 8.48031 64.1225 8.98723V14.2149H62.9502V0.369564H64.1225V6.48431H64.1541C64.8828 5.24869 65.9284 4.64672 67.2907 4.64672C68.3362 4.64672 69.1283 4.96354 69.6352 5.5972C70.1738 6.23085 70.4273 7.18133 70.4273 8.41695V14.2149H69.255V14.2465Z" fill="#333333"/>
    <path d="M79.3615 14.2465V12.6624H79.3298C78.6961 13.8664 77.714 14.4683 76.3833 14.4683C74.1655 14.4683 73.0566 13.106 73.0566 10.3813V4.86849H74.2289V10.1595C74.2289 11.2684 74.419 12.1238 74.8309 12.6624C75.2427 13.201 75.8447 13.4545 76.6685 13.4545C77.0803 13.4545 77.4288 13.3911 77.7774 13.2327C78.0942 13.0743 78.411 12.8525 78.6328 12.5674C78.8862 12.2822 79.0763 11.9337 79.2031 11.5535C79.3298 11.1733 79.3932 10.7298 79.3932 10.2229V4.86849H80.5654V14.2465H79.3615Z" fill="#333333"/>
    <path d="M89.8805 14.2466V8.86052C89.8805 6.73778 89.1201 5.69226 87.5676 5.69226C87.1558 5.69226 86.7756 5.7873 86.4271 5.94572C86.0785 6.10413 85.7934 6.32591 85.5399 6.61105C85.2865 6.89619 85.0964 7.2447 84.938 7.62489C84.7796 8.00509 84.7162 8.44864 84.7162 8.8922V14.2466H83.5439V4.86851H84.7162V6.48432H84.7479C85.4449 5.2487 86.4904 4.64673 87.8844 4.64673C88.8983 4.64673 89.6904 4.96355 90.229 5.62889C90.7676 6.29422 91.021 7.2447 91.021 8.51201V14.2149H89.8805V14.2466Z" fill="#333333"/>
    <path d="M28.6915 22.3431H28.2623V21.914C28.0478 22.2573 27.7903 22.4289 27.4041 22.4289C27.1467 22.4289 26.8892 22.3431 26.7605 22.2144C26.5888 22.0856 26.5459 21.8711 26.5459 21.6136C26.5459 21.0987 26.8463 20.7983 27.447 20.7125L28.2623 20.5838C28.2623 20.1117 28.0907 19.8543 27.7045 19.8543C27.3612 19.8543 27.0608 19.983 26.8034 20.1976V19.7255C27.0608 19.5539 27.4041 19.4681 27.7474 19.4681C28.3911 19.4681 28.7344 19.8114 28.7344 20.4979V22.3431H28.6915ZM28.2194 20.927L27.5329 21.0129C27.3183 21.0558 27.1896 21.0987 27.0608 21.1845C26.975 21.2703 26.8892 21.3991 26.8892 21.5707C26.8892 21.6994 26.9321 21.8282 27.0179 21.914C27.1037 21.9998 27.2325 22.0427 27.4041 22.0427C27.6187 22.0427 27.7903 21.9569 27.962 21.8282C28.0907 21.6565 28.1765 21.4849 28.1765 21.2274V20.927H28.2194Z" fill="#333333"/>
    <path d="M31.7377 19.5539L30.4504 22.7722C30.2358 23.3301 29.8925 23.6304 29.5063 23.6304C29.3776 23.6304 29.2918 23.6304 29.2059 23.5875V23.2013C29.2918 23.2442 29.3776 23.2442 29.4634 23.2442C29.678 23.2442 29.8496 23.1155 29.9783 22.858L30.1929 22.3431L29.1201 19.5539H29.635L30.4075 21.6994C30.4075 21.7423 30.4504 21.7853 30.4504 21.914C30.4504 21.8711 30.4933 21.7853 30.4933 21.6994L31.2657 19.5539H31.7377Z" fill="#333333"/>
    <path d="M33.3692 22.386C32.9401 22.386 32.6398 22.2573 32.3823 21.9998C32.1248 21.7424 31.9961 21.3991 31.9961 20.97C31.9961 20.4979 32.1248 20.1546 32.3823 19.8543C32.6398 19.5968 32.983 19.4681 33.4122 19.4681C33.8413 19.4681 34.1416 19.5968 34.3991 19.8543C34.6566 20.1117 34.7424 20.455 34.7424 20.927C34.7424 21.3562 34.6137 21.7424 34.3562 21.9998C34.0987 22.2573 33.7554 22.386 33.3692 22.386ZM33.3692 19.8543C33.0689 19.8543 32.8543 19.9401 32.6827 20.1546C32.511 20.3692 32.4252 20.6267 32.4252 20.97C32.4252 21.3132 32.511 21.5707 32.6827 21.7424C32.8543 21.914 33.0689 22.0427 33.3692 22.0427C33.6696 22.0427 33.8842 21.9569 34.0558 21.7424C34.2275 21.5707 34.2704 21.2703 34.2704 20.927C34.2704 20.5838 34.1846 20.3263 34.0558 20.1117C33.8842 19.9401 33.6696 19.8543 33.3692 19.8543Z" fill="#333333"/>
    <path d="M35.9008 22.3431H35.4717V18.2236H35.9008V22.3431Z" fill="#333333"/>
    <path d="M37.2309 22.3431H36.8018V18.2236H37.2309V22.3431Z" fill="#333333"/>
    <path d="M40.1485 22.3431H39.7194V21.914C39.5048 22.2573 39.2473 22.4289 38.8611 22.4289C38.6037 22.4289 38.3462 22.3431 38.2175 22.2144C38.0458 22.0856 38.0029 21.8711 38.0029 21.6136C38.0029 21.0987 38.3033 20.7983 38.9041 20.7125L39.7194 20.5838C39.7194 20.1117 39.5477 19.8543 39.1615 19.8543C38.8182 19.8543 38.5179 19.983 38.2604 20.1976V19.7255C38.5179 19.5539 38.8611 19.4681 39.2044 19.4681C39.8481 19.4681 40.1914 19.8114 40.1914 20.4979V22.3431H40.1485ZM39.7194 20.927L39.0328 21.0129C38.8182 21.0558 38.6895 21.0987 38.5608 21.1845C38.475 21.2703 38.3891 21.3991 38.3891 21.5707C38.3891 21.6994 38.432 21.8282 38.5179 21.914C38.6037 21.9998 38.7324 22.0427 38.9041 22.0427C39.1186 22.0427 39.2903 21.9569 39.4619 21.8282C39.5906 21.6565 39.6765 21.4849 39.6765 21.2274V20.927H39.7194Z" fill="#333333"/>
    <path d="M42.4659 19.983C42.38 19.9401 42.2942 19.8972 42.1226 19.8972C41.9509 19.8972 41.7793 19.983 41.6506 20.1547C41.5218 20.3263 41.4789 20.5838 41.4789 20.8841V22.3002H41.0498V19.511H41.4789V20.0688C41.5218 19.8543 41.6506 19.7255 41.7793 19.5968C41.908 19.4681 42.0368 19.4252 42.2084 19.4252C42.3371 19.4252 42.423 19.4252 42.4659 19.4681V19.983Z" fill="#333333"/>
    <path d="M46.7137 22.3431H46.2846V21.914C46.113 22.2573 45.8126 22.4289 45.4264 22.4289C44.7827 22.4289 44.4395 22.0427 44.4395 21.2274V19.5539H44.8686V21.1416C44.8686 21.7423 45.0831 22.0427 45.5551 22.0427C45.7697 22.0427 45.9413 21.9569 46.113 21.7853C46.2417 21.6136 46.3275 21.3991 46.3275 21.1416V19.5539H46.7567V22.3431H46.7137Z" fill="#333333"/>
    <path d="M49.503 22.2144C49.2885 22.3431 49.031 22.4289 48.7306 22.4289C48.3444 22.4289 48.0012 22.3002 47.7866 22.0427C47.5291 21.7853 47.4004 21.442 47.4004 21.0558C47.4004 20.5838 47.5291 20.2405 47.7866 19.9401C48.0441 19.6397 48.3874 19.511 48.8594 19.511C49.1168 19.511 49.3314 19.5539 49.503 19.6397V20.1117C49.2885 19.983 49.0739 19.8972 48.8594 19.8972C48.559 19.8972 48.3444 19.983 48.1728 20.1976C48.0011 20.4121 47.9153 20.6696 47.9153 21.0129C47.9153 21.3562 48.0011 21.6136 48.1728 21.7853C48.3444 21.9569 48.559 22.0856 48.8594 22.0856C49.1168 22.0856 49.3314 21.9998 49.546 21.8282V22.2144H49.503Z" fill="#333333"/>
    <path d="M52.5067 22.3431H52.0776V20.7554C52.0776 20.1546 51.8631 19.8972 51.4339 19.8972C51.2194 19.8972 51.0477 19.983 50.8761 20.1546C50.7474 20.3263 50.6615 20.5408 50.6615 20.7983V22.386H50.2324V18.2666H50.6615V20.0688C50.8761 19.7255 51.1765 19.5539 51.5627 19.5539C52.2063 19.5539 52.5067 19.9401 52.5067 20.6696V22.3431Z" fill="#333333"/>
    <path d="M55.5966 22.3431H55.1674V21.914C54.9958 22.2573 54.6954 22.4289 54.3092 22.4289C53.6656 22.4289 53.3223 22.0427 53.3223 21.2274V19.5539H53.7514V21.1416C53.7514 21.7423 53.9659 22.0427 54.438 22.0427C54.6525 22.0427 54.8242 21.9569 54.9958 21.7853C55.1245 21.6136 55.2104 21.3991 55.2104 21.1416V19.5539H55.6395V22.3431H55.5966Z" fill="#333333"/>
    <path d="M58.8153 22.3431H58.3862V20.7554C58.3862 20.1546 58.1716 19.8543 57.7425 19.8543C57.528 19.8543 57.3134 19.9401 57.1847 20.1117C57.0559 20.2834 56.9701 20.4979 56.9701 20.7554V22.3431H56.541V19.5539H56.9701V20.0259C57.1847 19.6826 57.4851 19.511 57.8713 19.511C58.1716 19.511 58.4291 19.5968 58.5578 19.8114C58.6866 20.0259 58.8153 20.2834 58.8153 20.6696V22.3431Z" fill="#333333"/>
    <path d="M65.1227 22.3431H64.6936V20.7554C64.6936 20.455 64.6507 20.2405 64.5649 20.0688C64.4791 19.8972 64.3074 19.8543 64.0929 19.8543C63.9212 19.8543 63.7496 19.9401 63.6209 20.1117C63.4921 20.2834 63.4063 20.4979 63.4063 20.7554V22.3431H62.9772V20.6696C62.9772 20.1117 62.7626 19.8543 62.3335 19.8543C62.119 19.8543 61.9902 19.9401 61.8615 20.1117C61.7328 20.2834 61.6899 20.4979 61.6899 20.7554V22.3431H61.2607V19.5539H61.6899V19.983C61.9044 19.6397 62.1619 19.4681 62.5481 19.4681C62.7197 19.4681 62.8914 19.511 63.063 19.6397C63.1917 19.7255 63.3205 19.8972 63.3634 20.0688C63.5779 19.6826 63.8783 19.511 64.3074 19.511C64.9082 19.511 65.2086 19.8972 65.2086 20.6267V22.3431H65.1227Z" fill="#333333"/>
    <path d="M67.9981 22.3431H67.569V21.914C67.3544 22.2573 67.097 22.4289 66.7108 22.4289C66.4533 22.4289 66.1958 22.3431 66.0671 22.2144C65.8955 22.0856 65.8525 21.8711 65.8525 21.6136C65.8525 21.0987 66.1529 20.7983 66.7537 20.7125L67.569 20.5838C67.569 20.1117 67.3973 19.8543 67.0111 19.8543C66.6678 19.8543 66.3675 19.983 66.11 20.1976V19.7255C66.3675 19.5539 66.7108 19.4681 67.0541 19.4681C67.6977 19.4681 68.041 19.8114 68.041 20.4979V22.3431H67.9981ZM67.5261 20.927L66.8395 21.0129C66.6249 21.0558 66.4962 21.0987 66.3675 21.1845C66.2816 21.2703 66.1958 21.3991 66.1958 21.5707C66.1958 21.6994 66.2387 21.8282 66.3246 21.914C66.4104 21.9998 66.5391 22.0427 66.7108 22.0427C66.9253 22.0427 67.097 21.9569 67.2686 21.8282C67.3973 21.6565 67.4832 21.4849 67.4832 21.2274V20.927H67.5261Z" fill="#333333"/>
    <path d="M70.8727 19.5539L69.9286 20.9699L70.8298 22.3431H70.3148L69.757 21.442C69.7141 21.3991 69.6712 21.3132 69.6283 21.2274C69.6283 21.2274 69.5854 21.3132 69.4995 21.442L68.9417 22.3431H68.4268L69.3708 20.9699L68.4697 19.5539H68.9846L69.5424 20.4979C69.5854 20.5837 69.6283 20.6267 69.6712 20.7125L70.3577 19.5539H70.8727Z" fill="#333333"/>
    <path d="M71.2168 22.2144V21.7424C71.4743 21.914 71.7317 21.9998 72.0321 21.9998C72.4183 21.9998 72.6329 21.8711 72.6329 21.6136C72.6329 21.5278 72.6329 21.4849 72.5899 21.442C72.547 21.3991 72.5041 21.3562 72.4612 21.3132C72.4183 21.2703 72.3325 21.2274 72.2467 21.1845C72.1608 21.1416 72.075 21.0987 71.9892 21.0987C71.8605 21.0558 71.7746 21.0129 71.6459 20.97C71.5172 20.927 71.4743 20.8841 71.4314 20.7983C71.3884 20.7554 71.3026 20.6696 71.3026 20.5838C71.2597 20.4979 71.2597 20.4121 71.2597 20.2834C71.2597 20.1546 71.3026 20.0259 71.3455 19.9401C71.3884 19.8543 71.4743 19.7684 71.603 19.6826C71.6888 19.5968 71.8175 19.5539 71.9463 19.511C72.075 19.4681 72.2038 19.4681 72.3325 19.4681C72.5899 19.4681 72.8045 19.511 72.9761 19.5968V20.0688C72.7616 19.9401 72.547 19.8543 72.2896 19.8543C72.2037 19.8543 72.1179 19.8543 72.075 19.8972C71.9892 19.8972 71.9463 19.9401 71.9034 19.983C71.8605 20.0259 71.8176 20.0688 71.7746 20.1117C71.7317 20.1546 71.7317 20.1976 71.7317 20.2834C71.7317 20.3692 71.7317 20.4121 71.7746 20.455C71.8176 20.4979 71.8605 20.5408 71.9034 20.5838C71.9463 20.6267 72.0321 20.6696 72.075 20.6696C72.1608 20.7125 72.2467 20.7554 72.3325 20.7554C72.4612 20.7983 72.547 20.8412 72.6758 20.8841C72.8045 20.927 72.8474 20.9699 72.9332 21.0558C73.0191 21.0987 73.062 21.1845 73.1049 21.2703C73.1478 21.3561 73.1478 21.442 73.1478 21.5707C73.1478 21.6994 73.1049 21.8282 73.062 21.914C73.0191 21.9998 72.9332 22.0856 72.8045 22.1715C72.6758 22.2573 72.5899 22.3002 72.4612 22.3002C72.3325 22.3431 72.2038 22.3431 72.0321 22.3431C71.6888 22.386 71.4314 22.3431 71.2168 22.2144Z" fill="#333333"/>
    <path d="M76.0223 22.3431H75.5932V21.914C75.4216 22.2573 75.1212 22.4289 74.735 22.4289C74.0913 22.4289 73.748 22.0427 73.748 21.2274V19.5539H74.1772V21.1416C74.1772 21.7423 74.3917 22.0427 74.8637 22.0427C75.0783 22.0427 75.2499 21.9569 75.4216 21.7853C75.5503 21.6136 75.6361 21.3991 75.6361 21.1416V19.5539H76.0652V22.3431H76.0223Z" fill="#333333"/>
    <path d="M76.752 22.2144V21.7424C77.0094 21.914 77.2669 21.9998 77.5673 21.9998C77.9535 21.9998 78.168 21.8711 78.168 21.6136C78.168 21.5278 78.168 21.4849 78.1251 21.442C78.0822 21.3991 78.0393 21.3562 77.9964 21.3132C77.9535 21.2703 77.8676 21.2274 77.7818 21.1845C77.696 21.1416 77.6102 21.0987 77.5243 21.0987C77.3956 21.0558 77.3098 21.0129 77.1811 20.97C77.0523 20.927 77.0094 20.8841 76.9665 20.7983C76.9236 20.7554 76.8378 20.6696 76.8378 20.5838C76.7949 20.4979 76.7949 20.4121 76.7949 20.2834C76.7949 20.1546 76.8378 20.0259 76.8807 19.9401C76.9236 19.8543 77.0094 19.7684 77.1381 19.6826C77.224 19.5968 77.3527 19.5539 77.4814 19.511C77.6102 19.4681 77.7389 19.4681 77.8676 19.4681C78.1251 19.4681 78.3397 19.511 78.5113 19.5968V20.0688C78.2967 19.9401 78.0822 19.8543 77.8247 19.8543C77.7389 19.8543 77.6531 19.8543 77.6102 19.8972C77.5243 19.8972 77.4814 19.9401 77.4385 19.983C77.3956 20.0259 77.3527 20.0688 77.3098 20.1117C77.2669 20.1546 77.2669 20.1976 77.2669 20.2834C77.2669 20.3692 77.2669 20.4121 77.3098 20.455C77.3527 20.4979 77.3956 20.5408 77.4385 20.5838C77.4814 20.6267 77.5673 20.6696 77.6102 20.6696C77.696 20.7125 77.7818 20.7554 77.8676 20.7554C77.9964 20.7983 78.0822 20.8412 78.2109 20.8841C78.3397 20.927 78.3826 20.9699 78.4684 21.0558C78.5542 21.0987 78.5971 21.1845 78.64 21.2703C78.6829 21.3561 78.6829 21.442 78.6829 21.5707C78.6829 21.6994 78.64 21.8282 78.5971 21.914C78.5542 21.9998 78.4684 22.0856 78.3397 22.1715C78.2109 22.2573 78.1251 22.3002 77.9964 22.3002C77.8676 22.3431 77.7389 22.3431 77.5673 22.3431C77.1811 22.386 76.9665 22.3431 76.752 22.2144Z" fill="#333333"/>
    <path d="M81.2572 21.914V22.3002H80.8281V18.1807H81.2572V20.0259C81.4718 19.6397 81.8151 19.4681 82.2013 19.4681C82.5446 19.4681 82.8449 19.5968 83.0595 19.8543C83.2741 20.1117 83.3599 20.455 83.3599 20.8412C83.3599 21.3132 83.2312 21.6994 83.0166 21.9569C82.802 22.2573 82.4587 22.386 82.0725 22.386C81.7293 22.386 81.4289 22.2144 81.2572 21.914ZM81.2572 20.7983V21.1845C81.2572 21.3991 81.3431 21.6136 81.4718 21.7853C81.6005 21.9569 81.8151 22.0427 82.0296 22.0427C82.2871 22.0427 82.5017 21.9569 82.6733 21.7423C82.8449 21.5278 82.8879 21.2274 82.8879 20.8841C82.8879 20.5837 82.802 20.3263 82.6733 20.1546C82.5446 19.983 82.33 19.8972 82.0725 19.8972C81.8151 19.8972 81.6005 19.983 81.4289 20.1546C81.2572 20.3263 81.2572 20.5408 81.2572 20.7983Z" fill="#333333"/>
    <path d="M84.519 22.3431H84.0898V18.2236H84.519V22.3431Z" fill="#333333"/>
    <path d="M86.5782 22.386C86.1491 22.386 85.8488 22.2573 85.5913 21.9998C85.3338 21.7424 85.2051 21.3991 85.2051 20.97C85.2051 20.4979 85.3338 20.1546 85.5913 19.8543C85.8488 19.5968 86.192 19.4681 86.6212 19.4681C87.0503 19.4681 87.3506 19.5968 87.6081 19.8543C87.8656 20.1117 87.9514 20.455 87.9514 20.927C87.9514 21.3562 87.8227 21.7424 87.5652 21.9998C87.3077 22.2573 87.0074 22.386 86.5782 22.386ZM86.6212 19.8543C86.3208 19.8543 86.1062 19.9401 85.9346 20.1546C85.7629 20.3692 85.6771 20.6267 85.6771 20.97C85.6771 21.3132 85.7629 21.5707 85.9346 21.7424C86.1062 21.914 86.3208 22.0427 86.6212 22.0427C86.9215 22.0427 87.1361 21.9569 87.3077 21.7424C87.4794 21.5707 87.5223 21.2703 87.5223 20.927C87.5223 20.5838 87.4365 20.3263 87.3077 20.1117C87.1361 19.9401 86.9215 19.8543 86.6212 19.8543Z" fill="#333333"/>
    <path d="M91.0845 22.0857C91.0845 23.1155 90.6125 23.6305 89.6255 23.6305C89.2822 23.6305 88.9818 23.5446 88.7244 23.4159V22.9868C89.0248 23.1584 89.3251 23.2443 89.6255 23.2443C90.3121 23.2443 90.6554 22.901 90.6554 22.1286V21.8282C90.4408 22.1715 90.1404 22.3431 89.7113 22.3431C89.368 22.3431 89.0677 22.2144 88.8531 21.9569C88.6385 21.6995 88.5527 21.3562 88.5527 20.97C88.5527 20.4979 88.6815 20.1117 88.896 19.8543C89.1106 19.5539 89.4539 19.4252 89.8401 19.4252C90.2263 19.4252 90.4837 19.5968 90.6554 19.8972V19.511H91.0845V22.0857ZM90.6125 21.0558V20.6267C90.6125 20.4121 90.5266 20.1976 90.3979 20.0688C90.2692 19.8972 90.0546 19.8114 89.8401 19.8114C89.5826 19.8114 89.368 19.8972 89.1964 20.1117C89.0248 20.3263 88.9818 20.5838 88.9818 20.97C88.9818 21.2703 89.0677 21.5278 89.1964 21.6995C89.3251 21.8711 89.5397 21.9998 89.7972 21.9998C90.0546 21.9998 90.2692 21.914 90.3979 21.7424C90.5696 21.5707 90.6125 21.3562 90.6125 21.0558Z" fill="#333333"/>
</svg>
