<svg width="16" height="16" viewBox="0 0 16 16" fill="none" xmlns="http://www.w3.org/2000/svg">
<g clip-path="url(#clip0_270_14183)">
<path d="M13.1168 6.11401C13.0313 6.18152 11.5219 7.0471 11.5219 8.9718C11.5219 11.198 13.4425 11.9856 13.5 12.0051C13.4912 12.0531 13.1949 13.0837 12.4873 14.1338C11.8565 15.0579 11.1976 15.9805 10.1952 15.9805C9.19291 15.9805 8.93496 15.3879 7.77785 15.3879C6.65023 15.3879 6.24929 16 5.33245 16C4.41561 16 3.77589 15.1449 3.04035 14.0948C2.18837 12.8617 1.5 10.946 1.5 9.12781C1.5 6.21152 3.36316 4.66487 5.19684 4.66487C6.17117 4.66487 6.98336 5.31593 7.59508 5.31593C8.17731 5.31593 9.08531 4.62586 10.1938 4.62586C10.6139 4.62586 12.1233 4.66487 13.1168 6.11401ZM9.66755 3.39124C10.126 2.83768 10.4503 2.06961 10.4503 1.30153C10.4503 1.19502 10.4414 1.08701 10.4222 1C9.67639 1.0285 8.78903 1.50555 8.25396 2.13711C7.83387 2.62316 7.44178 3.39124 7.44178 4.16982C7.44178 4.28683 7.46094 4.40384 7.46978 4.44134C7.51695 4.45034 7.5936 4.46085 7.67025 4.46085C8.33945 4.46085 9.18112 4.0048 9.66755 3.39124Z" fill="white"/>
</g>
<defs>
<clipPath id="clip0_270_14183">
<rect width="16" height="16" fill="white"/>
</clipPath>
</defs>
</svg>
