<svg width="119" height="100" viewBox="0 0 119 100" fill="none" xmlns="http://www.w3.org/2000/svg">
    <path d="M103.917 6.93833C84.8735 -6.75218 64.0745 7.28937 60.2131 10.1854C59.862 10.4487 59.3355 10.361 58.9844 10.0977C41.7835 -6.57666 5.18769 -1.31108 0.44866 25.4556C-4.02709 50.4671 25.9868 70.2131 45.8205 81.0953C57.668 87.5895 58.5456 94.8735 57.9313 98.735C57.8435 99.3493 58.7211 99.7003 59.0722 99.1738C63.2846 93.2939 64.4255 85.22 64.1623 78.9013C63.8112 67.4925 51.2616 69.3355 47.9267 66.966C44.9429 64.8597 47.4879 59.4186 48.1022 58.3655C48.19 58.2778 48.19 58.1022 48.1022 58.0145C46.698 55.9082 48.19 53.9775 48.6288 53.451C48.7165 53.3632 48.7165 53.2755 48.6288 53.1877C47.6634 50.9937 48.7165 50.3794 49.4186 49.5018C50.1207 48.6242 51.1738 47.9221 50.1207 46.7812C49.1553 45.6404 47.7512 44.4995 48.541 43.0076C49.0676 41.8667 52.3147 41.1646 54.1576 39.4094C53.9821 39.3217 53.8066 39.2339 53.6311 39.1461C53.3678 38.9706 53.1045 38.7951 52.929 38.5318C52.7535 38.2685 52.578 38.093 52.4025 37.8297C52.578 38.093 52.7535 38.2685 53.0168 38.4441C53.28 38.6196 53.4556 38.7951 53.7188 38.8829C53.9821 38.9706 54.2454 39.0584 54.5087 39.0584C54.9475 38.5318 55.2985 37.9175 55.3863 37.2154C55.9128 33.0907 56.8782 27.9129 59.511 23.4372C62.1438 18.9614 65.2154 15.8898 71.0953 28.615C75.8343 38.9706 82.5918 42.3933 85.0491 43.3586C85.5756 43.5341 85.7511 44.1484 85.5756 44.5872C78.6426 62.929 83.7327 76.2685 85.7512 80.3932C86.1022 81.0953 86.9798 81.4463 87.7696 81.0075C104.093 72.056 112.342 58.19 112.342 58.19C120.153 47.1323 124.98 22.033 103.917 6.93833Z" fill="url(#paint0_linear_397_15020)"/>
    <defs>
        <linearGradient id="paint0_linear_397_15020" x1="89.0697" y1="120.636" x2="42.4804" y2="-18.138" gradientUnits="userSpaceOnUse">
            <stop offset="0.0137453" stop-color="#E30613"/>
            <stop offset="1" stop-color="#E6007E"/>
        </linearGradient>
    </defs>
</svg>
