<svg width="20" height="20" viewBox="0 0 20 20" fill="none" xmlns="http://www.w3.org/2000/svg">
<path d="M1.6665 9.16666C1.6665 6.80964 1.6665 5.63113 2.39874 4.8989C3.13097 4.16666 4.30948 4.16666 6.6665 4.16666H10.8332C13.1902 4.16666 14.3687 4.16666 15.1009 4.8989C15.8332 5.63113 15.8332 6.80964 15.8332 9.16666C15.8332 11.5237 15.8332 12.7022 15.1009 13.4344C14.3687 14.1667 13.1902 14.1667 10.8332 14.1667H6.6665C4.30948 14.1667 3.13097 14.1667 2.39874 13.4344C1.6665 12.7022 1.6665 11.5237 1.6665 9.16666Z" stroke="#8898AA" stroke-width="1.5"/>
<path d="M15.8337 6.73014C16.6463 6.81007 17.1932 6.9907 17.6015 7.39894C18.3337 8.13117 18.3337 9.30969 18.3337 11.6667C18.3337 14.0237 18.3337 15.2022 17.6015 15.9345C16.8692 16.6667 15.6907 16.6667 13.3337 16.6667H9.16704C6.81002 16.6667 5.63151 16.6667 4.89927 15.9345C4.49103 15.5262 4.31039 14.9793 4.23047 14.1667" stroke="#8898AA" stroke-width="1.5"/>
<path d="M10.8332 9.16667C10.8332 10.3173 9.90043 11.25 8.74984 11.25C7.59924 11.25 6.6665 10.3173 6.6665 9.16667C6.6665 8.01608 7.59924 7.08334 8.74984 7.08334C9.90043 7.08334 10.8332 8.01608 10.8332 9.16667Z" stroke="#8898AA" stroke-width="1.5"/>
<path d="M13.3335 10.8333L13.3335 7.5" stroke="#8898AA" stroke-width="1.5" stroke-linecap="round"/>
<path d="M4.1665 10.8333L4.1665 7.5" stroke="#8898AA" stroke-width="1.5" stroke-linecap="round"/>
</svg>
