<svg width="170" height="170" viewBox="0 0 170 170" fill="none" xmlns="http://www.w3.org/2000/svg">
    <path d="M84.944 146.389C117.543 146.389 143.971 119.96 143.971 87.245C143.971 54.5296 117.427 28.1011 84.944 28.1011C52.345 28.1011 25.9165 54.5296 25.9165 87.245C25.9165 119.96 52.345 146.389 84.944 146.389Z" fill="#F1F3F9" stroke="#D6DCE8" stroke-width="2" stroke-miterlimit="10"/>
    <path d="M140.129 48.4756C142.766 48.4756 144.903 46.3384 144.903 43.7021C144.903 41.0658 142.766 38.9287 140.129 38.9287C137.493 38.9287 135.356 41.0658 135.356 43.7021C135.356 46.3384 137.493 48.4756 140.129 48.4756Z" fill="#F1F3F9"/>
    <path d="M147.115 29.8475C148.915 29.8475 150.375 28.388 150.375 26.5876C150.375 24.7872 148.915 23.3277 147.115 23.3277C145.314 23.3277 143.855 24.7872 143.855 26.5876C143.855 28.388 145.314 29.8475 147.115 29.8475Z" fill="#F1F3F9"/>
    <path d="M29.0597 48.3591C30.8601 48.3591 32.3196 46.8996 32.3196 45.0992C32.3196 43.2988 30.8601 41.8393 29.0597 41.8393C27.2593 41.8393 25.7998 43.2988 25.7998 45.0992C25.7998 46.8996 27.2593 48.3591 29.0597 48.3591Z" fill="#F1F3F9"/>
    <path d="M9.15126 111.229C12.4949 111.229 15.2054 108.518 15.2054 105.174C15.2054 101.831 12.4949 99.1204 9.15126 99.1204C5.80768 99.1204 3.09717 101.831 3.09717 105.174C3.09717 108.518 5.80768 111.229 9.15126 111.229Z" fill="#F1F3F9"/>
    <path d="M102.058 55.8103L119.871 119.844C120.454 122.056 119.173 124.268 116.961 124.85L54.2077 141.499C51.9956 142.081 49.7836 140.801 49.2014 138.588L27.3136 55.9268C26.7314 53.7147 28.0121 51.5026 30.2242 50.9205L75.6299 38.9287L102.058 55.8103Z" fill="white" stroke="#D6DCE8" stroke-width="2" stroke-miterlimit="10"/>
    <path d="M101.127 96.3263L67.2473 105.291L63.5217 106.222L52.2285 109.249C51.7628 109.366 51.4135 109.948 51.6464 110.53C51.7628 111.112 52.3449 111.462 52.8106 111.345L64.1039 108.318L67.8294 107.387L101.709 98.4219C102.175 98.3055 102.524 97.7234 102.291 97.1413C102.175 96.5591 101.593 96.2099 101.127 96.3263Z" fill="#D6DCE8"/>
    <path d="M98.9146 88.4094L86.3407 91.6693L82.033 92.8335L50.249 101.333C49.7833 101.449 49.434 102.031 49.6669 102.613C49.7833 103.195 50.3654 103.545 50.8311 103.428L82.7316 94.9292L87.0393 93.7649L99.6132 90.505C100.079 90.3886 100.428 89.8065 100.195 89.2244C99.9625 88.7587 99.3803 88.293 98.9146 88.4094Z" fill="#D6DCE8"/>
    <path d="M97.052 80.3761L93.7921 81.1911L90.5322 82.006L48.0371 93.2992C47.5714 93.4157 47.2221 93.9978 47.455 94.5799C47.5714 95.1621 48.1535 95.5113 48.6192 95.3949L91.1143 84.1017L94.7235 83.1703L97.6341 82.3553C98.0998 82.2389 98.4491 81.6568 98.2162 81.0746C98.0998 80.6089 97.6341 80.2597 97.052 80.3761Z" fill="#D6DCE8"/>
    <path d="M77.3764 121.59L75.0479 122.172C74.5822 122.289 74.0001 121.94 73.8837 121.358C73.7672 120.775 74.0001 120.193 74.4658 120.077L76.7943 119.495C77.26 119.378 77.8421 119.728 77.9585 120.31C78.075 121.008 77.8421 121.474 77.3764 121.59Z" fill="#D6DCE8"/>
    <path d="M70.2742 123.453L56.8853 126.946C56.4196 127.062 55.8375 126.713 55.7211 126.131C55.6047 125.549 55.8375 124.967 56.3032 124.85L69.6921 121.358C70.1578 121.241 70.7399 121.59 70.8563 122.173C71.0892 122.755 70.8563 123.337 70.2742 123.453Z" fill="#D6DCE8"/>
    <path d="M95.4223 72.3427L84.8276 75.1369L82.2663 75.8354L46.0581 85.3823C45.5924 85.4987 45.2431 86.0808 45.476 86.663C45.5924 87.2451 46.1745 87.5943 46.6402 87.4779L82.732 78.0475L85.2933 77.349L95.7715 74.5548C96.3537 74.4383 96.5865 73.8562 96.4701 73.1577C96.4701 72.692 95.888 72.2263 95.4223 72.3427Z" fill="#D6DCE8"/>
    <path d="M70.3908 54.7626L40.3531 62.6795C39.6546 62.9123 38.956 62.4466 38.7232 61.7481C38.4903 61.0495 38.956 60.351 39.6546 60.1181L69.6922 52.2012C70.3908 51.9684 71.0893 52.4341 71.3222 53.1326C71.555 53.8312 71.0893 54.5297 70.3908 54.7626Z" fill="#AAB2C5"/>
    <path d="M53.8582 66.8707L42.3321 69.8977C41.6336 70.1306 40.935 69.6649 40.7022 68.9663C40.4693 68.2678 40.935 67.5692 41.6336 67.3364L53.0432 64.3093C53.7418 64.0765 54.4403 64.5422 54.6732 65.2407C54.906 65.9393 54.4403 66.6378 53.8582 66.8707Z" fill="#AAB2C5"/>
    <path d="M75.6299 38.9287L80.2869 56.6253C80.9854 59.0703 83.6632 60.5838 86.1081 59.8852L102.058 55.8104" fill="#D6DCE8"/>
    <path d="M149.094 73.8562L138.383 139.52C138.034 141.732 135.822 143.245 133.61 142.78L69.8088 131.603C67.5967 131.254 66.0832 129.042 66.4324 126.83L81.2184 42.6543C81.5677 40.4422 83.7798 38.9287 85.9918 39.3944L132.329 47.5441L149.094 73.8562Z" fill="white" stroke="#D6DCE8" stroke-width="2" stroke-miterlimit="10"/>
    <path d="M89.7873 117.506C89.7069 115.738 89.5279 112.283 89.425 110.32L96.2525 111.313L95.2747 118.037C95.0556 119.544 93.656 120.588 92.1487 120.369C91.3483 120.253 90.8192 119.982 90.4731 119.601C90.1273 119.22 89.8366 118.59 89.7873 117.506Z" fill="#F1F3F9" stroke="#D6DCE8" stroke-width="2.4"/>
    <path d="M83.9607 96.2346C84.4353 92.9709 87.4657 90.71 90.7293 91.1845L90.7501 91.1876L90.7708 91.1906L90.7915 91.1936L90.8121 91.1966L90.8326 91.1996L90.8531 91.2025L90.8736 91.2055L90.894 91.2085L90.9143 91.2114L90.9346 91.2144L90.9548 91.2173L90.975 91.2203L90.9951 91.2232L91.0152 91.2261L91.0352 91.229L91.0552 91.2319L91.0751 91.2348L91.095 91.2377L91.1148 91.2406L91.1346 91.2435L91.1544 91.2463L91.174 91.2492L91.1937 91.2521L91.2132 91.2549L91.2328 91.2577L91.2522 91.2606L91.2717 91.2634L91.2911 91.2662L91.3104 91.269L91.3297 91.2718L91.3489 91.2746L91.3681 91.2774L91.3872 91.2802L91.4063 91.283L91.4254 91.2858L91.4444 91.2885L91.4634 91.2913L91.4823 91.294L91.5011 91.2968L91.5199 91.2995L91.5387 91.3022L91.5574 91.305L91.5761 91.3077L91.5948 91.3104L91.6134 91.3131L91.6319 91.3158L91.6504 91.3185L91.6689 91.3212L91.6873 91.3238L91.7056 91.3265L91.724 91.3292L91.7423 91.3318L91.7605 91.3345L91.7787 91.3371L91.7968 91.3398L91.815 91.3424L91.833 91.345L91.8511 91.3477L91.869 91.3503L91.887 91.3529L91.9049 91.3555L91.9228 91.3581L91.9406 91.3607L91.9584 91.3633L91.9761 91.3658L91.9938 91.3684L92.0114 91.371L92.0291 91.3735L92.0466 91.3761L92.0642 91.3786L92.0817 91.3812L92.0991 91.3837L92.1166 91.3863L92.134 91.3888L92.1513 91.3913L92.1686 91.3938L92.1859 91.3963L92.2031 91.3989L92.2203 91.4014L92.2375 91.4038L92.2546 91.4063L92.2716 91.4088L92.2887 91.4113L92.3057 91.4138L92.3227 91.4162L92.3396 91.4187L92.3565 91.4212L92.3734 91.4236L92.3902 91.4261L92.407 91.4285L92.4237 91.4309L92.4405 91.4334L92.4572 91.4358L92.4738 91.4382L92.4904 91.4406L92.507 91.443L92.5236 91.4455L92.5401 91.4479L92.5566 91.4503L92.573 91.4526L92.5894 91.455L92.6058 91.4574L92.6222 91.4598L92.6385 91.4622L92.6548 91.4645L92.671 91.4669L92.6873 91.4693L92.7035 91.4716L92.7196 91.474L92.7358 91.4763L92.7519 91.4786L92.7679 91.481L92.784 91.4833L92.8 91.4856L92.8159 91.488L92.8319 91.4903L92.8478 91.4926L92.8637 91.4949L92.8796 91.4972L92.8954 91.4995L92.9112 91.5018L92.927 91.5041L92.9427 91.5064L92.9584 91.5087L92.9741 91.511L92.9898 91.5132L93.0054 91.5155L93.021 91.5178L93.0366 91.5201L93.0522 91.5223L93.0677 91.5246L93.0832 91.5268L93.0987 91.5291L93.1141 91.5313L93.1295 91.5336L93.1449 91.5358L93.1603 91.538L93.1756 91.5403L93.191 91.5425L93.2063 91.5447L93.2215 91.5469L93.2368 91.5492L93.252 91.5514L93.2672 91.5536L93.2824 91.5558L93.2975 91.558L93.3127 91.5602L93.3278 91.5624L93.3429 91.5646L93.3579 91.5668L93.373 91.569L93.388 91.5712L93.403 91.5733L93.4179 91.5755L93.4329 91.5777L93.4478 91.5799L93.4627 91.582L93.4776 91.5842L93.4925 91.5863L93.5073 91.5885L93.5221 91.5907L93.537 91.5928L93.5517 91.595L93.5665 91.5971L93.5813 91.5993L93.596 91.6014L93.6107 91.6035L93.6254 91.6057L93.64 91.6078L93.6547 91.6099L93.6693 91.6121L93.6839 91.6142L93.6985 91.6163L93.7131 91.6184L93.7277 91.6206L93.7422 91.6227L93.7568 91.6248L93.7713 91.6269L93.7858 91.629L93.8003 91.6311L93.8147 91.6332L93.8292 91.6353L93.8436 91.6374L93.858 91.6395L93.8724 91.6416L93.8868 91.6437L93.9012 91.6458L93.9155 91.6479L93.9299 91.65L93.9442 91.652L93.9585 91.6541L93.9728 91.6562L93.9871 91.6583L94.0014 91.6604L94.0156 91.6624L94.0299 91.6645L94.0441 91.6666L94.0584 91.6686L94.0726 91.6707L94.0868 91.6728L94.1009 91.6748L94.1151 91.6769L94.1293 91.679L94.1434 91.681L94.1576 91.6831L94.1717 91.6851L94.1858 91.6872L94.1999 91.6892L94.214 91.6913L94.2281 91.6933L94.2422 91.6954L94.2563 91.6974L94.2703 91.6995L94.2844 91.7015L94.2984 91.7035L94.3125 91.7056L94.3265 91.7076L94.3405 91.7097L94.3545 91.7117L94.3685 91.7137L94.3825 91.7158L94.3965 91.7178L94.4105 91.7198L94.4245 91.7219L94.4384 91.7239L94.4524 91.7259L94.4663 91.728L94.4803 91.73L94.4942 91.732L94.5082 91.734L94.5221 91.7361L94.536 91.7381L94.5499 91.7401L94.5639 91.7421L94.5778 91.7442L94.5917 91.7462L94.6056 91.7482L94.6195 91.7502L94.6334 91.7523L94.6472 91.7543L94.6611 91.7563L94.675 91.7583L94.6889 91.7603L94.7028 91.7623L94.7167 91.7644L94.7305 91.7664L94.7444 91.7684L94.7583 91.7704L94.7721 91.7724L94.786 91.7744L94.7999 91.7765L94.8137 91.7785L94.8276 91.7805L94.8414 91.7825L94.8553 91.7845L94.8692 91.7865L94.883 91.7886L94.8969 91.7906L94.9108 91.7926L94.9246 91.7946L94.9385 91.7966L94.9523 91.7986L94.9662 91.8007L94.9801 91.8027L94.9939 91.8047L95.0078 91.8067L95.0217 91.8087L95.0356 91.8107L95.0494 91.8128L95.0633 91.8148L95.0772 91.8168L95.0911 91.8188L95.105 91.8208L95.1189 91.8229L95.1328 91.8249L95.1467 91.8269L95.1606 91.8289L95.1745 91.8309L95.1884 91.833L95.2023 91.835L95.2162 91.837L95.2302 91.839L95.2441 91.8411L95.2581 91.8431L95.272 91.8451L95.286 91.8471L95.2999 91.8492L95.3139 91.8512L95.3279 91.8532L95.3418 91.8553L95.3558 91.8573L95.3698 91.8593L95.3838 91.8614L95.3978 91.8634L95.4118 91.8655L95.4259 91.8675L95.4399 91.8695L95.4539 91.8716L95.468 91.8736L95.4821 91.8757L95.4961 91.8777L95.5102 91.8798L95.5243 91.8818L95.5384 91.8839L95.5525 91.8859L95.5666 91.888L95.5808 91.89L95.5949 91.8921L95.6091 91.8941L95.6232 91.8962L95.6374 91.8983L95.6516 91.9003L95.6658 91.9024L95.68 91.9044L95.6942 91.9065L95.7084 91.9086L95.7227 91.9107L95.737 91.9127L95.7512 91.9148L95.7655 91.9169L95.7798 91.919L95.7941 91.921L95.8085 91.9231L95.8228 91.9252L95.8372 91.9273L95.8515 91.9294L95.8659 91.9315L95.8803 91.9336L95.8947 91.9357L95.9092 91.9378L95.9236 91.9399L95.9381 91.942L95.9526 91.9441L95.9671 91.9462L95.9816 91.9483L95.9961 91.9504L96.0106 91.9525L96.0252 91.9546L96.0398 91.9568L96.0544 91.9589L96.069 91.961L96.0836 91.9631L96.0983 91.9653L96.113 91.9674L96.1277 91.9695L96.1424 91.9717L96.1571 91.9738L96.1718 91.976L96.1866 91.9781L96.2014 91.9803L96.2162 91.9824L96.231 91.9846L96.2459 91.9867L96.2607 91.9889L96.2756 91.9911L96.2905 91.9932L96.3055 91.9954L96.3204 91.9976L96.3354 91.9998L96.3504 92.0019L96.3654 92.0041L96.3804 92.0063L96.3955 92.0085L96.4106 92.0107L96.4257 92.0129L96.4408 92.0151L96.456 92.0173L96.4711 92.0195L96.4863 92.0217L96.5016 92.0239L96.5168 92.0261L96.5321 92.0284L96.5474 92.0306L96.5627 92.0328L96.578 92.035L96.5934 92.0373L96.6088 92.0395L96.6242 92.0418L96.6397 92.044L96.6551 92.0463L96.6706 92.0485L96.6862 92.0508L96.7017 92.053L96.7173 92.0553L96.7329 92.0576L96.7485 92.0598L96.7642 92.0621L96.7799 92.0644L96.7956 92.0667L96.8114 92.069L96.8271 92.0713L96.8429 92.0736L96.8588 92.0759L96.8746 92.0782L96.8905 92.0805L96.9064 92.0828L96.9224 92.0851L96.9384 92.0874L96.9544 92.0898L96.9704 92.0921L96.9865 92.0944L97.0026 92.0968L97.0187 92.0991L97.0349 92.1015L97.0511 92.1038L97.0673 92.1062L97.0836 92.1086L97.0998 92.1109L97.1162 92.1133L97.1325 92.1157L97.1489 92.1181L97.1653 92.1204L97.1818 92.1228L97.1983 92.1252L97.2148 92.1276L97.2313 92.13L97.2479 92.1325L97.2645 92.1349L97.2812 92.1373L97.2979 92.1397L97.3146 92.1421L97.3313 92.1446L97.3481 92.147L97.365 92.1495L97.3818 92.1519L97.3987 92.1544L97.4157 92.1568L97.4326 92.1593L97.4496 92.1618L97.4667 92.1643L97.4838 92.1667L97.5009 92.1692L97.518 92.1717L97.5352 92.1742L97.5525 92.1767L97.5697 92.1793L97.587 92.1818L97.6044 92.1843L97.6218 92.1868L97.6392 92.1894L97.6567 92.1919L97.6742 92.1944L97.6917 92.197L97.7093 92.1995L97.7269 92.2021L97.7445 92.2047L97.7622 92.2072L97.78 92.2098L97.7978 92.2124L97.8156 92.215L97.8334 92.2176L97.8514 92.2202L97.8693 92.2228L97.8873 92.2254L97.9053 92.228L97.9234 92.2307L97.9415 92.2333L97.9596 92.2359L97.9778 92.2386L97.9961 92.2412L98.0144 92.2439L98.0327 92.2466L98.0511 92.2492L98.0695 92.2519L98.0879 92.2546L98.1064 92.2573L98.125 92.26L98.1436 92.2627L98.1622 92.2654L98.1809 92.2681L98.1996 92.2708L98.2184 92.2736L98.2372 92.2763L98.2561 92.2791L98.275 92.2818L98.2939 92.2846L98.3129 92.2873L98.332 92.2901L98.3511 92.2929L98.3702 92.2957L98.3894 92.2984L98.4087 92.3012L98.428 92.304L98.4473 92.3069L98.4667 92.3097L98.4861 92.3125L98.5056 92.3153L98.5251 92.3182L98.5447 92.321L98.5643 92.3239L98.584 92.3267L98.6037 92.3296L98.6235 92.3325L98.6433 92.3354L98.6632 92.3383L98.6831 92.3412L98.7031 92.3441L98.7231 92.347L98.7432 92.3499L98.7633 92.3528L98.7835 92.3558L98.8038 92.3587L98.824 92.3616L98.8444 92.3646L98.8648 92.3676L98.8852 92.3705L98.9057 92.3735L98.9263 92.3765L98.9469 92.3795L98.9675 92.3825L98.9882 92.3855L99.0043 92.3879L97.2857 104.207L97.2696 104.204L97.2489 104.201L97.2282 104.198L97.2076 104.195L97.1871 104.192L97.1666 104.189L97.1461 104.186L97.1257 104.183L97.1054 104.18L97.0851 104.177L97.0649 104.174L97.0447 104.172L97.0246 104.169L97.0045 104.166L96.9845 104.163L96.9645 104.16L96.9446 104.157L96.9247 104.154L96.9049 104.151L96.8851 104.148L96.8654 104.145L96.8457 104.143L96.826 104.14L96.8065 104.137L96.7869 104.134L96.7675 104.131L96.748 104.128L96.7286 104.126L96.7093 104.123L96.69 104.12L96.6708 104.117L96.6516 104.114L96.6325 104.112L96.6134 104.109L96.5943 104.106L96.5753 104.103L96.5563 104.1L96.5374 104.098L96.5186 104.095L96.4998 104.092L96.481 104.09L96.4623 104.087L96.4436 104.084L96.4249 104.081L96.4063 104.079L96.3878 104.076L96.3693 104.073L96.3508 104.071L96.3324 104.068L96.3141 104.065L96.2957 104.063L96.2774 104.06L96.2592 104.057L96.241 104.055L96.2229 104.052L96.2047 104.049L96.1867 104.047L96.1686 104.044L96.1507 104.041L96.1327 104.039L96.1148 104.036L96.0969 104.034L96.0791 104.031L96.0613 104.029L96.0436 104.026L96.0259 104.023L96.0083 104.021L95.9906 104.018L95.9731 104.016L95.9555 104.013L95.938 104.011L95.9206 104.008L95.9031 104.006L95.8857 104.003L95.8684 104L95.8511 103.998L95.8338 103.995L95.8166 103.993L95.7994 103.99L95.7823 103.988L95.7651 103.985L95.7481 103.983L95.731 103.98L95.714 103.978L95.697 103.976L95.6801 103.973L95.6632 103.971L95.6463 103.968L95.6295 103.966L95.6127 103.963L95.596 103.961L95.5792 103.958L95.5625 103.956L95.5459 103.954L95.5293 103.951L95.5127 103.949L95.4961 103.946L95.4796 103.944L95.4631 103.942L95.4467 103.939L95.4303 103.937L95.4139 103.934L95.3975 103.932L95.3812 103.93L95.3649 103.927L95.3487 103.925L95.3324 103.923L95.3162 103.92L95.3001 103.918L95.2839 103.915L95.2678 103.913L95.2518 103.911L95.2357 103.908L95.2197 103.906L95.2038 103.904L95.1878 103.901L95.1719 103.899L95.156 103.897L95.1401 103.895L95.1243 103.892L95.1085 103.89L95.0927 103.888L95.077 103.885L95.0613 103.883L95.0456 103.881L95.0299 103.879L95.0143 103.876L94.9987 103.874L94.9831 103.872L94.9675 103.869L94.952 103.867L94.9365 103.865L94.921 103.863L94.9056 103.86L94.8902 103.858L94.8748 103.856L94.8594 103.854L94.8441 103.851L94.8287 103.849L94.8134 103.847L94.7982 103.845L94.7829 103.843L94.7677 103.84L94.7525 103.838L94.7373 103.836L94.7222 103.834L94.707 103.832L94.6919 103.829L94.6768 103.827L94.6618 103.825L94.6467 103.823L94.6317 103.821L94.6167 103.818L94.6018 103.816L94.5868 103.814L94.5719 103.812L94.557 103.81L94.5421 103.808L94.5272 103.805L94.5124 103.803L94.4976 103.801L94.4827 103.799L94.468 103.797L94.4532 103.795L94.4384 103.793L94.4237 103.79L94.409 103.788L94.3943 103.786L94.3797 103.784L94.365 103.782L94.3504 103.78L94.3358 103.778L94.3212 103.775L94.3066 103.773L94.292 103.771L94.2775 103.769L94.2629 103.767L94.2484 103.765L94.2339 103.763L94.2194 103.761L94.205 103.759L94.1905 103.756L94.1761 103.754L94.1617 103.752L94.1473 103.75L94.1329 103.748L94.1185 103.746L94.1042 103.744L94.0898 103.742L94.0755 103.74L94.0612 103.738L94.0469 103.736L94.0326 103.733L94.0183 103.731L94.0041 103.729L93.9898 103.727L93.9756 103.725L93.9613 103.723L93.9471 103.721L93.9329 103.719L93.9188 103.717L93.9046 103.715L93.8904 103.713L93.8763 103.711L93.8621 103.709L93.848 103.707L93.8339 103.705L93.8198 103.703L93.8057 103.7L93.7916 103.698L93.7775 103.696L93.7634 103.694L93.7494 103.692L93.7353 103.69L93.7213 103.688L93.7072 103.686L93.6932 103.684L93.6792 103.682L93.6652 103.68L93.6512 103.678L93.6372 103.676L93.6232 103.674L93.6092 103.672L93.5952 103.67L93.5813 103.668L93.5673 103.666L93.5534 103.664L93.5394 103.662L93.5255 103.66L93.5115 103.658L93.4976 103.656L93.4837 103.654L93.4698 103.652L93.4558 103.65L93.4419 103.648L93.428 103.646L93.4141 103.644L93.4002 103.642L93.3863 103.64L93.3725 103.637L93.3586 103.635L93.3447 103.633L93.3308 103.631L93.3169 103.629L93.3031 103.627L93.2892 103.625L93.2753 103.623L93.2614 103.621L93.2476 103.619L93.2337 103.617L93.2198 103.615L93.206 103.613L93.1921 103.611L93.1783 103.609L93.1644 103.607L93.1505 103.605L93.1367 103.603L93.1228 103.601L93.1089 103.599L93.0951 103.597L93.0812 103.595L93.0674 103.593L93.0535 103.591L93.0396 103.589L93.0258 103.587L93.0119 103.585L92.998 103.583L92.9841 103.581L92.9703 103.579L92.9564 103.577L92.9425 103.575L92.9286 103.573L92.9147 103.571L92.9008 103.569L92.8869 103.567L92.873 103.565L92.8591 103.563L92.8452 103.561L92.8313 103.559L92.8174 103.557L92.8035 103.555L92.7895 103.553L92.7756 103.551L92.7616 103.549L92.7477 103.547L92.7337 103.545L92.7198 103.543L92.7058 103.541L92.6919 103.539L92.6779 103.536L92.6639 103.534L92.6499 103.532L92.6359 103.53L92.6219 103.528L92.6079 103.526L92.5938 103.524L92.5798 103.522L92.5658 103.52L92.5517 103.518L92.5376 103.516L92.5236 103.514L92.5095 103.512L92.4954 103.51L92.4813 103.508L92.4672 103.506L92.4531 103.504L92.4389 103.502L92.4248 103.5L92.4106 103.498L92.3965 103.496L92.3823 103.494L92.3681 103.491L92.3539 103.489L92.3397 103.487L92.3255 103.485L92.3113 103.483L92.297 103.481L92.2827 103.479L92.2685 103.477L92.2542 103.475L92.2399 103.473L92.2256 103.471L92.2112 103.469L92.1969 103.467L92.1825 103.464L92.1682 103.462L92.1538 103.46L92.1394 103.458L92.125 103.456L92.1105 103.454L92.0961 103.452L92.0816 103.45L92.0671 103.448L92.0526 103.446L92.0381 103.443L92.0236 103.441L92.0091 103.439L91.9945 103.437L91.9799 103.435L91.9653 103.433L91.9507 103.431L91.9361 103.429L91.9214 103.426L91.9067 103.424L91.892 103.422L91.8773 103.42L91.8626 103.418L91.8479 103.416L91.8331 103.414L91.8183 103.411L91.8035 103.409L91.7887 103.407L91.7738 103.405L91.759 103.403L91.7441 103.401L91.7292 103.399L91.7142 103.396L91.6993 103.394L91.6843 103.392L91.6693 103.39L91.6543 103.388L91.6393 103.385L91.6242 103.383L91.6091 103.381L91.594 103.379L91.5789 103.377L91.5637 103.374L91.5486 103.372L91.5334 103.37L91.5181 103.368L91.5029 103.366L91.4876 103.363L91.4723 103.361L91.457 103.359L91.4417 103.357L91.4263 103.354L91.4109 103.352L91.3955 103.35L91.38 103.348L91.3646 103.346L91.3491 103.343L91.3335 103.341L91.318 103.339L91.3024 103.336L91.2868 103.334L91.2712 103.332L91.2555 103.33L91.2398 103.327L91.2241 103.325L91.2083 103.323L91.1926 103.321L91.1768 103.318L91.1609 103.316L91.1451 103.314L91.1292 103.311L91.1133 103.309L91.0973 103.307L91.0813 103.304L91.0653 103.302L91.0493 103.3L91.0332 103.297L91.0171 103.295L91.001 103.293L90.9848 103.29L90.9686 103.288L90.9524 103.286L90.9362 103.283L90.9199 103.281L90.9035 103.278L90.8872 103.276L90.8708 103.274L90.8544 103.271L90.8379 103.269L90.8215 103.267L90.8049 103.264L90.7884 103.262L90.7718 103.259L90.7552 103.257L90.7385 103.254L90.7218 103.252L90.7051 103.25L90.6884 103.247L90.6716 103.245L90.6547 103.242L90.6379 103.24L90.621 103.237L90.604 103.235L90.5871 103.232L90.5701 103.23L90.553 103.228L90.5359 103.225L90.5188 103.223L90.5017 103.22L90.4845 103.218L90.4672 103.215L90.45 103.213L90.4327 103.21L90.4153 103.207L90.3979 103.205L90.3805 103.202L90.363 103.2L90.3455 103.197L90.328 103.195L90.3104 103.192L90.2928 103.19L90.2752 103.187L90.2575 103.185L90.2397 103.182L90.2219 103.179L90.2041 103.177L90.1863 103.174L90.1683 103.172L90.1504 103.169L90.1324 103.166L90.1144 103.164L90.0963 103.161L90.0782 103.158L90.0601 103.156L90.0419 103.153L90.0236 103.151L90.0053 103.148L89.987 103.145L89.9686 103.143L89.9502 103.14L89.9318 103.137L89.9133 103.134L89.8947 103.132L89.8761 103.129L89.8575 103.126L89.8388 103.124L89.8201 103.121L89.8013 103.118L89.7825 103.115L89.7636 103.113L89.7447 103.11L89.7258 103.107L89.7068 103.104L89.6877 103.102L89.6686 103.099L89.6495 103.096L89.6303 103.093L89.611 103.091L89.5917 103.088L89.5724 103.085L89.553 103.082L89.5336 103.079L89.5141 103.076L89.4946 103.074L89.475 103.071L89.4554 103.068L89.4357 103.065L89.416 103.062L89.3962 103.059L89.3764 103.056L89.3565 103.054L89.3366 103.051L89.3166 103.048L89.2966 103.045L89.2765 103.042L89.2564 103.039L89.2362 103.036L89.2159 103.033L89.1957 103.03L89.1753 103.027L89.1549 103.024L89.1345 103.021L89.114 103.018L89.0934 103.015L89.0728 103.012L89.0522 103.009L89.0315 103.006L89.0107 103.003C85.7471 102.529 83.4861 99.4983 83.9607 96.2346Z" fill="#F1F3F9" stroke="#D6DCE8" stroke-width="2.4"/>
    <path d="M104.106 107.405L104.106 107.405C104.954 107.942 105.772 108.531 106.554 109.17L116.477 117.274C116.477 117.274 116.477 117.274 116.477 117.274C118.633 119.034 121.885 117.77 122.286 115.015L126.048 89.1468C126.448 86.3923 123.691 84.2539 121.123 85.3277C121.123 85.3277 121.123 85.3277 121.123 85.3277L109.302 90.2699C108.37 90.6595 107.419 90.9911 106.454 91.2643L104.106 107.405ZM104.106 107.405C104.094 107.397 104.086 107.387 104.083 107.38C104.082 107.378 104.082 107.377 104.082 107.376L104.081 107.376L106.421 91.2851M104.106 107.405L106.421 91.2851M106.421 91.2851L106.422 91.2846C106.422 91.2839 106.423 91.2829 106.424 91.2816C106.429 91.2759 106.439 91.2685 106.454 91.2644L106.421 91.2851Z" fill="#F1F3F9" stroke="#D6DCE8" stroke-width="2.4"/>
    <path d="M131.617 100.749C131.712 100.098 132.316 99.6476 132.966 99.7423C133.617 99.8369 134.068 100.441 133.973 101.092L133.285 105.823C133.191 106.474 132.586 106.924 131.936 106.83C131.285 106.735 130.834 106.131 130.929 105.48L131.617 100.749Z" fill="#F1F3F9" stroke="#D6DCE8" stroke-width="2.4"/>
    <path d="M120.919 59.7687L90.2995 54.4132C89.601 54.2968 89.1353 53.5982 89.2517 52.8997C89.3681 52.2011 90.0667 51.7354 90.7652 51.8518L121.385 57.2074C122.084 57.3238 122.549 58.0224 122.433 58.7209C122.316 59.303 121.618 59.8852 120.919 59.7687Z" fill="#D6DCE8"/>
    <path d="M100.778 63.7271L89.0188 61.6315C88.3202 61.5151 87.8545 60.8165 87.971 60.118C88.0874 59.4194 88.7859 58.9537 89.4845 59.0701L101.127 61.1658C101.826 61.2822 102.291 61.9808 102.175 62.6793C102.058 63.3779 101.36 63.8436 100.778 63.7271Z" fill="#D6DCE8"/>
    <path d="M132.213 47.5441L129.069 65.59C128.603 68.1513 130.466 70.5963 133.028 71.062L149.094 73.8562" fill="#D6DCE8"/>
</svg>
