<svg width="28" height="28" viewBox="0 0 28 28" fill="none" xmlns="http://www.w3.org/2000/svg">
<g clip-path="url(#clip0_133_14839)">
<path d="M17.3299 16.441C18.2234 16.9026 18.2234 18.0974 17.3299 18.559L11.9354 21.3458C11.0671 21.7944 10 21.2105 10 20.2868L10 14.7132C10 13.7895 11.0671 13.2056 11.9354 13.6542L17.3299 16.441Z" stroke="#F5365C" stroke-width="1.5"/>
<path d="M24.9831 7.0292H24.4854V6.53149C24.4854 4.86795 23.132 3.5146 21.4685 3.5146H20.9709V3.01689C20.9709 1.35341 19.6174 0 17.9539 0H10.0461C8.38261 0 7.0292 1.35341 7.0292 3.01695V3.51466H6.53155C4.86795 3.51466 3.51455 4.86801 3.51455 6.53155V7.02926H3.01689C1.35341 7.0292 0 8.38255 0 10.0461V24.9831C0 26.6466 1.35341 28 3.01695 28H24.9831C26.6466 28 28.0001 26.6466 28.0001 24.9831V10.0461C28 8.38255 26.6466 7.0292 24.9831 7.0292ZM8.66983 3.01695C8.66983 2.25805 9.2872 1.64062 10.0461 1.64062H17.9539C18.7128 1.64062 19.3303 2.25805 19.3303 3.01695V3.51466H8.66983V3.01695ZM5.15517 6.53155C5.15517 5.77265 5.77265 5.15528 6.53155 5.15528H21.4685C22.2274 5.15528 22.8448 5.77265 22.8448 6.53155V7.02926H5.15517V6.53155ZM26.3594 24.9831C26.3594 25.742 25.742 26.3594 24.9831 26.3594H3.01695C2.25805 26.3594 1.64062 25.742 1.64062 24.9831V10.0461C1.64062 9.2872 2.25805 8.66983 3.01695 8.66983H24.9831C25.742 8.66983 26.3594 9.2872 26.3594 10.0461V24.9831H26.3594Z" fill="#F5365C"/>
</g>
<defs>
<clipPath id="clip0_133_14839">
<rect width="28" height="28" fill="white"/>
</clipPath>
</defs>
</svg>
