<svg width="22" height="22" viewBox="0 0 22 22" fill="none" xmlns="http://www.w3.org/2000/svg">
<g clip-path="url(#clip0_481_9081)">
<path d="M11.9958 19.6054L12.7703 20.0638H12.7703L11.9958 19.6054ZM12.4927 18.7658L11.7182 18.3074L12.4927 18.7658ZM9.50661 18.7658L8.73212 19.2243H8.73212L9.50661 18.7658ZM10.0035 19.6054L10.778 19.1469L10.778 19.1469L10.0035 19.6054ZM2.18189 14.5873L3.01338 14.2429H3.01338L2.18189 14.5873ZM7.14012 17.4088L7.12462 18.3087L7.14012 17.4088ZM4.66238 17.0678L4.31796 17.8993H4.31796L4.66238 17.0678ZM19.8175 14.5873L20.6489 14.9317V14.9317L19.8175 14.5873ZM14.8592 17.4088L14.8437 16.5089L14.8592 17.4088ZM17.337 17.0678L17.6814 17.8993H17.6814L17.337 17.0678ZM17.9778 2.50871L17.5075 3.27609H17.5075L17.9778 2.50871ZM19.4909 4.02186L20.2583 3.55161L20.2583 3.55161L19.4909 4.02186ZM4.02156 2.50871L3.55131 1.74134L3.55131 1.74134L4.02156 2.50871ZM2.50841 4.02186L1.74103 3.55161L1.74103 3.55161L2.50841 4.02186ZM8.6189 17.609L9.07139 16.831L9.07138 16.831L8.6189 17.609ZM12.7703 20.0638L13.2672 19.2243L11.7182 18.3074L11.2213 19.1469L12.7703 20.0638ZM8.73212 19.2243L9.22904 20.0638L10.778 19.1469L10.2811 18.3074L8.73212 19.2243ZM11.2213 19.1469C11.1773 19.2213 11.1004 19.2666 10.9997 19.2666C10.8989 19.2666 10.8221 19.2213 10.778 19.1469L9.22904 20.0638C10.0204 21.4008 11.9789 21.4008 12.7703 20.0638L11.2213 19.1469ZM9.62467 2.73331H12.3747V0.933313H9.62467V2.73331ZM19.2663 9.62498V10.5416H21.0663V9.62498H19.2663ZM2.73301 10.5416V9.62498H0.933008V10.5416H2.73301ZM0.933008 10.5416C0.933008 11.5971 0.93252 12.4338 0.978706 13.1107C1.02544 13.7957 1.12296 14.3826 1.3504 14.9317L3.01338 14.2429C2.89194 13.9497 2.81502 13.5815 2.77453 12.9882C2.7335 12.3867 2.73301 11.6217 2.73301 10.5416H0.933008ZM7.15563 16.5089C6.00479 16.4891 5.43847 16.4151 5.00679 16.2363L4.31796 17.8993C5.09684 18.2219 5.97396 18.2889 7.12462 18.3087L7.15563 16.5089ZM1.3504 14.9317C1.90693 16.2753 2.97439 17.3427 4.31796 17.8993L5.00679 16.2363C4.10427 15.8624 3.38722 15.1454 3.01338 14.2429L1.3504 14.9317ZM19.2663 10.5416C19.2663 11.6217 19.2659 12.3867 19.2248 12.9882C19.1843 13.5815 19.1074 13.9497 18.986 14.2429L20.6489 14.9317C20.8764 14.3826 20.9739 13.7957 21.0206 13.1107C21.0668 12.4338 21.0663 11.5971 21.0663 10.5416H19.2663ZM14.8747 18.3087C16.0254 18.2889 16.9025 18.2219 17.6814 17.8993L16.9926 16.2363C16.5609 16.4151 15.9945 16.4891 14.8437 16.5089L14.8747 18.3087ZM18.986 14.2429C18.6121 15.1454 17.8951 15.8624 16.9926 16.2363L17.6814 17.8993C19.025 17.3427 20.0924 16.2753 20.6489 14.9317L18.986 14.2429ZM12.3747 2.73331C13.8924 2.73331 14.9675 2.73426 15.803 2.8137C16.625 2.89186 17.1216 3.03961 17.5075 3.27609L18.448 1.74134C17.7318 1.30242 16.9272 1.11247 15.9734 1.02178C15.0329 0.932363 13.8576 0.933313 12.3747 0.933313V2.73331ZM21.0663 9.62498C21.0663 8.14208 21.0673 6.96671 20.9779 6.0263C20.8872 5.07249 20.6972 4.26787 20.2583 3.55161L18.7236 4.49211C18.96 4.87801 19.1078 5.37462 19.186 6.19667C19.2654 7.03212 19.2663 8.10723 19.2663 9.62498H21.0663ZM17.5075 3.27609C18.0032 3.5798 18.4199 3.9965 18.7236 4.49211L20.2583 3.55161C19.8062 2.8138 19.1859 2.19347 18.448 1.74134L17.5075 3.27609ZM9.62467 0.933313C8.14178 0.933313 6.96641 0.932363 6.02599 1.02178C5.07218 1.11247 4.26756 1.30242 3.55131 1.74134L4.4918 3.27609C4.8777 3.03961 5.37432 2.89186 6.19637 2.8137C7.03181 2.73426 8.10693 2.73331 9.62467 2.73331V0.933313ZM2.73301 9.62498C2.73301 8.10723 2.73396 7.03212 2.81339 6.19667C2.89155 5.37462 3.0393 4.87801 3.27578 4.49211L1.74103 3.55161C1.30211 4.26787 1.11216 5.07249 1.02147 6.0263C0.932058 6.96671 0.933008 8.14208 0.933008 9.62498H2.73301ZM3.55131 1.74134C2.81349 2.19347 2.19316 2.8138 1.74103 3.55161L3.27578 4.49211C3.5795 3.9965 3.99619 3.5798 4.4918 3.27609L3.55131 1.74134ZM10.2811 18.3074C10.097 17.9964 9.92784 17.7087 9.76162 17.4806C9.58433 17.2374 9.37189 17.0058 9.07139 16.831L8.16641 18.387C8.17546 18.3922 8.21416 18.4135 8.30698 18.5408C8.41087 18.6834 8.53075 18.884 8.73212 19.2243L10.2811 18.3074ZM7.12462 18.3087C7.53107 18.3157 7.77446 18.3208 7.95668 18.341C8.12221 18.3593 8.16033 18.3834 8.16642 18.387L9.07138 16.831C8.76791 16.6545 8.45638 16.5853 8.15479 16.5519C7.86988 16.5203 7.52866 16.5154 7.15563 16.5089L7.12462 18.3087ZM13.2672 19.2243C13.4686 18.884 13.5884 18.6834 13.6923 18.5408C13.7852 18.4135 13.8238 18.3922 13.8329 18.387L12.9279 16.831C12.6274 17.0058 12.415 17.2374 12.2377 17.4806C12.0715 17.7087 11.9023 17.9964 11.7182 18.3074L13.2672 19.2243ZM14.8437 16.5089C14.4707 16.5154 14.1294 16.5203 13.8445 16.5519C13.5429 16.5853 13.2314 16.6545 12.9279 16.831L13.8329 18.387C13.839 18.3834 13.8771 18.3593 14.0426 18.341C14.2249 18.3208 14.4682 18.3157 14.8747 18.3087L14.8437 16.5089Z" fill="#8898AA"/>
<path d="M7.33301 8.25H14.6663" stroke="#8898AA" stroke-width="1.8" stroke-linecap="round"/>
<path d="M7.33301 11.4583H12.3747" stroke="#8898AA" stroke-width="1.8" stroke-linecap="round"/>
</g>
<defs>
<clipPath id="clip0_481_9081">
<rect width="22" height="22" fill="white"/>
</clipPath>
</defs>
</svg>
