<svg width="20" height="20" viewBox="0 0 20 20" fill="none" xmlns="http://www.w3.org/2000/svg">
<path d="M5 9.1665C5 6.80948 5 5.63097 5.73223 4.89874C6.46447 4.1665 7.64298 4.1665 10 4.1665H12.5C14.857 4.1665 16.0355 4.1665 16.7678 4.89874C17.5 5.63097 17.5 6.80948 17.5 9.1665V13.3332C17.5 15.6902 17.5 16.8687 16.7678 17.6009C16.0355 18.3332 14.857 18.3332 12.5 18.3332H10C7.64298 18.3332 6.46447 18.3332 5.73223 17.6009C5 16.8687 5 15.6902 5 13.3332V9.1665Z" stroke="#3DD641" stroke-width="1.5"/>
<path d="M5 15.8332C3.61929 15.8332 2.5 14.7139 2.5 13.3332V8.33317C2.5 5.19047 2.5 3.61913 3.47631 2.64281C4.45262 1.6665 6.02397 1.6665 9.16667 1.6665H12.5C13.8807 1.6665 15 2.78579 15 4.1665" stroke="#3DD641" stroke-width="1.5"/>
</svg>
