<svg width="22" height="22" viewBox="0 0 22 22" fill="none" xmlns="http://www.w3.org/2000/svg">
<path d="M5.5 7.33331C5.5 4.74059 5.5 3.44423 6.30546 2.63877C7.11091 1.83331 8.40728 1.83331 11 1.83331C13.5927 1.83331 14.8891 1.83331 15.6945 2.63877C16.5 3.44423 16.5 4.74059 16.5 7.33331V14.6666C16.5 17.2594 16.5 18.5557 15.6945 19.3612C14.8891 20.1666 13.5927 20.1666 11 20.1666C8.40728 20.1666 7.11091 20.1666 6.30546 19.3612C5.5 18.5557 5.5 17.2594 5.5 14.6666V7.33331Z" stroke="#8898AA" stroke-width="1.8"/>
<path d="M19.25 4.125L19.25 17.875" stroke="#8898AA" stroke-width="1.8" stroke-linecap="round"/>
<path d="M2.75 4.125L2.75 17.875" stroke="#8898AA" stroke-width="1.8" stroke-linecap="round"/>
</svg>
