<svg width="16" height="16" viewBox="0 0 16 16" fill="none" xmlns="http://www.w3.org/2000/svg">
<g clip-path="url(#clip0_28_8416)">
<path d="M14.6668 8.00004C14.6668 11.1427 14.6668 12.7141 13.6905 13.6904C12.7142 14.6667 11.1429 14.6667 8.00016 14.6667C4.85747 14.6667 3.28612 14.6667 2.30981 13.6904C1.3335 12.7141 1.3335 11.1427 1.3335 8.00004C1.3335 4.85734 1.3335 3.286 2.30981 2.30968C3.28612 1.33337 4.85747 1.33337 8.00016 1.33337" stroke="#F5365C" stroke-width="1.25" stroke-linecap="round"/>
<path d="M1.3335 8.33326L2.50122 7.31151C3.10873 6.77994 4.02435 6.81043 4.59515 7.38124L7.45497 10.2411C7.91312 10.6992 8.63432 10.7617 9.16443 10.3891L9.36323 10.2494C10.1261 9.71331 11.1581 9.77542 11.8511 10.3991L14.0002 12.3333" stroke="#F5365C" stroke-width="1.25" stroke-linecap="round"/>
<path d="M14.667 1.33339L10.667 5.33337M10.667 1.33337L14.667 5.33336" stroke="#F5365C" stroke-width="1.25" stroke-linecap="round"/>
</g>
<defs>
<clipPath id="clip0_28_8416">
<rect width="16" height="16" fill="white"/>
</clipPath>
</defs>
</svg>
