<svg width="20" height="20" viewBox="0 0 20 20" fill="none" xmlns="http://www.w3.org/2000/svg">
<path d="M3.3335 5V15.8333C3.3335 17.214 4.45278 18.3333 5.8335 18.3333H14.1668C15.5475 18.3333 16.6668 17.214 16.6668 15.8333V7.5C16.6668 6.11929 15.5475 5 14.1668 5H3.3335ZM3.3335 5V4.16666" stroke="white" stroke-width="1.5"/>
<path d="M15.0002 5V5.75H15.7502V5H15.0002ZM13.0978 1.93844L12.9917 1.19597L13.0978 1.93844ZM4.09983 3.22386L3.99376 2.4814H3.99376L4.09983 3.22386ZM4.22605 5.75H15.0002V4.25H4.22605V5.75ZM15.7502 5V3.58835H14.2502V5H15.7502ZM12.9917 1.19597L3.99376 2.4814L4.20589 3.96632L13.2039 2.6809L12.9917 1.19597ZM3.99376 2.4814C3.18455 2.597 2.5835 3.29003 2.5835 4.10745H4.0835C4.0835 4.0365 4.13566 3.97635 4.20589 3.96632L3.99376 2.4814ZM15.7502 3.58835C15.7502 2.11769 14.4476 0.98799 12.9917 1.19597L13.2039 2.6809C13.7561 2.60201 14.2502 3.03051 14.2502 3.58835H15.7502ZM4.22605 4.25C4.14732 4.25 4.0835 4.18618 4.0835 4.10745H2.5835C2.5835 5.0146 3.31889 5.75 4.22605 5.75V4.25Z" fill="white"/>
<path d="M6.6665 10H13.3332" stroke="white" stroke-width="1.5" stroke-linecap="round"/>
<path d="M6.6665 12.9167H11.2498" stroke="white" stroke-width="1.5" stroke-linecap="round"/>
</svg>
