<svg width="16" height="16" viewBox="0 0 16 16" fill="none" xmlns="http://www.w3.org/2000/svg">
<path d="M2.66699 14.6667H13.3337" stroke="white" stroke-width="1.5" stroke-linecap="round"/>
<path d="M9.25903 2.44195L9.75336 1.94761C10.5724 1.12857 11.9003 1.12857 12.7194 1.94761C13.5384 2.76665 13.5384 4.09458 12.7194 4.91362L12.225 5.40796M9.25903 2.44195C9.25903 2.44195 9.32082 3.49241 10.2477 4.41929C11.1746 5.34617 12.225 5.40796 12.225 5.40796M9.25903 2.44195L4.71437 6.98661C4.40655 7.29443 4.25264 7.44834 4.12027 7.61804C3.96413 7.81823 3.83026 8.03483 3.72104 8.26401C3.62845 8.45829 3.55962 8.66478 3.42196 9.07777L2.83862 10.8278M12.225 5.40796L7.68038 9.95262C7.37256 10.2604 7.21865 10.4144 7.04895 10.5467C6.84876 10.7029 6.63216 10.8367 6.40298 10.9459C6.2087 11.0385 6.0022 11.1074 5.58922 11.245L3.83922 11.8284M3.83922 11.8284L3.41144 11.971C3.20821 12.0387 2.98414 11.9858 2.83266 11.8343C2.68118 11.6828 2.62829 11.4588 2.69603 11.2555L2.83862 10.8278M3.83922 11.8284L2.83862 10.8278" stroke="white" stroke-width="1.5"/>
</svg>
