<svg width="129" height="128" viewBox="0 0 129 128" fill="none" xmlns="http://www.w3.org/2000/svg">
    <path d="M66.4722 115.155C94.6384 115.155 117.473 92.3205 117.473 64.0537C117.473 35.7869 94.6384 12.9521 66.4722 12.9521C38.306 12.9521 15.4712 35.7869 15.4712 64.0537C15.4712 92.3205 38.306 115.155 66.4722 115.155Z" fill="#F1F3F9" stroke="#D6DCE8" stroke-width="2" stroke-miterlimit="10"/>
    <path d="M28.9506 36.9941H101.479C104.396 36.9941 106.609 39.2072 106.609 42.1244V88.0957C106.609 91.0129 104.396 93.226 101.479 93.226H28.9506C26.0334 93.226 23.8203 91.0129 23.8203 88.0957V42.1244C23.8203 39.2072 26.2346 36.9941 28.9506 36.9941Z" fill="#F1F3F9" stroke="#D6DCE8" stroke-width="2" stroke-miterlimit="10"/>
    <path d="M92.705 42.1209L93.3215 91.7519C93.3215 93.4473 91.9343 94.7575 90.2388 94.7575H41.841C40.1455 94.7575 38.7583 93.3703 38.7583 91.7519V27.9407C38.7583 26.2452 40.1455 24.9351 41.841 24.9351H76.9063L92.705 42.1209Z" fill="white" stroke="#D6DCE8" stroke-width="2" stroke-miterlimit="10"/>
    <path d="M70.1242 35.3387H46.9272C46.3877 35.3387 45.9253 34.8763 45.9253 34.3368C45.9253 33.7974 46.3877 33.335 46.9272 33.335H70.1242C70.6637 33.335 71.1261 33.7974 71.1261 34.3368C71.1261 34.8763 70.6637 35.3387 70.1242 35.3387Z" fill="#D6DCE8"/>
    <path d="M55.8669 40.888H46.9272C46.3877 40.888 45.9253 40.4256 45.9253 39.8861C45.9253 39.3467 46.3877 38.8843 46.9272 38.8843H55.7898C56.3293 38.8843 56.7917 39.3467 56.7917 39.8861C56.7917 40.4256 56.3293 40.888 55.8669 40.888Z" fill="#D6DCE8"/>
    <path d="M76.9062 24.9351V38.6529C76.9062 40.5796 78.6017 42.1209 80.5284 42.1209H92.7049" fill="#D6DCE8"/>
    <path d="M86.2474 52.6069H77.8375H75.753H47.2168C46.8574 52.6069 46.498 52.9671 46.498 53.4713C46.498 53.9035 46.7856 54.3357 47.2168 54.3357H75.753H77.8375H86.1755C86.6787 54.3357 86.9662 53.9755 86.9662 53.4713C86.9662 53.0391 86.6787 52.6069 86.2474 52.6069Z" fill="#D6DCE8"/>
    <path d="M108.017 66.4679V89.1015C108.017 92.0187 105.704 94.433 102.686 94.433H28.1459C25.2287 94.433 22.8145 92.0187 22.8145 89.1015V64.5566" stroke="#1676EE" stroke-width="3" stroke-linecap="round" stroke-linejoin="round"/>
    <path d="M101.68 53.793H78.1411C75.8274 53.793 73.6143 54.5977 71.9042 56.006L65.768 61.0357C64.0579 62.444 61.8449 63.2488 59.5312 63.2488H32.9745C30.2585 63.2488 28.0454 65.4618 28.0454 68.1779C28.0454 68.3791 28.0454 68.6808 28.146 68.882L33.0751 94.8352C33.4775 97.2494 35.4893 99.0601 38.0042 99.0601H94.8396C97.2539 99.0601 99.3663 97.35 99.7687 94.9358L106.609 59.4262C107.112 56.7102 105.301 54.2959 102.585 53.793C102.183 53.793 101.881 53.793 101.68 53.793Z" fill="white"/>
    <path d="M112.242 46.8521H81.6618C78.6439 46.8521 75.8273 47.858 73.5137 49.7693L65.4662 56.3079C63.2531 58.1185 60.3359 59.2251 57.3181 59.2251H22.7139C19.1931 59.2251 16.3765 62.1423 16.3765 65.5625C16.3765 65.8643 16.3765 66.166 16.4771 66.4678L22.8145 100.368C23.3174 103.587 26.0335 105.901 29.1519 105.901H103.189C106.408 105.901 109.023 103.687 109.526 100.468L118.479 54.0948C119.083 50.574 116.769 47.4556 113.248 46.7515C112.946 46.8521 112.544 46.8521 112.242 46.8521Z" fill="white" stroke="#D6DCE8" stroke-width="2" stroke-miterlimit="10"/>
    <path d="M118.516 43.4469C120.44 43.4469 122 41.8872 122 39.9632C122 38.0392 120.44 36.4795 118.516 36.4795C116.592 36.4795 115.033 38.0392 115.033 39.9632C115.033 41.8872 116.592 43.4469 118.516 43.4469Z" fill="#F1F3F9"/>
    <path d="M115.032 32.1459C116.346 32.1459 117.412 31.0808 117.412 29.7668C117.412 28.4529 116.346 27.3877 115.032 27.3877C113.718 27.3877 112.653 28.4529 112.653 29.7668C112.653 31.0808 113.718 32.1459 115.032 32.1459Z" fill="#F1F3F9"/>
    <path d="M16.1291 39.9633C17.4431 39.9633 18.5083 38.8982 18.5083 37.5842C18.5083 36.2702 17.4431 35.2051 16.1291 35.2051C14.8152 35.2051 13.75 36.2702 13.75 37.5842C13.75 38.8982 14.8152 39.9633 16.1291 39.9633Z" fill="#F1F3F9"/>
    <path d="M10.7758 92.304C13.216 92.304 15.1942 90.3259 15.1942 87.8857C15.1942 85.4455 13.216 83.4673 10.7758 83.4673C8.3356 83.4673 6.35742 85.4455 6.35742 87.8857C6.35742 90.3259 8.3356 92.304 10.7758 92.304Z" fill="#F1F3F9"/>
    <path d="M111.223 112.535L96.4443 97.7856C80.8444 109.258 59.4561 98.0724 59.4561 79.3483C59.4561 66.6061 69.8423 56.2812 82.5686 56.2812C100.96 56.2812 112.249 76.931 101.535 92.5412L116.396 107.373C117.833 108.807 117.833 111.101 116.396 112.535C114.959 113.969 112.66 113.969 111.223 112.535ZM82.5686 63.6152C73.8654 63.6152 66.7634 70.7033 66.7634 79.3893C66.7634 93.3606 83.5128 100.08 93.119 91.1072C103.998 80.9462 96.7316 63.6152 82.5686 63.6152Z" fill="#D6DCE8" stroke="#AAB2C5" stroke-width="2" stroke-miterlimit="10"/>
    <path d="M80.9675 82.8305C80.9265 82.5028 80.8854 82.175 80.8854 81.8062C80.8854 80.4542 81.4602 79.225 82.897 78.1598L84.1286 77.2584C84.9086 76.6848 85.237 76.0292 85.237 75.2508C85.237 74.1036 84.4159 72.9973 82.6917 72.9973C80.8854 72.9973 80.1054 74.4313 80.1054 75.8653C80.1054 76.1521 80.1465 76.4389 80.1875 76.6848L76.9855 76.5619C76.9034 76.1931 76.8623 75.7834 76.8623 75.4147C76.8623 72.6696 78.9149 70.0474 82.6507 70.0474C86.5917 70.0474 88.6443 72.5057 88.6443 75.0869C88.6443 77.0945 87.618 78.4875 86.1401 79.5528L85.1138 80.2903C84.2107 80.9049 83.7591 81.7243 83.7591 82.7486V82.9125H80.9675V82.8305ZM82.4044 84.4694C83.5128 84.4694 84.4159 85.3708 84.4159 86.477C84.4159 87.5832 83.5128 88.4846 82.4044 88.4846C81.296 88.4846 80.3928 87.5832 80.3928 86.477C80.3928 85.3708 81.296 84.4694 82.4044 84.4694Z" fill="#989FB0"/>
</svg>
