<svg width="512" height="512" viewBox="0 0 512 512" fill="none" xmlns="http://www.w3.org/2000/svg">
<g clip-path="url(#clip0_4_44362)">
<path d="M400 512H112C50.144 512 0 461.856 0 400V112C0 50.144 50.144 0 112 0H400C461.856 0 512 50.144 512 112V400C512 461.856 461.856 512 400 512Z" fill="#41479B"/>
<path d="M512 399.99V375.403L432.581 323.37H512V296.422H296.421V512.001H323.368V348.461L494.3 460.451C500.354 451.026 505.028 440.631 508.05 429.555" fill="#F5F5F5"/>
<path d="M7.531 440.444C10.259 447.484 13.673 454.182 17.699 460.451L188.631 348.461V512.001H215.578V296.422H0V323.37H79.419L0 375.403V400.001C0 404.307 0.252 408.554 0.725 412.734" fill="#F5F5F5"/>
<path d="M0 115.807V136.598L79.419 188.632H0V215.579H215.579V0H188.632V163.54L17.699 51.55C11.056 61.893 6.073 73.402 3.114 85.7" fill="#F5F5F5"/>
<path d="M504.321 71.169C501.619 64.27 498.253 57.703 494.3 51.549L323.368 163.54V0H296.421V215.579H512V188.632H432.581L512 136.598V112C512 107.54 511.731 103.142 511.224 98.818" fill="#F5F5F5"/>
<path d="M296.421 0H215.579V215.579H0V296.421H215.579V512H296.421V296.421H512V215.579H296.421V0Z" fill="#FF4B55"/>
<path d="M138.395 323.368L0.725098 412.732C1.8191 422.395 4.1391 431.685 7.5321 440.442L187.891 323.367H138.395V323.368Z" fill="#FF4B55"/>
<path d="M344.465 323.368L508.051 429.554C510.62 420.137 512 410.23 512 399.999V399.988L393.961 323.367L344.465 323.368Z" fill="#FF4B55"/>
<path d="M161.684 188.631L3.114 85.6992C1.083 94.1352 0 102.94 0 111.999V115.806L112.188 188.631H161.684Z" fill="#FF4B55"/>
<path d="M372.863 188.634L511.223 98.8199C510.092 89.1759 507.742 79.9059 504.321 71.1719L323.368 188.634H372.863Z" fill="#FF4B55"/>
</g>
<defs>
<clipPath id="clip0_4_44362">
<rect width="512" height="512" fill="white"/>
</clipPath>
</defs>
</svg>
