<svg width="14" height="15" viewBox="0 0 14 15" fill="none" xmlns="http://www.w3.org/2000/svg">
<path d="M1.91019 9.42239C1.4144 8.77828 1.1665 8.45622 1.1665 7.49992C1.1665 6.54362 1.4144 6.22156 1.91019 5.57745C2.90015 4.29133 4.5604 2.83325 6.99984 2.83325C9.43927 2.83325 11.0995 4.29133 12.0895 5.57744C12.5853 6.22156 12.8332 6.54362 12.8332 7.49992C12.8332 8.45622 12.5853 8.77828 12.0895 9.42239C11.0995 10.7085 9.43927 12.1666 6.99984 12.1666C4.5604 12.1666 2.90015 10.7085 1.91019 9.42239Z" stroke="#8898AA"/>
<path d="M8.75 7.5C8.75 8.4665 7.9665 9.25 7 9.25C6.0335 9.25 5.25 8.4665 5.25 7.5C5.25 6.5335 6.0335 5.75 7 5.75C7.9665 5.75 8.75 6.5335 8.75 7.5Z" stroke="#8898AA"/>
</svg>
