<svg width="16" height="16" viewBox="0 0 16 16" fill="none" xmlns="http://www.w3.org/2000/svg">
<path d="M3.3335 14.6667V9.33337M3.3335 9.33337V2.66671M3.3335 9.33337L4.98061 9.00395C6.08096 8.78388 7.22157 8.8886 8.26345 9.30536C9.39248 9.75697 10.6351 9.8413 11.8148 9.54638L11.8816 9.52969C12.2723 9.43201 12.4576 8.98464 12.2504 8.63929L11.2099 6.90523C10.9823 6.52579 10.8685 6.33607 10.8415 6.12971C10.8302 6.04363 10.8302 5.95645 10.8415 5.87037C10.8685 5.66401 10.9823 5.47429 11.2099 5.09485L12.0623 3.67425C12.2854 3.30244 11.9476 2.84652 11.5269 2.95168C10.5344 3.19982 9.48889 3.12886 8.53897 2.7489L8.26345 2.63869C7.22157 2.22194 6.08096 2.11721 4.98061 2.33728L3.3335 2.66671M3.3335 2.66671V1.33337" stroke="white" stroke-width="1.5" stroke-linecap="round"/>
</svg>
