<svg width="16" height="16" viewBox="0 0 16 16" fill="none" xmlns="http://www.w3.org/2000/svg">
<g clip-path="url(#clip0_270_14172)">
<path fill-rule="evenodd" clip-rule="evenodd" d="M3.34499 7.99997C3.34499 7.49188 3.43117 7.00477 3.58499 6.54788L0.892629 4.53473C0.367902 5.57793 0.0722656 6.7534 0.0722656 7.99997C0.0722656 9.24548 0.367538 10.4202 0.891538 11.4627L3.58245 9.44566C3.43008 8.99091 3.34499 8.50557 3.34499 7.99997Z" fill="white"/>
<path fill-rule="evenodd" clip-rule="evenodd" d="M8.07221 3.37776C9.19949 3.37776 10.2177 3.76888 11.0177 4.40888L13.3449 2.13332C11.9268 0.924432 10.1086 0.177765 8.07221 0.177765C4.91076 0.177765 2.19367 1.94808 0.892578 4.53474L3.58494 6.5479C4.20531 4.70399 5.97367 3.37776 8.07221 3.37776Z" fill="white"/>
<path fill-rule="evenodd" clip-rule="evenodd" d="M8.07221 12.6222C5.97367 12.6222 4.20531 11.296 3.58494 9.45209L0.892578 11.4649C2.19367 14.0519 4.91076 15.8222 8.07221 15.8222C10.0235 15.8222 11.8864 15.1438 13.2846 13.8727L10.7289 11.9381C10.0079 12.3829 9.09985 12.6222 8.07221 12.6222Z" fill="#FEEBEF"/>
<path fill-rule="evenodd" clip-rule="evenodd" d="M15.7086 7.99998C15.7086 7.53776 15.6359 7.03998 15.5268 6.57776H8.07227V9.59998H12.3632C12.1486 10.6304 11.5646 11.4226 10.729 11.9381L13.2846 13.8727C14.7534 12.5379 15.7086 10.5497 15.7086 7.99998Z" fill="#FEEBEF"/>
</g>
<defs>
<clipPath id="clip0_270_14172">
<rect width="16" height="16" fill="white"/>
</clipPath>
</defs>
</svg>
