<svg width="64" height="64" viewBox="0 0 64 64" fill="none" xmlns="http://www.w3.org/2000/svg">
<path d="M25.493 16.9334C28.3882 11.7397 29.8358 9.14282 32 9.14282C34.1643 9.14282 35.6119 11.7397 38.5071 16.9334L39.2561 18.2771C40.0788 19.753 40.4902 20.4909 41.1316 20.9778C41.773 21.4647 42.5718 21.6455 44.1694 22.0069L45.6239 22.336C51.2461 23.6081 54.0571 24.2441 54.7259 26.3948C55.3947 28.5454 53.4783 30.7864 49.6455 35.2684L48.6539 36.4279C47.5648 37.7015 47.0202 38.3383 46.7752 39.1262C46.5302 39.914 46.6125 40.7636 46.7772 42.4629L46.9271 44.01C47.5066 49.9899 47.7963 52.9799 46.0454 54.309C44.2945 55.6382 41.6625 54.4264 36.3985 52.0026L35.0366 51.3756C33.5408 50.6868 32.7928 50.3425 32 50.3425C31.2072 50.3425 30.4593 50.6868 28.9634 51.3756L27.6016 52.0026C22.3376 54.4263 19.7056 55.6382 17.9547 54.309C16.2037 52.9799 16.4935 49.9899 17.0729 44.01L17.2228 42.4629C17.3875 40.7636 17.4698 39.914 17.2249 39.1262C16.9799 38.3383 16.4353 37.7015 15.3461 36.4279L14.3545 35.2684C10.5217 30.7864 8.60534 28.5454 9.27413 26.3948C9.94292 24.2441 12.754 23.6081 18.3761 22.336L19.8306 22.0069C21.4283 21.6455 22.2271 21.4647 22.8685 20.9778C23.5099 20.4909 23.9212 19.753 24.744 18.2771L25.493 16.9334Z" fill="#EDF1F5"/>
</svg>
