<svg width="34" height="28" viewBox="0 0 34 28" fill="none" xmlns="http://www.w3.org/2000/svg">
    <path d="M29.4319 1.80392C24.0382 -2.07356 18.1475 1.90335 17.0538 2.72358C16.9544 2.79815 16.8052 2.77329 16.7058 2.69873C11.8341 -2.02385 1.46928 -0.532509 0.127071 7.04847C-1.14057 14.1323 7.36008 19.7249 12.9775 22.807C16.333 24.6463 16.5815 26.7093 16.4075 27.803C16.3827 27.9769 16.6312 28.0764 16.7307 27.9272C17.9237 26.2619 18.2469 23.9752 18.1723 22.1856C18.0729 18.9543 14.5185 19.4763 13.574 18.8052C12.7289 18.2087 13.4497 16.6676 13.6237 16.3693C13.6486 16.3445 13.6486 16.2948 13.6237 16.2699C13.226 15.6734 13.6486 15.1266 13.7728 14.9774C13.7977 14.9526 13.7977 14.9277 13.7728 14.9029C13.4994 14.2815 13.7977 14.1075 13.9965 13.8589C14.1954 13.6104 14.4937 13.4115 14.1954 13.0884C13.922 12.7653 13.5243 12.4422 13.748 12.0196C13.8971 11.6965 14.8168 11.4976 15.3388 11.0005C15.289 10.9757 15.2393 10.9508 15.1896 10.926C15.1151 10.8762 15.0405 10.8265 14.9908 10.752C14.9411 10.6774 14.8914 10.6277 14.8416 10.5531C14.8914 10.6277 14.9411 10.6774 15.0156 10.7271C15.0902 10.7768 15.1399 10.8265 15.2145 10.8514C15.289 10.8762 15.3636 10.9011 15.4382 10.9011C15.5625 10.752 15.6619 10.578 15.6867 10.3791C15.8359 9.21091 16.1093 7.74443 16.8549 6.47679C17.6006 5.20915 18.4706 4.3392 20.1359 7.94328C21.4781 10.8762 23.392 11.8456 24.088 12.119C24.2371 12.1687 24.2868 12.3427 24.2371 12.467C22.2735 17.6618 23.7151 21.4399 24.2868 22.6081C24.3862 22.807 24.6348 22.9064 24.8585 22.7821C29.4816 20.2468 31.8181 16.3196 31.8181 16.3196C34.0302 13.1878 35.3973 6.0791 29.4319 1.80392Z" fill="url(#paint0_linear_112_11470)"/>
    <defs>
        <linearGradient id="paint0_linear_112_11470" x1="25.2267" y1="34.0059" x2="12.0315" y2="-5.29829" gradientUnits="userSpaceOnUse">
            <stop offset="0.0137453" stop-color="#E30613"/>
            <stop offset="1" stop-color="#E6007E"/>
        </linearGradient>
    </defs>
</svg>
