<svg width="22" height="22" viewBox="0 0 22 22" fill="none" xmlns="http://www.w3.org/2000/svg">
<g clip-path="url(#clip0_481_9167)">
<path d="M1.8335 11.1869C1.8335 9.08918 1.8335 8.04032 2.30943 7.17083C2.78536 6.30134 3.65486 5.7617 5.39386 4.68243L7.22719 3.54461C9.06543 2.40375 9.98455 1.83331 11.0002 1.83331C12.0158 1.83331 12.9349 2.40375 14.7731 3.54461L16.6065 4.68243C18.3455 5.7617 19.215 6.30134 19.6909 7.17083C20.1668 8.04032 20.1668 9.08918 20.1668 11.1869V12.5812C20.1668 16.157 20.1668 17.9449 19.0929 19.0558C18.0189 20.1666 16.2905 20.1666 12.8335 20.1666H9.16683C5.70986 20.1666 3.98138 20.1666 2.90744 19.0558C1.8335 17.9449 1.8335 16.157 1.8335 12.5812V11.1869Z" stroke="#8898AA" stroke-width="1.8"/>
<path d="M11 13.75L11 16.5" stroke="#8898AA" stroke-width="1.8" stroke-linecap="round"/>
</g>
<defs>
<clipPath id="clip0_481_9167">
<rect width="22" height="22" fill="white"/>
</clipPath>
</defs>
</svg>
