<svg width="24" height="24" viewBox="0 0 24 24" fill="none" xmlns="http://www.w3.org/2000/svg">
<path d="M18.2234 15.5489C18.3431 15.5148 18.442 15.4465 18.5357 15.3704C18.9288 15.0528 19.2229 14.6512 19.4727 14.2129C20.3733 12.6328 20.9043 10.8611 21.0084 9.03431C21.0188 8.84796 21.0214 8.6616 21.0266 8.47787C21.0266 8.449 21.0214 8.42013 21.0449 8.39125C21.1177 8.41225 21.1802 8.449 21.2401 8.49887C21.9376 9.12355 22.0574 10.3073 21.9793 11.1813C21.7997 13.2522 20.6648 15.4649 18.8429 16.5358C18.8012 16.5594 18.7596 16.5856 18.7153 16.6066C18.4342 16.7589 18.1427 16.877 17.8408 16.9793C17.7835 16.9977 17.7263 17.0187 17.6716 17.0371C17.9189 17.024 18.2624 16.9793 18.6503 16.8507C19.6888 16.5069 20.5165 15.73 21.0917 14.8087C21.2323 14.583 21.3598 14.3494 21.4847 14.1132C21.4925 14.1 21.5003 14.0843 21.5186 14.079C21.542 14.079 21.5498 14.0974 21.5576 14.1158C21.8465 14.7877 21.771 15.478 21.365 16.0843C20.5633 17.2812 18.8715 17.9925 17.4712 18.0004C16.1802 18.0056 14.8918 18.003 13.6008 18.003C13.5591 18.003 13.4993 18.024 13.4863 17.9662C13.4732 17.9059 13.5409 17.9111 13.5774 17.8954C15.5347 16.9872 17.0157 15.4045 17.9813 13.4727C18.8194 11.7929 19.2411 9.8926 19.0771 8.01067C19.0251 7.40698 18.9131 6.81117 18.744 6.23111C18.7335 6.19698 18.7205 6.16286 18.7127 6.12612C18.6893 6.00013 18.7257 5.96863 18.8533 5.98176C19.1708 6.01325 19.4493 6.13137 19.6992 6.32822C20.1703 6.70356 20.3525 7.38073 20.4592 7.9503C20.6622 9.01856 20.454 10.1997 20.2067 11.2443C19.884 12.6039 19.34 13.932 18.5566 15.0895C18.4733 15.2129 18.377 15.3258 18.2859 15.4465C18.2676 15.4806 18.2468 15.5148 18.2234 15.5489Z" fill="url(#paint0_linear_194_15965)"/>
<path d="M4.82935 11.1642V11.1671L4.83517 11.1584L4.82935 11.1642Z" fill="url(#paint1_linear_194_15965)"/>
<path d="M8.24713 12.5723C8.25178 12.5723 8.25642 12.5746 8.26107 12.5746C8.25642 12.5838 8.24481 12.5792 8.24713 12.5723Z" fill="white"/>
<path d="M8.37305 13.2048C8.37767 13.2048 8.37999 13.2071 8.38461 13.2071L8.37767 13.2117L8.37305 13.2048Z" fill="white"/>
<path fill-rule="evenodd" clip-rule="evenodd" d="M11.0936 5.99116C10.4876 5.99058 9.88144 5.98999 9.27513 5.98999C7.10178 5.98999 4.92842 5.98999 2.75246 5.98474C2.73172 5.98474 2.71081 5.98458 2.68983 5.98442C2.62655 5.98392 2.56253 5.98343 2.49999 5.98737C2.25792 6.00312 2.06792 6.14748 2.02107 6.38895C2.00285 6.48869 2.00024 6.59105 2.00024 6.69079V17.2658C2.00024 17.3367 2.00024 17.4049 2.00285 17.4732C2.01326 17.7173 2.1408 17.8984 2.34642 17.9666C2.44793 18.0007 2.55204 18.0086 2.65616 18.0086C2.99182 18.0086 3.32778 18.008 3.66383 18.0074C4.33623 18.0063 5.00901 18.0051 5.68064 18.0086C6.35975 18.0113 7.03919 18.0093 7.71872 18.0073C8.98728 18.0034 10.2562 17.9996 11.524 18.027C11.8754 18.0348 12.2293 18.0348 12.5807 17.985C12.9347 17.9351 13.2731 17.8406 13.5958 17.691C14.2049 17.4102 14.728 17.0007 15.22 16.5519C15.4803 16.313 15.7275 16.0584 15.9618 15.7907C16.2741 15.4311 16.563 15.0532 16.8259 14.6568C17.1617 14.1529 17.4662 13.6306 17.7135 13.0741C18.6479 10.9875 18.8145 8.62784 18.2887 6.41257C18.2393 6.20259 18.1742 6.00049 17.9269 5.97949C17.9061 5.97844 17.8853 5.97655 17.8645 5.97466C17.8332 5.97183 17.802 5.96899 17.7708 5.96899C17.1617 5.97687 16.55 5.98212 15.941 5.98474C14.3245 5.99429 12.7093 5.99273 11.0936 5.99116ZM15.3346 10.7781C15.5376 10.933 15.6886 11.1482 15.7615 11.3949C15.9697 12.101 15.6548 13.0039 14.9026 13.2008C14.7802 13.2322 14.6553 13.2454 14.5304 13.2427C14.4054 13.2454 14.2805 13.2322 14.1582 13.2008C13.4059 13.0013 13.091 12.101 13.2992 11.3949C13.3721 11.1482 13.5231 10.933 13.7261 10.7781C13.9577 10.6049 14.2414 10.513 14.5304 10.5052C14.8167 10.5104 15.103 10.6023 15.3346 10.7781ZM14.5278 12.8832C14.9 12.8779 15.1212 12.5183 15.1993 12.185C15.2774 11.8621 15.2617 11.4842 15.0822 11.1955C14.9598 10.9986 14.749 10.8805 14.5278 10.8779C14.3091 10.8779 14.0983 10.996 13.9734 11.1955C13.7938 11.4842 13.7807 11.8621 13.8562 12.185C13.9343 12.5209 14.1555 12.8805 14.5278 12.8832ZM7.06589 11.0646C7.06329 10.8966 7.01123 10.7286 6.86547 10.6341C6.72232 10.5423 6.53231 10.5449 6.42039 10.684L6.41547 10.6902C6.40626 10.7015 6.39264 10.7182 6.39696 10.7313C6.40019 10.741 6.41543 10.7437 6.42964 10.7462C6.43835 10.7478 6.44668 10.7493 6.45162 10.7523C6.47765 10.7654 6.48806 10.7916 6.48546 10.8179C6.48546 10.8494 6.48546 11.1565 6.48286 11.5764L5.37926 11.5685C5.37145 11.4767 5.36885 11.3743 5.37666 11.2615C5.38186 11.1591 5.39488 11.0541 5.4157 10.9517C5.42351 10.9071 5.43392 10.8625 5.44693 10.8179C5.45119 10.8024 5.45769 10.7855 5.4644 10.7681L5.4644 10.7681C5.4782 10.7322 5.49293 10.6939 5.49118 10.6604C5.49118 10.6525 5.48858 10.6473 5.48597 10.642C5.47556 10.6289 5.45734 10.6315 5.44173 10.6368C5.34802 10.6604 5.25693 10.7103 5.18405 10.7759L5.17773 10.7822C5.15281 10.8068 5.09859 10.8605 5.0487 10.9491C4.90815 11.2037 4.89513 11.5659 4.89513 11.5659C4.88732 11.7995 4.87952 12.2746 5.12678 12.768C5.12678 12.768 5.30117 13.1145 5.54844 13.1985C5.5979 13.2142 5.61091 13.2038 5.61612 13.1985C5.63027 13.1781 5.60829 13.1482 5.5929 13.1273C5.58848 13.1213 5.5846 13.116 5.58228 13.1119C5.55885 13.0778 5.54063 13.0384 5.52502 13.0016C5.49118 12.9229 5.46775 12.8389 5.45214 12.7523C5.40008 12.4951 5.36624 12.2326 5.37405 11.9701H6.48806V12.9623C6.48806 13.0279 6.51409 13.0909 6.57396 13.1224C6.61039 13.1408 6.65204 13.1486 6.69108 13.1539C6.76136 13.1618 6.83424 13.167 6.90451 13.1539C6.94616 13.146 6.9852 13.1303 7.01644 13.1014C7.06589 13.0541 7.06589 12.9938 7.06589 12.9308C7.06589 12.6814 7.06719 12.4327 7.06849 12.184C7.06979 11.9354 7.07109 11.6867 7.07109 11.4373C7.0698 11.3746 7.06915 11.3126 7.0685 11.2509C7.06785 11.1886 7.0672 11.1266 7.06589 11.0646ZM5.54329 13.3246C5.093 13.1907 4.91861 12.713 4.8223 12.2957L4.8191 12.2816L4.81909 12.2816C4.79937 12.1947 4.78012 12.1099 4.77025 12.0227C4.73381 11.7419 4.73641 11.4348 4.82491 11.1645C4.77244 11.1767 4.74188 11.2157 4.71138 11.2546C4.70254 11.2659 4.69371 11.2772 4.68435 11.2878C4.5386 11.4637 4.52558 11.671 4.52038 11.8758C4.50476 12.3561 4.67655 12.6973 4.71559 12.7708C4.80408 12.9361 4.89779 13.0438 4.92642 13.0752C5.02532 13.1881 5.12683 13.2642 5.20492 13.3167C5.14505 13.301 5.05656 13.2721 4.96546 13.2144C4.87957 13.1619 4.8197 13.1015 4.77806 13.0569C4.72079 12.9834 4.67915 12.9151 4.65312 12.8705L4.64079 12.8485C4.57251 12.7265 4.4892 12.5777 4.4475 12.3823C4.44526 12.3724 4.44317 12.3624 4.44113 12.3526L4.44113 12.3526C4.43133 12.3055 4.42264 12.2638 4.40325 12.2616C4.36941 12.259 4.33297 12.3771 4.32516 12.4033C4.29914 12.4873 4.29133 12.5634 4.29393 12.6028C4.29653 12.7603 4.41366 13.0674 4.69216 13.2747C4.69216 13.2747 4.93683 13.4558 5.35588 13.4716C5.3741 13.4716 5.47561 13.469 5.54849 13.4165C5.58233 13.385 5.60836 13.3456 5.54329 13.3246ZM12.8035 10.7598C12.8243 10.8622 12.8269 10.9488 12.8243 11.0065C12.8296 11.1733 12.835 11.34 12.8404 11.5067L12.8404 11.5073C12.8565 12.0016 12.8725 12.4956 12.8842 12.9882C12.8842 12.9987 12.8816 13.0144 12.8764 13.0302C12.8425 13.1247 12.7202 13.1745 12.6265 13.1745C12.5328 13.1772 12.4183 13.1299 12.3792 13.0433C12.3766 13.0433 12.3714 13.0249 12.3662 13.0066L12.3662 13.0066C12.3376 12.8727 12.322 11.7887 12.3168 11.3162C12.0617 11.8464 11.8613 12.2428 11.7676 12.4186C11.7493 12.4554 11.7077 12.5289 11.6348 12.5525C11.6114 12.5577 11.588 12.563 11.5645 12.563C11.5385 12.563 11.5151 12.5604 11.4943 12.5525C11.4214 12.5262 11.3797 12.4554 11.3615 12.4186C11.2704 12.2428 11.07 11.8464 10.8123 11.3162C10.8071 11.7887 10.7915 12.8727 10.7629 13.0066C10.7577 13.0249 10.7499 13.0433 10.7499 13.0433C10.7108 13.1299 10.5963 13.1745 10.5026 13.1745C10.4089 13.1745 10.2866 13.1273 10.2527 13.0302C10.2475 13.0144 10.2449 12.9987 10.2449 12.9882C10.2683 12.3294 10.2892 11.6679 10.31 11.0065C10.3074 10.9488 10.31 10.8622 10.3308 10.7598C10.3314 10.7573 10.332 10.754 10.3328 10.75C10.3352 10.7367 10.3391 10.7157 10.349 10.6915L10.3513 10.6869C10.3602 10.6683 10.3791 10.6287 10.4219 10.6023C10.4453 10.5866 10.474 10.5761 10.5026 10.5761C10.5208 10.5787 10.5416 10.5787 10.5625 10.5787H10.6457C10.664 10.5787 10.6822 10.5784 10.7004 10.5781C10.7368 10.5775 10.7733 10.5769 10.8097 10.5787C10.8592 10.5813 10.906 10.5971 10.9399 10.6338C10.9815 10.6784 11.0153 10.7414 11.07 10.8753C11.0754 10.8899 11.0809 10.9033 11.0855 10.9145L11.0908 10.9278L11.1023 10.9527L11.1024 10.9527C11.162 11.082 11.4156 11.6318 11.5177 11.8018C11.5255 11.8149 11.5437 11.8438 11.5671 11.8438C11.5901 11.8464 11.6081 11.8161 11.6161 11.8026L11.6166 11.8018C11.7187 11.6319 11.9722 11.0821 12.0319 10.9528L12.0319 10.9527L12.032 10.9527L12.0435 10.9278C12.0456 10.9234 12.0478 10.9173 12.0503 10.9101L12.0503 10.9101C12.0539 10.8999 12.0582 10.8876 12.0643 10.8753C12.1189 10.7388 12.1528 10.6784 12.1944 10.6338C12.2309 10.5971 12.2751 10.5813 12.3246 10.5787H12.4885H12.5718C12.5806 10.5787 12.5901 10.5781 12.5998 10.5774C12.6102 10.5768 12.6209 10.5761 12.6317 10.5761C12.6603 10.5761 12.6864 10.5866 12.7124 10.6023C12.7552 10.6287 12.7741 10.6683 12.783 10.6869L12.7853 10.6915C12.7952 10.7157 12.7991 10.7367 12.8015 10.75C12.8023 10.754 12.8029 10.7573 12.8035 10.7598ZM9.7308 10.6604C9.67893 10.5924 9.58571 10.5895 9.50006 10.5869L9.49915 10.5869C9.41586 10.5842 9.31174 10.5816 9.24407 10.6551C9.20763 10.6971 9.19722 10.7443 9.19462 10.7732C9.19332 11.0171 9.19267 11.261 9.19202 11.5049L9.19201 11.5055C9.19136 11.7496 9.19071 11.9937 9.18941 12.2378C9.18941 12.2851 9.18681 12.3743 9.13735 12.474C9.09096 12.5725 9.02395 12.6294 9.00079 12.6491L8.9968 12.6525C8.9968 12.6525 8.87447 12.7496 8.7157 12.7628C8.70008 12.7628 8.68186 12.7654 8.68186 12.7654H8.66885H8.65583C8.65583 12.7654 8.64021 12.7654 8.62199 12.7628C8.46322 12.7496 8.34089 12.6525 8.34089 12.6525L8.3369 12.6491C8.31374 12.6294 8.24673 12.5725 8.20034 12.474C8.15349 12.3743 8.14828 12.2851 8.14828 12.2378C8.14698 11.9937 8.14633 11.7496 8.14568 11.5055C8.14503 11.2614 8.14438 11.0173 8.14307 10.7732C8.14047 10.7443 8.13006 10.6945 8.09362 10.6551C8.02855 10.5816 7.92183 10.5842 7.83854 10.5869L7.83823 10.5869C7.74984 10.5895 7.65889 10.5922 7.60689 10.6604C7.56525 10.7129 7.56785 10.7785 7.57045 10.8073V12.3402C7.57045 12.4819 7.6121 12.6709 7.74744 12.852C7.89841 13.0541 8.11705 13.1433 8.18212 13.167C8.31746 13.2168 8.45021 13.2326 8.49185 13.2352C8.56213 13.2431 8.62199 13.2431 8.66624 13.2405C8.71049 13.2431 8.77036 13.2405 8.84063 13.2352L8.852 13.2338C8.903 13.2277 9.02558 13.2129 9.15037 13.167C9.21804 13.1407 9.43408 13.0515 9.58504 12.852C9.72039 12.6735 9.76203 12.4845 9.76203 12.3402V10.8073C9.76984 10.7785 9.77244 10.7129 9.7308 10.6604Z" fill="#2F4653"/>
<defs>
<linearGradient id="paint0_linear_194_15965" x1="12.5469" y1="13.8274" x2="22.249" y2="10.8739" gradientUnits="userSpaceOnUse">
<stop offset="0.329" stop-color="#9C8837"/>
<stop offset="0.5606" stop-color="#F7E59E"/>
<stop offset="0.6012" stop-color="#EFDD95"/>
<stop offset="0.6639" stop-color="#DDCA81"/>
<stop offset="0.7405" stop-color="#C4B062"/>
<stop offset="0.7875" stop-color="#B39F4D"/>
</linearGradient>
<linearGradient id="paint1_linear_194_15965" x1="6.5916" y1="12.4849" x2="4.60455" y2="10.9717" gradientUnits="userSpaceOnUse">
<stop offset="0.329" stop-color="#9C8837"/>
<stop offset="0.5606" stop-color="#F7E59E"/>
<stop offset="0.6012" stop-color="#EFDD95"/>
<stop offset="0.6639" stop-color="#DDCA81"/>
<stop offset="0.7405" stop-color="#C4B062"/>
<stop offset="0.7875" stop-color="#B39F4D"/>
</linearGradient>
</defs>
</svg>
