<svg width="20" height="20" viewBox="0 0 20 20" fill="none" xmlns="http://www.w3.org/2000/svg">
<path d="M15.8335 4.16667L12.5002 7.5M12.5002 7.5V5M12.5002 7.5H15.0002" stroke="#3DD641" stroke-width="2" stroke-linecap="round" stroke-linejoin="round"/>
<path d="M12.5839 12.5227L11.8589 11.834L12.5839 12.5227ZM12.9635 12.1231L13.6885 12.8118L12.9635 12.1231ZM14.9774 11.8436L14.4785 12.7103L14.4785 12.7103L14.9774 11.8436ZM16.5694 12.76L16.0706 13.6267L16.5694 12.76ZM17.0181 15.632L17.7431 16.3207L17.0181 15.632ZM15.8343 16.8783L15.1092 16.1896L15.8343 16.8783ZM14.7302 17.4692L14.8285 18.4644H14.8285L14.7302 17.4692ZM6.5128 13.7293L7.23786 13.0406L6.5128 13.7293ZM2.50241 5.80495L1.50384 5.85854L1.50384 5.85854L2.50241 5.80495ZM7.89793 7.08593L8.62299 7.77461L8.62299 7.77461L7.89793 7.08593ZM8.02853 4.74425L8.84506 4.16694L8.84506 4.16694L8.02853 4.74425ZM6.97771 3.25801L6.16119 3.83532L6.16119 3.83532L6.97771 3.25801ZM4.38454 3.0072L5.1096 3.69589V3.69589L4.38454 3.0072ZM3.07654 4.38428L2.35148 3.69559L2.35148 3.69559L3.07654 4.38428ZM9.21927 10.8799L9.94433 10.1912L9.21927 10.8799ZM13.309 13.2114L13.6885 12.8118L12.2384 11.4344L11.8589 11.834L13.309 13.2114ZM14.4785 12.7103L16.0706 13.6267L17.0683 11.8933L15.4762 10.9769L14.4785 12.7103ZM16.293 14.9433L15.1092 16.1896L16.5593 17.567L17.7431 16.3207L16.293 14.9433ZM14.632 16.4741C13.5334 16.5825 10.5334 16.5102 7.23786 13.0406L5.78774 14.418C9.57019 18.4002 13.2114 18.624 14.8285 18.4644L14.632 16.4741ZM7.23786 13.0406C4.07201 9.7076 3.56395 6.92468 3.50097 5.75135L1.50384 5.85854C1.59111 7.48441 2.27918 10.7242 5.78774 14.418L7.23786 13.0406ZM8.38398 8.02625L8.62299 7.77461L7.17287 6.39724L6.93386 6.64887L8.38398 8.02625ZM8.84506 4.16694L7.79424 2.6807L6.16119 3.83532L7.21201 5.32156L8.84506 4.16694ZM3.65948 2.31851L2.35148 3.69559L3.8016 5.07297L5.1096 3.69589L3.65948 2.31851ZM7.65892 7.33756C6.93386 6.64887 6.93294 6.64985 6.93202 6.65082C6.9317 6.65115 6.93078 6.65214 6.93015 6.6528C6.9289 6.65413 6.92763 6.65549 6.92635 6.65687C6.92379 6.65962 6.92118 6.66246 6.91851 6.6654C6.91317 6.67127 6.90761 6.67751 6.90186 6.68412C6.89037 6.69733 6.8781 6.71204 6.86524 6.72828C6.83954 6.76076 6.81148 6.7994 6.78265 6.84445C6.72481 6.93484 6.66454 7.05006 6.61431 7.19123C6.5117 7.47958 6.46219 7.84453 6.52622 8.2815C6.65114 9.13407 7.19649 10.2024 8.49421 11.5686L9.94433 10.1912C8.77954 8.96493 8.54472 8.26203 8.50509 7.99156C8.48684 7.86701 8.50897 7.83248 8.49856 7.86173C8.49443 7.87334 8.4854 7.8941 8.46728 7.92242C8.45831 7.93644 8.44723 7.95214 8.43353 7.96944C8.42669 7.97809 8.41918 7.98715 8.41095 7.99662C8.40683 8.00135 8.40254 8.00618 8.39804 8.01112C8.3958 8.01359 8.3935 8.01609 8.39116 8.01861C8.38999 8.01987 8.3888 8.02114 8.38761 8.02241C8.38701 8.02304 8.3861 8.02401 8.3858 8.02432C8.38489 8.02529 8.38398 8.02625 7.65892 7.33756ZM8.49421 11.5686C9.78593 12.9285 10.8147 13.5225 11.6647 13.6606C12.1051 13.7321 12.4772 13.6768 12.7714 13.5608C12.9144 13.5044 13.0298 13.4373 13.1189 13.3741C13.1633 13.3426 13.2011 13.3121 13.2326 13.2845C13.2484 13.2706 13.2626 13.2575 13.2753 13.2453C13.2817 13.2391 13.2876 13.2332 13.2932 13.2276C13.296 13.2247 13.2988 13.222 13.3014 13.2193C13.3027 13.2179 13.304 13.2166 13.3053 13.2153C13.3059 13.2146 13.3068 13.2136 13.3071 13.2133C13.3081 13.2123 13.309 13.2114 12.5839 12.5227C11.8589 11.834 11.8598 11.833 11.8607 11.8321C11.861 11.8317 11.8619 11.8308 11.8625 11.8302C11.8637 11.8289 11.8649 11.8276 11.8661 11.8264C11.8685 11.8239 11.8709 11.8215 11.8733 11.8191C11.878 11.8144 11.8827 11.8098 11.8872 11.8054C11.8964 11.7966 11.9052 11.7884 11.9138 11.7809C11.9308 11.766 11.9469 11.7534 11.9618 11.7428C11.992 11.7214 12.0176 11.7082 12.0376 11.7003C12.0856 11.6814 12.0783 11.7015 11.9853 11.6864C11.7686 11.6512 11.1151 11.4238 9.94433 10.1912L8.49421 11.5686ZM7.79424 2.6807C6.82427 1.30882 4.85714 1.05761 3.65948 2.31851L5.1096 3.69589C5.36946 3.42231 5.85954 3.40868 6.16119 3.83532L7.79424 2.6807ZM3.50097 5.75135C3.49001 5.54719 3.57656 5.3099 3.8016 5.07297L2.35148 3.69559C1.85383 4.21953 1.45608 4.96856 1.50384 5.85854L3.50097 5.75135ZM15.1092 16.1896C14.9178 16.3912 14.7526 16.4622 14.632 16.4741L14.8285 18.4644C15.5668 18.3915 16.1488 17.9992 16.5593 17.567L15.1092 16.1896ZM8.62299 7.77461C9.55981 6.78832 9.61782 5.2599 8.84506 4.16694L7.21201 5.32156C7.46665 5.68171 7.41364 6.14376 7.17287 6.39724L8.62299 7.77461ZM16.0706 13.6267C16.5516 13.9035 16.6306 14.5879 16.293 14.9433L17.7431 16.3207C19.0036 14.9936 18.6321 12.7934 17.0683 11.8933L16.0706 13.6267ZM13.6885 12.8118C13.8876 12.6021 14.1977 12.5487 14.4785 12.7103L15.4762 10.9769C14.4144 10.3657 13.0886 10.5393 12.2384 11.4344L13.6885 12.8118Z" fill="#3DD641"/>
</svg>
