<svg width="56" height="24" viewBox="0 0 56 24" fill="none" xmlns="http://www.w3.org/2000/svg">
<path d="M4.02273 10.4734V18.2337H1.03043C0.759054 18.2325 0.498988 18.1264 0.306253 17.9381C0.113518 17.7498 0.00353728 17.4945 0 17.2271L0 2.01241C0 1.74427 0.108089 1.4871 0.300489 1.29749C0.492888 1.10788 0.753838 1.00136 1.02593 1.00136H4.01374V8.62863L8.55394 1.97694C8.7701 1.66998 9.05978 1.42034 9.3973 1.25016C9.73482 1.07998 10.1097 0.994519 10.4888 1.00136H13.7511L7.72599 9.21842L14.651 18.2204H11.0513C10.6894 18.2206 10.3326 18.1368 10.0097 17.9758C9.68688 17.8147 9.40704 17.581 9.19289 17.2936L4.04973 10.4689C4.04973 10.4689 4.02273 10.4645 4.02273 10.4734Z" fill="#1B9684"/>
<path d="M37.9426 17.0449C37.4987 17.4889 36.9832 17.8575 36.4172 18.1357C35.7955 18.417 35.1166 18.5536 34.4328 18.5348C33.6604 18.5358 32.8956 18.385 32.183 18.0914C31.4953 17.813 30.8801 17.3856 30.3831 16.8409C29.8513 16.2437 29.4473 15.5468 29.1952 14.7922C28.8862 13.8834 28.7341 12.9301 28.7452 11.9718C28.7407 11.0749 28.8929 10.1838 29.1952 9.33776C29.4556 8.58674 29.8588 7.89146 30.3831 7.28904C30.8783 6.72244 31.4924 6.26854 32.183 5.9587C32.8903 5.64614 33.6576 5.48733 34.4328 5.49308C35.102 5.48064 35.7671 5.59817 36.3902 5.83897C36.9584 6.07033 37.4832 6.39411 37.9426 6.79681V6.76134C37.9426 6.49631 38.0491 6.24207 38.2388 6.05425C38.4286 5.86643 38.6861 5.76032 38.955 5.75915H41.9428V18.2422H38.964C38.8301 18.2422 38.6975 18.2161 38.5738 18.1655C38.4501 18.1148 38.3378 18.0406 38.2433 17.9471C38.1488 17.8535 38.074 17.7425 38.0232 17.6204C37.9724 17.4983 37.9465 17.3675 37.9471 17.2355L37.9426 17.0449ZM35.3778 15.2711C35.7706 15.2901 36.1622 15.2153 36.5194 15.0532C36.8767 14.8911 37.1889 14.6463 37.4296 14.3398C37.9338 13.6628 38.1907 12.8376 38.1586 11.9984C38.223 11.12 37.9373 10.2514 37.3621 9.57722C37.1049 9.30759 36.7928 9.09469 36.4461 8.95252C36.0994 8.81036 35.7261 8.74216 35.3508 8.75241C34.961 8.73181 34.572 8.80455 34.2171 8.96441C33.8621 9.12427 33.5517 9.36648 33.3124 9.67035C32.8153 10.3451 32.5633 11.1652 32.5969 11.9984C32.5607 12.8423 32.8178 13.673 33.3259 14.3531C33.5669 14.6596 33.879 14.9046 34.2361 15.0674C34.5932 15.2302 34.9847 15.3062 35.3778 15.2888V15.2711Z" fill="#737F8F"/>
<path d="M42.0188 20.1581C42.3428 20.2823 42.6668 20.402 43.0043 20.5173C43.3651 20.637 43.744 20.6955 44.1247 20.6903C44.6878 20.7042 45.2467 20.5904 45.7581 20.3577C46.286 20.0594 46.6918 19.5889 46.9055 19.0274L47.3105 18.1405L43.1258 7.15187C43.0684 6.99958 43.0493 6.83588 43.0701 6.67473C43.0908 6.51358 43.1508 6.35978 43.245 6.22646C43.3392 6.09314 43.4647 5.98426 43.6108 5.90911C43.757 5.83396 43.9194 5.79479 44.0842 5.79492H46.7165L49.2004 13.032L51.4502 6.4734C51.518 6.27576 51.6468 6.10402 51.8188 5.98232C51.9907 5.86062 52.197 5.79508 52.4087 5.79492H55.6259L50.3613 19.4442C49.9021 20.7307 49.1296 21.8864 48.1114 22.81C47.0664 23.6362 45.7509 24.0573 44.4127 23.994C43.7987 23.9964 43.1867 23.9249 42.5903 23.7811C41.995 23.632 41.415 23.4286 40.8579 23.1736L42.0188 20.1581Z" fill="#737F8F"/>
<path d="M28.5747 4.06039C28.2922 3.42905 27.8675 2.86945 27.3328 2.42408C26.7558 1.95177 26.0909 1.59479 25.3754 1.37311C24.5505 1.11581 23.6892 0.990062 22.8241 1.00061H17.6899C17.419 1.00061 17.1592 1.10667 16.9676 1.29545C16.7761 1.48422 16.6685 1.74026 16.6685 2.00724V4.19343H22.5181C23.2486 4.1484 23.9687 4.38177 24.5294 4.84529C24.7632 5.05533 24.9482 5.31266 25.0716 5.59967C25.1951 5.88669 25.2542 6.19661 25.2449 6.50822C25.2626 7.16107 25.0259 7.79582 24.5834 8.282C24.3153 8.53802 23.9947 8.73457 23.6431 8.85847C23.2915 8.98237 22.9172 9.03076 22.5451 9.00039H16.6955V17.2307C16.6955 17.4989 16.8035 17.7561 16.9959 17.9457C17.1883 18.1353 17.4493 18.2418 17.7214 18.2418H20.7182V12.0868H22.932C23.7706 12.0962 24.6051 11.9704 25.4024 11.7143C26.1175 11.4842 26.7753 11.1079 27.3328 10.6101C27.8877 10.1004 28.3172 9.47248 28.5882 8.77423C28.9003 7.96302 29.053 7.10072 29.0382 6.23328C29.0426 5.4847 28.8846 4.74385 28.5747 4.06039Z" fill="#737F8F"/>
<path d="M22.5719 7.82128C23.2553 7.82128 23.8093 7.2753 23.8093 6.6018C23.8093 5.9283 23.2553 5.38232 22.5719 5.38232C21.8885 5.38232 21.3345 5.9283 21.3345 6.6018C21.3345 7.2753 21.8885 7.82128 22.5719 7.82128Z" fill="#1B9684"/>
</svg>
