<svg width="92" height="28" viewBox="0 0 92 28" fill="none" xmlns="http://www.w3.org/2000/svg">
<path d="M13.8733 14.2466H10.6734L9.75457 11.3318H5.06555L4.14675 14.2466H0.946808L5.73088 1.13H9.24765L13.8733 14.2466ZM9.05755 9.05066L7.66352 4.64677C7.56847 4.32995 7.47342 3.91808 7.44174 3.47452H7.37838C7.34669 3.85471 7.28333 4.2349 7.1566 4.61509L5.73088 9.05066H9.05755Z" fill="#333333"/>
<path d="M23.8217 4.8686L20.0197 14.9754C19.101 17.4149 17.7386 18.6189 15.901 18.6189C15.204 18.6189 14.6337 18.5238 14.1585 18.3654V16.0526C14.5387 16.2743 14.9505 16.4011 15.4258 16.4011C16.1545 16.4011 16.6931 16.0526 16.9782 15.3555L17.4851 14.1833L13.6832 4.83691H16.8832L18.6257 10.5398C18.7208 10.8883 18.8158 11.3002 18.8792 11.8071H18.9109C18.9742 11.4586 19.0693 11.0467 19.2277 10.5715L21.0019 4.8686H23.8217Z" fill="#333333"/>
<path d="M29.3661 14.4684C27.8137 14.4684 26.578 14.0248 25.6909 13.1694C24.8038 12.2823 24.3603 11.11 24.3603 9.62095C24.3603 8.0685 24.8355 6.86457 25.7543 5.97745C26.6731 5.09034 27.9404 4.67847 29.5245 4.67847C31.077 4.67847 32.3126 5.12202 33.168 5.97745C34.0551 6.86457 34.4987 8.00514 34.4987 9.46254C34.4987 11.015 34.0551 12.2506 33.1363 13.1377C32.1859 14.0248 30.9502 14.4684 29.3661 14.4684ZM29.4295 6.86457C28.7325 6.86457 28.2255 7.08634 27.8453 7.56158C27.4652 8.03682 27.2751 8.70216 27.2751 9.55759C27.2751 11.3635 28.0038 12.2506 29.4612 12.2506C30.8552 12.2506 31.5522 11.3318 31.5522 9.49422C31.5205 7.72 30.8235 6.86457 29.4295 6.86457Z" fill="#333333"/>
<path d="M39.2194 14.2466H36.3363V0.369629H39.2194V14.2466Z" fill="#333333"/>
<path d="M51.4172 8.98729C51.4172 12.6625 49.8014 14.4684 46.6015 14.4684C43.5282 14.4684 42.0075 12.6942 42.0075 9.17739V1.13H43.2114V9.08234C43.2114 10.5081 43.4966 11.5853 44.0668 12.314C44.6371 13.0427 45.5559 13.3912 46.7599 13.3912C49.041 13.3912 50.2133 11.9971 50.2133 9.20907V1.13H51.4172V8.98729Z" fill="#333333"/>
<path d="M60.7002 13.8348C60.0032 14.2467 59.1478 14.4685 58.1656 14.4685C57.5003 14.4685 56.8983 14.3734 56.3597 14.1199C55.8211 13.8665 55.3775 13.5497 54.9973 13.1378C54.6171 12.7259 54.332 12.219 54.1419 11.6487C53.9518 11.0784 53.8251 10.4448 53.8251 9.77943C53.8251 9.08241 53.9201 8.41708 54.1419 7.78343C54.3637 7.14978 54.6805 6.61117 55.0607 6.16762C55.4409 5.72406 55.9795 5.34387 56.5498 5.05873C57.1517 4.80526 57.8171 4.64685 58.5775 4.64685C59.3378 4.64685 60.0665 4.80526 60.7002 5.09041V6.32603C60.0032 5.88247 59.2745 5.66069 58.4824 5.66069C57.9121 5.66069 57.4369 5.75574 56.9933 5.97752C56.5498 6.1993 56.2013 6.48444 55.9161 6.83295C55.631 7.18146 55.4092 7.62502 55.2508 8.10025C55.0924 8.57549 55.029 9.1141 55.029 9.6527C55.029 10.1596 55.0924 10.6349 55.2191 11.0784C55.3458 11.522 55.5359 11.9338 55.8211 12.2824C56.1062 12.6309 56.423 12.916 56.8349 13.1061C57.2468 13.2962 57.722 13.4229 58.2923 13.4229C59.1794 13.4229 59.9715 13.1695 60.6685 12.6309V13.8348H60.7002Z" fill="#333333"/>
<path d="M69.2545 14.2466V8.73384C69.2545 7.68831 69.0644 6.92793 68.6842 6.42101C68.304 5.91409 67.702 5.66062 66.91 5.66062C66.5298 5.66062 66.1813 5.72399 65.8328 5.8824C65.4843 6.04082 65.1991 6.2626 64.9457 6.54774C64.6922 6.83288 64.4704 7.18139 64.3437 7.59327C64.1853 8.00514 64.1219 8.48038 64.1219 8.9873V14.2149H62.9496V0.369629H64.1219V6.48437H64.1536C64.8823 5.24875 65.9278 4.64678 67.2902 4.64678C68.3357 4.64678 69.1278 4.96361 69.6347 5.59726C70.1733 6.23091 70.4267 7.18139 70.4267 8.41701V14.2149H69.2545V14.2466Z" fill="#333333"/>
<path d="M79.3613 14.2466V12.6625H79.3296C78.6959 13.8664 77.7138 14.4684 76.3831 14.4684C74.1653 14.4684 73.0564 13.106 73.0564 10.3813V4.86853H74.2287V10.1595C74.2287 11.2684 74.4188 12.1238 74.8307 12.6625C75.2425 13.2011 75.8445 13.4545 76.6682 13.4545C77.0801 13.4545 77.4286 13.3912 77.7771 13.2327C78.094 13.0743 78.4108 12.8525 78.6326 12.5674C78.886 12.2823 79.0761 11.9338 79.2029 11.5536C79.3296 11.1734 79.393 10.7298 79.393 10.2229V4.86853H80.5652V14.2466H79.3613Z" fill="#333333"/>
<path d="M89.8799 14.2467V8.86064C89.8799 6.7379 89.1195 5.69238 87.5671 5.69238C87.1552 5.69238 86.775 5.78742 86.4265 5.94584C86.078 6.10425 85.7929 6.32603 85.5394 6.61117C85.2859 6.89632 85.0958 7.24483 84.9374 7.62502C84.779 8.00521 84.7156 8.44877 84.7156 8.89232V14.2467H83.5434V4.86863H84.7156V6.48444H84.7473C85.4443 5.24882 86.4899 4.64685 87.8839 4.64685C88.8977 4.64685 89.6898 4.96368 90.2284 5.62901C90.767 6.29435 91.0205 7.24482 91.0205 8.51213V14.215H89.8799V14.2467Z" fill="#333333"/>
<path d="M6.22869 26.0661C5.92188 26.0661 5.65412 25.9957 5.42543 25.8551C5.19673 25.7145 5.01918 25.5178 4.89276 25.2649C4.76634 25.0121 4.70312 24.7166 4.70312 24.3786C4.70312 24.0391 4.76634 23.7422 4.89276 23.4879C5.01918 23.2337 5.19673 23.0362 5.42543 22.8956C5.65412 22.755 5.92188 22.6847 6.22869 22.6847C6.53551 22.6847 6.80327 22.755 7.03196 22.8956C7.26065 23.0362 7.43821 23.2337 7.56463 23.4879C7.69105 23.7422 7.75426 24.0391 7.75426 24.3786C7.75426 24.7166 7.69105 25.0121 7.56463 25.2649C7.43821 25.5178 7.26065 25.7145 7.03196 25.8551C6.80327 25.9957 6.53551 26.0661 6.22869 26.0661ZM6.23082 25.5312C6.42969 25.5312 6.59446 25.4787 6.72514 25.3736C6.85582 25.2685 6.95241 25.1286 7.01491 24.9538C7.07884 24.7791 7.1108 24.5866 7.1108 24.3764C7.1108 24.1676 7.07884 23.9759 7.01491 23.8011C6.95241 23.625 6.85582 23.4837 6.72514 23.3771C6.59446 23.2706 6.42969 23.2173 6.23082 23.2173C6.03054 23.2173 5.86435 23.2706 5.73224 23.3771C5.60156 23.4837 5.50426 23.625 5.44034 23.8011C5.37784 23.9759 5.34659 24.1676 5.34659 24.3764C5.34659 24.5866 5.37784 24.7791 5.44034 24.9538C5.50426 25.1286 5.60156 25.2685 5.73224 25.3736C5.86435 25.4787 6.03054 25.5312 6.23082 25.5312ZM9.84393 26.0661C9.52717 26.0661 9.25444 25.9943 9.02575 25.8509C8.79847 25.706 8.62376 25.5064 8.5016 25.2521C8.37944 24.9979 8.31836 24.7067 8.31836 24.3786C8.31836 24.0462 8.38086 23.7528 8.50586 23.4986C8.63086 23.2429 8.807 23.0433 9.03427 22.8999C9.26154 22.7564 9.5293 22.6847 9.83754 22.6847C10.0861 22.6847 10.3077 22.7308 10.5023 22.8232C10.6969 22.9141 10.8539 23.0419 10.9732 23.2067C11.0939 23.3714 11.1657 23.5639 11.1884 23.7841H10.5684C10.5343 23.6307 10.4561 23.4986 10.334 23.3878C10.2132 23.277 10.0513 23.2216 9.84819 23.2216C9.67063 23.2216 9.51509 23.2685 9.38157 23.3622C9.24947 23.4545 9.14648 23.5866 9.07262 23.7585C8.99876 23.929 8.96183 24.1307 8.96183 24.3636C8.96183 24.6023 8.99805 24.8082 9.07049 24.9815C9.14293 25.1548 9.24521 25.2891 9.37731 25.3842C9.51083 25.4794 9.66779 25.527 9.84819 25.527C9.96893 25.527 10.0783 25.505 10.1763 25.4609C10.2757 25.4155 10.3588 25.3509 10.4256 25.267C10.4938 25.1832 10.5414 25.0824 10.5684 24.9645H11.1884C11.1657 25.1761 11.0968 25.3651 10.9817 25.5312C10.8667 25.6974 10.7125 25.8281 10.5194 25.9233C10.3276 26.0185 10.1025 26.0661 9.84393 26.0661ZM13.2482 26.0661C12.9414 26.0661 12.6737 25.9957 12.445 25.8551C12.2163 25.7145 12.0387 25.5178 11.9123 25.2649C11.7859 25.0121 11.7227 24.7166 11.7227 24.3786C11.7227 24.0391 11.7859 23.7422 11.9123 23.4879C12.0387 23.2337 12.2163 23.0362 12.445 22.8956C12.6737 22.755 12.9414 22.6847 13.2482 22.6847C13.555 22.6847 13.8228 22.755 14.0515 22.8956C14.2802 23.0362 14.4577 23.2337 14.5842 23.4879C14.7106 23.7422 14.7738 24.0391 14.7738 24.3786C14.7738 24.7166 14.7106 25.0121 14.5842 25.2649C14.4577 25.5178 14.2802 25.7145 14.0515 25.8551C13.8228 25.9957 13.555 26.0661 13.2482 26.0661ZM13.2504 25.5312C13.4492 25.5312 13.614 25.4787 13.7447 25.3736C13.8754 25.2685 13.9719 25.1286 14.0344 24.9538C14.0984 24.7791 14.1303 24.5866 14.1303 24.3764C14.1303 24.1676 14.0984 23.9759 14.0344 23.8011C13.9719 23.625 13.8754 23.4837 13.7447 23.3771C13.614 23.2706 13.4492 23.2173 13.2504 23.2173C13.0501 23.2173 12.8839 23.2706 12.7518 23.3771C12.6211 23.4837 12.5238 23.625 12.4599 23.8011C12.3974 23.9759 12.3661 24.1676 12.3661 24.3764C12.3661 24.5866 12.3974 24.7791 12.4599 24.9538C12.5238 25.1286 12.6211 25.2685 12.7518 25.3736C12.8839 25.4787 13.0501 25.5312 13.2504 25.5312ZM18.0098 21.5085L18.274 21.9112C18.176 22.0007 18.0645 22.0646 17.9395 22.103C17.8159 22.1399 17.6731 22.1634 17.5112 22.1733C17.3493 22.1818 17.1639 22.1896 16.9551 22.1967C16.7193 22.2038 16.5254 22.255 16.3734 22.3501C16.2214 22.4439 16.1042 22.5831 16.0218 22.7678C15.9409 22.951 15.8883 23.1811 15.8642 23.4581H15.9047C16.0112 23.255 16.1589 23.103 16.3478 23.0021C16.5382 22.9013 16.752 22.8509 16.9892 22.8509C17.2534 22.8509 17.4885 22.9112 17.6944 23.032C17.9004 23.1527 18.0623 23.3295 18.1802 23.5625C18.2995 23.794 18.3592 24.0774 18.3592 24.4126C18.3592 24.7521 18.2967 25.0455 18.1717 25.2926C18.0481 25.5398 17.8734 25.7308 17.6475 25.8658C17.4231 25.9993 17.1582 26.0661 16.8528 26.0661C16.5474 26.0661 16.2811 25.9972 16.0538 25.8594C15.8279 25.7202 15.6525 25.5142 15.5275 25.2415C15.4039 24.9687 15.3422 24.6321 15.3422 24.2315V23.9077C15.3422 23.1591 15.4757 22.5959 15.7427 22.218C16.0098 21.8402 16.4089 21.6463 16.9402 21.6364C17.112 21.6321 17.2654 21.6314 17.4004 21.6342C17.5353 21.6357 17.6532 21.6293 17.7541 21.6151C17.8564 21.5994 17.9416 21.5639 18.0098 21.5085ZM16.8549 25.5312C17.0325 25.5312 17.1852 25.4865 17.313 25.397C17.4423 25.3061 17.5417 25.1776 17.6113 25.0114C17.6809 24.8452 17.7157 24.6491 17.7157 24.4233C17.7157 24.2017 17.6809 24.0135 17.6113 23.8587C17.5417 23.7038 17.4423 23.5859 17.313 23.505C17.1838 23.4226 17.0289 23.3814 16.8485 23.3814C16.715 23.3814 16.5957 23.4048 16.4906 23.4517C16.3855 23.4972 16.2953 23.5646 16.22 23.6541C16.1461 23.7436 16.0886 23.853 16.0474 23.9822C16.0076 24.1101 15.9863 24.2571 15.9835 24.4233C15.9835 24.7614 16.0609 25.0305 16.2157 25.2308C16.372 25.4311 16.585 25.5312 16.8549 25.5312ZM20.4814 26.0661C20.1589 26.0661 19.8812 25.9972 19.6483 25.8594C19.4167 25.7202 19.2377 25.5249 19.1113 25.2734C18.9863 25.0206 18.9238 24.7244 18.9238 24.3849C18.9238 24.0497 18.9863 23.7543 19.1113 23.4986C19.2377 23.2429 19.4139 23.0433 19.6397 22.8999C19.867 22.7564 20.1326 22.6847 20.4366 22.6847C20.6213 22.6847 20.8002 22.7152 20.9735 22.7763C21.1468 22.8374 21.3024 22.9332 21.4402 23.0639C21.5779 23.1946 21.6866 23.3643 21.7662 23.5732C21.8457 23.7805 21.8855 24.0327 21.8855 24.3295V24.5554H19.2839V24.0781H21.2612C21.2612 23.9105 21.2271 23.7621 21.1589 23.6328C21.0907 23.5021 20.9949 23.3991 20.8713 23.3239C20.7491 23.2486 20.6056 23.2109 20.4409 23.2109C20.2619 23.2109 20.1056 23.255 19.9721 23.343C19.84 23.4297 19.7377 23.5433 19.6653 23.6839C19.5943 23.8232 19.5588 23.9744 19.5588 24.1378V24.5107C19.5588 24.7294 19.5971 24.9155 19.6738 25.0689C19.752 25.2223 19.8606 25.3395 19.9998 25.4205C20.139 25.5 20.3017 25.5398 20.4877 25.5398C20.6085 25.5398 20.7186 25.5227 20.818 25.4886C20.9174 25.4531 21.0034 25.4006 21.0758 25.331C21.1483 25.2614 21.2037 25.1754 21.242 25.0732L21.845 25.1818C21.7967 25.3594 21.71 25.5149 21.585 25.6484C21.4615 25.7805 21.3059 25.8835 21.1184 25.9574C20.9324 26.0298 20.72 26.0661 20.4814 26.0661ZM24.8104 24.0888V24.6406H23.0376V24.0888H24.8104ZM23.2166 22.7273V26H22.5923V22.7273H23.2166ZM25.2557 22.7273V26H24.6335V22.7273H25.2557ZM28.326 24.0888V24.6406H26.5533V24.0888H28.326ZM26.7322 22.7273V26H26.108V22.7273H26.7322ZM28.7713 22.7273V26H28.1491V22.7273H28.7713ZM30.103 23.8523H31.0533C31.4538 23.8523 31.7621 23.9517 31.978 24.1506C32.1939 24.3494 32.3018 24.6058 32.3018 24.9197C32.3018 25.1243 32.2536 25.3082 32.157 25.4716C32.0604 25.6349 31.919 25.7642 31.733 25.8594C31.5469 25.9531 31.3203 26 31.0533 26H29.6236V22.7273H30.2479V25.4503H31.0533C31.2365 25.4503 31.3871 25.4027 31.505 25.3075C31.6229 25.2109 31.6818 25.0881 31.6818 24.9389C31.6818 24.7812 31.6229 24.6527 31.505 24.5533C31.3871 24.4524 31.2365 24.402 31.0533 24.402H30.103V23.8523ZM32.7663 26V22.7273H33.4034V26H32.7663ZM34.8826 25.1072L36.3251 22.7273H37.0112V26H36.3869V23.6179L34.9508 26H34.2583V22.7273H34.8826V25.1072ZM36.0524 21.6193H36.5765C36.5765 21.8594 36.4913 22.0547 36.3208 22.2053C36.1518 22.3544 35.9231 22.429 35.6348 22.429C35.3478 22.429 35.1199 22.3544 34.9508 22.2053C34.7818 22.0547 34.6973 21.8594 34.6973 21.6193H35.2193C35.2193 21.7259 35.2505 21.8203 35.313 21.9027C35.3755 21.9837 35.4828 22.0241 35.6348 22.0241C35.7839 22.0241 35.8904 21.9837 35.9544 21.9027C36.0197 21.8217 36.0524 21.7273 36.0524 21.6193ZM41.9805 21.5085L42.2447 21.9112C42.1467 22.0007 42.0352 22.0646 41.9102 22.103C41.7866 22.1399 41.6438 22.1634 41.4819 22.1733C41.32 22.1818 41.1346 22.1896 40.9258 22.1967C40.69 22.2038 40.4961 22.255 40.3441 22.3501C40.1921 22.4439 40.0749 22.5831 39.9925 22.7678C39.9116 22.951 39.859 23.1811 39.8349 23.4581H39.8754C39.9819 23.255 40.1296 23.103 40.3185 23.0021C40.5089 22.9013 40.7227 22.8509 40.9599 22.8509C41.2241 22.8509 41.4592 22.9112 41.6651 23.032C41.8711 23.1527 42.033 23.3295 42.1509 23.5625C42.2702 23.794 42.3299 24.0774 42.3299 24.4126C42.3299 24.7521 42.2674 25.0455 42.1424 25.2926C42.0188 25.5398 41.8441 25.7308 41.6183 25.8658C41.3938 25.9993 41.1289 26.0661 40.8235 26.0661C40.5181 26.0661 40.2518 25.9972 40.0245 25.8594C39.7987 25.7202 39.6232 25.5142 39.4982 25.2415C39.3746 24.9687 39.3129 24.6321 39.3129 24.2315V23.9077C39.3129 23.1591 39.4464 22.5959 39.7134 22.218C39.9805 21.8402 40.3796 21.6463 40.9109 21.6364C41.0827 21.6321 41.2362 21.6314 41.3711 21.6342C41.506 21.6357 41.6239 21.6293 41.7248 21.6151C41.8271 21.5994 41.9123 21.5639 41.9805 21.5085ZM40.8256 25.5312C41.0032 25.5312 41.1559 25.4865 41.2837 25.397C41.413 25.3061 41.5124 25.1776 41.582 25.0114C41.6516 24.8452 41.6864 24.6491 41.6864 24.4233C41.6864 24.2017 41.6516 24.0135 41.582 23.8587C41.5124 23.7038 41.413 23.5859 41.2837 23.505C41.1545 23.4226 40.9996 23.3814 40.8192 23.3814C40.6857 23.3814 40.5664 23.4048 40.4613 23.4517C40.3562 23.4972 40.266 23.5646 40.1907 23.6541C40.1168 23.7436 40.0593 23.853 40.0181 23.9822C39.9783 24.1101 39.957 24.2571 39.9542 24.4233C39.9542 24.7614 40.0316 25.0305 40.1864 25.2308C40.3427 25.4311 40.5558 25.5312 40.8256 25.5312ZM42.7837 26L42.7816 25.4482H42.8988C42.9897 25.4482 43.0657 25.429 43.1268 25.3906C43.1893 25.3509 43.2404 25.2841 43.2802 25.1903C43.32 25.0966 43.3505 24.9673 43.3718 24.8026C43.3931 24.6364 43.4087 24.4276 43.4187 24.1761L43.4762 22.7273H45.7603V26H45.136V23.277H44.0664L44.0153 24.3892C44.0025 24.6591 43.9748 24.8949 43.9322 25.0966C43.891 25.2983 43.8306 25.4666 43.7511 25.6016C43.6715 25.7351 43.5692 25.8352 43.4442 25.902C43.3192 25.9673 43.1673 26 42.9883 26H42.7837ZM47.9885 26.0661C47.6816 26.0661 47.4139 25.9957 47.1852 25.8551C46.9565 25.7145 46.7789 25.5178 46.6525 25.2649C46.5261 25.0121 46.4629 24.7166 46.4629 24.3786C46.4629 24.0391 46.5261 23.7422 46.6525 23.4879C46.7789 23.2337 46.9565 23.0362 47.1852 22.8956C47.4139 22.755 47.6816 22.6847 47.9885 22.6847C48.2953 22.6847 48.563 22.755 48.7917 22.8956C49.0204 23.0362 49.198 23.2337 49.3244 23.4879C49.4508 23.7422 49.514 24.0391 49.514 24.3786C49.514 24.7166 49.4508 25.0121 49.3244 25.2649C49.198 25.5178 49.0204 25.7145 48.7917 25.8551C48.563 25.9957 48.2953 26.0661 47.9885 26.0661ZM47.9906 25.5312C48.1895 25.5312 48.3542 25.4787 48.4849 25.3736C48.6156 25.2685 48.7122 25.1286 48.7747 24.9538C48.8386 24.7791 48.8706 24.5866 48.8706 24.3764C48.8706 24.1676 48.8386 23.9759 48.7747 23.8011C48.7122 23.625 48.6156 23.4837 48.4849 23.3771C48.3542 23.2706 48.1895 23.2173 47.9906 23.2173C47.7903 23.2173 47.6241 23.2706 47.492 23.3771C47.3613 23.4837 47.264 23.625 47.2001 23.8011C47.1376 23.9759 47.1064 24.1676 47.1064 24.3764C47.1064 24.5866 47.1376 24.7791 47.2001 24.9538C47.264 25.1286 47.3613 25.2685 47.492 25.3736C47.6241 25.4787 47.7903 25.5312 47.9906 25.5312ZM52.3175 22.7273V23.277H50.8537V26H50.2251V22.7273H52.3175ZM54.2591 26.9439V25.4482H54.5254C54.5936 25.3857 54.6511 25.3111 54.698 25.2244C54.7463 25.1378 54.7868 25.0348 54.8194 24.9155C54.8535 24.7962 54.8819 24.657 54.9047 24.4979C54.9274 24.3374 54.9473 24.1541 54.9643 23.9482L55.0666 22.7273H57.291V25.4482H57.7939V26.9439H57.1717V26H54.8897V26.9439H54.2591ZM55.2072 25.4482H56.6689V23.2727H55.6376L55.5694 23.9482C55.5368 24.2919 55.4956 24.5902 55.4458 24.843C55.3961 25.0945 55.3166 25.2962 55.2072 25.4482ZM58.1587 26L58.1566 25.4482H58.2738C58.3647 25.4482 58.4407 25.429 58.5018 25.3906C58.5643 25.3509 58.6154 25.2841 58.6552 25.1903C58.695 25.0966 58.7255 24.9673 58.7468 24.8026C58.7681 24.6364 58.7837 24.4276 58.7937 24.1761L58.8512 22.7273H61.1353V26H60.511V23.277H59.4414L59.3903 24.3892C59.3775 24.6591 59.3498 24.8949 59.3072 25.0966C59.266 25.2983 59.2056 25.4666 59.1261 25.6016C59.0465 25.7351 58.9442 25.8352 58.8192 25.902C58.6942 25.9673 58.5423 26 58.3633 26H58.1587ZM63.9366 26V23.2706H63.1525C62.9664 23.2706 62.8216 23.3139 62.7179 23.4006C62.6142 23.4872 62.5623 23.6009 62.5623 23.7415C62.5623 23.8807 62.6099 23.9929 62.7051 24.0781C62.8017 24.1619 62.9366 24.2038 63.1099 24.2038H64.122V24.7195H63.1099C62.8684 24.7195 62.6596 24.6797 62.4835 24.6001C62.3088 24.5192 62.1738 24.4048 62.0787 24.2571C61.9849 24.1094 61.938 23.9347 61.938 23.733C61.938 23.527 61.9863 23.3494 62.0829 23.2003C62.1809 23.0497 62.3208 22.9332 62.5027 22.8509C62.6859 22.7685 62.9025 22.7273 63.1525 22.7273H64.5353V26H63.9366ZM61.7889 26L62.7115 24.3466H63.3635L62.4409 26H61.7889ZM66.7624 26L68.0302 24.3253L66.7773 22.7273H67.5188L68.5309 24.0866H68.7589V22.7273H69.396V24.0866H69.6175L70.6296 22.7273H71.3711L70.1246 24.3253L71.386 26H70.6296L69.609 24.6364H69.396V26H68.7589V24.6364H68.5458L67.5188 26H66.7624ZM73.3153 26.0661C72.9929 26.0661 72.7152 25.9972 72.4822 25.8594C72.2507 25.7202 72.0717 25.5249 71.9453 25.2734C71.8203 25.0206 71.7578 24.7244 71.7578 24.3849C71.7578 24.0497 71.8203 23.7543 71.9453 23.4986C72.0717 23.2429 72.2479 23.0433 72.4737 22.8999C72.701 22.7564 72.9666 22.6847 73.2706 22.6847C73.4553 22.6847 73.6342 22.7152 73.8075 22.7763C73.9808 22.8374 74.1364 22.9332 74.2741 23.0639C74.4119 23.1946 74.5206 23.3643 74.6001 23.5732C74.6797 23.7805 74.7195 24.0327 74.7195 24.3295V24.5554H72.1179V24.0781H74.0952C74.0952 23.9105 74.0611 23.7621 73.9929 23.6328C73.9247 23.5021 73.8288 23.3991 73.7053 23.3239C73.5831 23.2486 73.4396 23.2109 73.2749 23.2109C73.0959 23.2109 72.9396 23.255 72.8061 23.343C72.674 23.4297 72.5717 23.5433 72.4993 23.6839C72.4283 23.8232 72.3928 23.9744 72.3928 24.1378V24.5107C72.3928 24.7294 72.4311 24.9155 72.5078 25.0689C72.5859 25.2223 72.6946 25.3395 72.8338 25.4205C72.973 25.5 73.1357 25.5398 73.3217 25.5398C73.4425 25.5398 73.5526 25.5227 73.652 25.4886C73.7514 25.4531 73.8374 25.4006 73.9098 25.331C73.9822 25.2614 74.0376 25.1754 74.076 25.0732L74.679 25.1818C74.6307 25.3594 74.544 25.5149 74.419 25.6484C74.2955 25.7805 74.1399 25.8835 73.9524 25.9574C73.7663 26.0298 73.554 26.0661 73.3153 26.0661ZM77.6444 24.0888V24.6406H75.8716V24.0888H77.6444ZM76.0506 22.7273V26H75.4263V22.7273H76.0506ZM78.0897 22.7273V26H77.4675V22.7273H78.0897ZM83.6316 25.4503L83.5719 26.9375H82.9476V26H82.5407V25.4503H83.6316ZM78.9419 22.7273H79.5662V25.4482H80.6976V22.7273H81.3219V25.4482H82.4533V22.7273H83.0776V26H78.9419V22.7273ZM84.9276 25.1072L86.37 22.7273H87.0561V26H86.4318V23.6179L84.9957 26H84.3033V22.7273H84.9276V25.1072ZM90.1307 24.0888V24.6406H88.358V24.0888H90.1307ZM88.5369 22.7273V26H87.9126V22.7273H88.5369ZM90.576 22.7273V26H89.9538V22.7273H90.576Z" fill="#333333"/>
</svg>
