<svg width="155" height="40" viewBox="0 0 155 40" fill="none" xmlns="http://www.w3.org/2000/svg">
<path d="M22.4966 23.8512H17.011L15.4359 18.8544H7.39761L5.82253 23.8512H0.336914L8.53818 1.3656H14.5669L22.4966 23.8512ZM14.2411 14.9439L11.8513 7.39435C11.6883 6.85122 11.5254 6.14515 11.4711 5.38477H11.3625C11.3081 6.03652 11.1995 6.68828 10.9823 7.34004L8.53818 14.9439H14.2411Z" fill="white"/>
<path d="M39.5501 7.77453L33.0325 25.1004C31.4575 29.2825 29.122 31.3464 25.9718 31.3464C24.7769 31.3464 23.7993 31.1835 22.9846 30.9119V26.947C23.6364 27.3272 24.3424 27.5445 25.1571 27.5445C26.4063 27.5445 27.3297 26.947 27.8185 25.7522L28.6875 23.7426L22.1699 7.72021H27.6555L30.6428 17.4966C30.8057 18.094 30.9686 18.8001 31.0773 19.6691H31.1316C31.2402 19.0716 31.4031 18.3656 31.6747 17.5509L34.7162 7.77453H39.5501Z" fill="white"/>
<path d="M49.0551 24.2314C46.3937 24.2314 44.2755 23.471 42.7548 22.0046C41.234 20.4838 40.4736 18.4742 40.4736 15.9215C40.4736 13.2602 41.2883 11.1963 42.8634 9.67553C44.4385 8.15477 46.611 7.4487 49.3267 7.4487C51.988 7.4487 54.1062 8.20908 55.5726 9.67553C57.0934 11.1963 57.8538 13.1516 57.8538 15.65C57.8538 18.3113 57.0934 20.4295 55.5183 21.9503C53.8889 23.471 51.7707 24.2314 49.0551 24.2314ZM49.1637 11.1963C47.9688 11.1963 47.0998 11.5765 46.4481 12.3912C45.7963 13.2059 45.4704 14.3465 45.4704 15.8129C45.4704 18.9088 46.7196 20.4295 49.218 20.4295C51.6078 20.4295 52.8027 18.8544 52.8027 15.7043C52.7484 12.6628 51.5535 11.1963 49.1637 11.1963Z" fill="white"/>
<path d="M65.9464 23.8513H61.0039V0.0621338H65.9464V23.8513Z" fill="white"/>
<path d="M86.8566 14.8352C86.8566 21.1355 84.0866 24.2314 78.601 24.2314C73.3326 24.2314 70.7256 21.1899 70.7256 15.1611V1.3656H72.7895V14.9982C72.7895 17.4423 73.2783 19.2889 74.2559 20.5381C75.2336 21.7873 76.8086 22.3848 78.8725 22.3848C82.7831 22.3848 84.7927 19.995 84.7927 15.2154V1.3656H86.8566V14.8352Z" fill="white"/>
<path d="M102.771 23.1452C101.576 23.8513 100.11 24.2315 98.4262 24.2315C97.2857 24.2315 96.2537 24.0685 95.3304 23.634C94.4071 23.1995 93.6467 22.6564 92.9949 21.9503C92.3432 21.2442 91.8544 20.3752 91.5285 19.3976C91.2026 18.42 90.9854 17.3337 90.9854 16.1931C90.9854 14.9982 91.1483 13.8577 91.5285 12.7714C91.9087 11.6851 92.4518 10.7618 93.1036 10.0014C93.7553 9.24105 94.6786 8.5893 95.6563 8.10048C96.6882 7.66598 97.8288 7.39441 99.1323 7.39441C100.436 7.39441 101.685 7.66598 102.771 8.15479V10.273C101.576 9.51262 100.327 9.13242 98.9694 9.13242C97.9917 9.13242 97.177 9.29536 96.4167 9.67556C95.6563 10.0557 95.0588 10.5446 94.57 11.142C94.0812 11.7395 93.701 12.4998 93.4294 13.3145C93.1579 14.1292 93.0492 15.0526 93.0492 15.9759C93.0492 16.8449 93.1579 17.6596 93.3751 18.42C93.5924 19.1803 93.9183 19.8864 94.4071 20.4839C94.8959 21.0813 95.439 21.5701 96.1451 21.896C96.8512 22.2219 97.6659 22.4391 98.6435 22.4391C100.164 22.4391 101.522 22.0046 102.717 21.0813V23.1452H102.771Z" fill="white"/>
<path d="M117.435 23.8513V14.4008C117.435 12.6085 117.109 11.3049 116.458 10.4359C115.806 9.56692 114.774 9.13241 113.416 9.13241C112.764 9.13241 112.167 9.24104 111.569 9.51261C110.972 9.78417 110.483 10.1644 110.049 10.6532C109.614 11.142 109.234 11.7394 109.017 12.4455C108.745 13.1516 108.637 13.9663 108.637 14.8353V23.7969H106.627V0.0621338H108.637V10.5446H108.691C109.94 8.42635 111.732 7.3944 114.068 7.3944C115.86 7.3944 117.218 7.93753 118.087 9.02379C119.01 10.1101 119.445 11.7394 119.445 13.8577V23.7969H117.435V23.8513Z" fill="white"/>
<path d="M134.76 23.8512V21.1356H134.706C133.62 23.1995 131.936 24.2314 129.655 24.2314C125.853 24.2314 123.952 21.896 123.952 17.225V7.77457H125.962V16.8448C125.962 18.7458 126.288 20.2123 126.994 21.1356C127.7 22.0589 128.732 22.4934 130.144 22.4934C130.85 22.4934 131.447 22.3848 132.045 22.1132C132.588 21.8416 133.131 21.4615 133.511 20.9726C133.946 20.4838 134.272 19.8864 134.489 19.2346C134.706 18.5829 134.815 17.8225 134.815 16.9535V7.77457H136.824V23.8512H134.76Z" fill="white"/>
<path d="M152.793 23.8513V14.618C152.793 10.9791 151.49 9.18674 148.828 9.18674C148.122 9.18674 147.471 9.34968 146.873 9.62124C146.276 9.89281 145.787 10.273 145.352 10.7618C144.918 11.2506 144.592 11.8481 144.32 12.4998C144.049 13.1516 143.94 13.912 143.94 14.6724V23.8513H141.931V7.7746H143.94V10.5446H143.995C145.189 8.42636 146.982 7.39441 149.372 7.39441C151.11 7.39441 152.467 7.93754 153.391 9.07811C154.314 10.2187 154.749 11.8481 154.749 14.0206V23.797H152.793V23.8513Z" fill="white"/>
<path d="M47.8978 37.731H47.1622V36.9954C46.7944 37.5839 46.353 37.8781 45.691 37.8781C45.2496 37.8781 44.8082 37.731 44.5875 37.5103C44.2933 37.2896 44.2197 36.9218 44.2197 36.4805C44.2197 35.5977 44.7347 35.0828 45.7645 34.9357L47.1622 34.715C47.1622 33.9058 46.868 33.4644 46.2059 33.4644C45.6174 33.4644 45.1025 33.6851 44.6611 34.0529V33.2437C45.1025 32.9495 45.691 32.8024 46.2795 32.8024C47.3829 32.8024 47.9714 33.3909 47.9714 34.5679V37.731H47.8978ZM47.0886 35.3035L45.9116 35.4506C45.5438 35.5242 45.3232 35.5977 45.1025 35.7448C44.9553 35.892 44.8082 36.1127 44.8082 36.4069C44.8082 36.6276 44.8818 36.8483 45.0289 36.9954C45.176 37.1425 45.3967 37.2161 45.691 37.2161C46.0588 37.2161 46.353 37.069 46.6473 36.8483C46.868 36.554 47.0151 36.2598 47.0151 35.8184V35.3035H47.0886Z" fill="white"/>
<path d="M53.1211 32.9495L50.9142 38.4666C50.5464 39.4229 49.9579 39.9378 49.2958 39.9378C49.0752 39.9378 48.928 39.9378 48.7809 39.8643V39.2022C48.928 39.2758 49.0752 39.2758 49.2223 39.2758C49.5901 39.2758 49.8843 39.0551 50.105 38.6137L50.4728 37.731L48.6338 32.9495H49.5165L50.8406 36.6276C50.8406 36.7011 50.9142 36.7747 50.9142 36.9954C50.9142 36.9218 50.9878 36.7747 50.9878 36.6276L52.3119 32.9495H53.1211Z" fill="white"/>
<path d="M55.9165 37.8046C55.1809 37.8046 54.6659 37.5839 54.2246 37.1425C53.7832 36.7012 53.5625 36.1127 53.5625 35.377C53.5625 34.5679 53.7832 33.9794 54.2246 33.4644C54.6659 33.0231 55.2544 32.8024 55.99 32.8024C56.7257 32.8024 57.2406 33.0231 57.6819 33.4644C58.1233 33.9058 58.2704 34.4943 58.2704 35.3035C58.2704 36.0391 58.0498 36.7012 57.6084 37.1425C57.167 37.5839 56.5785 37.8046 55.9165 37.8046ZM55.9165 33.4644C55.4015 33.4644 55.0337 33.6116 54.7395 33.9794C54.4452 34.3472 54.2981 34.7885 54.2981 35.377C54.2981 35.9655 54.4452 36.4069 54.7395 36.7012C55.0337 36.9954 55.4015 37.2161 55.9165 37.2161C56.4314 37.2161 56.7992 37.069 57.0935 36.7012C57.3877 36.4069 57.4613 35.892 57.4613 35.3035C57.4613 34.715 57.3141 34.2736 57.0935 33.9058C56.7992 33.6115 56.4314 33.4644 55.9165 33.4644Z" fill="white"/>
<path d="M60.2561 37.7311H59.5205V30.6691H60.2561V37.7311Z" fill="white"/>
<path d="M62.5364 37.7311H61.8008V30.6691H62.5364V37.7311Z" fill="white"/>
<path d="M67.5384 37.731H66.8028V36.9954C66.435 37.5839 65.9936 37.8781 65.3316 37.8781C64.8902 37.8781 64.4488 37.731 64.2282 37.5103C63.9339 37.2896 63.8604 36.9218 63.8604 36.4805C63.8604 35.5977 64.3753 35.0828 65.4051 34.9357L66.8028 34.715C66.8028 33.9058 66.5086 33.4644 65.8465 33.4644C65.258 33.4644 64.7431 33.6851 64.3017 34.0529V33.2437C64.7431 32.9495 65.3316 32.8024 65.9201 32.8024C67.0235 32.8024 67.612 33.3909 67.612 34.5679V37.731H67.5384ZM66.8028 35.3035L65.6258 35.4506C65.258 35.5242 65.0373 35.5977 64.8167 35.7448C64.6695 35.892 64.5224 36.1127 64.5224 36.4069C64.5224 36.6276 64.596 36.8483 64.7431 36.9954C64.8902 37.1425 65.1109 37.2161 65.4051 37.2161C65.7729 37.2161 66.0672 37.069 66.3614 36.8483C66.5821 36.554 66.7292 36.2598 66.7292 35.8184V35.3035H66.8028Z" fill="white"/>
<path d="M71.5115 33.6852C71.3644 33.6116 71.2173 33.5381 70.923 33.5381C70.6288 33.5381 70.3345 33.6852 70.1139 33.9794C69.8932 34.2737 69.8196 34.7151 69.8196 35.23V37.6575H69.084V32.876H69.8196V33.8323C69.8932 33.4645 70.1139 33.2438 70.3345 33.0231C70.5552 32.8024 70.7759 32.7289 71.0702 32.7289C71.2908 32.7289 71.438 32.7289 71.5115 32.8024V33.6852Z" fill="white"/>
<path d="M78.7943 37.731H78.0587V36.9954C77.7644 37.5839 77.2495 37.8781 76.5874 37.8781C75.484 37.8781 74.8955 37.2161 74.8955 35.8184V32.9495H75.6311V35.6713C75.6311 36.7011 75.9989 37.2161 76.8081 37.2161C77.1759 37.2161 77.4702 37.0689 77.7644 36.7747C77.9851 36.4804 78.1322 36.1126 78.1322 35.6713V32.9495H78.8679V37.731H78.7943Z" fill="white"/>
<path d="M83.5753 37.5104C83.2074 37.7311 82.7661 37.8782 82.2511 37.8782C81.5891 37.8782 81.0006 37.6575 80.6328 37.2161C80.1914 36.7748 79.9707 36.1863 79.9707 35.5242C79.9707 34.715 80.1914 34.1265 80.6328 33.6116C81.0741 33.0967 81.6626 32.876 82.4718 32.876C82.9132 32.876 83.281 32.9495 83.5753 33.0967V33.9058C83.2074 33.6852 82.8396 33.538 82.4718 33.538C81.9569 33.538 81.5891 33.6852 81.2948 34.053C81.0006 34.4208 80.8534 34.8621 80.8534 35.4506C80.8534 36.0391 81.0006 36.4805 81.2948 36.7748C81.5891 37.069 81.9569 37.2897 82.4718 37.2897C82.9132 37.2897 83.281 37.1426 83.6488 36.8483V37.5104H83.5753Z" fill="white"/>
<path d="M88.725 37.731H87.9893V35.0092C87.9893 33.9794 87.6215 33.538 86.8859 33.538C86.5181 33.538 86.2239 33.6851 85.9296 33.9794C85.7089 34.2736 85.5618 34.6414 85.5618 35.0828V37.8046H84.8262V30.7426H85.5618V33.8323C85.9296 33.2438 86.4445 32.9495 87.1066 32.9495C88.21 32.9495 88.725 33.6116 88.725 34.8621V37.731Z" fill="white"/>
<path d="M94.0209 37.731H93.2852V36.9954C92.991 37.5839 92.4761 37.8781 91.814 37.8781C90.7106 37.8781 90.1221 37.2161 90.1221 35.8184V32.9495H90.8577V35.6713C90.8577 36.7011 91.2255 37.2161 92.0347 37.2161C92.4025 37.2161 92.6967 37.0689 92.991 36.7747C93.2117 36.4804 93.3588 36.1126 93.3588 35.6713V32.9495H94.0944V37.731H94.0209Z" fill="white"/>
<path d="M99.5384 37.731H98.8028V35.0093C98.8028 33.9794 98.435 33.4645 97.6994 33.4645C97.3316 33.4645 96.9638 33.6116 96.7431 33.9058C96.5224 34.2001 96.3753 34.5679 96.3753 35.0093V37.731H95.6396V32.9495H96.3753V33.7587C96.7431 33.1702 97.258 32.876 97.9201 32.876C98.435 32.876 98.8764 33.0231 99.097 33.3909C99.3177 33.7587 99.5384 34.2001 99.5384 34.8621V37.731Z" fill="white"/>
<path d="M110.352 37.731H109.616V35.0092C109.616 34.4943 109.543 34.1265 109.396 33.8322C109.249 33.538 108.954 33.4644 108.587 33.4644C108.292 33.4644 107.998 33.6115 107.777 33.9058C107.557 34.2 107.41 34.5678 107.41 35.0092V37.731H106.674V34.8621C106.674 33.9058 106.306 33.4644 105.57 33.4644C105.203 33.4644 104.982 33.6115 104.761 33.9058C104.541 34.2 104.467 34.5678 104.467 35.0092V37.731H103.731V32.9495H104.467V33.6851C104.835 33.0966 105.276 32.8024 105.938 32.8024C106.233 32.8024 106.527 32.8759 106.821 33.0966C107.042 33.2437 107.262 33.538 107.336 33.8322C107.704 33.1702 108.219 32.8759 108.954 32.8759C109.984 32.8759 110.499 33.538 110.499 34.7885V37.731H110.352Z" fill="white"/>
<path d="M115.281 37.731H114.545V36.9954C114.177 37.5839 113.736 37.8781 113.074 37.8781C112.632 37.8781 112.191 37.731 111.97 37.5103C111.676 37.2896 111.603 36.9218 111.603 36.4805C111.603 35.5977 112.117 35.0828 113.147 34.9357L114.545 34.715C114.545 33.9058 114.251 33.4644 113.589 33.4644C113 33.4644 112.485 33.6851 112.044 34.0529V33.2437C112.485 32.9495 113.074 32.8024 113.662 32.8024C114.766 32.8024 115.354 33.3909 115.354 34.5679V37.731H115.281ZM114.471 35.3035L113.294 35.4506C112.927 35.5242 112.706 35.5977 112.485 35.7448C112.338 35.892 112.191 36.1127 112.191 36.4069C112.191 36.6276 112.265 36.8483 112.412 36.9954C112.559 37.1425 112.78 37.2161 113.074 37.2161C113.442 37.2161 113.736 37.069 114.03 36.8483C114.251 36.554 114.398 36.2598 114.398 35.8184V35.3035H114.471Z" fill="white"/>
<path d="M120.21 32.9495L118.591 35.377L120.136 37.731H119.253L118.297 36.1862C118.223 36.1126 118.15 35.9655 118.076 35.8184C118.076 35.8184 118.003 35.9655 117.856 36.1862L116.899 37.731H116.017L117.635 35.377L116.09 32.9495H116.973L117.929 34.5678C118.003 34.715 118.076 34.7885 118.15 34.9356L119.327 32.9495H120.21Z" fill="white"/>
<path d="M120.797 37.5103V36.7011C121.238 36.9954 121.68 37.1425 122.195 37.1425C122.857 37.1425 123.224 36.9218 123.224 36.4805C123.224 36.3333 123.224 36.2598 123.151 36.1862C123.077 36.1127 123.004 36.0391 122.93 35.9655C122.857 35.892 122.709 35.8184 122.562 35.7448C122.415 35.6713 122.268 35.5977 122.121 35.5977C121.9 35.5242 121.753 35.4506 121.532 35.377C121.312 35.3035 121.238 35.2299 121.165 35.0828C121.091 35.0092 120.944 34.8621 120.944 34.715C120.87 34.5679 120.87 34.4207 120.87 34.2C120.87 33.9794 120.944 33.7587 121.018 33.6116C121.091 33.4644 121.238 33.3173 121.459 33.1702C121.606 33.0231 121.827 32.9495 122.047 32.8759C122.268 32.8024 122.489 32.8024 122.709 32.8024C123.151 32.8024 123.519 32.8759 123.813 33.0231V33.8322C123.445 33.6116 123.077 33.4644 122.636 33.4644C122.489 33.4644 122.342 33.4644 122.268 33.538C122.121 33.538 122.047 33.6115 121.974 33.6851C121.9 33.7587 121.827 33.8322 121.753 33.9058C121.68 33.9794 121.68 34.0529 121.68 34.2C121.68 34.3472 121.68 34.4207 121.753 34.4943C121.827 34.5679 121.9 34.6414 121.974 34.715C122.047 34.7885 122.195 34.8621 122.268 34.8621C122.415 34.9357 122.562 35.0092 122.709 35.0092C122.93 35.0828 123.077 35.1563 123.298 35.2299C123.519 35.3035 123.592 35.377 123.739 35.5242C123.886 35.5977 123.96 35.7448 124.034 35.892C124.107 36.0391 124.107 36.1862 124.107 36.4069C124.107 36.6276 124.034 36.8483 123.96 36.9954C123.886 37.1425 123.739 37.2896 123.519 37.4368C123.298 37.5839 123.151 37.6575 122.93 37.6575C122.709 37.731 122.489 37.731 122.195 37.731C121.606 37.8046 121.165 37.731 120.797 37.5103Z" fill="white"/>
<path d="M129.036 37.731H128.301V36.9954C128.007 37.5839 127.492 37.8781 126.83 37.8781C125.726 37.8781 125.138 37.2161 125.138 35.8184V32.9495H125.873V35.6713C125.873 36.7011 126.241 37.2161 127.05 37.2161C127.418 37.2161 127.712 37.0689 128.007 36.7747C128.227 36.4804 128.374 36.1126 128.374 35.6713V32.9495H129.11V37.731H129.036Z" fill="white"/>
<path d="M130.287 37.5103V36.7011C130.728 36.9954 131.17 37.1425 131.685 37.1425C132.347 37.1425 132.715 36.9218 132.715 36.4805C132.715 36.3333 132.715 36.2598 132.641 36.1862C132.568 36.1127 132.494 36.0391 132.42 35.9655C132.347 35.892 132.2 35.8184 132.053 35.7448C131.905 35.6713 131.758 35.5977 131.611 35.5977C131.391 35.5242 131.243 35.4506 131.023 35.377C130.802 35.3035 130.728 35.2299 130.655 35.0828C130.581 35.0092 130.434 34.8621 130.434 34.715C130.361 34.5679 130.361 34.4207 130.361 34.2C130.361 33.9794 130.434 33.7587 130.508 33.6116C130.581 33.4644 130.728 33.3173 130.949 33.1702C131.096 33.0231 131.317 32.9495 131.538 32.8759C131.758 32.8024 131.979 32.8024 132.2 32.8024C132.641 32.8024 133.009 32.8759 133.303 33.0231V33.8322C132.935 33.6116 132.568 33.4644 132.126 33.4644C131.979 33.4644 131.832 33.4644 131.758 33.538C131.611 33.538 131.538 33.6115 131.464 33.6851C131.391 33.7587 131.317 33.8322 131.243 33.9058C131.17 33.9794 131.17 34.0529 131.17 34.2C131.17 34.3472 131.17 34.4207 131.243 34.4943C131.317 34.5679 131.391 34.6414 131.464 34.715C131.538 34.7885 131.685 34.8621 131.758 34.8621C131.905 34.9357 132.053 35.0092 132.2 35.0092C132.42 35.0828 132.568 35.1563 132.788 35.2299C133.009 35.3035 133.082 35.377 133.23 35.5242C133.377 35.5977 133.45 35.7448 133.524 35.892C133.597 36.0391 133.597 36.1862 133.597 36.4069C133.597 36.6276 133.524 36.8483 133.45 36.9954C133.377 37.1425 133.23 37.2896 133.009 37.4368C132.788 37.5839 132.641 37.6575 132.42 37.6575C132.2 37.731 131.979 37.731 131.685 37.731C131.023 37.8046 130.655 37.731 130.287 37.5103Z" fill="white"/>
<path d="M138.011 36.9954V37.6575H137.275V30.5956H138.011V33.7587C138.379 33.0967 138.967 32.8024 139.629 32.8024C140.218 32.8024 140.733 33.0231 141.101 33.4645C141.468 33.9058 141.616 34.4943 141.616 35.1564C141.616 35.9656 141.395 36.6276 141.027 37.069C140.659 37.5839 140.071 37.8046 139.409 37.8046C138.82 37.8046 138.305 37.5104 138.011 36.9954ZM138.011 35.0828V35.7449C138.011 36.1127 138.158 36.4805 138.379 36.7748C138.6 37.069 138.967 37.2161 139.335 37.2161C139.776 37.2161 140.144 37.069 140.439 36.7012C140.733 36.3334 140.806 35.8184 140.806 35.23C140.806 34.715 140.659 34.2736 140.439 33.9794C140.218 33.6852 139.85 33.538 139.409 33.538C138.967 33.538 138.6 33.6852 138.305 33.9794C138.011 34.2736 138.011 34.6415 138.011 35.0828Z" fill="white"/>
<path d="M143.603 37.7311H142.867V30.6691H143.603V37.7311Z" fill="white"/>
<path d="M147.132 37.8046C146.397 37.8046 145.882 37.5839 145.44 37.1425C144.999 36.7012 144.778 36.1127 144.778 35.377C144.778 34.5679 144.999 33.9794 145.44 33.4644C145.882 33.0231 146.47 32.8024 147.206 32.8024C147.942 32.8024 148.456 33.0231 148.898 33.4644C149.339 33.9058 149.486 34.4943 149.486 35.3035C149.486 36.0391 149.266 36.7012 148.824 37.1425C148.383 37.5839 147.868 37.8046 147.132 37.8046ZM147.206 33.4644C146.691 33.4644 146.323 33.6116 146.029 33.9794C145.735 34.3472 145.588 34.7885 145.588 35.377C145.588 35.9655 145.735 36.4069 146.029 36.7012C146.323 36.9954 146.691 37.2161 147.206 37.2161C147.721 37.2161 148.089 37.069 148.383 36.7012C148.677 36.4069 148.751 35.892 148.751 35.3035C148.751 34.715 148.604 34.2736 148.383 33.9058C148.089 33.6115 147.721 33.4644 147.206 33.4644Z" fill="white"/>
<path d="M154.856 37.2897C154.856 39.0552 154.047 39.9379 152.355 39.9379C151.766 39.9379 151.251 39.7908 150.81 39.5701V38.8345C151.325 39.1288 151.84 39.2759 152.355 39.2759C153.532 39.2759 154.12 38.6874 154.12 37.3633V36.8483C153.752 37.4368 153.237 37.7311 152.502 37.7311C151.913 37.7311 151.398 37.5104 151.031 37.069C150.663 36.6277 150.516 36.0392 150.516 35.3771C150.516 34.5679 150.736 33.9059 151.104 33.4645C151.472 32.9496 152.06 32.7289 152.722 32.7289C153.385 32.7289 153.826 33.0231 154.12 33.5381V32.876H154.856V37.2897ZM154.047 35.5242V34.7886C154.047 34.4208 153.899 34.053 153.679 33.8323C153.458 33.5381 153.09 33.3909 152.722 33.3909C152.281 33.3909 151.913 33.5381 151.619 33.9059C151.325 34.2737 151.251 34.715 151.251 35.3771C151.251 35.892 151.398 36.3334 151.619 36.6277C151.84 36.9219 152.208 37.1426 152.649 37.1426C153.09 37.1426 153.458 36.9955 153.679 36.7012C153.973 36.407 154.047 36.0392 154.047 35.5242Z" fill="white"/>
</svg>
