<svg width="92" height="26" viewBox="0 0 92 26" fill="none" xmlns="http://www.w3.org/2000/svg">
<path d="M13.8733 14.2465H10.6733L9.75454 11.3317H5.06552L4.14672 14.2465H0.946777L5.73085 1.12988H9.24762L13.8733 14.2465ZM9.05752 9.05054L7.66349 4.64665C7.56844 4.32983 7.47339 3.91795 7.44171 3.4744H7.37835C7.34666 3.85459 7.2833 4.23478 7.15657 4.61497L5.73085 9.05054H9.05752Z" fill="#333333"/>
<path d="M23.8215 4.8686L20.0196 14.9754C19.1008 17.4149 17.7385 18.6189 15.9009 18.6189C15.2039 18.6189 14.6336 18.5238 14.1583 18.3654V16.0526C14.5385 16.2743 14.9504 16.4011 15.4256 16.4011C16.1543 16.4011 16.693 16.0526 16.9781 15.3555L17.485 14.1833L13.6831 4.83691H16.883L18.6256 10.5398C18.7206 10.8883 18.8157 11.3002 18.8791 11.8071H18.9107C18.9741 11.4586 19.0691 11.0467 19.2276 10.5715L21.0018 4.8686H23.8215Z" fill="#333333"/>
<path d="M29.366 14.4684C27.8135 14.4684 26.5779 14.0248 25.6908 13.1694C24.8037 12.2823 24.3601 11.11 24.3601 9.62095C24.3601 8.0685 24.8353 6.86457 25.7541 5.97745C26.6729 5.09034 27.9402 4.67847 29.5244 4.67847C31.0768 4.67847 32.3124 5.12202 33.1679 5.97745C34.055 6.86457 34.4985 8.00514 34.4985 9.46254C34.4985 11.015 34.055 12.2506 33.1362 13.1377C32.1857 14.0248 30.9501 14.4684 29.366 14.4684ZM29.4293 6.86457C28.7323 6.86457 28.2254 7.08634 27.8452 7.56158C27.465 8.03682 27.2749 8.70216 27.2749 9.55759C27.2749 11.3635 28.0036 12.2506 29.461 12.2506C30.855 12.2506 31.5521 11.3318 31.5521 9.49422C31.5204 7.72 30.8234 6.86457 29.4293 6.86457Z" fill="#333333"/>
<path d="M39.2193 14.2466H36.3362V0.369629H39.2193V14.2466Z" fill="#333333"/>
<path d="M51.4171 8.98717C51.4171 12.6623 49.8012 14.4683 46.6013 14.4683C43.5281 14.4683 42.0073 12.694 42.0073 9.17726V1.12988H43.2113V9.08222C43.2113 10.5079 43.4964 11.5851 44.0667 12.3138C44.637 13.0425 45.5558 13.3911 46.7597 13.3911C49.0409 13.3911 50.2131 11.997 50.2131 9.20895V1.12988H51.4171V8.98717Z" fill="#333333"/>
<path d="M60.7001 13.8347C60.0031 14.2466 59.1476 14.4683 58.1655 14.4683C57.5001 14.4683 56.8982 14.3733 56.3596 14.1198C55.821 13.8664 55.3774 13.5495 54.9972 13.1377C54.617 12.7258 54.3319 12.2189 54.1418 11.6486C53.9517 11.0783 53.825 10.4446 53.825 9.77931C53.825 9.08229 53.92 8.41696 54.1418 7.78331C54.3636 7.14965 54.6804 6.61105 55.0606 6.16749C55.4408 5.72394 55.9794 5.34375 56.5497 5.0586C57.1516 4.80514 57.817 4.64673 58.5773 4.64673C59.3377 4.64673 60.0664 4.80514 60.7001 5.09029V6.32591C60.0031 5.88235 59.2744 5.66057 58.4823 5.66057C57.912 5.66057 57.4368 5.75562 56.9932 5.9774C56.5497 6.19917 56.2011 6.48432 55.916 6.83283C55.6309 7.18134 55.4091 7.62489 55.2507 8.10013C55.0923 8.57537 55.0289 9.11398 55.0289 9.65258C55.0289 10.1595 55.0923 10.6347 55.219 11.0783C55.3457 11.5219 55.5358 11.9337 55.821 12.2822C56.1061 12.6307 56.4229 12.9159 56.8348 13.106C57.2467 13.2961 57.7219 13.4228 58.2922 13.4228C59.1793 13.4228 59.9714 13.1693 60.6684 12.6307V13.8347H60.7001Z" fill="#333333"/>
<path d="M69.2545 14.2466V8.73384C69.2545 7.68831 69.0644 6.92793 68.6843 6.42101C68.3041 5.91409 67.7021 5.66062 66.91 5.66062C66.5298 5.66062 66.1813 5.72399 65.8328 5.8824C65.4843 6.04082 65.1992 6.2626 64.9457 6.54774C64.6923 6.83288 64.4705 7.18139 64.3437 7.59327C64.1853 8.00514 64.122 8.48038 64.122 8.9873V14.2149H62.9497V0.369629H64.122V6.48437H64.1536C64.8823 5.24875 65.9279 4.64678 67.2902 4.64678C68.3357 4.64678 69.1278 4.96361 69.6347 5.59726C70.1733 6.23091 70.4268 7.18139 70.4268 8.41701V14.2149H69.2545V14.2466Z" fill="#333333"/>
<path d="M79.3612 14.2467V12.6626H79.3296C78.6959 13.8665 77.7137 14.4685 76.3831 14.4685C74.1653 14.4685 73.0564 13.1061 73.0564 10.3814V4.86865H74.2287V10.1596C74.2287 11.2685 74.4187 12.124 74.8306 12.6626C75.2425 13.2012 75.8445 13.4546 76.6682 13.4546C77.0801 13.4546 77.4286 13.3913 77.7771 13.2329C78.0939 13.0744 78.4108 12.8527 78.6325 12.5675C78.886 12.2824 79.0761 11.9339 79.2028 11.5537C79.3296 11.1735 79.3929 10.7299 79.3929 10.223V4.86865H80.5652V14.2467H79.3612Z" fill="#333333"/>
<path d="M89.88 14.2466V8.86052C89.88 6.73778 89.1196 5.69226 87.5671 5.69226C87.1553 5.69226 86.7751 5.7873 86.4266 5.94572C86.0781 6.10413 85.7929 6.32591 85.5395 6.61105C85.286 6.89619 85.0959 7.2447 84.9375 7.62489C84.7791 8.00509 84.7157 8.44864 84.7157 8.8922V14.2466H83.5435V4.86851H84.7157V6.48432H84.7474C85.4444 5.2487 86.4899 4.64673 87.884 4.64673C88.8978 4.64673 89.6899 4.96355 90.2285 5.62889C90.7671 6.29422 91.0205 7.2447 91.0205 8.51201V14.2149H89.88V14.2466Z" fill="#333333"/>
<path d="M27.4178 21.5263L26.8404 21.6286C26.8162 21.5547 26.7779 21.4844 26.7253 21.4176C26.6742 21.3509 26.6046 21.2962 26.5165 21.2536C26.4284 21.2109 26.3184 21.1896 26.1863 21.1896C26.0059 21.1896 25.8553 21.2301 25.7346 21.3111C25.6138 21.3906 25.5534 21.4936 25.5534 21.62C25.5534 21.7294 25.5939 21.8175 25.6749 21.8842C25.7559 21.951 25.8865 22.0057 26.0669 22.0483L26.5868 22.1676C26.888 22.2372 27.1124 22.3445 27.2601 22.4893C27.4078 22.6342 27.4817 22.8224 27.4817 23.054C27.4817 23.25 27.4249 23.4247 27.3113 23.5781C27.199 23.7301 27.0421 23.8494 26.8404 23.9361C26.6401 24.0227 26.4078 24.0661 26.1436 24.0661C25.7772 24.0661 25.4782 23.9879 25.2466 23.8317C25.0151 23.674 24.873 23.4503 24.8205 23.1605L25.4363 23.0668C25.4746 23.2273 25.5534 23.3487 25.6728 23.4311C25.7921 23.5121 25.9476 23.5526 26.1394 23.5526C26.3482 23.5526 26.5151 23.5092 26.6401 23.4226C26.7651 23.3345 26.8276 23.2273 26.8276 23.1009C26.8276 22.9986 26.7892 22.9126 26.7125 22.843C26.6373 22.7734 26.5215 22.7209 26.3652 22.6854L25.8113 22.5639C25.5059 22.4943 25.28 22.3835 25.1337 22.2315C24.9888 22.0795 24.9164 21.8871 24.9164 21.6541C24.9164 21.4609 24.9703 21.2919 25.0783 21.147C25.1863 21.0021 25.3354 20.8892 25.5257 20.8082C25.7161 20.7259 25.9341 20.6847 26.1799 20.6847C26.5336 20.6847 26.812 20.7614 27.0151 20.9148C27.2182 21.0668 27.3525 21.2706 27.4178 21.5263ZM28.1822 25.2273V20.7273H28.8043V21.2578H28.8576C28.8945 21.1896 28.9478 21.1108 29.0174 21.0213C29.087 20.9318 29.1836 20.8537 29.3072 20.7869C29.4308 20.7188 29.5941 20.6847 29.7972 20.6847C30.0614 20.6847 30.2972 20.7514 30.5046 20.8849C30.712 21.0185 30.8746 21.2109 30.9925 21.4624C31.1119 21.7138 31.1715 22.0163 31.1715 22.37C31.1715 22.7237 31.1126 23.027 30.9947 23.2798C30.8768 23.5312 30.7148 23.7251 30.5089 23.8615C30.3029 23.9964 30.0678 24.0639 29.8036 24.0639C29.6048 24.0639 29.4421 24.0305 29.3157 23.9638C29.1907 23.897 29.0927 23.8189 29.0217 23.7294C28.9506 23.6399 28.896 23.5604 28.8576 23.4908H28.8192V25.2273H28.1822ZM28.8065 22.3636C28.8065 22.5937 28.8398 22.7955 28.9066 22.9688C28.9734 23.142 29.07 23.2777 29.1964 23.3757C29.3228 23.4723 29.4776 23.5206 29.6609 23.5206C29.8512 23.5206 30.0103 23.4702 30.1381 23.3693C30.266 23.267 30.3626 23.1286 30.4279 22.9538C30.4947 22.7791 30.5281 22.5824 30.5281 22.3636C30.5281 22.1477 30.4954 21.9538 30.43 21.782C30.3661 21.6101 30.2695 21.4744 30.1403 21.375C30.0124 21.2756 29.8526 21.2259 29.6609 21.2259C29.4762 21.2259 29.32 21.2734 29.1921 21.3686C29.0657 21.4638 28.9698 21.5966 28.9045 21.767C28.8391 21.9375 28.8065 22.1364 28.8065 22.3636ZM33.2958 24.0661C32.9734 24.0661 32.6957 23.9972 32.4627 23.8594C32.2312 23.7202 32.0522 23.5249 31.9258 23.2734C31.8008 23.0206 31.7383 22.7244 31.7383 22.3849C31.7383 22.0497 31.8008 21.7543 31.9258 21.4986C32.0522 21.2429 32.2283 21.0433 32.4542 20.8999C32.6815 20.7564 32.9471 20.6847 33.2511 20.6847C33.4357 20.6847 33.6147 20.7152 33.788 20.7763C33.9613 20.8374 34.1168 20.9332 34.2546 21.0639C34.3924 21.1946 34.5011 21.3643 34.5806 21.5732C34.6602 21.7805 34.6999 22.0327 34.6999 22.3295V22.5554H32.0984V22.0781H34.0756C34.0756 21.9105 34.0415 21.7621 33.9734 21.6328C33.9052 21.5021 33.8093 21.3991 33.6857 21.3239C33.5636 21.2486 33.4201 21.2109 33.2553 21.2109C33.0763 21.2109 32.9201 21.255 32.7866 21.343C32.6545 21.4297 32.5522 21.5433 32.4798 21.6839C32.4087 21.8232 32.3732 21.9744 32.3732 22.1378V22.5107C32.3732 22.7294 32.4116 22.9155 32.4883 23.0689C32.5664 23.2223 32.6751 23.3395 32.8143 23.4205C32.9535 23.5 33.1161 23.5398 33.3022 23.5398C33.4229 23.5398 33.533 23.5227 33.6325 23.4886C33.7319 23.4531 33.8178 23.4006 33.8903 23.331C33.9627 23.2614 34.0181 23.1754 34.0565 23.0732L34.6594 23.1818C34.6112 23.3594 34.5245 23.5149 34.3995 23.6484C34.2759 23.7805 34.1204 23.8835 33.9329 23.9574C33.7468 24.0298 33.5344 24.0661 33.2958 24.0661ZM36.7853 24.0661C36.4686 24.0661 36.1958 23.9943 35.9672 23.8509C35.7399 23.706 35.5652 23.5064 35.443 23.2521C35.3208 22.9979 35.2598 22.7067 35.2598 22.3786C35.2598 22.0462 35.3223 21.7528 35.4473 21.4986C35.5723 21.2429 35.7484 21.0433 35.9757 20.8999C36.2029 20.7564 36.4707 20.6847 36.7789 20.6847C37.0275 20.6847 37.2491 20.7308 37.4437 20.8232C37.6383 20.9141 37.7953 21.0419 37.9146 21.2067C38.0353 21.3714 38.1071 21.5639 38.1298 21.7841H37.5098C37.4757 21.6307 37.3975 21.4986 37.2754 21.3878C37.1547 21.277 36.9927 21.2216 36.7896 21.2216C36.612 21.2216 36.4565 21.2685 36.323 21.3622C36.1909 21.4545 36.0879 21.5866 36.014 21.7585C35.9402 21.929 35.9032 22.1307 35.9032 22.3636C35.9032 22.6023 35.9395 22.8082 36.0119 22.9815C36.0843 23.1548 36.1866 23.2891 36.3187 23.3842C36.4522 23.4794 36.6092 23.527 36.7896 23.527C36.9103 23.527 37.0197 23.505 37.1177 23.4609C37.2172 23.4155 37.3002 23.3509 37.367 23.267C37.4352 23.1832 37.4828 23.0824 37.5098 22.9645H38.1298C38.1071 23.1761 38.0382 23.3651 37.9231 23.5312C37.8081 23.6974 37.6539 23.8281 37.4608 23.9233C37.269 24.0185 37.0439 24.0661 36.7853 24.0661ZM38.8111 24V20.7273H39.4482V24H38.8111ZM39.1328 20.2223C39.022 20.2223 38.9268 20.1854 38.8473 20.1115C38.7692 20.0362 38.7301 19.9467 38.7301 19.843C38.7301 19.7379 38.7692 19.6484 38.8473 19.5746C38.9268 19.4993 39.022 19.4616 39.1328 19.4616C39.2436 19.4616 39.3381 19.4993 39.4162 19.5746C39.4957 19.6484 39.5355 19.7379 39.5355 19.843C39.5355 19.9467 39.4957 20.0362 39.4162 20.1115C39.3381 20.1854 39.2436 20.2223 39.1328 20.2223ZM41.2576 24.0724C41.0502 24.0724 40.8627 24.0341 40.6951 23.9574C40.5275 23.8793 40.3947 23.7663 40.2967 23.6186C40.2001 23.4709 40.1518 23.2898 40.1518 23.0753C40.1518 22.8906 40.1873 22.7386 40.2583 22.6193C40.3294 22.5 40.4252 22.4055 40.546 22.3359C40.6667 22.2663 40.8017 22.2138 40.9508 22.1783C41.1 22.1428 41.252 22.1158 41.4068 22.0973C41.6028 22.0746 41.7619 22.0561 41.8841 22.0419C42.0062 22.0263 42.095 22.0014 42.1504 21.9673C42.2058 21.9332 42.2335 21.8778 42.2335 21.8011V21.7862C42.2335 21.6001 42.1809 21.456 42.0758 21.3537C41.9721 21.2514 41.8173 21.2003 41.6113 21.2003C41.3968 21.2003 41.2278 21.2479 41.1042 21.343C40.9821 21.4368 40.8975 21.5412 40.8507 21.6562L40.252 21.5199C40.323 21.321 40.4267 21.1605 40.563 21.0384C40.7008 20.9148 40.8592 20.8253 41.0382 20.7699C41.2172 20.7131 41.4054 20.6847 41.6028 20.6847C41.7335 20.6847 41.872 20.7003 42.0183 20.7315C42.166 20.7614 42.3038 20.8168 42.4316 20.8977C42.5609 20.9787 42.6667 21.0945 42.7491 21.245C42.8315 21.3942 42.8727 21.5881 42.8727 21.8267V24H42.2505V23.5526H42.225C42.1838 23.6349 42.122 23.7159 42.0396 23.7955C41.9572 23.875 41.8514 23.9411 41.7221 23.9936C41.5929 24.0462 41.438 24.0724 41.2576 24.0724ZM41.3961 23.5611C41.5723 23.5611 41.7228 23.5263 41.8478 23.4567C41.9743 23.3871 42.0701 23.2962 42.1355 23.1839C42.2022 23.0703 42.2356 22.9489 42.2356 22.8196V22.3977C42.2129 22.4205 42.1689 22.4418 42.1035 22.4616C42.0396 22.4801 41.9664 22.4964 41.8841 22.5107C41.8017 22.5234 41.7214 22.5355 41.6433 22.5469C41.5652 22.5568 41.4998 22.5653 41.4473 22.5724C41.3237 22.5881 41.2108 22.6143 41.1085 22.6513C41.0076 22.6882 40.9267 22.7415 40.8656 22.8111C40.8059 22.8793 40.7761 22.9702 40.7761 23.0838C40.7761 23.2415 40.8343 23.3608 40.9508 23.4418C41.0673 23.5213 41.2157 23.5611 41.3961 23.5611ZM44.3583 19.6364V24H43.7212V19.6364H44.3583ZM46.8544 24V19.6364H47.4915V21.2578H47.5298C47.5668 21.1896 47.62 21.1108 47.6896 21.0213C47.7592 20.9318 47.8558 20.8537 47.9794 20.7869C48.103 20.7188 48.2663 20.6847 48.4695 20.6847C48.7337 20.6847 48.9695 20.7514 49.1768 20.8849C49.3842 21.0185 49.5469 21.2109 49.6648 21.4624C49.7841 21.7138 49.8438 22.0163 49.8438 22.37C49.8438 22.7237 49.7848 23.027 49.6669 23.2798C49.549 23.5312 49.3871 23.7251 49.1811 23.8615C48.9751 23.9964 48.7401 24.0639 48.4759 24.0639C48.277 24.0639 48.1143 24.0305 47.9879 23.9638C47.8629 23.897 47.7649 23.8189 47.6939 23.7294C47.6229 23.6399 47.5682 23.5604 47.5298 23.4908H47.4766V24H46.8544ZM47.4787 22.3636C47.4787 22.5937 47.5121 22.7955 47.5788 22.9688C47.6456 23.142 47.7422 23.2777 47.8686 23.3757C47.995 23.4723 48.1499 23.5206 48.3331 23.5206C48.5234 23.5206 48.6825 23.4702 48.8104 23.3693C48.9382 23.267 49.0348 23.1286 49.1001 22.9538C49.1669 22.7791 49.2003 22.5824 49.2003 22.3636C49.2003 22.1477 49.1676 21.9538 49.1023 21.782C49.0384 21.6101 48.9418 21.4744 48.8125 21.375C48.6847 21.2756 48.5249 21.2259 48.3331 21.2259C48.1484 21.2259 47.9922 21.2734 47.8643 21.3686C47.7379 21.4638 47.642 21.5966 47.5767 21.767C47.5114 21.9375 47.4787 22.1364 47.4787 22.3636ZM51.1962 19.6364V24H50.5591V19.6364H51.1962ZM53.4318 24.0661C53.125 24.0661 52.8572 23.9957 52.6286 23.8551C52.3999 23.7145 52.2223 23.5178 52.0959 23.2649C51.9695 23.0121 51.9062 22.7166 51.9062 22.3786C51.9062 22.0391 51.9695 21.7422 52.0959 21.4879C52.2223 21.2337 52.3999 21.0362 52.6286 20.8956C52.8572 20.755 53.125 20.6847 53.4318 20.6847C53.7386 20.6847 54.0064 20.755 54.2351 20.8956C54.4638 21.0362 54.6413 21.2337 54.7678 21.4879C54.8942 21.7422 54.9574 22.0391 54.9574 22.3786C54.9574 22.7166 54.8942 23.0121 54.7678 23.2649C54.6413 23.5178 54.4638 23.7145 54.2351 23.8551C54.0064 23.9957 53.7386 24.0661 53.4318 24.0661ZM53.4339 23.5312C53.6328 23.5312 53.7976 23.4787 53.9283 23.3736C54.0589 23.2685 54.1555 23.1286 54.218 22.9538C54.282 22.7791 54.3139 22.5866 54.3139 22.3764C54.3139 22.1676 54.282 21.9759 54.218 21.8011C54.1555 21.625 54.0589 21.4837 53.9283 21.3771C53.7976 21.2706 53.6328 21.2173 53.4339 21.2173C53.2337 21.2173 53.0675 21.2706 52.9354 21.3771C52.8047 21.4837 52.7074 21.625 52.6435 21.8011C52.581 21.9759 52.5497 22.1676 52.5497 22.3764C52.5497 22.5866 52.581 22.7791 52.6435 22.9538C52.7074 23.1286 52.8047 23.2685 52.9354 23.3736C53.0675 23.4787 53.2337 23.5312 53.4339 23.5312ZM57.0407 25.2955C56.7807 25.2955 56.557 25.2614 56.3695 25.1932C56.1834 25.125 56.0314 25.0348 55.9135 24.9226C55.7956 24.8104 55.7076 24.6875 55.6493 24.554L56.1969 24.3281C56.2353 24.3906 56.2864 24.4567 56.3503 24.5263C56.4157 24.5973 56.5037 24.6577 56.6145 24.7074C56.7267 24.7571 56.8709 24.782 57.0471 24.782C57.2885 24.782 57.4881 24.723 57.6458 24.6051C57.8034 24.4886 57.8823 24.3026 57.8823 24.0469V23.4034H57.8418C57.8034 23.473 57.748 23.5504 57.6756 23.6357C57.6046 23.7209 57.5066 23.7947 57.3816 23.8572C57.2566 23.9197 57.0939 23.951 56.8936 23.951C56.6351 23.951 56.4022 23.8906 56.1948 23.7699C55.9888 23.6477 55.8255 23.468 55.7047 23.2308C55.5854 22.9922 55.5257 22.6989 55.5257 22.3509C55.5257 22.0028 55.5847 21.7045 55.7026 21.456C55.8219 21.2074 55.9853 21.017 56.1926 20.8849C56.4 20.7514 56.6351 20.6847 56.8979 20.6847C57.101 20.6847 57.2651 20.7188 57.3901 20.7869C57.5151 20.8537 57.6124 20.9318 57.682 21.0213C57.753 21.1108 57.8077 21.1896 57.8461 21.2578H57.8929V20.7273H58.5172V24.0724C58.5172 24.3537 58.4519 24.5845 58.3212 24.7649C58.1905 24.9453 58.0137 25.0788 57.7907 25.1655C57.5691 25.2521 57.3191 25.2955 57.0407 25.2955ZM57.0343 23.4226C57.2175 23.4226 57.3723 23.38 57.4988 23.2947C57.6266 23.2081 57.7232 23.0845 57.7885 22.924C57.8553 22.7621 57.8887 22.5682 57.8887 22.3423C57.8887 22.1222 57.856 21.9283 57.7907 21.7607C57.7253 21.593 57.6294 21.4624 57.503 21.3686C57.3766 21.2734 57.2203 21.2259 57.0343 21.2259C56.8425 21.2259 56.6827 21.2756 56.5549 21.375C56.427 21.473 56.3304 21.6065 56.2651 21.7756C56.2012 21.9446 56.1692 22.1335 56.1692 22.3423C56.1692 22.5568 56.2019 22.745 56.2672 22.907C56.3326 23.0689 56.4292 23.1953 56.557 23.2862C56.6863 23.3771 56.8453 23.4226 57.0343 23.4226ZM62.517 20.7273V21.2386H60.6676V20.7273H62.517ZM61.1747 24V20.348C61.1747 20.1435 61.2195 19.9737 61.3089 19.8388C61.3984 19.7024 61.517 19.6009 61.6648 19.5341C61.8125 19.4659 61.973 19.4318 62.1463 19.4318C62.2741 19.4318 62.3835 19.4425 62.4744 19.4638C62.5653 19.4837 62.6328 19.5021 62.6768 19.5192L62.5277 20.0348C62.4979 20.0263 62.4595 20.0163 62.4126 20.005C62.3658 19.9922 62.3089 19.9858 62.2422 19.9858C62.0874 19.9858 61.9766 20.0241 61.9098 20.1009C61.8445 20.1776 61.8118 20.2884 61.8118 20.4332V24H61.1747ZM64.424 24.0661C64.1172 24.0661 63.8494 23.9957 63.6207 23.8551C63.392 23.7145 63.2145 23.5178 63.0881 23.2649C62.9616 23.0121 62.8984 22.7166 62.8984 22.3786C62.8984 22.0391 62.9616 21.7422 63.0881 21.4879C63.2145 21.2337 63.392 21.0362 63.6207 20.8956C63.8494 20.755 64.1172 20.6847 64.424 20.6847C64.7308 20.6847 64.9986 20.755 65.2273 20.8956C65.456 21.0362 65.6335 21.2337 65.7599 21.4879C65.8864 21.7422 65.9496 22.0391 65.9496 22.3786C65.9496 22.7166 65.8864 23.0121 65.7599 23.2649C65.6335 23.5178 65.456 23.7145 65.2273 23.8551C64.9986 23.9957 64.7308 24.0661 64.424 24.0661ZM64.4261 23.5312C64.625 23.5312 64.7898 23.4787 64.9205 23.3736C65.0511 23.2685 65.1477 23.1286 65.2102 22.9538C65.2741 22.7791 65.3061 22.5866 65.3061 22.3764C65.3061 22.1676 65.2741 21.9759 65.2102 21.8011C65.1477 21.625 65.0511 21.4837 64.9205 21.3771C64.7898 21.2706 64.625 21.2173 64.4261 21.2173C64.2259 21.2173 64.0597 21.2706 63.9276 21.3771C63.7969 21.4837 63.6996 21.625 63.6357 21.8011C63.5732 21.9759 63.5419 22.1676 63.5419 22.3764C63.5419 22.5866 63.5732 22.7791 63.6357 22.9538C63.6996 23.1286 63.7969 23.2685 63.9276 23.3736C64.0597 23.4787 64.2259 23.5312 64.4261 23.5312ZM66.6607 24V20.7273H67.2765V21.2472H67.3105C67.3702 21.071 67.4753 20.9325 67.6259 20.8317C67.7779 20.7294 67.9498 20.6783 68.1415 20.6783C68.1813 20.6783 68.2282 20.6797 68.2821 20.6825C68.3375 20.6854 68.3809 20.6889 68.4121 20.6932V21.3026C68.3865 21.2955 68.3411 21.2876 68.2757 21.2791C68.2104 21.2692 68.1451 21.2642 68.0797 21.2642C67.9292 21.2642 67.7949 21.2962 67.677 21.3601C67.5605 21.4226 67.4682 21.5099 67.4 21.6222C67.3319 21.733 67.2978 21.8594 67.2978 22.0014V24H66.6607ZM71.2608 24L70.2978 20.7273H70.9561L71.5975 23.1307H71.6294L72.2729 20.7273H72.9313L73.5705 23.12H73.6025L74.2395 20.7273H74.8979L73.937 24H73.2871L72.6223 21.6371H72.5733L71.9086 24H71.2608ZM76.7814 24.0661C76.4746 24.0661 76.2069 23.9957 75.9782 23.8551C75.7495 23.7145 75.5719 23.5178 75.4455 23.2649C75.3191 23.0121 75.2559 22.7166 75.2559 22.3786C75.2559 22.0391 75.3191 21.7422 75.4455 21.4879C75.5719 21.2337 75.7495 21.0362 75.9782 20.8956C76.2069 20.755 76.4746 20.6847 76.7814 20.6847C77.0882 20.6847 77.356 20.755 77.5847 20.8956C77.8134 21.0362 77.9909 21.2337 78.1174 21.4879C78.2438 21.7422 78.307 22.0391 78.307 22.3786C78.307 22.7166 78.2438 23.0121 78.1174 23.2649C77.9909 23.5178 77.8134 23.7145 77.5847 23.8551C77.356 23.9957 77.0882 24.0661 76.7814 24.0661ZM76.7836 23.5312C76.9824 23.5312 77.1472 23.4787 77.2779 23.3736C77.4086 23.2685 77.5051 23.1286 77.5676 22.9538C77.6316 22.7791 77.6635 22.5866 77.6635 22.3764C77.6635 22.1676 77.6316 21.9759 77.5676 21.8011C77.5051 21.625 77.4086 21.4837 77.2779 21.3771C77.1472 21.2706 76.9824 21.2173 76.7836 21.2173C76.5833 21.2173 76.4171 21.2706 76.285 21.3771C76.1543 21.4837 76.057 21.625 75.9931 21.8011C75.9306 21.9759 75.8993 22.1676 75.8993 22.3764C75.8993 22.5866 75.9306 22.7791 75.9931 22.9538C76.057 23.1286 76.1543 23.2685 76.285 23.3736C76.4171 23.4787 76.5833 23.5312 76.7836 23.5312ZM79.0181 24V20.7273H79.6296V21.2599H79.6701C79.7383 21.0795 79.8498 20.9389 80.0046 20.8381C80.1594 20.7358 80.3448 20.6847 80.5607 20.6847C80.7795 20.6847 80.9627 20.7358 81.1104 20.8381C81.2596 20.9403 81.3697 21.081 81.4407 21.2599H81.4748C81.5529 21.0852 81.6772 20.946 81.8477 20.8423C82.0181 20.7372 82.2212 20.6847 82.457 20.6847C82.7539 20.6847 82.9961 20.7777 83.1836 20.9638C83.3725 21.1499 83.467 21.4304 83.467 21.8054V24H82.8299V21.8651C82.8299 21.6435 82.7695 21.483 82.6488 21.3835C82.5281 21.2841 82.3839 21.2344 82.2163 21.2344C82.0089 21.2344 81.8477 21.2983 81.7326 21.4261C81.6175 21.5526 81.56 21.7152 81.56 21.9141V24H80.9251V21.8246C80.9251 21.647 80.8697 21.5043 80.7589 21.3963C80.6481 21.2884 80.5039 21.2344 80.3263 21.2344C80.2056 21.2344 80.0941 21.2663 79.9918 21.3303C79.891 21.3928 79.8093 21.4801 79.7468 21.5923C79.6857 21.7045 79.6552 21.8345 79.6552 21.9822V24H79.0181ZM85.7314 24.0661C85.4089 24.0661 85.1312 23.9972 84.8983 23.8594C84.6667 23.7202 84.4877 23.5249 84.3613 23.2734C84.2363 23.0206 84.1738 22.7244 84.1738 22.3849C84.1738 22.0497 84.2363 21.7543 84.3613 21.4986C84.4877 21.2429 84.6639 21.0433 84.8897 20.8999C85.117 20.7564 85.3826 20.6847 85.6866 20.6847C85.8713 20.6847 86.0502 20.7152 86.2235 20.7763C86.3968 20.8374 86.5524 20.9332 86.6902 21.0639C86.8279 21.1946 86.9366 21.3643 87.0162 21.5732C87.0957 21.7805 87.1355 22.0327 87.1355 22.3295V22.5554H84.5339V22.0781H86.5112C86.5112 21.9105 86.4771 21.7621 86.4089 21.6328C86.3407 21.5021 86.2449 21.3991 86.1213 21.3239C85.9991 21.2486 85.8556 21.2109 85.6909 21.2109C85.5119 21.2109 85.3556 21.255 85.2221 21.343C85.09 21.4297 84.9877 21.5433 84.9153 21.6839C84.8443 21.8232 84.8088 21.9744 84.8088 22.1378V22.5107C84.8088 22.7294 84.8471 22.9155 84.9238 23.0689C85.002 23.2223 85.1106 23.3395 85.2498 23.4205C85.389 23.5 85.5517 23.5398 85.7377 23.5398C85.8585 23.5398 85.9686 23.5227 86.068 23.4886C86.1674 23.4531 86.2534 23.4006 86.3258 23.331C86.3983 23.2614 86.4537 23.1754 86.492 23.0732L87.095 23.1818C87.0467 23.3594 86.96 23.5149 86.835 23.6484C86.7115 23.7805 86.5559 23.8835 86.3684 23.9574C86.1824 24.0298 85.97 24.0661 85.7314 24.0661ZM88.4794 22.0568V24H87.8423V20.7273H88.4538V21.2599H88.4943C88.5696 21.0866 88.6875 20.9474 88.848 20.8423C89.0099 20.7372 89.2138 20.6847 89.4595 20.6847C89.6825 20.6847 89.8778 20.7315 90.0455 20.8253C90.2131 20.9176 90.343 21.0554 90.4354 21.2386C90.5277 21.4219 90.5739 21.6484 90.5739 21.9183V24H89.9368V21.995C89.9368 21.7578 89.875 21.5724 89.7514 21.4389C89.6278 21.304 89.4581 21.2365 89.2422 21.2365C89.0945 21.2365 88.9631 21.2685 88.848 21.3324C88.7344 21.3963 88.6442 21.4901 88.5774 21.6136C88.5121 21.7358 88.4794 21.8835 88.4794 22.0568Z" fill="#333333"/>
</svg>
