<svg width="36" height="36" viewBox="0 0 36 36" fill="none" xmlns="http://www.w3.org/2000/svg">
<path d="M29.9442 6.36448C24.8231 2.66521 19.2301 6.45933 18.1918 7.24187C18.0974 7.31301 17.9558 7.2893 17.8614 7.21816C13.2359 2.71264 3.39501 4.13543 2.12065 11.368C0.917086 18.1263 8.98804 23.4617 14.3215 26.4022C17.5074 28.157 17.7434 30.1252 17.5782 31.1686C17.5546 31.3345 17.7906 31.4294 17.885 31.2871C19.0177 29.6983 19.3245 27.5167 19.2537 25.8094C19.1593 22.7266 15.7846 23.2246 14.8879 22.5844C14.0855 22.0152 14.7699 20.545 14.935 20.2605C14.9586 20.2367 14.9586 20.1893 14.935 20.1656C14.5575 19.5965 14.9586 19.0748 15.0766 18.9325C15.1002 18.9088 15.1002 18.8851 15.0766 18.8614C14.8171 18.2685 15.1002 18.1025 15.289 17.8654C15.4778 17.6283 15.761 17.4386 15.4778 17.1303C15.2182 16.822 14.8407 16.5138 15.053 16.1106C15.1946 15.8024 16.0678 15.6127 16.5634 15.1384C16.5162 15.1147 16.469 15.091 16.4218 15.0672C16.351 15.0198 16.2802 14.9724 16.233 14.9013C16.1858 14.8301 16.1386 14.7827 16.0914 14.7115C16.1386 14.7827 16.1858 14.8301 16.2566 14.8775C16.3274 14.925 16.3746 14.9724 16.4454 14.9961C16.5162 15.0198 16.587 15.0435 16.6578 15.0435C16.7758 14.9013 16.8702 14.7353 16.8938 14.5456C17.0354 13.431 17.295 12.0319 18.003 10.8226C18.7109 9.6132 19.5369 8.78323 21.1181 12.2217C22.3924 15.0198 24.2096 15.9446 24.8703 16.2055C25.0119 16.2529 25.0591 16.4189 25.0119 16.5375C23.1476 21.4935 24.5164 25.098 25.0591 26.2125C25.1535 26.4022 25.3895 26.497 25.6019 26.3785C29.9914 23.9597 32.2097 20.213 32.2097 20.213C34.31 17.2252 35.608 10.4432 29.9442 6.36448Z" fill="url(#paint0_linear_17_1388)"/>
<defs>
<linearGradient id="paint0_linear_17_1388" x1="25.9515" y1="37.0864" x2="13.3144" y2="-0.374555" gradientUnits="userSpaceOnUse">
<stop offset="0.0137453" stop-color="#E30613"/>
<stop offset="1" stop-color="#E6007E"/>
</linearGradient>
</defs>
</svg>
