<svg width="92" height="28" viewBox="0 0 92 28" fill="none" xmlns="http://www.w3.org/2000/svg">
<path d="M13.8733 14.2465H10.6733L9.75454 11.3317H5.06552L4.14672 14.2465H0.946777L5.73085 1.12988H9.24762L13.8733 14.2465ZM9.05752 9.05054L7.66349 4.64665C7.56844 4.32983 7.47339 3.91795 7.44171 3.4744H7.37835C7.34666 3.85459 7.2833 4.23478 7.15657 4.61497L5.73085 9.05054H9.05752Z" fill="#333333"/>
<path d="M23.8215 4.8686L20.0196 14.9754C19.1008 17.4149 17.7385 18.6189 15.9009 18.6189C15.2039 18.6189 14.6336 18.5238 14.1583 18.3654V16.0526C14.5385 16.2743 14.9504 16.4011 15.4256 16.4011C16.1543 16.4011 16.693 16.0526 16.9781 15.3555L17.485 14.1833L13.6831 4.83691H16.883L18.6256 10.5398C18.7206 10.8883 18.8157 11.3002 18.8791 11.8071H18.9107C18.9741 11.4586 19.0691 11.0467 19.2276 10.5715L21.0018 4.8686H23.8215Z" fill="#333333"/>
<path d="M29.366 14.4684C27.8135 14.4684 26.5779 14.0248 25.6908 13.1694C24.8037 12.2823 24.3601 11.11 24.3601 9.62095C24.3601 8.0685 24.8353 6.86457 25.7541 5.97745C26.6729 5.09034 27.9402 4.67847 29.5244 4.67847C31.0768 4.67847 32.3124 5.12202 33.1679 5.97745C34.055 6.86457 34.4985 8.00514 34.4985 9.46254C34.4985 11.015 34.055 12.2506 33.1362 13.1377C32.1857 14.0248 30.9501 14.4684 29.366 14.4684ZM29.4293 6.86457C28.7323 6.86457 28.2254 7.08634 27.8452 7.56158C27.465 8.03682 27.2749 8.70216 27.2749 9.55759C27.2749 11.3635 28.0036 12.2506 29.461 12.2506C30.855 12.2506 31.5521 11.3318 31.5521 9.49422C31.5204 7.72 30.8234 6.86457 29.4293 6.86457Z" fill="#333333"/>
<path d="M39.2193 14.2466H36.3362V0.369629H39.2193V14.2466Z" fill="#333333"/>
<path d="M51.4171 8.98717C51.4171 12.6623 49.8012 14.4683 46.6013 14.4683C43.5281 14.4683 42.0073 12.694 42.0073 9.17726V1.12988H43.2113V9.08222C43.2113 10.5079 43.4964 11.5851 44.0667 12.3138C44.637 13.0425 45.5558 13.3911 46.7597 13.3911C49.0409 13.3911 50.2131 11.997 50.2131 9.20895V1.12988H51.4171V8.98717Z" fill="#333333"/>
<path d="M60.7001 13.8347C60.0031 14.2466 59.1476 14.4683 58.1655 14.4683C57.5001 14.4683 56.8982 14.3733 56.3596 14.1198C55.821 13.8664 55.3774 13.5495 54.9972 13.1377C54.617 12.7258 54.3319 12.2189 54.1418 11.6486C53.9517 11.0783 53.825 10.4446 53.825 9.77931C53.825 9.08229 53.92 8.41696 54.1418 7.78331C54.3636 7.14965 54.6804 6.61105 55.0606 6.16749C55.4408 5.72394 55.9794 5.34375 56.5497 5.0586C57.1516 4.80514 57.817 4.64673 58.5773 4.64673C59.3377 4.64673 60.0664 4.80514 60.7001 5.09029V6.32591C60.0031 5.88235 59.2744 5.66057 58.4823 5.66057C57.912 5.66057 57.4368 5.75562 56.9932 5.9774C56.5497 6.19917 56.2011 6.48432 55.916 6.83283C55.6309 7.18134 55.4091 7.62489 55.2507 8.10013C55.0923 8.57537 55.0289 9.11398 55.0289 9.65258C55.0289 10.1595 55.0923 10.6347 55.219 11.0783C55.3457 11.5219 55.5358 11.9337 55.821 12.2822C56.1061 12.6307 56.4229 12.9159 56.8348 13.106C57.2467 13.2961 57.7219 13.4228 58.2922 13.4228C59.1793 13.4228 59.9714 13.1693 60.6684 12.6307V13.8347H60.7001Z" fill="#333333"/>
<path d="M69.2545 14.2466V8.73384C69.2545 7.68831 69.0644 6.92793 68.6843 6.42101C68.3041 5.91409 67.7021 5.66062 66.91 5.66062C66.5298 5.66062 66.1813 5.72399 65.8328 5.8824C65.4843 6.04082 65.1992 6.2626 64.9457 6.54774C64.6923 6.83288 64.4705 7.18139 64.3437 7.59327C64.1853 8.00514 64.122 8.48038 64.122 8.9873V14.2149H62.9497V0.369629H64.122V6.48437H64.1536C64.8823 5.24875 65.9279 4.64678 67.2902 4.64678C68.3357 4.64678 69.1278 4.96361 69.6347 5.59726C70.1733 6.23091 70.4268 7.18139 70.4268 8.41701V14.2149H69.2545V14.2466Z" fill="#333333"/>
<path d="M79.3612 14.2467V12.6626H79.3296C78.6959 13.8665 77.7137 14.4685 76.3831 14.4685C74.1653 14.4685 73.0564 13.1061 73.0564 10.3814V4.86865H74.2287V10.1596C74.2287 11.2685 74.4187 12.124 74.8306 12.6626C75.2425 13.2012 75.8445 13.4546 76.6682 13.4546C77.0801 13.4546 77.4286 13.3913 77.7771 13.2329C78.0939 13.0744 78.4108 12.8527 78.6325 12.5675C78.886 12.2824 79.0761 11.9339 79.2028 11.5537C79.3296 11.1735 79.3929 10.7299 79.3929 10.223V4.86865H80.5652V14.2467H79.3612Z" fill="#333333"/>
<path d="M89.88 14.2466V8.86052C89.88 6.73778 89.1196 5.69226 87.5671 5.69226C87.1553 5.69226 86.7751 5.7873 86.4266 5.94572C86.0781 6.10413 85.7929 6.32591 85.5395 6.61105C85.286 6.89619 85.0959 7.2447 84.9375 7.62489C84.7791 8.00509 84.7157 8.44864 84.7157 8.8922V14.2466H83.5435V4.86851H84.7157V6.48432H84.7474C85.4444 5.2487 86.4899 4.64673 87.884 4.64673C88.8978 4.64673 89.6899 4.96355 90.2285 5.62889C90.7671 6.29422 91.0205 7.2447 91.0205 8.51201V14.2149H89.88V14.2466Z" fill="#333333"/>
<path d="M16.2626 24.0568V26H15.6255V21.6364H16.2541V23.2599H16.2946C16.3713 23.0838 16.4885 22.9439 16.6461 22.8402C16.8038 22.7365 17.0098 22.6847 17.264 22.6847C17.4885 22.6847 17.6845 22.7308 17.8521 22.8232C18.0211 22.9155 18.1518 23.0533 18.2441 23.2365C18.3379 23.4183 18.3848 23.6456 18.3848 23.9183V26H17.7477V23.995C17.7477 23.755 17.6859 23.5689 17.5623 23.4368C17.4387 23.3033 17.2669 23.2365 17.0467 23.2365C16.8961 23.2365 16.7612 23.2685 16.6419 23.3324C16.524 23.3963 16.4309 23.4901 16.3627 23.6136C16.296 23.7358 16.2626 23.8835 16.2626 24.0568ZM20.1873 26.0724C19.9799 26.0724 19.7924 26.0341 19.6248 25.9574C19.4572 25.8793 19.3244 25.7663 19.2264 25.6186C19.1298 25.4709 19.0815 25.2898 19.0815 25.0753C19.0815 24.8906 19.117 24.7386 19.188 24.6193C19.2591 24.5 19.3549 24.4055 19.4757 24.3359C19.5964 24.2663 19.7314 24.2138 19.8805 24.1783C20.0297 24.1428 20.1816 24.1158 20.3365 24.0973C20.5325 24.0746 20.6916 24.0561 20.8137 24.0419C20.9359 24.0263 21.0247 24.0014 21.0801 23.9673C21.1355 23.9332 21.1632 23.8778 21.1632 23.8011V23.7862C21.1632 23.6001 21.1106 23.456 21.0055 23.3537C20.9018 23.2514 20.747 23.2003 20.541 23.2003C20.3265 23.2003 20.1575 23.2479 20.0339 23.343C19.9118 23.4368 19.8272 23.5412 19.7804 23.6562L19.1816 23.5199C19.2527 23.321 19.3564 23.1605 19.4927 23.0384C19.6305 22.9148 19.7889 22.8253 19.9679 22.7699C20.1468 22.7131 20.335 22.6847 20.5325 22.6847C20.6632 22.6847 20.8017 22.7003 20.948 22.7315C21.0957 22.7614 21.2335 22.8168 21.3613 22.8977C21.4906 22.9787 21.5964 23.0945 21.6788 23.245C21.7612 23.3942 21.8024 23.5881 21.8024 23.8267V26H21.1802V25.5526H21.1547C21.1135 25.6349 21.0517 25.7159 20.9693 25.7955C20.8869 25.875 20.7811 25.9411 20.6518 25.9936C20.5225 26.0462 20.3677 26.0724 20.1873 26.0724ZM20.3258 25.5611C20.502 25.5611 20.6525 25.5263 20.7775 25.4567C20.9039 25.3871 20.9998 25.2962 21.0652 25.1839C21.1319 25.0703 21.1653 24.9489 21.1653 24.8196V24.3977C21.1426 24.4205 21.0985 24.4418 21.0332 24.4616C20.9693 24.4801 20.8961 24.4964 20.8137 24.5107C20.7314 24.5234 20.6511 24.5355 20.573 24.5469C20.4949 24.5568 20.4295 24.5653 20.377 24.5724C20.2534 24.5881 20.1404 24.6143 20.0382 24.6513C19.9373 24.6882 19.8564 24.7415 19.7953 24.8111C19.7356 24.8793 19.7058 24.9702 19.7058 25.0838C19.7058 25.2415 19.764 25.3608 19.8805 25.4418C19.997 25.5213 20.1454 25.5611 20.3258 25.5611ZM22.9364 27.2273C22.8413 27.2273 22.7546 27.2195 22.6765 27.2038C22.5984 27.1896 22.5401 27.174 22.5018 27.157L22.6552 26.6349C22.7717 26.6662 22.8754 26.6797 22.9663 26.6754C23.0572 26.6712 23.1374 26.6371 23.207 26.5732C23.2781 26.5092 23.3406 26.4048 23.3945 26.2599L23.4734 26.0426L22.2759 22.7273H22.9577L23.7866 25.267H23.8207L24.6495 22.7273H25.3335L23.9847 26.4368C23.9222 26.6072 23.8427 26.7514 23.7461 26.8693C23.6495 26.9886 23.5344 27.0781 23.4009 27.1378C23.2674 27.1974 23.1126 27.2273 22.9364 27.2273ZM26.7908 26.0724C26.5835 26.0724 26.396 26.0341 26.2283 25.9574C26.0607 25.8793 25.9279 25.7663 25.8299 25.6186C25.7333 25.4709 25.685 25.2898 25.685 25.0753C25.685 24.8906 25.7205 24.7386 25.7915 24.6193C25.8626 24.5 25.9585 24.4055 26.0792 24.3359C26.1999 24.2663 26.3349 24.2138 26.484 24.1783C26.6332 24.1428 26.7852 24.1158 26.94 24.0973C27.136 24.0746 27.2951 24.0561 27.4173 24.0419C27.5394 24.0263 27.6282 24.0014 27.6836 23.9673C27.739 23.9332 27.7667 23.8778 27.7667 23.8011V23.7862C27.7667 23.6001 27.7141 23.456 27.609 23.3537C27.5053 23.2514 27.3505 23.2003 27.1445 23.2003C26.93 23.2003 26.761 23.2479 26.6374 23.343C26.5153 23.4368 26.4308 23.5412 26.3839 23.6562L25.7852 23.5199C25.8562 23.321 25.9599 23.1605 26.0962 23.0384C26.234 22.9148 26.3924 22.8253 26.5714 22.7699C26.7504 22.7131 26.9386 22.6847 27.136 22.6847C27.2667 22.6847 27.4052 22.7003 27.5515 22.7315C27.6992 22.7614 27.837 22.8168 27.9648 22.8977C28.0941 22.9787 28.1999 23.0945 28.2823 23.245C28.3647 23.3942 28.4059 23.5881 28.4059 23.8267V26H27.7837V25.5526H27.7582C27.717 25.6349 27.6552 25.7159 27.5728 25.7955C27.4904 25.875 27.3846 25.9411 27.2553 25.9936C27.1261 26.0462 26.9712 26.0724 26.7908 26.0724ZM26.9293 25.5611C27.1055 25.5611 27.256 25.5263 27.381 25.4567C27.5075 25.3871 27.6033 25.2962 27.6687 25.1839C27.7354 25.0703 27.7688 24.9489 27.7688 24.8196V24.3977C27.7461 24.4205 27.7021 24.4418 27.6367 24.4616C27.5728 24.4801 27.4996 24.4964 27.4173 24.5107C27.3349 24.5234 27.2546 24.5355 27.1765 24.5469C27.0984 24.5568 27.033 24.5653 26.9805 24.5724C26.8569 24.5881 26.744 24.6143 26.6417 24.6513C26.5408 24.6882 26.4599 24.7415 26.3988 24.8111C26.3391 24.8793 26.3093 24.9702 26.3093 25.0838C26.3093 25.2415 26.3675 25.3608 26.484 25.4418C26.6005 25.5213 26.7489 25.5611 26.9293 25.5611ZM29.8915 21.6364V26H29.2544V21.6364H29.8915ZM31.3857 21.6364V26H30.7486V21.6364H31.3857ZM33.1951 26.0724C32.9877 26.0724 32.8002 26.0341 32.6326 25.9574C32.465 25.8793 32.3322 25.7663 32.2342 25.6186C32.1376 25.4709 32.0893 25.2898 32.0893 25.0753C32.0893 24.8906 32.1248 24.7386 32.1958 24.6193C32.2669 24.5 32.3627 24.4055 32.4835 24.3359C32.6042 24.2663 32.7392 24.2138 32.8883 24.1783C33.0375 24.1428 33.1895 24.1158 33.3443 24.0973C33.5403 24.0746 33.6994 24.0561 33.8216 24.0419C33.9437 24.0263 34.0325 24.0014 34.0879 23.9673C34.1433 23.9332 34.171 23.8778 34.171 23.8011V23.7862C34.171 23.6001 34.1184 23.456 34.0133 23.3537C33.9096 23.2514 33.7548 23.2003 33.5488 23.2003C33.3343 23.2003 33.1653 23.2479 33.0417 23.343C32.9196 23.4368 32.835 23.5412 32.7882 23.6562L32.1895 23.5199C32.2605 23.321 32.3642 23.1605 32.5005 23.0384C32.6383 22.9148 32.7967 22.8253 32.9757 22.7699C33.1547 22.7131 33.3429 22.6847 33.5403 22.6847C33.671 22.6847 33.8095 22.7003 33.9558 22.7315C34.1035 22.7614 34.2413 22.8168 34.3691 22.8977C34.4984 22.9787 34.6042 23.0945 34.6866 23.245C34.769 23.3942 34.8102 23.5881 34.8102 23.8267V26H34.188V25.5526H34.1625C34.1213 25.6349 34.0595 25.7159 33.9771 25.7955C33.8947 25.875 33.7889 25.9411 33.6596 25.9936C33.5304 26.0462 33.3755 26.0724 33.1951 26.0724ZM33.3336 25.5611C33.5098 25.5611 33.6603 25.5263 33.7853 25.4567C33.9118 25.3871 34.0076 25.2962 34.073 25.1839C34.1397 25.0703 34.1731 24.9489 34.1731 24.8196V24.3977C34.1504 24.4205 34.1064 24.4418 34.041 24.4616C33.9771 24.4801 33.9039 24.4964 33.8216 24.5107C33.7392 24.5234 33.6589 24.5355 33.5808 24.5469C33.5027 24.5568 33.4373 24.5653 33.3848 24.5724C33.2612 24.5881 33.1483 24.6143 33.046 24.6513C32.9451 24.6882 32.8642 24.7415 32.8031 24.8111C32.7434 24.8793 32.7136 24.9702 32.7136 25.0838C32.7136 25.2415 32.7718 25.3608 32.8883 25.4418C33.0048 25.5213 33.1532 25.5611 33.3336 25.5611ZM35.6587 26V22.7273H36.2745V23.2472H36.3086C36.3683 23.071 36.4734 22.9325 36.6239 22.8317C36.7759 22.7294 36.9478 22.6783 37.1396 22.6783C37.1793 22.6783 37.2262 22.6797 37.2802 22.6825C37.3356 22.6854 37.3789 22.6889 37.4102 22.6932V23.3026C37.3846 23.2955 37.3391 23.2876 37.2738 23.2791C37.2085 23.2692 37.1431 23.2642 37.0778 23.2642C36.9272 23.2642 36.793 23.2962 36.6751 23.3601C36.5586 23.4226 36.4663 23.5099 36.3981 23.6222C36.3299 23.733 36.2958 23.8594 36.2958 24.0014V26H35.6587ZM41.6225 24.6428V22.7273H42.2617V26H41.6353V25.4332H41.6012C41.5259 25.608 41.4052 25.7536 41.239 25.87C41.0742 25.9851 40.869 26.0426 40.6232 26.0426C40.413 26.0426 40.2269 25.9964 40.065 25.9041C39.9045 25.8104 39.7781 25.6719 39.6857 25.4886C39.5948 25.3054 39.5494 25.0788 39.5494 24.8089V22.7273H40.1864V24.7322C40.1864 24.9553 40.2482 25.1328 40.3718 25.2649C40.4954 25.397 40.6559 25.4631 40.8533 25.4631C40.9727 25.4631 41.0913 25.4332 41.2092 25.3736C41.3285 25.3139 41.4272 25.2237 41.5053 25.103C41.5849 24.9822 41.6239 24.8288 41.6225 24.6428ZM45.5701 23.5263L44.9927 23.6286C44.9686 23.5547 44.9302 23.4844 44.8777 23.4176C44.8265 23.3509 44.7569 23.2962 44.6689 23.2536C44.5808 23.2109 44.4707 23.1896 44.3386 23.1896C44.1582 23.1896 44.0076 23.2301 43.8869 23.3111C43.7662 23.3906 43.7058 23.4936 43.7058 23.62C43.7058 23.7294 43.7463 23.8175 43.8272 23.8842C43.9082 23.951 44.0389 24.0057 44.2193 24.0483L44.7392 24.1676C45.0403 24.2372 45.2647 24.3445 45.4125 24.4893C45.5602 24.6342 45.6341 24.8224 45.6341 25.054C45.6341 25.25 45.5772 25.4247 45.4636 25.5781C45.3514 25.7301 45.1944 25.8494 44.9927 25.9361C44.7924 26.0227 44.5602 26.0661 44.296 26.0661C43.9295 26.0661 43.6305 25.9879 43.399 25.8317C43.1674 25.674 43.0254 25.4503 42.9728 25.1605L43.5886 25.0668C43.627 25.2273 43.7058 25.3487 43.8251 25.4311C43.9444 25.5121 44.1 25.5526 44.2917 25.5526C44.5005 25.5526 44.6674 25.5092 44.7924 25.4226C44.9174 25.3345 44.9799 25.2273 44.9799 25.1009C44.9799 24.9986 44.9416 24.9126 44.8649 24.843C44.7896 24.7734 44.6738 24.7209 44.5176 24.6854L43.9636 24.5639C43.6582 24.4943 43.4324 24.3835 43.286 24.2315C43.1412 24.0795 43.0687 23.8871 43.0687 23.6541C43.0687 23.4609 43.1227 23.2919 43.2306 23.147C43.3386 23.0021 43.4877 22.8892 43.6781 22.8082C43.8684 22.7259 44.0865 22.6847 44.3322 22.6847C44.6859 22.6847 44.9643 22.7614 45.1674 22.9148C45.3706 23.0668 45.5048 23.2706 45.5701 23.5263ZM46.9716 24.0568V26H46.3345V21.6364H46.9631V23.2599H47.0036C47.0803 23.0838 47.1974 22.9439 47.3551 22.8402C47.5128 22.7365 47.7188 22.6847 47.973 22.6847C48.1974 22.6847 48.3935 22.7308 48.5611 22.8232C48.7301 22.9155 48.8608 23.0533 48.9531 23.2365C49.0469 23.4183 49.0938 23.6456 49.0938 23.9183V26H48.4567V23.995C48.4567 23.755 48.3949 23.5689 48.2713 23.4368C48.1477 23.3033 47.9759 23.2365 47.7557 23.2365C47.6051 23.2365 47.4702 23.2685 47.3509 23.3324C47.233 23.3963 47.1399 23.4901 47.0717 23.6136C47.005 23.7358 46.9716 23.8835 46.9716 24.0568ZM49.9439 26V22.7273H50.581V26H49.9439ZM52.0751 24.0568V26H51.438V22.7273H52.0495V23.2599H52.09C52.1653 23.0866 52.2832 22.9474 52.4437 22.8423C52.6056 22.7372 52.8095 22.6847 53.0552 22.6847C53.2782 22.6847 53.4735 22.7315 53.6412 22.8253C53.8088 22.9176 53.9387 23.0554 54.0311 23.2386C54.1234 23.4219 54.1696 23.6484 54.1696 23.9183V26H53.5325V23.995C53.5325 23.7578 53.4707 23.5724 53.3471 23.4389C53.2235 23.304 53.0538 23.2365 52.8379 23.2365C52.6902 23.2365 52.5588 23.2685 52.4437 23.3324C52.3301 23.3963 52.2399 23.4901 52.1731 23.6136C52.1078 23.7358 52.0751 23.8835 52.0751 24.0568ZM57.5643 26.0724C57.3569 26.0724 57.1694 26.0341 57.0018 25.9574C56.8342 25.8793 56.7013 25.7663 56.6033 25.6186C56.5067 25.4709 56.4585 25.2898 56.4585 25.0753C56.4585 24.8906 56.494 24.7386 56.565 24.6193C56.636 24.5 56.7319 24.4055 56.8526 24.3359C56.9734 24.2663 57.1083 24.2138 57.2575 24.1783C57.4066 24.1428 57.5586 24.1158 57.7134 24.0973C57.9094 24.0746 58.0685 24.0561 58.1907 24.0419C58.3129 24.0263 58.4016 24.0014 58.457 23.9673C58.5124 23.9332 58.5401 23.8778 58.5401 23.8011V23.7862C58.5401 23.6001 58.4876 23.456 58.3825 23.3537C58.2788 23.2514 58.1239 23.2003 57.918 23.2003C57.7035 23.2003 57.5344 23.2479 57.4109 23.343C57.2887 23.4368 57.2042 23.5412 57.1573 23.6562L56.5586 23.5199C56.6296 23.321 56.7333 23.1605 56.8697 23.0384C57.0075 22.9148 57.1658 22.8253 57.3448 22.7699C57.5238 22.7131 57.712 22.6847 57.9094 22.6847C58.0401 22.6847 58.1786 22.7003 58.3249 22.7315C58.4727 22.7614 58.6104 22.8168 58.7383 22.8977C58.8675 22.9787 58.9734 23.0945 59.0558 23.245C59.1381 23.3942 59.1793 23.5881 59.1793 23.8267V26H58.5572V25.5526H58.5316C58.4904 25.6349 58.4286 25.7159 58.3462 25.7955C58.2638 25.875 58.158 25.9411 58.0288 25.9936C57.8995 26.0462 57.7447 26.0724 57.5643 26.0724ZM57.7028 25.5611C57.8789 25.5611 58.0295 25.5263 58.1545 25.4567C58.2809 25.3871 58.3768 25.2962 58.4421 25.1839C58.5089 25.0703 58.5423 24.9489 58.5423 24.8196V24.3977C58.5195 24.4205 58.4755 24.4418 58.4102 24.4616C58.3462 24.4801 58.2731 24.4964 58.1907 24.5107C58.1083 24.5234 58.0281 24.5355 57.9499 24.5469C57.8718 24.5568 57.8065 24.5653 57.7539 24.5724C57.6303 24.5881 57.5174 24.6143 57.4151 24.6513C57.3143 24.6882 57.2333 24.7415 57.1722 24.8111C57.1126 24.8793 57.0827 24.9702 57.0827 25.0838C57.0827 25.2415 57.141 25.3608 57.2575 25.4418C57.3739 25.5213 57.5224 25.5611 57.7028 25.5611ZM60.0279 26V22.7273H60.6436V23.2472H60.6777C60.7374 23.071 60.8425 22.9325 60.9931 22.8317C61.1451 22.7294 61.3169 22.6783 61.5087 22.6783C61.5485 22.6783 61.5953 22.6797 61.6493 22.6825C61.7047 22.6854 61.748 22.6889 61.7793 22.6932V23.3026C61.7537 23.2955 61.7083 23.2876 61.6429 23.2791C61.5776 23.2692 61.5123 23.2642 61.4469 23.2642C61.2963 23.2642 61.1621 23.2962 61.0442 23.3601C60.9277 23.4226 60.8354 23.5099 60.7672 23.6222C60.699 23.733 60.665 23.8594 60.665 24.0014V26H60.0279ZM62.9677 24.0568V26H62.3306V22.7273H62.9421V23.2599H62.9826C63.0579 23.0866 63.1758 22.9474 63.3363 22.8423C63.4982 22.7372 63.7021 22.6847 63.9478 22.6847C64.1708 22.6847 64.3661 22.7315 64.5337 22.8253C64.7013 22.9176 64.8313 23.0554 64.9237 23.2386C65.016 23.4219 65.0621 23.6484 65.0621 23.9183V26H64.4251V23.995C64.4251 23.7578 64.3633 23.5724 64.2397 23.4389C64.1161 23.304 63.9464 23.2365 63.7305 23.2365C63.5827 23.2365 63.4513 23.2685 63.3363 23.3324C63.2227 23.3963 63.1325 23.4901 63.0657 23.6136C63.0004 23.7358 62.9677 23.8835 62.9677 24.0568ZM66.869 26.0724C66.6616 26.0724 66.4741 26.0341 66.3065 25.9574C66.1388 25.8793 66.006 25.7663 65.908 25.6186C65.8114 25.4709 65.7631 25.2898 65.7631 25.0753C65.7631 24.8906 65.7987 24.7386 65.8697 24.6193C65.9407 24.5 66.0366 24.4055 66.1573 24.3359C66.2781 24.2663 66.413 24.2138 66.5621 24.1783C66.7113 24.1428 66.8633 24.1158 67.0181 24.0973C67.2141 24.0746 67.3732 24.0561 67.4954 24.0419C67.6175 24.0263 67.7063 24.0014 67.7617 23.9673C67.8171 23.9332 67.8448 23.8778 67.8448 23.8011V23.7862C67.8448 23.6001 67.7923 23.456 67.6871 23.3537C67.5835 23.2514 67.4286 23.2003 67.2227 23.2003C67.0082 23.2003 66.8391 23.2479 66.7156 23.343C66.5934 23.4368 66.5089 23.5412 66.462 23.6562L65.8633 23.5199C65.9343 23.321 66.038 23.1605 66.1744 23.0384C66.3121 22.9148 66.4705 22.8253 66.6495 22.7699C66.8285 22.7131 67.0167 22.6847 67.2141 22.6847C67.3448 22.6847 67.4833 22.7003 67.6296 22.7315C67.7773 22.7614 67.9151 22.8168 68.043 22.8977C68.1722 22.9787 68.2781 23.0945 68.3604 23.245C68.4428 23.3942 68.484 23.5881 68.484 23.8267V26H67.8619V25.5526H67.8363C67.7951 25.6349 67.7333 25.7159 67.6509 25.7955C67.5685 25.875 67.4627 25.9411 67.3335 25.9936C67.2042 26.0462 67.0494 26.0724 66.869 26.0724ZM67.0075 25.5611C67.1836 25.5611 67.3342 25.5263 67.4592 25.4567C67.5856 25.3871 67.6815 25.2962 67.7468 25.1839C67.8136 25.0703 67.8469 24.9489 67.8469 24.8196V24.3977C67.8242 24.4205 67.7802 24.4418 67.7148 24.4616C67.6509 24.4801 67.5778 24.4964 67.4954 24.5107C67.413 24.5234 67.3327 24.5355 67.2546 24.5469C67.1765 24.5568 67.1112 24.5653 67.0586 24.5724C66.935 24.5881 66.8221 24.6143 66.7198 24.6513C66.619 24.6882 66.538 24.7415 66.4769 24.8111C66.4173 24.8793 66.3874 24.9702 66.3874 25.0838C66.3874 25.2415 66.4457 25.3608 66.5621 25.4418C66.6786 25.5213 66.8271 25.5611 67.0075 25.5611ZM70.0421 26L69.079 22.7273H69.7374L70.3787 25.1307H70.4107L71.0542 22.7273H71.7125L72.3517 25.12H72.3837L73.0208 22.7273H73.6792L72.7182 26H72.0684L71.4036 23.6371H71.3546L70.6898 26H70.0421ZM74.9208 21.6364V26H74.2837V21.6364H74.9208ZM75.7779 26V22.7273H76.415V26H75.7779ZM78.911 26V21.6364H79.5481V23.2578H79.5865C79.6234 23.1896 79.6767 23.1108 79.7463 23.0213C79.8159 22.9318 79.9125 22.8537 80.036 22.7869C80.1596 22.7188 80.323 22.6847 80.5261 22.6847C80.7903 22.6847 81.0261 22.7514 81.2335 22.8849C81.4409 23.0185 81.6035 23.2109 81.7214 23.4624C81.8407 23.7138 81.9004 24.0163 81.9004 24.37C81.9004 24.7237 81.8414 25.027 81.7235 25.2798C81.6056 25.5312 81.4437 25.7251 81.2377 25.8615C81.0318 25.9964 80.7967 26.0639 80.5325 26.0639C80.3336 26.0639 80.171 26.0305 80.0446 25.9638C79.9196 25.897 79.8216 25.8189 79.7505 25.7294C79.6795 25.6399 79.6248 25.5604 79.5865 25.4908H79.5332V26H78.911ZM79.5353 24.3636C79.5353 24.5937 79.5687 24.7955 79.6355 24.9688C79.7022 25.142 79.7988 25.2777 79.9252 25.3757C80.0517 25.4723 80.2065 25.5206 80.3897 25.5206C80.5801 25.5206 80.7392 25.4702 80.867 25.3693C80.9949 25.267 81.0914 25.1286 81.1568 24.9538C81.2235 24.7791 81.2569 24.5824 81.2569 24.3636C81.2569 24.1477 81.2243 23.9538 81.1589 23.782C81.095 23.6101 80.9984 23.4744 80.8691 23.375C80.7413 23.2756 80.5815 23.2259 80.3897 23.2259C80.2051 23.2259 80.0488 23.2734 79.921 23.3686C79.7946 23.4638 79.6987 23.5966 79.6333 23.767C79.568 23.9375 79.5353 24.1364 79.5353 24.3636ZM83.2528 21.6364V26H82.6158V21.6364H83.2528ZM85.4885 26.0661C85.1816 26.0661 84.9139 25.9957 84.6852 25.8551C84.4565 25.7145 84.2789 25.5178 84.1525 25.2649C84.0261 25.0121 83.9629 24.7166 83.9629 24.3786C83.9629 24.0391 84.0261 23.7422 84.1525 23.4879C84.2789 23.2337 84.4565 23.0362 84.6852 22.8956C84.9139 22.755 85.1816 22.6847 85.4885 22.6847C85.7953 22.6847 86.063 22.755 86.2917 22.8956C86.5204 23.0362 86.698 23.2337 86.8244 23.4879C86.9508 23.7422 87.014 24.0391 87.014 24.3786C87.014 24.7166 86.9508 25.0121 86.8244 25.2649C86.698 25.5178 86.5204 25.7145 86.2917 25.8551C86.063 25.9957 85.7953 26.0661 85.4885 26.0661ZM85.4906 25.5312C85.6895 25.5312 85.8542 25.4787 85.9849 25.3736C86.1156 25.2685 86.2122 25.1286 86.2747 24.9538C86.3386 24.7791 86.3706 24.5866 86.3706 24.3764C86.3706 24.1676 86.3386 23.9759 86.2747 23.8011C86.2122 23.625 86.1156 23.4837 85.9849 23.3771C85.8542 23.2706 85.6895 23.2173 85.4906 23.2173C85.2903 23.2173 85.1241 23.2706 84.992 23.3771C84.8613 23.4837 84.764 23.625 84.7001 23.8011C84.6376 23.9759 84.6064 24.1676 84.6064 24.3764C84.6064 24.5866 84.6376 24.7791 84.7001 24.9538C84.764 25.1286 84.8613 25.2685 84.992 25.3736C85.1241 25.4787 85.2903 25.5312 85.4906 25.5312ZM89.0973 27.2955C88.8374 27.2955 88.6136 27.2614 88.4261 27.1932C88.2401 27.125 88.0881 27.0348 87.9702 26.9226C87.8523 26.8104 87.7642 26.6875 87.706 26.554L88.2536 26.3281C88.2919 26.3906 88.343 26.4567 88.407 26.5263C88.4723 26.5973 88.5604 26.6577 88.6712 26.7074C88.7834 26.7571 88.9276 26.782 89.1037 26.782C89.3452 26.782 89.5447 26.723 89.7024 26.6051C89.8601 26.4886 89.9389 26.3026 89.9389 26.0469V25.4034H89.8984C89.8601 25.473 89.8047 25.5504 89.7322 25.6357C89.6612 25.7209 89.5632 25.7947 89.4382 25.8572C89.3132 25.9197 89.1506 25.951 88.9503 25.951C88.6918 25.951 88.4588 25.8906 88.2514 25.7699C88.0455 25.6477 87.8821 25.468 87.7614 25.2308C87.642 24.9922 87.5824 24.6989 87.5824 24.3509C87.5824 24.0028 87.6413 23.7045 87.7592 23.456C87.8786 23.2074 88.0419 23.017 88.2493 22.8849C88.4567 22.7514 88.6918 22.6847 88.9545 22.6847C89.1577 22.6847 89.3217 22.7188 89.4467 22.7869C89.5717 22.8537 89.669 22.9318 89.7386 23.0213C89.8097 23.1108 89.8643 23.1896 89.9027 23.2578H89.9496V22.7273H90.5739V26.0724C90.5739 26.3537 90.5085 26.5845 90.3778 26.7649C90.2472 26.9453 90.0703 27.0788 89.8473 27.1655C89.6257 27.2521 89.3757 27.2955 89.0973 27.2955ZM89.0909 25.4226C89.2741 25.4226 89.429 25.38 89.5554 25.2947C89.6832 25.2081 89.7798 25.0845 89.8452 24.924C89.9119 24.7621 89.9453 24.5682 89.9453 24.3423C89.9453 24.1222 89.9126 23.9283 89.8473 23.7607C89.782 23.593 89.6861 23.4624 89.5597 23.3686C89.4332 23.2734 89.277 23.2259 89.0909 23.2259C88.8991 23.2259 88.7393 23.2756 88.6115 23.375C88.4837 23.473 88.3871 23.6065 88.3217 23.7756C88.2578 23.9446 88.2259 24.1335 88.2259 24.3423C88.2259 24.5568 88.2585 24.745 88.3239 24.907C88.3892 25.0689 88.4858 25.1953 88.6136 25.2862C88.7429 25.3771 88.902 25.4226 89.0909 25.4226Z" fill="#333333"/>
</svg>
