<svg width="58" height="48" viewBox="0 0 58 48" fill="none" xmlns="http://www.w3.org/2000/svg">
<path d="M50.5973 3.09244C41.351 -3.55468 31.2525 3.26288 29.3777 4.669C29.2072 4.79683 28.9516 4.75422 28.7811 4.62639C20.4296 -3.46946 2.66134 -0.912873 0.360415 12.0831C-1.81268 24.2269 12.7599 33.8141 22.3897 39.0977C28.142 42.2508 28.5681 45.7874 28.2698 47.6622C28.2272 47.9605 28.6533 48.1309 28.8237 47.8753C30.869 45.0204 31.4229 41.1003 31.2951 38.0324C31.1247 32.4932 25.0315 33.388 23.4123 32.2375C21.9636 31.2149 23.1992 28.5731 23.4975 28.0617C23.5401 28.0191 23.5401 27.9339 23.4975 27.8913C22.8158 26.8687 23.5401 25.9313 23.7532 25.6756C23.7958 25.633 23.7958 25.5904 23.7532 25.5478C23.2845 24.4825 23.7958 24.1843 24.1367 23.7582C24.4775 23.3321 24.9889 22.9912 24.4775 22.4373C24.0088 21.8833 23.3271 21.3294 23.7106 20.605C23.9662 20.0511 25.5428 19.7102 26.4376 18.858C26.3524 18.8154 26.2672 18.7728 26.1819 18.7302C26.0541 18.645 25.9263 18.5598 25.8411 18.4319C25.7558 18.3041 25.6706 18.2189 25.5854 18.0911C25.6706 18.2189 25.7558 18.3041 25.8837 18.3893C26.0115 18.4746 26.0967 18.5598 26.2246 18.6024C26.3524 18.645 26.4802 18.6876 26.608 18.6876C26.8211 18.4319 26.9915 18.1337 27.0341 17.7928C27.2898 15.7901 27.7585 13.2762 29.0368 11.1031C30.3151 8.92998 31.8064 7.43863 34.6613 13.617C36.9622 18.645 40.2432 20.3068 41.4362 20.7755C41.6919 20.8607 41.7771 21.159 41.6919 21.372C38.3257 30.2775 40.7971 36.7541 41.7771 38.7568C41.9476 39.0977 42.3736 39.2681 42.7571 39.0551C50.6826 34.7089 54.6879 27.9765 54.6879 27.9765C58.4801 22.6077 60.8237 10.4213 50.5973 3.09244Z" fill="white"/>
</svg>
