<svg width="92" height="28" viewBox="0 0 92 28" fill="none" xmlns="http://www.w3.org/2000/svg">
<path d="M13.8733 14.2465H10.6734L9.75457 11.3317H5.06555L4.14675 14.2465H0.946808L5.73088 1.12988H9.24765L13.8733 14.2465ZM9.05755 9.05054L7.66352 4.64665C7.56847 4.32983 7.47342 3.91795 7.44174 3.4744H7.37838C7.34669 3.85459 7.28333 4.23478 7.1566 4.61497L5.73088 9.05054H9.05755Z" fill="#333333"/>
<path d="M23.8217 4.8686L20.0197 14.9754C19.101 17.4149 17.7386 18.6189 15.901 18.6189C15.204 18.6189 14.6337 18.5238 14.1585 18.3654V16.0526C14.5387 16.2743 14.9505 16.4011 15.4258 16.4011C16.1545 16.4011 16.6931 16.0526 16.9782 15.3555L17.4851 14.1833L13.6832 4.83691H16.8832L18.6257 10.5398C18.7208 10.8883 18.8158 11.3002 18.8792 11.8071H18.9109C18.9742 11.4586 19.0693 11.0467 19.2277 10.5715L21.0019 4.8686H23.8217Z" fill="#333333"/>
<path d="M29.3661 14.4684C27.8137 14.4684 26.578 14.0248 25.6909 13.1694C24.8038 12.2823 24.3603 11.11 24.3603 9.62095C24.3603 8.0685 24.8355 6.86457 25.7543 5.97745C26.6731 5.09034 27.9404 4.67847 29.5245 4.67847C31.077 4.67847 32.3126 5.12202 33.168 5.97745C34.0551 6.86457 34.4987 8.00514 34.4987 9.46254C34.4987 11.015 34.0551 12.2506 33.1363 13.1377C32.1859 14.0248 30.9502 14.4684 29.3661 14.4684ZM29.4295 6.86457C28.7325 6.86457 28.2255 7.08634 27.8453 7.56158C27.4652 8.03682 27.2751 8.70216 27.2751 9.55759C27.2751 11.3635 28.0038 12.2506 29.4612 12.2506C30.8552 12.2506 31.5522 11.3318 31.5522 9.49422C31.5205 7.72 30.8235 6.86457 29.4295 6.86457Z" fill="#333333"/>
<path d="M39.2194 14.2466H36.3363V0.369629H39.2194V14.2466Z" fill="#333333"/>
<path d="M51.4172 8.98717C51.4172 12.6623 49.8014 14.4683 46.6015 14.4683C43.5282 14.4683 42.0075 12.694 42.0075 9.17726V1.12988H43.2114V9.08222C43.2114 10.5079 43.4966 11.5851 44.0668 12.3138C44.6371 13.0425 45.5559 13.3911 46.7599 13.3911C49.041 13.3911 50.2133 11.997 50.2133 9.20895V1.12988H51.4172V8.98717Z" fill="#333333"/>
<path d="M60.7002 13.8347C60.0032 14.2466 59.1477 14.4683 58.1656 14.4683C57.5002 14.4683 56.8983 14.3733 56.3597 14.1198C55.8211 13.8664 55.3775 13.5495 54.9973 13.1377C54.6171 12.7258 54.332 12.2189 54.1419 11.6486C53.9518 11.0783 53.8251 10.4446 53.8251 9.77931C53.8251 9.08229 53.9201 8.41696 54.1419 7.78331C54.3637 7.14965 54.6805 6.61105 55.0607 6.16749C55.4409 5.72394 55.9795 5.34375 56.5498 5.0586C57.1517 4.80514 57.8171 4.64673 58.5774 4.64673C59.3378 4.64673 60.0665 4.80514 60.7002 5.09029V6.32591C60.0032 5.88235 59.2745 5.66057 58.4824 5.66057C57.9121 5.66057 57.4369 5.75562 56.9933 5.9774C56.5498 6.19917 56.2013 6.48432 55.9161 6.83283C55.631 7.18134 55.4092 7.62489 55.2508 8.10013C55.0924 8.57537 55.029 9.11398 55.029 9.65258C55.029 10.1595 55.0924 10.6347 55.2191 11.0783C55.3458 11.5219 55.5359 11.9337 55.8211 12.2822C56.1062 12.6307 56.423 12.9159 56.8349 13.106C57.2468 13.2961 57.722 13.4228 58.2923 13.4228C59.1794 13.4228 59.9715 13.1693 60.6685 12.6307V13.8347H60.7002Z" fill="#333333"/>
<path d="M69.2545 14.2466V8.73384C69.2545 7.68831 69.0644 6.92793 68.6842 6.42101C68.304 5.91409 67.702 5.66062 66.91 5.66062C66.5298 5.66062 66.1813 5.72399 65.8328 5.8824C65.4843 6.04082 65.1991 6.2626 64.9457 6.54774C64.6922 6.83288 64.4704 7.18139 64.3437 7.59327C64.1853 8.00514 64.1219 8.48038 64.1219 8.9873V14.2149H62.9496V0.369629H64.1219V6.48437H64.1536C64.8823 5.24875 65.9278 4.64678 67.2902 4.64678C68.3357 4.64678 69.1278 4.96361 69.6347 5.59726C70.1733 6.23091 70.4267 7.18139 70.4267 8.41701V14.2149H69.2545V14.2466Z" fill="#333333"/>
<path d="M79.3613 14.2467V12.6626H79.3296C78.6959 13.8665 77.7138 14.4685 76.3831 14.4685C74.1653 14.4685 73.0564 13.1061 73.0564 10.3814V4.86865H74.2287V10.1596C74.2287 11.2685 74.4188 12.124 74.8307 12.6626C75.2425 13.2012 75.8445 13.4546 76.6682 13.4546C77.0801 13.4546 77.4286 13.3913 77.7771 13.2329C78.094 13.0744 78.4108 12.8527 78.6326 12.5675C78.886 12.2824 79.0761 11.9339 79.2029 11.5537C79.3296 11.1735 79.393 10.7299 79.393 10.223V4.86865H80.5652V14.2467H79.3613Z" fill="#333333"/>
<path d="M89.8799 14.2466V8.86052C89.8799 6.73778 89.1195 5.69226 87.5671 5.69226C87.1552 5.69226 86.775 5.7873 86.4265 5.94572C86.078 6.10413 85.7929 6.32591 85.5394 6.61105C85.2859 6.89619 85.0958 7.2447 84.9374 7.62489C84.779 8.00509 84.7156 8.44864 84.7156 8.8922V14.2466H83.5434V4.86851H84.7156V6.48432H84.7473C85.4443 5.2487 86.4899 4.64673 87.8839 4.64673C88.8977 4.64673 89.6898 4.96355 90.2284 5.62889C90.767 6.29422 91.0205 7.2447 91.0205 8.51201V14.2149H89.8799V14.2466Z" fill="#333333"/>
<path d="M18.0897 26.0724C17.8823 26.0724 17.6948 26.0341 17.5272 25.9574C17.3596 25.8793 17.2267 25.7663 17.1287 25.6186C17.0321 25.4709 16.9838 25.2898 16.9838 25.0753C16.9838 24.8906 17.0194 24.7386 17.0904 24.6193C17.1614 24.5 17.2573 24.4055 17.378 24.3359C17.4988 24.2663 17.6337 24.2138 17.7828 24.1783C17.932 24.1428 18.084 24.1158 18.2388 24.0973C18.4348 24.0746 18.5939 24.0561 18.7161 24.0419C18.8382 24.0263 18.927 24.0014 18.9824 23.9673C19.0378 23.9332 19.0655 23.8778 19.0655 23.8011V23.7862C19.0655 23.6001 19.013 23.456 18.9078 23.3537C18.8042 23.2514 18.6493 23.2003 18.4434 23.2003C18.2289 23.2003 18.0598 23.2479 17.9363 23.343C17.8141 23.4368 17.7296 23.5412 17.6827 23.6562L17.084 23.5199C17.155 23.321 17.2587 23.1605 17.3951 23.0384C17.5328 22.9148 17.6912 22.8253 17.8702 22.7699C18.0492 22.7131 18.2374 22.6847 18.4348 22.6847C18.5655 22.6847 18.704 22.7003 18.8503 22.7315C18.998 22.7614 19.1358 22.8168 19.2637 22.8977C19.3929 22.9787 19.4988 23.0945 19.5811 23.245C19.6635 23.3942 19.7047 23.5881 19.7047 23.8267V26H19.0826V25.5526H19.057C19.0158 25.6349 18.954 25.7159 18.8716 25.7955C18.7892 25.875 18.6834 25.9411 18.5542 25.9936C18.4249 26.0462 18.2701 26.0724 18.0897 26.0724ZM18.2282 25.5611C18.4043 25.5611 18.5549 25.5263 18.6799 25.4567C18.8063 25.3871 18.9022 25.2962 18.9675 25.1839C19.0343 25.0703 19.0676 24.9489 19.0676 24.8196V24.3977C19.0449 24.4205 19.0009 24.4418 18.9355 24.4616C18.8716 24.4801 18.7985 24.4964 18.7161 24.5107C18.6337 24.5234 18.5534 24.5355 18.4753 24.5469C18.3972 24.5568 18.3319 24.5653 18.2793 24.5724C18.1557 24.5881 18.0428 24.6143 17.9405 24.6513C17.8397 24.6882 17.7587 24.7415 17.6976 24.8111C17.638 24.8793 17.6081 24.9702 17.6081 25.0838C17.6081 25.2415 17.6664 25.3608 17.7828 25.4418C17.8993 25.5213 18.0478 25.5611 18.2282 25.5611ZM21.9638 26.0661C21.6413 26.0661 21.3636 25.9972 21.1307 25.8594C20.8991 25.7202 20.7202 25.5249 20.5938 25.2734C20.4688 25.0206 20.4062 24.7244 20.4062 24.3849C20.4062 24.0497 20.4688 23.7543 20.5938 23.4986C20.7202 23.2429 20.8963 23.0433 21.1222 22.8999C21.3494 22.7564 21.6151 22.6847 21.919 22.6847C22.1037 22.6847 22.2827 22.7152 22.456 22.7763C22.6293 22.8374 22.7848 22.9332 22.9226 23.0639C23.0604 23.1946 23.169 23.3643 23.2486 23.5732C23.3281 23.7805 23.3679 24.0327 23.3679 24.3295V24.5554H20.7663V24.0781H22.7436C22.7436 23.9105 22.7095 23.7621 22.6413 23.6328C22.5732 23.5021 22.4773 23.3991 22.3537 23.3239C22.2315 23.2486 22.0881 23.2109 21.9233 23.2109C21.7443 23.2109 21.5881 23.255 21.4545 23.343C21.3224 23.4297 21.2202 23.5433 21.1477 23.6839C21.0767 23.8232 21.0412 23.9744 21.0412 24.1378V24.5107C21.0412 24.7294 21.0795 24.9155 21.1562 25.0689C21.2344 25.2223 21.343 25.3395 21.4822 25.4205C21.6214 25.5 21.7841 25.5398 21.9702 25.5398C22.0909 25.5398 22.201 25.5227 22.3004 25.4886C22.3999 25.4531 22.4858 25.4006 22.5582 25.331C22.6307 25.2614 22.6861 25.1754 22.7244 25.0732L23.3274 25.1818C23.2791 25.3594 23.1925 25.5149 23.0675 25.6484C22.9439 25.7805 22.7884 25.8835 22.6009 25.9574C22.4148 26.0298 22.2024 26.0661 21.9638 26.0661ZM21.2692 22.2138C21.1683 22.2138 21.0803 22.1768 21.005 22.103C20.9297 22.0277 20.892 21.9411 20.892 21.843C20.892 21.7365 20.9297 21.6477 21.005 21.5767C21.0803 21.5057 21.1683 21.4702 21.2692 21.4702C21.3757 21.4702 21.4645 21.5057 21.5355 21.5767C21.608 21.6477 21.6442 21.7365 21.6442 21.843C21.6442 21.9411 21.608 22.0277 21.5355 22.103C21.4645 22.1768 21.3757 22.2138 21.2692 22.2138ZM22.522 22.2138C22.4212 22.2138 22.3331 22.1768 22.2578 22.103C22.1825 22.0277 22.1449 21.9411 22.1449 21.843C22.1449 21.7365 22.1825 21.6477 22.2578 21.5767C22.3331 21.5057 22.4212 21.4702 22.522 21.4702C22.6286 21.4702 22.7173 21.5057 22.7884 21.5767C22.8608 21.6477 22.897 21.7365 22.897 21.843C22.897 21.9411 22.8608 22.0277 22.7884 22.103C22.7173 22.1768 22.6286 22.2138 22.522 22.2138ZM23.8169 26L23.8148 25.4482H23.932C24.0229 25.4482 24.0989 25.429 24.16 25.3906C24.2225 25.3509 24.2736 25.2841 24.3134 25.1903C24.3532 25.0966 24.3837 24.9673 24.405 24.8026C24.4263 24.6364 24.4419 24.4276 24.4519 24.1761L24.5094 22.7273H26.7935V26H26.1692V23.277H25.0996L25.0485 24.3892C25.0357 24.6591 25.008 24.8949 24.9654 25.0966C24.9242 25.2983 24.8638 25.4666 24.7843 25.6016C24.7047 25.7351 24.6025 25.8352 24.4775 25.902C24.3525 25.9673 24.2005 26 24.0215 26H23.8169ZM27.3853 26L27.3832 25.4482H27.5004C27.5913 25.4482 27.6673 25.429 27.7283 25.3906C27.7908 25.3509 27.842 25.2841 27.8817 25.1903C27.9215 25.0966 27.9521 24.9673 27.9734 24.8026C27.9947 24.6364 28.0103 24.4276 28.0202 24.1761L28.0778 22.7273H30.3619V26H29.7376V23.277H28.668L28.6168 24.3892C28.604 24.6591 28.5763 24.8949 28.5337 25.0966C28.4925 25.2983 28.4322 25.4666 28.3526 25.6016C28.2731 25.7351 28.1708 25.8352 28.0458 25.902C27.9208 25.9673 27.7688 26 27.5898 26H27.3853ZM32.1639 26.0724C31.9565 26.0724 31.769 26.0341 31.6014 25.9574C31.4338 25.8793 31.301 25.7663 31.2029 25.6186C31.1064 25.4709 31.0581 25.2898 31.0581 25.0753C31.0581 24.8906 31.0936 24.7386 31.1646 24.6193C31.2356 24.5 31.3315 24.4055 31.4522 24.3359C31.573 24.2663 31.7079 24.2138 31.8571 24.1783C32.0062 24.1428 32.1582 24.1158 32.313 24.0973C32.5091 24.0746 32.6681 24.0561 32.7903 24.0419C32.9125 24.0263 33.0012 24.0014 33.0566 23.9673C33.112 23.9332 33.1397 23.8778 33.1397 23.8011V23.7862C33.1397 23.6001 33.0872 23.456 32.9821 23.3537C32.8784 23.2514 32.7235 23.2003 32.5176 23.2003C32.3031 23.2003 32.1341 23.2479 32.0105 23.343C31.8883 23.4368 31.8038 23.5412 31.7569 23.6562L31.1582 23.5199C31.2292 23.321 31.3329 23.1605 31.4693 23.0384C31.6071 22.9148 31.7654 22.8253 31.9444 22.7699C32.1234 22.7131 32.3116 22.6847 32.5091 22.6847C32.6397 22.6847 32.7782 22.7003 32.9245 22.7315C33.0723 22.7614 33.21 22.8168 33.3379 22.8977C33.4672 22.9787 33.573 23.0945 33.6554 23.245C33.7377 23.3942 33.7789 23.5881 33.7789 23.8267V26H33.1568V25.5526H33.1312C33.09 25.6349 33.0282 25.7159 32.9458 25.7955C32.8635 25.875 32.7576 25.9411 32.6284 25.9936C32.4991 26.0462 32.3443 26.0724 32.1639 26.0724ZM32.3024 25.5611C32.4785 25.5611 32.6291 25.5263 32.7541 25.4567C32.8805 25.3871 32.9764 25.2962 33.0417 25.1839C33.1085 25.0703 33.1419 24.9489 33.1419 24.8196V24.3977C33.1191 24.4205 33.0751 24.4418 33.0098 24.4616C32.9458 24.4801 32.8727 24.4964 32.7903 24.5107C32.7079 24.5234 32.6277 24.5355 32.5495 24.5469C32.4714 24.5568 32.4061 24.5653 32.3535 24.5724C32.2299 24.5881 32.117 24.6143 32.0147 24.6513C31.9139 24.6882 31.8329 24.7415 31.7718 24.8111C31.7122 24.8793 31.6824 24.9702 31.6824 25.0838C31.6824 25.2415 31.7406 25.3608 31.8571 25.4418C31.9735 25.5213 32.122 25.5611 32.3024 25.5611ZM34.6275 27.2273V22.7273H35.2496V23.2578H35.3029C35.3398 23.1896 35.3931 23.1108 35.4627 23.0213C35.5323 22.9318 35.6289 22.8537 35.7525 22.7869C35.8761 22.7188 36.0394 22.6847 36.2425 22.6847C36.5067 22.6847 36.7425 22.7514 36.9499 22.8849C37.1573 23.0185 37.32 23.2109 37.4379 23.4624C37.5572 23.7138 37.6168 24.0163 37.6168 24.37C37.6168 24.7237 37.5579 25.027 37.44 25.2798C37.3221 25.5312 37.1602 25.7251 36.9542 25.8615C36.7482 25.9964 36.5131 26.0639 36.2489 26.0639C36.0501 26.0639 35.8874 26.0305 35.761 25.9638C35.636 25.897 35.538 25.8189 35.467 25.7294C35.396 25.6399 35.3413 25.5604 35.3029 25.4908H35.2646V27.2273H34.6275ZM35.2518 24.3636C35.2518 24.5937 35.2852 24.7955 35.3519 24.9688C35.4187 25.142 35.5153 25.2777 35.6417 25.3757C35.7681 25.4723 35.9229 25.5206 36.1062 25.5206C36.2965 25.5206 36.4556 25.4702 36.5835 25.3693C36.7113 25.267 36.8079 25.1286 36.8732 24.9538C36.94 24.7791 36.9734 24.5824 36.9734 24.3636C36.9734 24.1477 36.9407 23.9538 36.8754 23.782C36.8114 23.6101 36.7148 23.4744 36.5856 23.375C36.4577 23.2756 36.2979 23.2259 36.1062 23.2259C35.9215 23.2259 35.7653 23.2734 35.6374 23.3686C35.511 23.4638 35.4151 23.5966 35.3498 23.767C35.2844 23.9375 35.2518 24.1364 35.2518 24.3636ZM40.3212 27.2273C40.226 27.2273 40.1394 27.2195 40.0613 27.2038C39.9831 27.1896 39.9249 27.174 39.8865 27.157L40.04 26.6349C40.1564 26.6662 40.2601 26.6797 40.351 26.6754C40.4419 26.6712 40.5222 26.6371 40.5918 26.5732C40.6628 26.5092 40.7253 26.4048 40.7793 26.2599L40.8581 26.0426L39.6607 22.7273H40.3425L41.1713 25.267H41.2054L42.0343 22.7273H42.7182L41.3695 26.4368C41.307 26.6072 41.2275 26.7514 41.1309 26.8693C41.0343 26.9886 40.9192 27.0781 40.7857 27.1378C40.6522 27.1974 40.4973 27.2273 40.3212 27.2273ZM45.8503 22.7273V26H45.2282V22.7273H45.8503ZM45.5797 24.2464V24.7962C45.4817 24.8359 45.378 24.8714 45.2686 24.9027C45.1593 24.9325 45.0442 24.956 44.9235 24.973C44.8027 24.9901 44.677 24.9986 44.5463 24.9986C44.1415 24.9986 43.8198 24.8999 43.5811 24.7024C43.3425 24.5036 43.2232 24.1996 43.2232 23.7905V22.7209H43.8432V23.7905C43.8432 23.9453 43.8716 24.071 43.9284 24.1676C43.9853 24.2642 44.0662 24.3352 44.1713 24.3807C44.2765 24.4261 44.4015 24.4489 44.5463 24.4489C44.7381 24.4489 44.915 24.4311 45.0769 24.3956C45.2402 24.3587 45.4078 24.3089 45.5797 24.2464ZM46.9833 27.2273C46.8881 27.2273 46.8015 27.2195 46.7234 27.2038C46.6452 27.1896 46.587 27.174 46.5487 27.157L46.7021 26.6349C46.8185 26.6662 46.9222 26.6797 47.0131 26.6754C47.104 26.6712 47.1843 26.6371 47.2539 26.5732C47.3249 26.5092 47.3874 26.4048 47.4414 26.2599L47.5202 26.0426L46.3228 22.7273H47.0046L47.8335 25.267H47.8675L48.6964 22.7273H49.3803L48.0316 26.4368C47.9691 26.6072 47.8896 26.7514 47.793 26.8693C47.6964 26.9886 47.5813 27.0781 47.4478 27.1378C47.3143 27.1974 47.1594 27.2273 46.9833 27.2273ZM52.1971 24.0888V24.6406H50.4244V24.0888H52.1971ZM50.6033 22.7273V26H49.979V22.7273H50.6033ZM52.6424 22.7273V26H52.0202V22.7273H52.6424ZM56.9192 25.2116L57.976 22.7273H58.5257L57.1557 26H56.6827L55.3404 22.7273H55.8837L56.9192 25.2116ZM55.7069 22.7273V26H55.0826V22.7273H55.7069ZM58.1486 26V22.7273H58.7686V26H58.1486ZM60.5701 26.0724C60.3627 26.0724 60.1752 26.0341 60.0076 25.9574C59.84 25.8793 59.7072 25.7663 59.6092 25.6186C59.5126 25.4709 59.4643 25.2898 59.4643 25.0753C59.4643 24.8906 59.4998 24.7386 59.5708 24.6193C59.6419 24.5 59.7377 24.4055 59.8585 24.3359C59.9792 24.2663 60.1142 24.2138 60.2633 24.1783C60.4125 24.1428 60.5645 24.1158 60.7193 24.0973C60.9153 24.0746 61.0744 24.0561 61.1966 24.0419C61.3187 24.0263 61.4075 24.0014 61.4629 23.9673C61.5183 23.9332 61.546 23.8778 61.546 23.8011V23.7862C61.546 23.6001 61.4934 23.456 61.3883 23.3537C61.2846 23.2514 61.1298 23.2003 60.9238 23.2003C60.7093 23.2003 60.5403 23.2479 60.4167 23.343C60.2946 23.4368 60.21 23.5412 60.1632 23.6562L59.5645 23.5199C59.6355 23.321 59.7392 23.1605 59.8755 23.0384C60.0133 22.9148 60.1717 22.8253 60.3507 22.7699C60.5297 22.7131 60.7179 22.6847 60.9153 22.6847C61.046 22.6847 61.1845 22.7003 61.3308 22.7315C61.4785 22.7614 61.6163 22.8168 61.7441 22.8977C61.8734 22.9787 61.9792 23.0945 62.0616 23.245C62.144 23.3942 62.1852 23.5881 62.1852 23.8267V26H61.563V25.5526H61.5375C61.4963 25.6349 61.4345 25.7159 61.3521 25.7955C61.2697 25.875 61.1639 25.9411 61.0346 25.9936C60.9054 26.0462 60.7505 26.0724 60.5701 26.0724ZM60.7086 25.5611C60.8848 25.5611 61.0353 25.5263 61.1603 25.4567C61.2868 25.3871 61.3826 25.2962 61.448 25.1839C61.5147 25.0703 61.5481 24.9489 61.5481 24.8196V24.3977C61.5254 24.4205 61.4814 24.4418 61.416 24.4616C61.3521 24.4801 61.2789 24.4964 61.1966 24.5107C61.1142 24.5234 61.0339 24.5355 60.9558 24.5469C60.8777 24.5568 60.8123 24.5653 60.7598 24.5724C60.6362 24.5881 60.5233 24.6143 60.421 24.6513C60.3201 24.6882 60.2392 24.7415 60.1781 24.8111C60.1184 24.8793 60.0886 24.9702 60.0886 25.0838C60.0886 25.2415 60.1468 25.3608 60.2633 25.4418C60.3798 25.5213 60.5282 25.5611 60.7086 25.5611ZM63.5366 22.7273L64.2589 24.0014L64.9876 22.7273H65.6843L64.6637 24.3636L65.6928 26H64.9961L64.2589 24.777L63.5238 26H62.8249L63.8434 24.3636L62.8377 22.7273H63.5366ZM67.5881 26.0661C67.2713 26.0661 66.9986 25.9943 66.7699 25.8509C66.5426 25.706 66.3679 25.5064 66.2457 25.2521C66.1236 24.9979 66.0625 24.7067 66.0625 24.3786C66.0625 24.0462 66.125 23.7528 66.25 23.4986C66.375 23.2429 66.5511 23.0433 66.7784 22.8999C67.0057 22.7564 67.2734 22.6847 67.5817 22.6847C67.8303 22.6847 68.0518 22.7308 68.2464 22.8232C68.4411 22.9141 68.598 23.0419 68.7173 23.2067C68.8381 23.3714 68.9098 23.5639 68.9325 23.7841H68.3125C68.2784 23.6307 68.2003 23.4986 68.0781 23.3878C67.9574 23.277 67.7955 23.2216 67.5923 23.2216C67.4148 23.2216 67.2592 23.2685 67.1257 23.3622C66.9936 23.4545 66.8906 23.5866 66.8168 23.7585C66.7429 23.929 66.706 24.1307 66.706 24.3636C66.706 24.6023 66.7422 24.8082 66.8146 24.9815C66.8871 25.1548 66.9893 25.2891 67.1214 25.3842C67.255 25.4794 67.4119 25.527 67.5923 25.527C67.7131 25.527 67.8224 25.505 67.9205 25.4609C68.0199 25.4155 68.103 25.3509 68.1697 25.267C68.2379 25.1832 68.2855 25.0824 68.3125 24.9645H68.9325C68.9098 25.1761 68.8409 25.3651 68.7259 25.5312C68.6108 25.6974 68.4567 25.8281 68.2635 25.9233C68.0717 26.0185 67.8466 26.0661 67.5881 26.0661ZM70.0165 27.2273C69.9213 27.2273 69.8347 27.2195 69.7566 27.2038C69.6784 27.1896 69.6202 27.174 69.5819 27.157L69.7353 26.6349C69.8517 26.6662 69.9554 26.6797 70.0463 26.6754C70.1373 26.6712 70.2175 26.6371 70.2871 26.5732C70.3581 26.5092 70.4206 26.4048 70.4746 26.2599L70.5534 26.0426L69.356 22.7273H70.0378L70.8667 25.267H70.9007L71.7296 22.7273H72.4135L71.0648 26.4368C71.0023 26.6072 70.9228 26.7514 70.8262 26.8693C70.7296 26.9886 70.6145 27.0781 70.481 27.1378C70.3475 27.1974 70.1926 27.2273 70.0165 27.2273ZM74.2795 26.0661C73.9627 26.0661 73.69 25.9943 73.4613 25.8509C73.234 25.706 73.0593 25.5064 72.9371 25.2521C72.815 24.9979 72.7539 24.7067 72.7539 24.3786C72.7539 24.0462 72.8164 23.7528 72.9414 23.4986C73.0664 23.2429 73.2425 23.0433 73.4698 22.8999C73.6971 22.7564 73.9648 22.6847 74.2731 22.6847C74.5217 22.6847 74.7433 22.7308 74.9379 22.8232C75.1325 22.9141 75.2894 23.0419 75.4087 23.2067C75.5295 23.3714 75.6012 23.5639 75.6239 23.7841H75.0039C74.9698 23.6307 74.8917 23.4986 74.7695 23.3878C74.6488 23.277 74.4869 23.2216 74.2837 23.2216C74.1062 23.2216 73.9506 23.2685 73.8171 23.3622C73.685 23.4545 73.582 23.5866 73.5082 23.7585C73.4343 23.929 73.3974 24.1307 73.3974 24.3636C73.3974 24.6023 73.4336 24.8082 73.506 24.9815C73.5785 25.1548 73.6808 25.2891 73.8129 25.3842C73.9464 25.4794 74.1033 25.527 74.2837 25.527C74.4045 25.527 74.5138 25.505 74.6119 25.4609C74.7113 25.4155 74.7944 25.3509 74.8612 25.267C74.9293 25.1832 74.9769 25.0824 75.0039 24.9645H75.6239C75.6012 25.1761 75.5323 25.3651 75.4173 25.5312C75.3022 25.6974 75.1481 25.8281 74.9549 25.9233C74.7631 26.0185 74.538 26.0661 74.2795 26.0661ZM80.418 21.5085L80.6822 21.9112C80.5842 22.0007 80.4727 22.0646 80.3477 22.103C80.2241 22.1399 80.0813 22.1634 79.9194 22.1733C79.7575 22.1818 79.5721 22.1896 79.3633 22.1967C79.1275 22.2038 78.9336 22.255 78.7816 22.3501C78.6296 22.4439 78.5124 22.5831 78.43 22.7678C78.3491 22.951 78.2965 23.1811 78.2724 23.4581H78.3129C78.4194 23.255 78.5671 23.103 78.756 23.0021C78.9464 22.9013 79.1602 22.8509 79.3974 22.8509C79.6616 22.8509 79.8967 22.9112 80.1026 23.032C80.3086 23.1527 80.4705 23.3295 80.5884 23.5625C80.7077 23.794 80.7674 24.0774 80.7674 24.4126C80.7674 24.7521 80.7049 25.0455 80.5799 25.2926C80.4563 25.5398 80.2816 25.7308 80.0558 25.8658C79.8313 25.9993 79.5664 26.0661 79.261 26.0661C78.9556 26.0661 78.6893 25.9972 78.462 25.8594C78.2362 25.7202 78.0607 25.5142 77.9357 25.2415C77.8121 24.9687 77.7504 24.6321 77.7504 24.2315V23.9077C77.7504 23.1591 77.8839 22.5959 78.1509 22.218C78.418 21.8402 78.8171 21.6463 79.3484 21.6364C79.5202 21.6321 79.6737 21.6314 79.8086 21.6342C79.9435 21.6357 80.0614 21.6293 80.1623 21.6151C80.2646 21.5994 80.3498 21.5639 80.418 21.5085ZM79.2631 25.5312C79.4407 25.5312 79.5934 25.4865 79.7212 25.397C79.8505 25.3061 79.9499 25.1776 80.0195 25.0114C80.0891 24.8452 80.1239 24.6491 80.1239 24.4233C80.1239 24.2017 80.0891 24.0135 80.0195 23.8587C79.9499 23.7038 79.8505 23.5859 79.7212 23.505C79.592 23.4226 79.4371 23.3814 79.2567 23.3814C79.1232 23.3814 79.0039 23.4048 78.8988 23.4517C78.7937 23.4972 78.7035 23.5646 78.6282 23.6541C78.5543 23.7436 78.4968 23.853 78.4556 23.9822C78.4158 24.1101 78.3945 24.2571 78.3917 24.4233C78.3917 24.7614 78.4691 25.0305 78.6239 25.2308C78.7802 25.4311 78.9933 25.5312 79.2631 25.5312ZM81.2212 26L81.2191 25.4482H81.3363C81.4272 25.4482 81.5032 25.429 81.5643 25.3906C81.6268 25.3509 81.6779 25.2841 81.7177 25.1903C81.7575 25.0966 81.788 24.9673 81.8093 24.8026C81.8306 24.6364 81.8462 24.4276 81.8562 24.1761L81.9137 22.7273H84.1978V26H83.5735V23.277H82.5039L82.4528 24.3892C82.44 24.6591 82.4123 24.8949 82.3697 25.0966C82.3285 25.2983 82.2681 25.4666 82.1886 25.6016C82.109 25.7351 82.0067 25.8352 81.8817 25.902C81.7567 25.9673 81.6048 26 81.4258 26H81.2212ZM86.426 26.0661C86.1191 26.0661 85.8514 25.9957 85.6227 25.8551C85.394 25.7145 85.2164 25.5178 85.09 25.2649C84.9636 25.0121 84.9004 24.7166 84.9004 24.3786C84.9004 24.0391 84.9636 23.7422 85.09 23.4879C85.2164 23.2337 85.394 23.0362 85.6227 22.8956C85.8514 22.755 86.1191 22.6847 86.426 22.6847C86.7328 22.6847 87.0005 22.755 87.2292 22.8956C87.4579 23.0362 87.6355 23.2337 87.7619 23.4879C87.8883 23.7422 87.9515 24.0391 87.9515 24.3786C87.9515 24.7166 87.8883 25.0121 87.7619 25.2649C87.6355 25.5178 87.4579 25.7145 87.2292 25.8551C87.0005 25.9957 86.7328 26.0661 86.426 26.0661ZM86.4281 25.5312C86.627 25.5312 86.7917 25.4787 86.9224 25.3736C87.0531 25.2685 87.1497 25.1286 87.2122 24.9538C87.2761 24.7791 87.3081 24.5866 87.3081 24.3764C87.3081 24.1676 87.2761 23.9759 87.2122 23.8011C87.1497 23.625 87.0531 23.4837 86.9224 23.3771C86.7917 23.2706 86.627 23.2173 86.4281 23.2173C86.2278 23.2173 86.0616 23.2706 85.9295 23.3771C85.7988 23.4837 85.7015 23.625 85.6376 23.8011C85.5751 23.9759 85.5439 24.1676 85.5439 24.3764C85.5439 24.5866 85.5751 24.7791 85.6376 24.9538C85.7015 25.1286 85.7988 25.2685 85.9295 25.3736C86.0616 25.4787 86.2278 25.5312 86.4281 25.5312ZM90.755 22.7273V23.277H89.2912V26H88.6626V22.7273H90.755Z" fill="#333333"/>
</svg>
