<svg width="92" height="28" viewBox="0 0 92 28" fill="none" xmlns="http://www.w3.org/2000/svg">
<path d="M13.8733 14.2465H10.6734L9.75457 11.3317H5.06555L4.14675 14.2465H0.946807L5.73088 1.12988H9.24765L13.8733 14.2465ZM9.05755 9.05054L7.66352 4.64665C7.56847 4.32983 7.47342 3.91795 7.44174 3.4744H7.37837C7.34669 3.85459 7.28333 4.23478 7.1566 4.61497L5.73088 9.05054H9.05755Z" fill="#333333"/>
<path d="M23.8217 4.8686L20.0197 14.9754C19.1009 17.4149 17.7386 18.6189 15.901 18.6189C15.204 18.6189 14.6337 18.5238 14.1585 18.3654V16.0526C14.5387 16.2743 14.9505 16.4011 15.4258 16.4011C16.1545 16.4011 16.6931 16.0526 16.9782 15.3555L17.4851 14.1833L13.6832 4.83691H16.8832L18.6257 10.5398C18.7208 10.8883 18.8158 11.3002 18.8792 11.8071H18.9108C18.9742 11.4586 19.0693 11.0467 19.2277 10.5715L21.0019 4.8686H23.8217Z" fill="#333333"/>
<path d="M29.3661 14.4684C27.8137 14.4684 26.578 14.0248 25.6909 13.1694C24.8038 12.2823 24.3603 11.11 24.3603 9.62095C24.3603 8.0685 24.8355 6.86457 25.7543 5.97745C26.6731 5.09034 27.9404 4.67847 29.5245 4.67847C31.077 4.67847 32.3126 5.12202 33.168 5.97745C34.0551 6.86457 34.4987 8.00514 34.4987 9.46254C34.4987 11.015 34.0551 12.2506 33.1363 13.1377C32.1859 14.0248 30.9502 14.4684 29.3661 14.4684ZM29.4295 6.86457C28.7325 6.86457 28.2255 7.08634 27.8453 7.56158C27.4652 8.03682 27.2751 8.70216 27.2751 9.55759C27.2751 11.3635 28.0038 12.2506 29.4612 12.2506C30.8552 12.2506 31.5522 11.3318 31.5522 9.49422C31.5205 7.72 30.8235 6.86457 29.4295 6.86457Z" fill="#333333"/>
<path d="M39.2194 14.2466H36.3363V0.369629H39.2194V14.2466Z" fill="#333333"/>
<path d="M51.4172 8.98717C51.4172 12.6623 49.8014 14.4683 46.6015 14.4683C43.5282 14.4683 42.0075 12.694 42.0075 9.17726V1.12988H43.2114V9.08222C43.2114 10.5079 43.4966 11.5851 44.0668 12.3138C44.6371 13.0425 45.5559 13.3911 46.7599 13.3911C49.041 13.3911 50.2133 11.997 50.2133 9.20895V1.12988H51.4172V8.98717Z" fill="#333333"/>
<path d="M60.7002 13.8347C60.0032 14.2466 59.1477 14.4683 58.1656 14.4683C57.5002 14.4683 56.8983 14.3733 56.3597 14.1198C55.8211 13.8664 55.3775 13.5495 54.9973 13.1377C54.6171 12.7258 54.332 12.2189 54.1419 11.6486C53.9518 11.0783 53.8251 10.4446 53.8251 9.77931C53.8251 9.08229 53.9201 8.41696 54.1419 7.78331C54.3637 7.14965 54.6805 6.61105 55.0607 6.16749C55.4409 5.72394 55.9795 5.34375 56.5498 5.0586C57.1517 4.80514 57.8171 4.64673 58.5775 4.64673C59.3378 4.64673 60.0665 4.80514 60.7002 5.09029V6.32591C60.0032 5.88235 59.2745 5.66057 58.4824 5.66057C57.9121 5.66057 57.4369 5.75562 56.9933 5.9774C56.5498 6.19917 56.2013 6.48432 55.9161 6.83283C55.631 7.18134 55.4092 7.62489 55.2508 8.10013C55.0924 8.57537 55.029 9.11398 55.029 9.65258C55.029 10.1595 55.0924 10.6347 55.2191 11.0783C55.3458 11.5219 55.5359 11.9337 55.8211 12.2822C56.1062 12.6307 56.423 12.9159 56.8349 13.106C57.2468 13.2961 57.722 13.4228 58.2923 13.4228C59.1794 13.4228 59.9715 13.1693 60.6685 12.6307V13.8347H60.7002Z" fill="#333333"/>
<path d="M69.2545 14.2466V8.73384C69.2545 7.68831 69.0644 6.92793 68.6842 6.42101C68.304 5.91409 67.7021 5.66062 66.91 5.66062C66.5298 5.66062 66.1813 5.72399 65.8328 5.8824C65.4843 6.04082 65.1991 6.2626 64.9457 6.54774C64.6922 6.83288 64.4704 7.18139 64.3437 7.59327C64.1853 8.00514 64.1219 8.48038 64.1219 8.9873V14.2149H62.9497V0.369629H64.1219V6.48437H64.1536C64.8823 5.24875 65.9278 4.64678 67.2902 4.64678C68.3357 4.64678 69.1278 4.96361 69.6347 5.59726C70.1733 6.23091 70.4268 7.18139 70.4268 8.41701V14.2149H69.2545V14.2466Z" fill="#333333"/>
<path d="M79.3613 14.2467V12.6626H79.3296C78.6959 13.8665 77.7138 14.4685 76.3831 14.4685C74.1653 14.4685 73.0564 13.1061 73.0564 10.3814V4.86865H74.2287V10.1596C74.2287 11.2685 74.4188 12.124 74.8306 12.6626C75.2425 13.2012 75.8445 13.4546 76.6682 13.4546C77.0801 13.4546 77.4286 13.3913 77.7771 13.2329C78.094 13.0744 78.4108 12.8527 78.6326 12.5675C78.886 12.2824 79.0761 11.9339 79.2029 11.5537C79.3296 11.1735 79.393 10.7299 79.393 10.223V4.86865H80.5652V14.2467H79.3613Z" fill="#333333"/>
<path d="M89.8799 14.2466V8.86052C89.8799 6.73778 89.1195 5.69226 87.5671 5.69226C87.1552 5.69226 86.775 5.7873 86.4265 5.94572C86.078 6.10413 85.7928 6.32591 85.5394 6.61105C85.2859 6.89619 85.0958 7.2447 84.9374 7.62489C84.779 8.00509 84.7156 8.44864 84.7156 8.8922V14.2466H83.5434V4.86851H84.7156V6.48432H84.7473C85.4443 5.2487 86.4899 4.64673 87.8839 4.64673C88.8977 4.64673 89.6898 4.96355 90.2284 5.62889C90.767 6.29422 91.0205 7.2447 91.0205 8.51201V14.2149H89.8799V14.2466Z" fill="#333333"/>
<path d="M16.3787 26.0724C16.1713 26.0724 15.9838 26.0341 15.8162 25.9574C15.6486 25.8793 15.5158 25.7663 15.4178 25.6186C15.3212 25.4709 15.2729 25.2898 15.2729 25.0753C15.2729 24.8906 15.3084 24.7386 15.3794 24.6193C15.4505 24.5 15.5463 24.4055 15.6671 24.3359C15.7878 24.2663 15.9228 24.2138 16.0719 24.1783C16.2211 24.1428 16.373 24.1158 16.5279 24.0973C16.7239 24.0746 16.883 24.0561 17.0051 24.0419C17.1273 24.0263 17.2161 24.0014 17.2715 23.9673C17.3269 23.9332 17.3546 23.8778 17.3546 23.8011V23.7862C17.3546 23.6001 17.302 23.456 17.1969 23.3537C17.0932 23.2514 16.9384 23.2003 16.7324 23.2003C16.5179 23.2003 16.3489 23.2479 16.2253 23.343C16.1032 23.4368 16.0186 23.5412 15.9718 23.6562L15.373 23.5199C15.4441 23.321 15.5478 23.1605 15.6841 23.0384C15.8219 22.9148 15.9803 22.8253 16.1593 22.7699C16.3382 22.7131 16.5265 22.6847 16.7239 22.6847C16.8546 22.6847 16.9931 22.7003 17.1394 22.7315C17.2871 22.7614 17.4249 22.8168 17.5527 22.8977C17.682 22.9787 17.7878 23.0945 17.8702 23.245C17.9526 23.3942 17.9938 23.5881 17.9938 23.8267V26H17.3716V25.5526H17.3461C17.3049 25.6349 17.2431 25.7159 17.1607 25.7955C17.0783 25.875 16.9725 25.9411 16.8432 25.9936C16.714 26.0462 16.5591 26.0724 16.3787 26.0724ZM16.5172 25.5611C16.6934 25.5611 16.8439 25.5263 16.9689 25.4567C17.0953 25.3871 17.1912 25.2962 17.2566 25.1839C17.3233 25.0703 17.3567 24.9489 17.3567 24.8196V24.3977C17.334 24.4205 17.29 24.4418 17.2246 24.4616C17.1607 24.4801 17.0875 24.4964 17.0051 24.5107C16.9228 24.5234 16.8425 24.5355 16.7644 24.5469C16.6863 24.5568 16.6209 24.5653 16.5684 24.5724C16.4448 24.5881 16.3319 24.6143 16.2296 24.6513C16.1287 24.6882 16.0478 24.7415 15.9867 24.8111C15.927 24.8793 15.8972 24.9702 15.8972 25.0838C15.8972 25.2415 15.9554 25.3608 16.0719 25.4418C16.1884 25.5213 16.3368 25.5611 16.5172 25.5611ZM19.1278 27.2273C19.0327 27.2273 18.946 27.2195 18.8679 27.2038C18.7898 27.1896 18.7315 27.174 18.6932 27.157L18.8466 26.6349C18.9631 26.6662 19.0668 26.6797 19.1577 26.6754C19.2486 26.6712 19.3288 26.6371 19.3984 26.5732C19.4695 26.5092 19.532 26.4048 19.5859 26.2599L19.6648 26.0426L18.4673 22.7273H19.1491L19.978 25.267H20.0121L20.8409 22.7273H21.5249L20.1761 26.4368C20.1136 26.6072 20.0341 26.7514 19.9375 26.8693C19.8409 26.9886 19.7259 27.0781 19.5923 27.1378C19.4588 27.1974 19.304 27.2273 19.1278 27.2273ZM23.3908 26.0661C23.084 26.0661 22.8162 25.9957 22.5875 25.8551C22.3588 25.7145 22.1813 25.5178 22.0549 25.2649C21.9284 25.0121 21.8652 24.7166 21.8652 24.3786C21.8652 24.0391 21.9284 23.7422 22.0549 23.4879C22.1813 23.2337 22.3588 23.0362 22.5875 22.8956C22.8162 22.755 23.084 22.6847 23.3908 22.6847C23.6976 22.6847 23.9654 22.755 24.1941 22.8956C24.4228 23.0362 24.6003 23.2337 24.7267 23.4879C24.8532 23.7422 24.9164 24.0391 24.9164 24.3786C24.9164 24.7166 24.8532 25.0121 24.7267 25.2649C24.6003 25.5178 24.4228 25.7145 24.1941 25.8551C23.9654 25.9957 23.6976 26.0661 23.3908 26.0661ZM23.3929 25.5312C23.5918 25.5312 23.7566 25.4787 23.8873 25.3736C24.0179 25.2685 24.1145 25.1286 24.177 24.9538C24.2409 24.7791 24.2729 24.5866 24.2729 24.3764C24.2729 24.1676 24.2409 23.9759 24.177 23.8011C24.1145 23.625 24.0179 23.4837 23.8873 23.3771C23.7566 23.2706 23.5918 23.2173 23.3929 23.2173C23.1926 23.2173 23.0265 23.2706 22.8944 23.3771C22.7637 23.4837 22.6664 23.625 22.6025 23.8011C22.54 23.9759 22.5087 24.1676 22.5087 24.3764C22.5087 24.5866 22.54 24.7791 22.6025 24.9538C22.6664 25.1286 22.7637 25.2685 22.8944 25.3736C23.0265 25.4787 23.1926 25.5312 23.3929 25.5312ZM26.2646 21.6364V26H25.6275V21.6364H26.2646ZM27.7587 21.6364V26H27.1216V21.6364H27.7587ZM29.5682 26.0724C29.3608 26.0724 29.1733 26.0341 29.0057 25.9574C28.8381 25.8793 28.7053 25.7663 28.6072 25.6186C28.5107 25.4709 28.4624 25.2898 28.4624 25.0753C28.4624 24.8906 28.4979 24.7386 28.5689 24.6193C28.6399 24.5 28.7358 24.4055 28.8565 24.3359C28.9773 24.2663 29.1122 24.2138 29.2614 24.1783C29.4105 24.1428 29.5625 24.1158 29.7173 24.0973C29.9134 24.0746 30.0724 24.0561 30.1946 24.0419C30.3168 24.0263 30.4055 24.0014 30.4609 23.9673C30.5163 23.9332 30.544 23.8778 30.544 23.8011V23.7862C30.544 23.6001 30.4915 23.456 30.3864 23.3537C30.2827 23.2514 30.1278 23.2003 29.9219 23.2003C29.7074 23.2003 29.5384 23.2479 29.4148 23.343C29.2926 23.4368 29.2081 23.5412 29.1612 23.6562L28.5625 23.5199C28.6335 23.321 28.7372 23.1605 28.8736 23.0384C29.0114 22.9148 29.1697 22.8253 29.3487 22.7699C29.5277 22.7131 29.7159 22.6847 29.9134 22.6847C30.044 22.6847 30.1825 22.7003 30.3288 22.7315C30.4766 22.7614 30.6143 22.8168 30.7422 22.8977C30.8714 22.9787 30.9773 23.0945 31.0597 23.245C31.142 23.3942 31.1832 23.5881 31.1832 23.8267V26H30.5611V25.5526H30.5355C30.4943 25.6349 30.4325 25.7159 30.3501 25.7955C30.2678 25.875 30.1619 25.9411 30.0327 25.9936C29.9034 26.0462 29.7486 26.0724 29.5682 26.0724ZM29.7067 25.5611C29.8828 25.5611 30.0334 25.5263 30.1584 25.4567C30.2848 25.3871 30.3807 25.2962 30.446 25.1839C30.5128 25.0703 30.5462 24.9489 30.5462 24.8196V24.3977C30.5234 24.4205 30.4794 24.4418 30.4141 24.4616C30.3501 24.4801 30.277 24.4964 30.1946 24.5107C30.1122 24.5234 30.032 24.5355 29.9538 24.5469C29.8757 24.5568 29.8104 24.5653 29.7578 24.5724C29.6342 24.5881 29.5213 24.6143 29.419 24.6513C29.3182 24.6882 29.2372 24.7415 29.1761 24.8111C29.1165 24.8793 29.0866 24.9702 29.0866 25.0838C29.0866 25.2415 29.1449 25.3608 29.2614 25.4418C29.3778 25.5213 29.5263 25.5611 29.7067 25.5611ZM32.0318 26V22.7273H32.6475V23.2472H32.6816C32.7413 23.071 32.8464 22.9325 32.997 22.8317C33.149 22.7294 33.3208 22.6783 33.5126 22.6783C33.5524 22.6783 33.5993 22.6797 33.6532 22.6825C33.7086 22.6854 33.752 22.6889 33.7832 22.6932V23.3026C33.7576 23.2955 33.7122 23.2876 33.6468 23.2791C33.5815 23.2692 33.5162 23.2642 33.4508 23.2642C33.3002 23.2642 33.166 23.2962 33.0481 23.3601C32.9316 23.4226 32.8393 23.5099 32.7711 23.6222C32.7029 23.733 32.6689 23.8594 32.6689 24.0014V26H32.0318ZM37.9956 24.6428V22.7273H38.6348V26H38.0083V25.4332H37.9743C37.899 25.608 37.7782 25.7536 37.612 25.87C37.4473 25.9851 37.242 26.0426 36.9963 26.0426C36.786 26.0426 36.6 25.9964 36.438 25.9041C36.2775 25.8104 36.1511 25.6719 36.0588 25.4886C35.9679 25.3054 35.9224 25.0788 35.9224 24.8089V22.7273H36.5595V24.7322C36.5595 24.9553 36.6213 25.1328 36.7449 25.2649C36.8684 25.397 37.0289 25.4631 37.2264 25.4631C37.3457 25.4631 37.4643 25.4332 37.5822 25.3736C37.7015 25.3139 37.8002 25.2237 37.8784 25.103C37.9579 24.9822 37.997 24.8288 37.9956 24.6428ZM40.8693 26.0661C40.5526 26.0661 40.2798 25.9943 40.0511 25.8509C39.8239 25.706 39.6491 25.5064 39.527 25.2521C39.4048 24.9979 39.3438 24.7067 39.3438 24.3786C39.3438 24.0462 39.4062 23.7528 39.5312 23.4986C39.6562 23.2429 39.8324 23.0433 40.0597 22.8999C40.2869 22.7564 40.5547 22.6847 40.8629 22.6847C41.1115 22.6847 41.3331 22.7308 41.5277 22.8232C41.7223 22.9141 41.8793 23.0419 41.9986 23.2067C42.1193 23.3714 42.1911 23.5639 42.2138 23.7841H41.5938C41.5597 23.6307 41.4815 23.4986 41.3594 23.3878C41.2386 23.277 41.0767 23.2216 40.8736 23.2216C40.696 23.2216 40.5405 23.2685 40.407 23.3622C40.2749 23.4545 40.1719 23.5866 40.098 23.7585C40.0241 23.929 39.9872 24.1307 39.9872 24.3636C39.9872 24.6023 40.0234 24.8082 40.0959 24.9815C40.1683 25.1548 40.2706 25.2891 40.4027 25.3842C40.5362 25.4794 40.6932 25.527 40.8736 25.527C40.9943 25.527 41.1037 25.505 41.2017 25.4609C41.3011 25.4155 41.3842 25.3509 41.451 25.267C41.5192 25.1832 41.5668 25.0824 41.5938 24.9645H42.2138C42.1911 25.1761 42.1222 25.3651 42.0071 25.5312C41.892 25.6974 41.7379 25.8281 41.5447 25.9233C41.353 26.0185 41.1278 26.0661 40.8693 26.0661ZM43.5321 24.0568V26H42.8951V21.6364H43.5236V23.2599H43.5641C43.6408 23.0838 43.758 22.9439 43.9157 22.8402C44.0733 22.7365 44.2793 22.6847 44.5336 22.6847C44.758 22.6847 44.954 22.7308 45.1216 22.8232C45.2907 22.9155 45.4213 23.0533 45.5137 23.2365C45.6074 23.4183 45.6543 23.6456 45.6543 23.9183V26H45.0172V23.995C45.0172 23.755 44.9554 23.5689 44.8319 23.4368C44.7083 23.3033 44.5364 23.2365 44.3162 23.2365C44.1657 23.2365 44.0307 23.2685 43.9114 23.3324C43.7935 23.3963 43.7005 23.4901 43.6323 23.6136C43.5655 23.7358 43.5321 23.8835 43.5321 24.0568ZM48.5776 24.6428V22.7273H49.2168V26H48.5904V25.4332H48.5563C48.481 25.608 48.3603 25.7536 48.1941 25.87C48.0293 25.9851 47.824 26.0426 47.5783 26.0426C47.3681 26.0426 47.182 25.9964 47.0201 25.9041C46.8596 25.8104 46.7331 25.6719 46.6408 25.4886C46.5499 25.3054 46.5044 25.0788 46.5044 24.8089V22.7273H47.1415V24.7322C47.1415 24.9553 47.2033 25.1328 47.3269 25.2649C47.4505 25.397 47.611 25.4631 47.8084 25.4631C47.9277 25.4631 48.0463 25.4332 48.1642 25.3736C48.2836 25.3139 48.3823 25.2237 48.4604 25.103C48.54 24.9822 48.579 24.8288 48.5776 24.6428ZM50.7099 24.0568V26H50.0728V22.7273H50.6843V23.2599H50.7248C50.8001 23.0866 50.918 22.9474 51.0785 22.8423C51.2404 22.7372 51.4442 22.6847 51.69 22.6847C51.913 22.6847 52.1083 22.7315 52.2759 22.8253C52.4435 22.9176 52.5735 23.0554 52.6658 23.2386C52.7582 23.4219 52.8043 23.6484 52.8043 23.9183V26H52.1673V23.995C52.1673 23.7578 52.1055 23.5724 51.9819 23.4389C51.8583 23.304 51.6886 23.2365 51.4727 23.2365C51.3249 23.2365 51.1935 23.2685 51.0785 23.3324C50.9648 23.3963 50.8746 23.4901 50.8079 23.6136C50.7425 23.7358 50.7099 23.8835 50.7099 24.0568ZM55.2466 26V22.7273H55.8581V23.2599H55.8986C55.9668 23.0795 56.0783 22.9389 56.2331 22.8381C56.388 22.7358 56.5733 22.6847 56.7892 22.6847C57.008 22.6847 57.1912 22.7358 57.339 22.8381C57.4881 22.9403 57.5982 23.081 57.6692 23.2599H57.7033C57.7814 23.0852 57.9057 22.946 58.0762 22.8423C58.2466 22.7372 58.4498 22.6847 58.6855 22.6847C58.9824 22.6847 59.2246 22.7777 59.4121 22.9638C59.601 23.1499 59.6955 23.4304 59.6955 23.8054V26H59.0584V23.8651C59.0584 23.6435 58.998 23.483 58.8773 23.3835C58.7566 23.2841 58.6124 23.2344 58.4448 23.2344C58.2374 23.2344 58.0762 23.2983 57.9611 23.4261C57.8461 23.5526 57.7885 23.7152 57.7885 23.9141V26H57.1536V23.8246C57.1536 23.647 57.0982 23.5043 56.9874 23.3963C56.8766 23.2884 56.7324 23.2344 56.5549 23.2344C56.4341 23.2344 56.3226 23.2663 56.2203 23.3303C56.1195 23.3928 56.0378 23.4801 55.9753 23.5923C55.9142 23.7045 55.8837 23.8345 55.8837 23.9822V26H55.2466ZM61.5018 26.0724C61.2944 26.0724 61.1069 26.0341 60.9393 25.9574C60.7717 25.8793 60.6388 25.7663 60.5408 25.6186C60.4442 25.4709 60.396 25.2898 60.396 25.0753C60.396 24.8906 60.4315 24.7386 60.5025 24.6193C60.5735 24.5 60.6694 24.4055 60.7901 24.3359C60.9109 24.2663 61.0458 24.2138 61.195 24.1783C61.3441 24.1428 61.4961 24.1158 61.6509 24.0973C61.8469 24.0746 62.006 24.0561 62.1282 24.0419C62.2504 24.0263 62.3391 24.0014 62.3945 23.9673C62.4499 23.9332 62.4776 23.8778 62.4776 23.8011V23.7862C62.4776 23.6001 62.4251 23.456 62.32 23.3537C62.2163 23.2514 62.0614 23.2003 61.8555 23.2003C61.641 23.2003 61.4719 23.2479 61.3484 23.343C61.2262 23.4368 61.1417 23.5412 61.0948 23.6562L60.4961 23.5199C60.5671 23.321 60.6708 23.1605 60.8072 23.0384C60.945 22.9148 61.1033 22.8253 61.2823 22.7699C61.4613 22.7131 61.6495 22.6847 61.8469 22.6847C61.9776 22.6847 62.1161 22.7003 62.2624 22.7315C62.4102 22.7614 62.5479 22.8168 62.6758 22.8977C62.805 22.9787 62.9109 23.0945 62.9933 23.245C63.0756 23.3942 63.1168 23.5881 63.1168 23.8267V26H62.4947V25.5526H62.4691C62.4279 25.6349 62.3661 25.7159 62.2837 25.7955C62.2013 25.875 62.0955 25.9411 61.9663 25.9936C61.837 26.0462 61.6822 26.0724 61.5018 26.0724ZM61.6403 25.5611C61.8164 25.5611 61.967 25.5263 62.092 25.4567C62.2184 25.3871 62.3143 25.2962 62.3796 25.1839C62.4464 25.0703 62.4798 24.9489 62.4798 24.8196V24.3977C62.457 24.4205 62.413 24.4418 62.3477 24.4616C62.2837 24.4801 62.2106 24.4964 62.1282 24.5107C62.0458 24.5234 61.9656 24.5355 61.8874 24.5469C61.8093 24.5568 61.744 24.5653 61.6914 24.5724C61.5678 24.5881 61.4549 24.6143 61.3526 24.6513C61.2518 24.6882 61.1708 24.7415 61.1097 24.8111C61.0501 24.8793 61.0202 24.9702 61.0202 25.0838C61.0202 25.2415 61.0785 25.3608 61.195 25.4418C61.3114 25.5213 61.4599 25.5611 61.6403 25.5611ZM64.4682 22.7273L65.1905 24.0014L65.9192 22.7273H66.6159L65.5953 24.3636L66.6245 26H65.9277L65.1905 24.777L64.4554 26H63.7566L64.775 24.3636L63.7694 22.7273H64.4682ZM69.7225 23.5263L69.1451 23.6286C69.1209 23.5547 69.0826 23.4844 69.03 23.4176C68.9789 23.3509 68.9093 23.2962 68.8212 23.2536C68.7331 23.2109 68.623 23.1896 68.4909 23.1896C68.3105 23.1896 68.16 23.2301 68.0392 23.3111C67.9185 23.3906 67.8581 23.4936 67.8581 23.62C67.8581 23.7294 67.8986 23.8175 67.9796 23.8842C68.0605 23.951 68.1912 24.0057 68.3716 24.0483L68.8915 24.1676C69.1926 24.2372 69.4171 24.3445 69.5648 24.4893C69.7125 24.6342 69.7864 24.8224 69.7864 25.054C69.7864 25.25 69.7296 25.4247 69.6159 25.5781C69.5037 25.7301 69.3468 25.8494 69.1451 25.9361C68.9448 26.0227 68.7125 26.0661 68.4483 26.0661C68.0819 26.0661 67.7828 25.9879 67.5513 25.8317C67.3198 25.674 67.1777 25.4503 67.1252 25.1605L67.7409 25.0668C67.7793 25.2273 67.8581 25.3487 67.9775 25.4311C68.0968 25.5121 68.2523 25.5526 68.4441 25.5526C68.6529 25.5526 68.8198 25.5092 68.9448 25.4226C69.0698 25.3345 69.1323 25.2273 69.1323 25.1009C69.1323 24.9986 69.0939 24.9126 69.0172 24.843C68.9419 24.7734 68.8262 24.7209 68.6699 24.6854L68.1159 24.5639C67.8105 24.4943 67.5847 24.3835 67.4384 24.2315C67.2935 24.0795 67.2211 23.8871 67.2211 23.6541C67.2211 23.4609 67.275 23.2919 67.383 23.147C67.4909 23.0021 67.6401 22.8892 67.8304 22.8082C68.0208 22.7259 68.2388 22.6847 68.4846 22.6847C68.8382 22.6847 69.1167 22.7614 69.3198 22.9148C69.5229 23.0668 69.6571 23.2706 69.7225 23.5263ZM72.56 24.6428V22.7273H73.1992V26H72.5728V25.4332H72.5387C72.4634 25.608 72.3427 25.7536 72.1765 25.87C72.0117 25.9851 71.8065 26.0426 71.5607 26.0426C71.3505 26.0426 71.1644 25.9964 71.0025 25.9041C70.842 25.8104 70.7156 25.6719 70.6232 25.4886C70.5323 25.3054 70.4869 25.0788 70.4869 24.8089V22.7273H71.1239V24.7322C71.1239 24.9553 71.1857 25.1328 71.3093 25.2649C71.4329 25.397 71.5934 25.4631 71.7908 25.4631C71.9102 25.4631 72.0288 25.4332 72.1467 25.3736C72.266 25.3139 72.3647 25.2237 72.4428 25.103C72.5224 24.9822 72.5614 24.8288 72.56 24.6428ZM76.5076 23.5263L75.9302 23.6286C75.9061 23.5547 75.8677 23.4844 75.8152 23.4176C75.764 23.3509 75.6944 23.2962 75.6064 23.2536C75.5183 23.2109 75.4082 23.1896 75.2761 23.1896C75.0957 23.1896 74.9451 23.2301 74.8244 23.3111C74.7037 23.3906 74.6433 23.4936 74.6433 23.62C74.6433 23.7294 74.6838 23.8175 74.7647 23.8842C74.8457 23.951 74.9764 24.0057 75.1568 24.0483L75.6767 24.1676C75.9778 24.2372 76.2022 24.3445 76.35 24.4893C76.4977 24.6342 76.5716 24.8224 76.5716 25.054C76.5716 25.25 76.5147 25.4247 76.4011 25.5781C76.2889 25.7301 76.1319 25.8494 75.9302 25.9361C75.7299 26.0227 75.4977 26.0661 75.2335 26.0661C74.867 26.0661 74.568 25.9879 74.3365 25.8317C74.1049 25.674 73.9629 25.4503 73.9103 25.1605L74.5261 25.0668C74.5645 25.2273 74.6433 25.3487 74.7626 25.4311C74.8819 25.5121 75.0375 25.5526 75.2292 25.5526C75.438 25.5526 75.6049 25.5092 75.7299 25.4226C75.8549 25.3345 75.9174 25.2273 75.9174 25.1009C75.9174 24.9986 75.8791 24.9126 75.8024 24.843C75.7271 24.7734 75.6113 24.7209 75.4551 24.6854L74.9011 24.5639C74.5957 24.4943 74.3699 24.3835 74.2235 24.2315C74.0787 24.0795 74.0062 23.8871 74.0062 23.6541C74.0062 23.4609 74.0602 23.2919 74.1681 23.147C74.2761 23.0021 74.4252 22.8892 74.6156 22.8082C74.8059 22.7259 75.024 22.6847 75.2697 22.6847C75.6234 22.6847 75.9018 22.7614 76.1049 22.9148C76.3081 23.0668 76.4423 23.2706 76.5076 23.5263ZM78.911 26V21.6364H79.5481V23.2578H79.5865C79.6234 23.1896 79.6767 23.1108 79.7463 23.0213C79.8159 22.9318 79.9125 22.8537 80.036 22.7869C80.1596 22.7188 80.323 22.6847 80.5261 22.6847C80.7903 22.6847 81.0261 22.7514 81.2335 22.8849C81.4409 23.0185 81.6035 23.2109 81.7214 23.4624C81.8407 23.7138 81.9004 24.0163 81.9004 24.37C81.9004 24.7237 81.8414 25.027 81.7235 25.2798C81.6056 25.5312 81.4437 25.7251 81.2377 25.8615C81.0318 25.9964 80.7967 26.0639 80.5325 26.0639C80.3336 26.0639 80.171 26.0305 80.0446 25.9638C79.9196 25.897 79.8216 25.8189 79.7505 25.7294C79.6795 25.6399 79.6248 25.5604 79.5865 25.4908H79.5332V26H78.911ZM79.5353 24.3636C79.5353 24.5937 79.5687 24.7955 79.6355 24.9688C79.7022 25.142 79.7988 25.2777 79.9252 25.3757C80.0517 25.4723 80.2065 25.5206 80.3897 25.5206C80.5801 25.5206 80.7392 25.4702 80.867 25.3693C80.9949 25.267 81.0914 25.1286 81.1568 24.9538C81.2235 24.7791 81.2569 24.5824 81.2569 24.3636C81.2569 24.1477 81.2243 23.9538 81.1589 23.782C81.095 23.6101 80.9984 23.4744 80.8691 23.375C80.7413 23.2756 80.5815 23.2259 80.3897 23.2259C80.2051 23.2259 80.0488 23.2734 79.921 23.3686C79.7946 23.4638 79.6987 23.5966 79.6333 23.767C79.568 23.9375 79.5353 24.1364 79.5353 24.3636ZM83.2528 21.6364V26H82.6158V21.6364H83.2528ZM85.4885 26.0661C85.1816 26.0661 84.9139 25.9957 84.6852 25.8551C84.4565 25.7145 84.2789 25.5178 84.1525 25.2649C84.0261 25.0121 83.9629 24.7166 83.9629 24.3786C83.9629 24.0391 84.0261 23.7422 84.1525 23.4879C84.2789 23.2337 84.4565 23.0362 84.6852 22.8956C84.9139 22.755 85.1816 22.6847 85.4885 22.6847C85.7953 22.6847 86.063 22.755 86.2917 22.8956C86.5204 23.0362 86.698 23.2337 86.8244 23.4879C86.9508 23.7422 87.014 24.0391 87.014 24.3786C87.014 24.7166 86.9508 25.0121 86.8244 25.2649C86.698 25.5178 86.5204 25.7145 86.2917 25.8551C86.063 25.9957 85.7953 26.0661 85.4885 26.0661ZM85.4906 25.5312C85.6895 25.5312 85.8542 25.4787 85.9849 25.3736C86.1156 25.2685 86.2122 25.1286 86.2747 24.9538C86.3386 24.7791 86.3706 24.5866 86.3706 24.3764C86.3706 24.1676 86.3386 23.9759 86.2747 23.8011C86.2122 23.625 86.1156 23.4837 85.9849 23.3771C85.8542 23.2706 85.6895 23.2173 85.4906 23.2173C85.2903 23.2173 85.1241 23.2706 84.992 23.3771C84.8613 23.4837 84.764 23.625 84.7001 23.8011C84.6376 23.9759 84.6064 24.1676 84.6064 24.3764C84.6064 24.5866 84.6376 24.7791 84.7001 24.9538C84.764 25.1286 84.8613 25.2685 84.992 25.3736C85.1241 25.4787 85.2903 25.5312 85.4906 25.5312ZM89.0973 27.2955C88.8374 27.2955 88.6136 27.2614 88.4261 27.1932C88.2401 27.125 88.0881 27.0348 87.9702 26.9226C87.8523 26.8104 87.7642 26.6875 87.706 26.554L88.2536 26.3281C88.2919 26.3906 88.343 26.4567 88.407 26.5263C88.4723 26.5973 88.5604 26.6577 88.6712 26.7074C88.7834 26.7571 88.9276 26.782 89.1037 26.782C89.3452 26.782 89.5447 26.723 89.7024 26.6051C89.8601 26.4886 89.9389 26.3026 89.9389 26.0469V25.4034H89.8984C89.8601 25.473 89.8047 25.5504 89.7322 25.6357C89.6612 25.7209 89.5632 25.7947 89.4382 25.8572C89.3132 25.9197 89.1506 25.951 88.9503 25.951C88.6918 25.951 88.4588 25.8906 88.2514 25.7699C88.0455 25.6477 87.8821 25.468 87.7614 25.2308C87.642 24.9922 87.5824 24.6989 87.5824 24.3509C87.5824 24.0028 87.6413 23.7045 87.7592 23.456C87.8786 23.2074 88.0419 23.017 88.2493 22.8849C88.4567 22.7514 88.6918 22.6847 88.9545 22.6847C89.1577 22.6847 89.3217 22.7188 89.4467 22.7869C89.5717 22.8537 89.669 22.9318 89.7386 23.0213C89.8097 23.1108 89.8643 23.1896 89.9027 23.2578H89.9496V22.7273H90.5739V26.0724C90.5739 26.3537 90.5085 26.5845 90.3778 26.7649C90.2472 26.9453 90.0703 27.0788 89.8473 27.1655C89.6257 27.2521 89.3757 27.2955 89.0973 27.2955ZM89.0909 25.4226C89.2741 25.4226 89.429 25.38 89.5554 25.2947C89.6832 25.2081 89.7798 25.0845 89.8452 24.924C89.9119 24.7621 89.9453 24.5682 89.9453 24.3423C89.9453 24.1222 89.9126 23.9283 89.8473 23.7607C89.782 23.593 89.6861 23.4624 89.5597 23.3686C89.4332 23.2734 89.277 23.2259 89.0909 23.2259C88.8991 23.2259 88.7393 23.2756 88.6115 23.375C88.4837 23.473 88.3871 23.6065 88.3217 23.7756C88.2578 23.9446 88.2259 24.1335 88.2259 24.3423C88.2259 24.5568 88.2585 24.745 88.3239 24.907C88.3892 25.0689 88.4858 25.1953 88.6136 25.2862C88.7429 25.3771 88.902 25.4226 89.0909 25.4226Z" fill="#333333"/>
</svg>
