<svg width="24" height="24" viewBox="0 0 24 24" fill="none" xmlns="http://www.w3.org/2000/svg">
<path d="M8 22C5.17157 22 3.75736 22 2.87868 21.1213C2 20.2426 2 18.8284 2 16L2 15C2 12.1716 2 10.7574 2.87868 9.87868C3.75736 9 5.17157 9 8 9L16 9C18.8284 9 20.2426 9 21.1213 9.87868C22 10.7574 22 12.1716 22 15L22 16C22 18.8284 22 20.2426 21.1213 21.1213C20.2426 22 18.8284 22 16 22L8 22Z" stroke="white" stroke-width="1.5"/>
<path d="M10.0065 6.5C10.0334 4.64032 10.1714 3.58599 10.8787 2.87868C11.7574 2 13.1716 2 16 2C18.8284 2 20.2426 2 21.1213 2.87868C21.8286 3.58599 21.9666 4.64032 21.9935 6.5" stroke="white" stroke-width="1.5" stroke-linecap="round"/>
<path d="M5 13L5 18" stroke="white" stroke-width="1.5" stroke-linecap="round"/>
<path d="M18 5L14 5" stroke="white" stroke-width="1.5" stroke-linecap="round"/>
<path d="M17.5 14C18.3284 14 19 14.6716 19 15.5C19 16.3284 18.3284 17 17.5 17C16.6716 17 16 16.3284 16 15.5C16 14.6716 16.6716 14 17.5 14Z" stroke="white" stroke-width="1.5"/>
<path d="M6.98598 3.5L8 2C4.98532 2 2.48275 4.16229 2 7" stroke="white" stroke-width="1.5" stroke-linecap="round" stroke-linejoin="round"/>
</svg>
