<svg width="20" height="20" viewBox="0 0 20 20" fill="none" xmlns="http://www.w3.org/2000/svg">
<path d="M2.52148 10.021C2.52148 7.20062 2.52148 5.79044 3.39766 4.91426C4.27384 4.03809 5.68402 4.03809 8.50439 4.03809H11.4958C14.3162 4.03809 15.7264 4.03809 16.6026 4.91426C17.4787 5.79044 17.4787 7.20062 17.4787 10.021V11.5167C17.4787 14.3371 17.4787 15.7473 16.6026 16.6234C15.7264 17.4996 14.3162 17.4996 11.4958 17.4996H8.50439C5.68402 17.4996 4.27384 17.4996 3.39766 16.6234C2.52148 15.7473 2.52148 14.3371 2.52148 11.5167V10.021Z" stroke="#F5365C" stroke-width="1.5"/>
<path d="M6.26074 4.0383V2.9165" stroke="#F5365C" stroke-width="1.5" stroke-linecap="round"/>
<path d="M13.7393 4.0383V2.9165" stroke="#F5365C" stroke-width="1.5" stroke-linecap="round"/>
<path d="M2.89551 7.77783H17.1049" stroke="#F5365C" stroke-width="1.5" stroke-linecap="round"/>
<path d="M14.4874 13.7603C14.4874 14.1733 14.1526 14.5082 13.7396 14.5082C13.3265 14.5082 12.9917 14.1733 12.9917 13.7603C12.9917 13.3473 13.3265 13.0124 13.7396 13.0124C14.1526 13.0124 14.4874 13.3473 14.4874 13.7603Z" fill="#F5365C"/>
<path d="M14.4874 10.7689C14.4874 11.1819 14.1526 11.5167 13.7396 11.5167C13.3265 11.5167 12.9917 11.1819 12.9917 10.7689C12.9917 10.3558 13.3265 10.021 13.7396 10.021C14.1526 10.021 14.4874 10.3558 14.4874 10.7689Z" fill="#F5365C"/>
<path d="M10.7482 13.7603C10.7482 14.1733 10.4133 14.5082 10.0003 14.5082C9.58727 14.5082 9.25244 14.1733 9.25244 13.7603C9.25244 13.3473 9.58727 13.0124 10.0003 13.0124C10.4133 13.0124 10.7482 13.3473 10.7482 13.7603Z" fill="#F5365C"/>
<path d="M10.7482 10.7689C10.7482 11.1819 10.4133 11.5167 10.0003 11.5167C9.58727 11.5167 9.25244 11.1819 9.25244 10.7689C9.25244 10.3558 9.58727 10.021 10.0003 10.021C10.4133 10.021 10.7482 10.3558 10.7482 10.7689Z" fill="#F5365C"/>
<path d="M7.00842 13.7603C7.00842 14.1733 6.67359 14.5082 6.26056 14.5082C5.84753 14.5082 5.5127 14.1733 5.5127 13.7603C5.5127 13.3473 5.84753 13.0124 6.26056 13.0124C6.67359 13.0124 7.00842 13.3473 7.00842 13.7603Z" fill="#F5365C"/>
<path d="M7.00842 10.7689C7.00842 11.1819 6.67359 11.5167 6.26056 11.5167C5.84753 11.5167 5.5127 11.1819 5.5127 10.7689C5.5127 10.3558 5.84753 10.021 6.26056 10.021C6.67359 10.021 7.00842 10.3558 7.00842 10.7689Z" fill="#F5365C"/>
</svg>
