<svg width="201" height="200" viewBox="0 0 201 200" fill="none" xmlns="http://www.w3.org/2000/svg">
<path d="M100.167 180.667C145.086 180.667 181.5 144.402 181.5 99.6667C181.5 54.9317 145.086 18.6667 100.167 18.6667C55.2477 18.6667 18.8335 54.9317 18.8335 99.6667C18.8335 144.402 55.2477 180.667 100.167 180.667Z" fill="#F8F9FA"/>
<path fill-rule="evenodd" clip-rule="evenodd" d="M165.17 63.4675C167.922 61.449 168.516 57.5823 166.497 54.831C164.479 52.0796 160.612 51.4855 157.861 53.504C155.109 55.5225 154.515 59.3892 156.534 62.1406C157.779 63.8375 159.727 64.7138 161.682 64.6627C161.822 64.6472 161.967 64.6384 162.114 64.6363C163.184 64.5331 164.241 64.1494 165.17 63.4675ZM136.949 65.1355C143.05 66.4938 148.596 67.3419 154.17 66.5848C153.637 66.1002 153.144 65.5554 152.702 64.9519C149.13 60.0842 150.182 53.2431 155.049 49.6719C159.917 46.1008 166.758 47.1519 170.33 52.0196C172.187 54.5518 172.794 57.618 172.264 60.4802C176.671 57.9872 180.596 54.8377 183.644 50.8105C184.436 49.7639 185.921 49.5921 186.96 50.4267C187.999 51.2613 188.199 52.7862 187.407 53.8328C181.903 61.1043 174.214 65.3642 166.292 68.3203C165.168 68.8678 163.98 69.207 162.78 69.3456C153.808 72.5988 144.551 71.8142 135.902 69.8885C134.632 69.6057 133.837 68.3125 134.126 67C134.415 65.6875 135.679 64.8527 136.949 65.1355Z" fill="#606468"/>
<path d="M147.833 65.0003C147.833 49.3523 135.148 36.667 119.5 36.667H92.5002V93.3337H119.5C135.148 93.3337 147.833 80.6484 147.833 65.0003Z" fill="#F5365C"/>
<path d="M116.106 83.0372C112.091 90.8207 105.372 95.9172 97.7639 95.9172H90.4151C78.1131 95.9172 68.1375 82.5886 68.1375 66.1521C68.1375 49.7156 78.1131 36.3916 90.4151 36.3869H97.787C105.395 36.3869 112.124 41.4742 116.129 49.267C118.711 54.5197 120.053 60.2946 120.053 66.1475C120.053 72.0003 118.711 77.7752 116.129 83.0279L116.106 83.0372Z" fill="#606468"/>
<path d="M108.674 83.0374C104.669 90.8071 97.9629 95.899 90.369 95.9175C78.0763 95.9175 68.1145 82.5796 68.1145 66.1523C68.1145 49.7251 78.0763 36.4057 90.369 36.3872C97.9629 36.3872 104.669 41.4745 108.674 49.2672C111.259 54.5191 112.603 60.2943 112.603 66.1477C112.603 72.0011 111.259 77.7764 108.674 83.0282V83.0374Z" fill="#E2E2E2"/>
<path d="M91.0351 71.6401C89.9507 69.6936 88.135 68.418 86.0789 68.4133C82.7505 68.4133 80.0532 71.7548 80.0532 75.8702C80.0532 79.9856 82.7505 83.3224 86.0789 83.327C88.135 83.327 89.9507 82.0525 91.0351 80.1003C91.7349 78.7846 92.0989 77.3377 92.0989 75.8713C92.0989 74.4049 91.7349 72.9581 91.0351 71.6424V71.6401Z" fill="white"/>
<path d="M91.0351 51.5639C89.9507 49.6174 88.135 48.3418 86.0789 48.3372C82.7505 48.3372 80.0532 51.6786 80.0532 55.794C80.0532 59.9094 82.7505 63.2462 86.0789 63.2508C88.135 63.2508 89.9507 61.9764 91.0351 60.0241C91.7349 58.7084 92.0989 57.2616 92.0989 55.7952C92.0989 54.3287 91.7349 52.8819 91.0351 51.5662V51.5639Z" fill="white"/>
<path d="M65.8335 76.3168C65.8335 79.0876 68.0797 81.3337 70.8504 81.3337H85.1668C88.1124 81.3337 90.5002 78.9459 90.5002 76.0004C90.5002 73.0549 88.1123 70.6671 85.1668 70.6671H70.8504C68.0797 70.6671 65.8335 72.9132 65.8335 75.684V76.3168Z" fill="#606468"/>
<path d="M65.8335 55.667C65.8335 58.4284 68.0721 60.667 70.8335 60.667H85.5002C88.2616 60.667 90.5002 58.4284 90.5002 55.667C90.5002 52.9056 88.2616 50.667 85.5002 50.667H70.8335C68.0721 50.667 65.8335 52.9056 65.8335 55.667Z" fill="#606468"/>
<path fill-rule="evenodd" clip-rule="evenodd" d="M106.401 91.4529H120.058V93.4529H106.401V91.4529Z" fill="#606468"/>
<path fill-rule="evenodd" clip-rule="evenodd" d="M18.738 134.563C30.2682 127.639 43.33 126.321 55.8359 126.736C57.6229 126.795 59.0235 128.291 58.9643 130.078C58.9051 131.865 57.4085 133.266 55.6215 133.207C43.6193 132.809 32.0361 134.13 22.0712 140.114C20.5384 141.034 18.5496 140.538 17.6292 139.005C16.7087 137.472 17.2052 135.483 18.738 134.563Z" fill="#606468"/>
<path d="M46.5 130C46.5 114.536 59.036 102 74.5 102H101.833V158H74.5C59.036 158 46.5 145.464 46.5 130Z" fill="#F5365C"/>
<path d="M73.8078 148.457C77.8267 156.24 84.5465 161.337 92.1543 161.337H99.5262C111.828 161.337 121.804 148.008 121.804 131.572C121.804 115.135 111.828 101.811 99.5262 101.807H92.1543C84.5465 101.807 77.8174 106.894 73.8078 114.687C71.1802 119.925 69.8345 125.712 69.8813 131.572C69.8345 137.432 71.1802 143.219 73.8078 148.457Z" fill="#606468"/>
<path d="M81.2392 148.457C85.2488 156.227 91.9502 161.318 99.5487 161.337C111.841 161.337 121.803 147.999 121.803 131.572C121.803 115.145 111.841 101.825 99.5487 101.811C91.9502 101.811 85.2488 106.899 81.2392 114.687C78.6116 119.925 77.2659 125.712 77.3127 131.572C77.2659 137.432 78.6116 143.219 81.2392 148.457Z" fill="#E2E2E2"/>
<path d="M101.563 135.525C104.573 135.525 107.012 138.735 107.012 142.695C107.012 146.655 104.573 149.865 101.563 149.865C98.5537 149.865 96.114 146.655 96.114 142.695C96.114 138.735 98.5537 135.525 101.563 135.525Z" fill="white"/>
<path d="M101.563 112.581C104.573 112.581 107.012 115.791 107.012 119.751C107.012 123.711 104.573 126.921 101.563 126.921C98.5537 126.921 96.114 123.711 96.114 119.751C96.114 115.791 98.5537 112.581 101.563 112.581Z" fill="white"/>
<path fill-rule="evenodd" clip-rule="evenodd" d="M71.8994 156.144H83.4001V158.144H71.8994V156.144Z" fill="#606468"/>
<path fill-rule="evenodd" clip-rule="evenodd" d="M159.215 27.0021C160.085 23.4725 160.028 20.0735 160.133 16.4934C160.153 15.7942 159.602 15.213 158.903 15.1919C158.203 15.1708 157.62 15.7226 157.599 16.4218C157.5 19.8166 157.58 23.0471 156.754 26.3998C156.586 27.0779 157.003 27.7644 157.682 27.9287C158.361 28.0971 159.048 27.6802 159.215 27.0021Z" fill="#606468"/>
<path fill-rule="evenodd" clip-rule="evenodd" d="M166.612 33.8422C172.518 28.4594 178.083 21.535 181.973 14.5433C182.312 13.9326 182.091 13.1617 181.48 12.8248C180.868 12.4878 180.096 12.7069 179.757 13.3176C175.995 20.0777 170.613 26.7746 164.902 31.9763C164.386 32.4481 164.35 33.2483 164.821 33.7622C165.293 34.276 166.096 34.3139 166.612 33.8422Z" fill="#606468"/>
<path fill-rule="evenodd" clip-rule="evenodd" d="M168.108 39.7221C173.51 40.6108 179.078 39.0946 183.99 36.9507C184.631 36.6685 184.924 35.923 184.643 35.287C184.363 34.6468 183.615 34.3562 182.974 34.6342C178.5 36.5885 173.441 38.0374 168.521 37.2287C167.83 37.115 167.178 37.5825 167.064 38.269C166.95 38.9556 167.418 39.6084 168.108 39.7221Z" fill="#606468"/>
<path fill-rule="evenodd" clip-rule="evenodd" d="M19.2655 168.368C20.0352 168.094 20.8451 167.729 21.4697 167.202C22.2115 166.575 22.5132 165.768 22.7158 164.918C22.9759 163.826 23.0798 162.663 23.3952 161.57C23.512 161.164 23.7367 161.01 23.8331 160.942C24.0768 160.77 24.3232 160.724 24.555 160.741C24.8297 160.761 25.207 160.865 25.4551 161.326C25.4905 161.392 25.5365 161.492 25.5675 161.63C25.59 161.73 25.6046 162.046 25.6285 162.176C25.6882 162.496 25.7382 162.816 25.7851 163.138C25.9413 164.21 26.0311 165.121 26.5243 166.105C27.1935 167.442 27.8641 168.26 28.7735 168.622C29.6529 168.972 30.7043 168.906 32.0477 168.632C32.1755 168.601 32.302 168.574 32.4272 168.553C33.0195 168.449 33.5857 168.838 33.702 169.428C33.8183 170.018 33.4419 170.592 32.855 170.722C32.7324 170.749 32.6117 170.774 32.4922 170.798C30.6769 171.247 28.5754 172.851 27.3541 174.256C26.9776 174.689 26.4265 175.899 25.8643 176.672C25.4494 177.241 24.9832 177.617 24.5917 177.75C24.3294 177.839 24.1082 177.825 23.9256 177.78C23.6602 177.715 23.4399 177.571 23.2709 177.342C23.1789 177.217 23.0935 177.049 23.0528 176.835C23.0334 176.732 23.0312 176.47 23.0316 176.352C22.917 175.958 22.7768 175.573 22.6746 175.175C22.4309 174.226 21.9527 173.626 21.3848 172.832C20.8535 172.089 20.2829 171.623 19.4465 171.25C19.3377 171.224 18.4596 171.009 18.1496 170.885C17.6966 170.705 17.4807 170.402 17.4024 170.238C17.2693 169.961 17.2556 169.719 17.2821 169.518C17.3215 169.22 17.4551 168.965 17.6922 168.76C17.839 168.632 18.0584 168.507 18.3522 168.447C18.5791 168.4 19.1811 168.372 19.2655 168.368ZM24.4165 166.822C24.4572 166.912 24.5006 167.004 24.5466 167.096C25.5268 169.053 26.6229 170.146 27.9552 170.677L27.9999 170.694C27.1086 171.356 26.3018 172.095 25.6851 172.804C25.4312 173.096 25.0951 173.703 24.7319 174.325C24.4019 173.252 23.8623 172.494 23.1838 171.545C22.6653 170.821 22.1222 170.276 21.4547 169.832C21.9726 169.566 22.4667 169.255 22.8971 168.891C23.6137 168.285 24.0874 167.584 24.4165 166.822Z" fill="#E3E3E3"/>
</svg>
