<svg width="125" height="124" viewBox="0 0 125 124" fill="none" xmlns="http://www.w3.org/2000/svg">
<path d="M57.9 112.6C85.8999 112.6 108.6 89.9 108.6 61.8C108.6 33.7 85.8999 11 57.9 11C29.9 11 7.19995 33.7 7.19995 61.8C7.19995 89.9 29.9 112.6 57.9 112.6Z" fill="#F1F3F9" stroke="#D6DCE8" stroke-width="2" stroke-miterlimit="10"/>
<path d="M114.4 40.9C116.664 40.9 118.5 39.0643 118.5 36.7999C118.5 34.5356 116.664 32.7 114.4 32.7C112.136 32.7 110.3 34.5356 110.3 36.7999C110.3 39.0643 112.136 40.9 114.4 40.9Z" fill="#F1F3F9"/>
<path d="M120.4 24.8C121.946 24.8 123.2 23.5463 123.2 22C123.2 20.4536 121.946 19.2 120.4 19.2C118.854 19.2 117.6 20.4536 117.6 22C117.6 23.5463 118.854 24.8 120.4 24.8Z" fill="#F1F3F9"/>
<path d="M3.8 43.7999C5.3464 43.7999 6.6 42.5463 6.6 41C6.6 39.4536 5.3464 38.2 3.8 38.2C2.2536 38.2 1 39.4536 1 41C1 42.5463 2.2536 43.7999 3.8 43.7999Z" fill="#F1F3F9"/>
<path d="M9.00005 104.7C11.8719 104.7 14.2 102.372 14.2 99.5C14.2 96.6282 11.8719 94.3 9.00005 94.3C6.12817 94.3 3.80005 96.6282 3.80005 99.5C3.80005 102.372 6.12817 104.7 9.00005 104.7Z" fill="#F1F3F9"/>
<path d="M89.3001 32.2001V73.9001C89.3001 76.4001 87.2001 78.5001 84.7001 78.5001H15.7001C13.2001 78.5001 11.1001 76.5001 11.1001 73.9001V32.2001C11.1001 29.7001 13.2001 27.6001 15.7001 27.6001H84.7001C87.2001 27.6001 89.3001 29.7001 89.3001 32.2001Z" fill="#F1F3F9" stroke="#D6DCE8" stroke-width="2" stroke-miterlimit="10"/>
<path d="M101.6 99.5001H37.5C33.6 99.5001 30.5 96.4001 30.5 92.5001V55.6001C30.5 51.7001 33.6 48.6001 37.5 48.6001H101.6C105.5 48.6001 108.6 51.7001 108.6 55.6001V92.5001C108.6 96.4001 105.5 99.5001 101.6 99.5001Z" fill="white" stroke="#D6DCE8" stroke-width="2" stroke-miterlimit="10"/>
<path d="M50.3 88H40.1C39.2 88 38.5 87.3 38.5 86.4C38.5 85.5 39.2 84.8 40.1 84.8H50.3C51.2 84.8 51.9 85.5 51.9 86.4C51.9 87.3 51.2 88 50.3 88Z" fill="#D6DCE8"/>
<path d="M66.8 88H56.6C55.7 88 55 87.3 55 86.4C55 85.5 55.7 84.8 56.6 84.8H66.8C67.7 84.8 68.4 85.5 68.4 86.4C68.4 87.3 67.7 88 66.8 88Z" fill="#D6DCE8"/>
<path d="M83.3 88H73.1C72.2 88 71.5 87.3 71.5 86.4C71.5 85.5 72.2 84.8 73.1 84.8H83.3C84.2 84.8 84.9 85.5 84.9 86.4C84.9 87.3 84.2 88 83.3 88Z" fill="#D6DCE8"/>
<path d="M99.8 88H89.6C88.7 88 88 87.3 88 86.4C88 85.5 88.7 84.8 89.6 84.8H99.8C100.7 84.8 101.4 85.5 101.4 86.4C101.4 87.3 100.7 88 99.8 88Z" fill="#D6DCE8"/>
<path d="M96.1001 68.8C99.4138 68.8 102.1 66.1138 102.1 62.8C102.1 59.4863 99.4138 56.8 96.1001 56.8C92.7864 56.8 90.1001 59.4863 90.1001 62.8C90.1001 66.1138 92.7864 68.8 96.1001 68.8Z" fill="#AAB2C5"/>
<path d="M88.2002 68.8C91.5139 68.8 94.2002 66.1138 94.2002 62.8C94.2002 59.4863 91.5139 56.8 88.2002 56.8C84.8865 56.8 82.2002 59.4863 82.2002 62.8C82.2002 66.1138 84.8865 68.8 88.2002 68.8Z" fill="#D6DCE8"/>
<path d="M89.3002 36.1001H11.2002V45.9001H89.3002V36.1001Z" fill="#AAB2C5"/>
<path d="M51.2 70.7H40C39.2 70.7 38.5 70 38.5 69.2V62C38.5 61.2 39.2 60.5 40 60.5H51.1C51.9 60.5 52.6 61.2 52.6 62V69.2C52.7 70 52 70.7 51.2 70.7Z" fill="#D6DCE8"/>
</svg>
