<svg width="40" height="40" viewBox="0 0 40 40" fill="none" xmlns="http://www.w3.org/2000/svg">
<path d="M8.3335 13.3333C8.3335 8.61927 8.3335 6.26225 9.79796 4.79778C11.2624 3.33331 13.6195 3.33331 18.3335 3.33331H21.6668C26.3809 3.33331 28.7379 3.33331 30.2024 4.79778C31.6668 6.26225 31.6668 8.61927 31.6668 13.3333V26.6666C31.6668 31.3807 31.6668 33.7377 30.2024 35.2022C28.7379 36.6666 26.3809 36.6666 21.6668 36.6666H18.3335C13.6195 36.6666 11.2624 36.6666 9.79796 35.2022C8.3335 33.7377 8.3335 31.3807 8.3335 26.6666V13.3333Z" stroke="#8898AA" stroke-width="2.5"/>
<path d="M31.6665 32.5C32.4407 32.5 32.8278 32.5 33.1516 32.4487C34.9345 32.1663 36.3328 30.768 36.6152 28.9851C36.6665 28.6613 36.6665 28.2742 36.6665 27.5V12.5C36.6665 11.7258 36.6665 11.3387 36.6152 11.0149C36.3328 9.23197 34.9345 7.83368 33.1516 7.5513C32.8278 7.5 32.4407 7.5 31.6665 7.5" stroke="#8898AA" stroke-width="2.5"/>
<path d="M8.3335 32.5C7.55932 32.5 7.17224 32.5 6.84835 32.4487C5.06547 32.1663 3.66718 30.768 3.38479 28.9851C3.3335 28.6613 3.3335 28.2742 3.3335 27.5V12.5C3.3335 11.7258 3.3335 11.3387 3.38479 11.0149C3.66718 9.23197 5.06547 7.83368 6.84835 7.5513C7.17224 7.5 7.55932 7.5 8.3335 7.5" stroke="#8898AA" stroke-width="2.5"/>
<circle cx="24.1665" cy="10.8333" r="2.5" stroke="#8898AA" stroke-width="2.5"/>
<path d="M8.3335 24.6932L10.4846 22.4862C11.6037 21.338 13.2903 21.4038 14.3418 22.6368L19.6099 28.8141C20.4539 29.8037 21.7824 29.9387 22.7589 29.1339L23.1251 28.8322C24.5303 27.6741 26.4315 27.8083 27.7081 29.1556L30.8772 32.5" stroke="#8898AA" stroke-width="2.5" stroke-linecap="round"/>
</svg>
