<svg width="61" height="20" viewBox="0 0 61 20" fill="none" xmlns="http://www.w3.org/2000/svg">
<path d="M21.8535 17.3484C21.9901 16.9789 22.3932 16.8023 22.7603 16.9274C23.1175 17.0492 23.4825 17.1388 23.8652 17.1388C24.3928 17.1388 24.845 17.0388 25.2219 16.8388C25.9525 16.4947 26.2231 15.62 26.5333 14.9237L22.8634 4.93671C22.7355 4.5886 22.9876 4.21726 23.352 4.21726H25.5367C25.8351 4.21726 26.1002 4.41136 26.1958 4.69975L28.116 10.4934L30.0363 4.69975C30.1319 4.41136 30.397 4.21726 30.6953 4.21726H32.7408C33.1061 4.21726 33.3584 4.59047 33.2286 4.93894L29.0883 16.0543C28.6059 17.3157 27.9728 18.2848 27.189 18.9617C26.4052 19.6539 25.3726 20 24.0913 20C23.3361 20 22.5972 19.8591 21.888 19.6138C21.4534 19.4635 21.2554 18.9667 21.4173 18.5285L21.8535 17.3484Z" fill="#1B9684"/>
<path d="M18.4247 13.9776C17.6266 14.7921 16.6133 15.021 15.4738 15.016C13.4487 15.0071 11.7652 13.9943 11.0989 12.0394C10.5958 10.5634 10.5851 8.78372 11.0989 7.3092C11.7739 5.37175 13.447 4.21726 15.4853 4.21726C16.5803 4.21726 17.6031 4.37547 18.4247 5.11715V4.92723C18.4247 4.53512 18.7362 4.21726 19.1204 4.21726H21.5972V15.016H19.1204C18.7362 15.016 18.4247 14.6981 18.4247 14.306V13.9776ZM17.9951 11.6471C18.4021 11.1088 18.6056 10.4319 18.6056 9.61662C18.6056 8.69365 18.3795 7.99373 17.9273 7.51687C17.0422 6.55137 15.347 6.5359 14.5357 7.60916C13.7087 8.71279 13.7299 10.5743 14.5583 11.6702C15.3877 12.736 17.181 12.7241 17.9951 11.6471Z" fill="#1B9684"/>
<path d="M5.15523 0.0639038H2.22628C1.44701 0.0639038 1.05737 0.0639038 0.759732 0.218669C0.497918 0.354805 0.285057 0.572029 0.151656 0.83921C0 1.14295 0 1.54058 0 2.33582V2.83281H4.88391C5.60745 2.83281 6.16518 3.02509 6.55709 3.40966C6.60797 3.45581 6.65566 3.50364 6.70018 3.55315C7.01178 3.89975 7.16758 4.32878 7.16758 4.84026C7.16758 4.87872 7.16685 4.91678 7.16538 4.95446C7.14329 5.5196 6.95561 5.99686 6.60232 6.38623C6.5571 6.43815 6.50869 6.48682 6.45711 6.53225C6.09605 6.85024 5.57918 7.00924 4.90652 7.00924H0V12.7441C0 13.5393 0 13.9369 0.151656 14.2407C0.285057 14.5079 0.497918 14.7251 0.759732 14.8612C1.05737 15.016 1.44701 15.016 2.22628 15.016H3.02113V9.66277H5.22307C5.97675 9.66277 6.66261 9.55509 7.28064 9.33973C7.91373 9.12437 8.45639 8.80902 8.9086 8.39369C9.36082 7.96297 9.70751 7.43226 9.9487 6.80157C10.2049 6.15549 10.3331 5.41712 10.3331 4.58644C10.3331 3.89422 10.2125 3.27122 9.97131 2.71743C9.73013 2.16365 9.38343 1.69448 8.93122 1.30991C8.479 0.909957 7.92881 0.602302 7.28064 0.386942C6.64754 0.171583 5.93907 0.0639038 5.15523 0.0639038Z" fill="#1B9684"/>
<path d="M50.5679 4.95836C50.4213 4.60713 50.6739 4.21725 51.048 4.21725H53.262C53.5503 4.21725 53.8087 4.3987 53.9118 4.67346L55.8435 9.82428L57.7535 4.67585C57.8559 4.39983 58.115 4.21725 58.4042 4.21725H60.4776C60.8525 4.21725 61.1051 4.60867 60.957 4.96011L56.8611 14.6788C56.7512 14.9394 56.4999 15.1083 56.222 15.1083H55.2633C54.9844 15.1083 54.7325 14.9383 54.6232 14.6765L50.5679 4.95836Z" fill="#6E7787"/>
<path d="M45.0058 12.4547C45.3977 12.4547 45.7369 12.3778 46.0233 12.224C46.3248 12.0702 46.5735 11.8702 46.7694 11.6241C46.9805 11.3626 47.1312 11.0626 47.2217 10.7242C47.3272 10.3704 47.3799 10.0012 47.3799 9.61662C47.3799 9.23205 47.3272 8.87055 47.2217 8.53213C47.1312 8.17833 46.9805 7.87836 46.7694 7.63224C46.5735 7.37073 46.3248 7.16306 46.0233 7.00923C45.7369 6.85541 45.3977 6.77849 45.0058 6.77849C44.6139 6.77849 44.2672 6.85541 43.9657 7.00923C43.6793 7.16306 43.4306 7.37073 43.2196 7.63224C43.0236 7.87836 42.8729 8.17833 42.7674 8.53213C42.6618 8.87055 42.6091 9.23205 42.6091 9.61662C42.6091 10.0012 42.6618 10.3704 42.7674 10.7242C42.8729 11.0626 43.0236 11.3626 43.2196 11.6241C43.4306 11.8702 43.6793 12.0702 43.9657 12.224C44.2672 12.3778 44.6139 12.4547 45.0058 12.4547ZM45.0058 15.3621C44.1466 15.3621 43.3703 15.216 42.6769 14.9237C41.9986 14.616 41.4107 14.2084 40.9133 13.7007C40.4309 13.1777 40.0616 12.5701 39.8054 11.8779C39.5491 11.1703 39.421 10.4165 39.421 9.61662C39.421 8.81671 39.5491 8.07065 39.8054 7.37842C40.0616 6.68619 40.4309 6.07857 40.9133 5.55556C41.4107 5.03254 41.9986 4.6249 42.6769 4.33263C43.3703 4.02497 44.1466 3.87114 45.0058 3.87114C45.865 3.87114 46.6338 4.02497 47.3121 4.33263C48.0055 4.6249 48.5934 5.03254 49.0757 5.55556C49.5732 6.07857 49.95 6.68619 50.2063 7.37842C50.4625 8.07065 50.5906 8.81671 50.5906 9.61662C50.5906 10.4165 50.4625 11.1703 50.2063 11.8779C49.95 12.5701 49.5732 13.1777 49.0757 13.7007C48.5934 14.2084 48.0055 14.616 47.3121 14.9237C46.6338 15.216 45.865 15.3621 45.0058 15.3621Z" fill="#6E7787"/>
<path d="M34.6592 1.41995C34.6592 0.635732 35.2821 0 36.0506 0H38.0056V15.016H36.0506C35.2821 15.016 34.6592 14.3802 34.6592 13.596V1.41995Z" fill="#6E7787"/>
<ellipse cx="5.02031" cy="4.93045" rx="0.958293" ry="0.977938" fill="#FA8231"/>
</svg>
