<svg width="70" height="24" viewBox="0 0 70 24" fill="none" xmlns="http://www.w3.org/2000/svg">
<path d="M11.5086 4.97835C11.2626 4.58853 10.9419 4.24903 10.564 3.97861C10.1825 3.72317 9.76437 3.5244 9.32337 3.38876C8.8442 3.23528 8.34948 3.13304 7.84783 3.08383C7.26075 3.02781 6.67113 3.00111 6.08127 3.00385H0.975603C0.857252 2.99291 0.737862 3.00533 0.624504 3.04038C0.511146 3.07544 0.406126 3.13241 0.315667 3.20792C0.225207 3.28343 0.151147 3.37595 0.0978737 3.48C0.0446005 3.58405 0.013198 3.6975 0.0055264 3.81365C0.0055264 3.81365 0.0055264 3.84364 0.0055264 3.85864V11.9766C0.713387 13.4637 1.88889 14.6899 3.35995 15.4757V13.8461C3.34874 13.7203 3.36298 13.5937 3.40184 13.4733C3.4407 13.353 3.50342 13.2413 3.58641 13.1448C3.66941 13.0482 3.77104 12.9686 3.8855 12.9105C3.99996 12.8524 4.12499 12.817 4.25344 12.8063H5.78514C7.87506 12.8063 9.46973 12.3781 10.5692 11.5217C11.6686 10.6652 12.2268 9.39555 12.2438 7.71265C12.2456 7.22767 12.1873 6.74426 12.0702 6.27302C11.9535 5.8153 11.764 5.37841 11.5086 4.97835V4.97835ZM8.51667 9.15228C8.33861 9.45226 8.07393 9.69399 7.75593 9.8471C7.41136 10.0082 7.03906 10.1049 6.65821 10.132C6.23988 10.183 5.81867 10.2081 5.39711 10.207H3.92668C3.57439 10.207 3.35484 9.92708 3.35484 9.51719V6.16805C3.34977 6.09456 3.36134 6.02089 3.38873 5.95229C3.41612 5.8837 3.45865 5.82187 3.51329 5.77125C3.56793 5.72062 3.63332 5.68244 3.70478 5.65944C3.77624 5.63643 3.85202 5.62917 3.92668 5.63818H5.39711C5.87364 5.63818 6.32294 5.65151 6.74501 5.67817C7.12116 5.69584 7.49035 5.78409 7.83251 5.9381C8.14732 6.07533 8.40994 6.30621 8.58305 6.59794C8.77852 6.98909 8.86817 7.42282 8.84344 7.85761C8.85336 8.30828 8.74058 8.75341 8.51667 9.14728V9.15228ZM3.36506 15.9655C2.10598 15.5208 0.959963 14.8149 0.0055264 13.8961V17.8201C-0.00516556 17.8948 -0.000309626 17.9709 0.0198023 18.0438C0.0399142 18.1166 0.0748669 18.1848 0.122559 18.2441C0.170251 18.3034 0.229698 18.3526 0.297327 18.3888C0.364955 18.4251 0.439368 18.4475 0.516093 18.4549H2.82385C3.43653 18.4549 3.36506 17.8151 3.36506 17.8151V15.9655ZM35.0815 7.27776H33.0902C32.9002 7.26559 32.7119 7.31964 32.5587 7.43034C32.4054 7.54103 32.2971 7.70124 32.2529 7.88261L29.9401 14.121C29.9401 14.121 27.8978 8.43746 27.7446 7.99758C27.7016 7.79461 27.5891 7.61211 27.4256 7.4803C27.2622 7.34849 27.0577 7.27527 26.846 7.27276H25.0131C24.3596 7.27276 24.3596 7.77263 24.4464 7.96759C24.5332 8.16254 27.04 14.8908 28.0203 17.4652C28.1747 17.7821 28.283 18.1186 28.342 18.4649C28.2784 18.8067 28.1466 19.1329 27.9539 19.4247C27.8794 19.5484 27.794 19.6654 27.6987 19.7746C29.5878 19.2247 31.7832 17.2202 32.886 15.0558C33.9991 12.0565 35.4644 8.05756 35.5308 7.85261C35.6022 7.53769 35.6022 7.27776 35.0815 7.27776ZM26.2078 20.3844C26.037 20.3799 25.8666 20.3666 25.6972 20.3444C25.4879 20.3144 25.0897 20.3444 25.0897 20.6943V22.1939C25.0897 22.7688 25.3756 22.8088 25.5237 22.8488C25.9965 22.9503 26.4794 23.0006 26.9634 22.9987C27.5355 23.0135 28.1033 22.8989 28.6228 22.6638C29.098 22.4288 29.52 22.1024 29.8635 21.7041C30.2529 21.2681 30.5825 20.7841 30.8438 20.2644C31.1263 19.7112 31.3952 19.0997 31.6505 18.4299L31.9466 17.6351C31.3543 18.21 28.7402 20.6243 26.2078 20.3844ZM23.1955 9.0723C23.087 8.81971 22.9388 8.58527 22.7564 8.37748C22.5719 8.185 22.3625 8.01695 22.1335 7.87761C21.8861 7.71269 21.6228 7.57205 21.3472 7.45772C21.0667 7.35127 20.7782 7.26605 20.4844 7.20278C20.1481 7.12995 19.8068 7.0815 19.4632 7.05782C19.0956 7.02116 18.6838 7.00283 18.2277 7.00283C15.1847 7.00283 13.4522 7.94259 13.0301 9.82211C13.0121 9.89217 13.0098 9.96521 13.0234 10.0362C13.037 10.1072 13.0661 10.1745 13.1088 10.2334C13.1515 10.2923 13.2068 10.3415 13.2707 10.3775C13.3347 10.4135 13.4059 10.4355 13.4794 10.442H15.3532C15.8637 10.442 15.8637 10.287 16.0577 9.8571C16.1428 9.62306 16.2953 9.41817 16.4968 9.26725C16.9756 8.96469 17.5418 8.82259 18.1102 8.86236C18.6403 8.80931 19.1727 8.93831 19.6164 9.22726C19.9548 9.53653 20.1548 9.96409 20.1729 10.417C20.1729 11.0368 19.9789 11.4467 19.1926 11.4467C17.3291 11.3817 15.3276 11.5867 14.1993 12.2215C13.6438 12.5535 13.1879 13.0233 12.8776 13.5833C12.5674 14.1434 12.4139 14.7738 12.4327 15.4107C12.4199 15.9068 12.5229 16.3991 12.734 16.8503C12.9327 17.2424 13.221 17.5845 13.5764 17.8501C13.9494 18.148 14.3801 18.369 14.8426 18.4999C15.3651 18.6384 15.9045 18.7057 16.4458 18.6998C17.1739 18.7109 17.8993 18.6097 18.5953 18.3999C19.2104 18.1532 19.7918 17.8324 20.3261 17.4452V17.7951C20.3261 18.14 20.4333 18.4499 20.8366 18.4499H23.0066C23.4456 18.4499 23.5478 18.145 23.5478 17.7651V11.2218C23.5504 10.8136 23.5214 10.4059 23.461 10.0021C23.4128 9.68244 23.3236 9.37005 23.1955 9.0723V9.0723ZM20.2291 15.5007C20.2291 15.5007 19.6675 16.6504 17.6762 16.6504C17.1988 16.6719 16.7267 16.5441 16.3283 16.2855C16.153 16.1522 16.0145 15.9781 15.9253 15.779C15.8362 15.58 15.7992 15.3623 15.8178 15.1458C15.7958 14.8549 15.8646 14.5644 16.0151 14.3127C16.1655 14.0609 16.3905 13.8599 16.6602 13.7361C17.4657 13.4331 18.3252 13.292 19.1875 13.3212C19.3195 13.3017 19.4542 13.3104 19.5824 13.3468C19.7106 13.3831 19.8292 13.4462 19.9301 13.5317C20.031 13.6172 20.1118 13.7231 20.167 13.8421C20.2221 13.9611 20.2503 14.0903 20.2495 14.221L20.2291 15.5007Z" fill="#333333"/>
<path d="M68.8191 11.2919C69.0707 11.688 69.204 12.1452 69.204 12.6116C69.204 13.078 69.0707 13.5351 68.8191 13.9312C68.3086 14.691 65.526 17.6003 64.607 18.5351C63.8105 19.3449 62.7332 20.1646 61.6661 20.1646H39.5637C36.5718 20.1646 36.3931 19.1649 36.3931 16.9355V7.8428C36.3931 5.55838 37.0823 4.89355 39.1297 4.89355H61.7172C62.774 4.89355 63.7186 5.42342 64.7806 6.49315C65.7098 7.40791 68.4515 10.7521 68.8191 11.2919Z" fill="#33CCCC"/>
<path d="M41.4108 8.40734V8.35235C41.4108 8.05741 41.4108 7.77246 40.9002 7.77246H39.0467C38.6127 7.77246 38.5923 8.00242 38.5923 8.36235V10.7619C39.3234 9.76538 40.2906 8.95741 41.4108 8.40734V8.40734Z" fill="white"/>
<path d="M53.8223 17.0838V16.9538V11.1653C53.8223 8.74261 52.7297 7.53125 50.5444 7.53125C49.9362 7.5383 49.3421 7.71142 48.8289 8.03112C48.2635 8.37644 47.7584 8.80851 47.333 9.3108C47.1405 8.76791 46.7662 8.30464 46.271 7.99613C45.7078 7.69223 45.0704 7.54528 44.4279 7.57124C43.4829 7.57472 42.5656 7.88404 41.8189 8.45101C41.6555 8.61097 38.587 10.9504 38.587 13.3898V17.0938C38.587 17.2088 38.5257 17.6587 39.0414 17.6587H40.9662C41.5636 17.6587 41.5074 17.2738 41.5074 17.1138V11.1153C41.8291 10.6904 42.4877 9.6757 43.5752 9.6757C43.7492 9.66021 43.9242 9.6905 44.0822 9.76344C44.2402 9.83638 44.3754 9.94933 44.4738 10.0906C44.6922 10.5174 44.7875 10.9944 44.7495 11.4702V16.144V17.1038C44.7495 17.2188 44.6882 17.6687 45.2039 17.6687H47.1083C47.7057 17.6687 47.6495 17.2838 47.6495 17.1238V16.9938V11.0953C47.9967 10.6704 48.6707 9.65571 49.7173 9.65571C49.8933 9.64161 50.07 9.67242 50.2302 9.74514C50.3904 9.81785 50.5285 9.92999 50.6312 10.0706C50.8531 10.4963 50.9503 10.9738 50.9121 11.4502V16.1241V17.0838C50.9121 17.1988 50.8508 17.6487 51.3665 17.6487H53.2913C53.8938 17.6187 53.8223 17.2388 53.8223 17.0838Z" fill="white"/>
<path d="M64.4383 14.7314C64.1112 15.5925 63.5119 16.3289 62.7276 16.8333C61.9432 17.3378 61.0149 17.5839 60.0778 17.5359C57.1367 17.5359 55.176 15.5762 55.176 12.6368C55.176 9.69731 57.2184 7.6377 59.9757 7.6377C62.7329 7.6377 64.5711 9.50735 64.6885 12.5218C64.6885 12.9067 64.5915 13.2467 64.0962 13.2467H57.8567C57.8975 14.8614 58.689 15.7462 60.0982 15.7462C60.4724 15.7554 60.8414 15.6595 61.1617 15.4699C61.482 15.2804 61.7402 15.005 61.9058 14.6764C61.971 14.5834 62.0588 14.5077 62.1613 14.4563C62.2638 14.4048 62.3778 14.3791 62.493 14.3814H64.1013C64.1496 14.3792 64.1978 14.3876 64.2422 14.4061C64.2867 14.4246 64.3264 14.4527 64.3582 14.4882C64.3901 14.5237 64.4134 14.5658 64.4264 14.6114C64.4394 14.657 64.4417 14.7048 64.4332 14.7514L64.4383 14.7314ZM59.9859 9.50235C58.8166 9.50235 58.0252 10.2972 57.8516 11.607H62.0385C61.9313 10.4622 61.2981 9.50235 59.9859 9.50235Z" fill="white"/>
</svg>
