<svg width="88" height="88" viewBox="0 0 88 88" fill="none" xmlns="http://www.w3.org/2000/svg">
<path d="M76.8477 12.1556C62.7647 2.03139 47.3836 12.4152 44.528 14.5569C44.2684 14.7516 43.879 14.6867 43.6195 14.492C30.8992 2.16119 3.83634 6.05513 0.331788 25.8493C-2.97806 44.3455 19.2174 58.9478 33.8846 66.9953C42.646 71.7978 43.295 77.1844 42.8407 80.04C42.7758 80.4943 43.4247 80.7539 43.6843 80.3645C46.7995 76.0162 47.6432 70.0455 47.4485 65.3728C47.1889 56.9359 37.9083 58.2988 35.4422 56.5465C33.2356 54.989 35.1177 50.9652 35.572 50.1864C35.6369 50.1215 35.6369 49.9917 35.572 49.9268C34.5336 48.3693 35.6369 46.9415 35.9614 46.5521C36.0263 46.4872 36.0263 46.4223 35.9614 46.3574C35.2475 44.7349 36.0262 44.2806 36.5454 43.6316C37.0646 42.9827 37.8434 42.4635 37.0646 41.6198C36.3508 40.7761 35.3124 39.9324 35.8965 38.8291C36.2858 37.9854 38.6871 37.4662 40.05 36.1683C39.9202 36.1034 39.7904 36.0385 39.6606 35.9736C39.4659 35.8438 39.2712 35.714 39.1414 35.5193C39.0116 35.3246 38.8818 35.1948 38.752 35.0001C38.8818 35.1948 39.0116 35.3246 39.2063 35.4544C39.401 35.5842 39.5308 35.714 39.7255 35.7789C39.9202 35.8438 40.1149 35.9087 40.3096 35.9087C40.6341 35.5193 40.8937 35.065 40.9586 34.5458C41.348 31.4955 42.0619 27.6665 44.0088 24.3566C45.9558 21.0468 48.2273 18.7753 52.5755 28.1857C56.0801 35.8438 61.0773 38.3748 62.8945 39.0887C63.2839 39.2185 63.4136 39.6728 63.2839 39.9973C58.1568 53.5612 61.921 63.4258 63.4137 66.4761C63.6733 66.9953 64.3222 67.2549 64.9063 66.9304C76.9776 60.3107 83.078 50.0566 83.078 50.0566C88.8541 41.8794 92.4235 23.3183 76.8477 12.1556Z" fill="#C8CFD6"/>
</svg>
