<svg width="28" height="28" viewBox="0 0 28 28" fill="none" xmlns="http://www.w3.org/2000/svg">
<path d="M21.7413 18.282L23.7438 12.2744C25.4932 7.02631 26.3679 4.40225 24.9827 3.01711C23.5976 1.63196 20.9735 2.50665 15.7254 4.25602L9.71785 6.25854C5.48212 7.67045 3.36425 8.37641 2.76241 9.41164C2.18987 10.3965 2.18987 11.6128 2.76241 12.5976C3.36425 13.6329 5.48211 14.3388 9.71785 15.7507C10.398 15.9774 10.738 16.0908 11.0223 16.2811C11.2977 16.4655 11.5344 16.7021 11.7188 16.9776C11.909 17.2618 12.0224 17.6019 12.2491 18.282C13.661 22.5177 14.367 24.6356 15.4022 25.2374C16.387 25.81 17.6034 25.81 18.5882 25.2374C19.6234 24.6356 20.3294 22.5177 21.7413 18.282Z" stroke="white" stroke-width="2"/>
</svg>
