<svg width="20" height="20" viewBox="0 0 20 20" fill="none" xmlns="http://www.w3.org/2000/svg">
<g clip-path="url(#clip0_130_14058)">
<path d="M15.5301 13.0584L16.9604 8.76729C18.21 5.01864 18.8348 3.14431 17.8454 2.15492C16.856 1.16553 14.9816 1.79031 11.233 3.03986L6.94188 4.47023C3.91635 5.47874 2.40359 5.98299 1.97371 6.72244C1.56475 7.4259 1.56475 8.2947 1.97371 8.99815C2.40359 9.73761 3.91635 10.2419 6.94188 11.2504C7.42768 11.4123 7.67058 11.4933 7.8736 11.6292C8.07036 11.7609 8.23938 11.9299 8.3711 12.1267C8.50702 12.3297 8.58799 12.5726 8.74992 13.0584C9.75842 16.0839 10.2627 17.5967 11.0021 18.0266C11.7056 18.4355 12.5744 18.4355 13.2778 18.0266C14.0173 17.5967 14.5216 16.0839 15.5301 13.0584Z" stroke="white" stroke-width="2"/>
</g>
<defs>
<clipPath id="clip0_130_14058">
<rect width="20" height="20" fill="white"/>
</clipPath>
</defs>
</svg>
