<svg width="24" height="24" viewBox="0 0 24 24" fill="none" xmlns="http://www.w3.org/2000/svg">
<path d="M8.73167 5.77133L9.33481 6.21711L8.73167 5.77133ZM5.66953 9.91436L5.06639 9.46858L5.06639 9.46858L5.66953 9.91436ZM10.4526 16.4433L11.2026 16.4433L10.4526 16.4433ZM10.4525 16.7528L9.70255 16.7528L10.4525 16.7528ZM15.2683 18.2287L14.6652 17.7829L15.2683 18.2287ZM18.3304 14.0857L18.9336 14.5315L18.3304 14.0857ZM13.946 9.72466L13.4263 10.2655L13.4322 10.271L13.946 9.72466ZM13.926 9.70541L13.4006 10.2407L13.4063 10.2462L13.926 9.70541ZM19.9036 10.795L19.2376 11.1399L19.2376 11.1399L19.9036 10.795ZM19.8855 10.7613L19.2303 11.1264L19.2304 11.1264L19.8855 10.7613ZM11.3758 21.9628L11.5956 21.2457L11.5956 21.2457L11.3758 21.9628ZM10.074 14.2946L10.5994 13.7594L10.5937 13.7538L10.074 14.2946ZM10.054 14.2754L10.5737 13.7345L10.5678 13.7291L10.054 14.2754ZM4.09639 13.205L4.76238 12.8601L4.76236 12.8601L4.09639 13.205ZM4.1145 13.2387L3.45932 13.6038L3.45933 13.6038L4.1145 13.2387ZM12.6241 2.03721L12.8438 1.32013V1.32013L12.6241 2.03721ZM8.12853 5.32554L5.06639 9.46858L6.27267 10.3601L9.33481 6.21711L8.12853 5.32554ZM9.70255 16.4432L9.70255 16.7528L11.2025 16.7528L11.2026 16.4433L9.70255 16.4432ZM15.8714 18.6744L18.9336 14.5315L17.7273 13.6399L14.6652 17.7829L15.8714 18.6744ZM14.2974 7.55682V7.24712H12.7974V7.55682H14.2974ZM16.1822 9.33836C15.5456 9.33836 15.1397 9.33693 14.8416 9.29892C14.5616 9.26322 14.4903 9.20696 14.4598 9.17833L13.4322 10.271C13.7884 10.6061 14.2187 10.7317 14.6519 10.7869C15.067 10.8398 15.5858 10.8384 16.1822 10.8384V9.33836ZM12.7974 7.55682C12.7974 8.12745 12.7958 8.63282 12.8518 9.03865C12.9112 9.46852 13.0474 9.89397 13.4006 10.2407L14.4513 9.17017C14.426 9.14531 14.373 9.0888 14.3377 8.83344C14.2991 8.55403 14.2974 8.17089 14.2974 7.55682H12.7974ZM14.4656 9.18383L14.4456 9.16459L13.4063 10.2462L13.4264 10.2655L14.4656 9.18383ZM18.9336 14.5315C19.5606 13.6831 20.0841 12.9782 20.3935 12.3973C20.7009 11.8202 20.9237 11.1337 20.5696 10.4501L19.2376 11.1399C19.2456 11.1553 19.2559 11.1757 19.246 11.2424C19.2333 11.3278 19.1886 11.4687 19.0696 11.6922C18.8251 12.1513 18.385 12.7501 17.7273 13.6399L18.9336 14.5315ZM16.1822 10.8384C17.3159 10.8384 18.0844 10.8402 18.6215 10.9153C19.1685 10.9917 19.223 11.1133 19.2303 11.1264L20.5407 10.3963C20.173 9.73641 19.4853 9.52145 18.8292 9.42971C18.1631 9.33658 17.2675 9.33836 16.1822 9.33836V10.8384ZM20.5696 10.4501C20.5602 10.432 20.5506 10.414 20.5406 10.3962L19.2304 11.1264C19.2328 11.1309 19.2353 11.1354 19.2376 11.1399L20.5696 10.4501ZM9.70255 16.7528C9.70253 18.3706 9.70081 19.6646 9.82463 20.5836C9.9393 21.4347 10.2119 22.3905 11.1561 22.6799L11.5956 21.2457C11.5901 21.244 11.56 21.2444 11.5048 21.1401C11.4361 21.0106 11.3645 20.7787 11.3112 20.3833C11.2042 19.5892 11.2025 18.4197 11.2025 16.7528L9.70255 16.7528ZM14.6652 17.7829C13.6614 19.1409 12.9536 20.0959 12.3857 20.6861C12.103 20.9798 11.9001 21.1339 11.7581 21.2053C11.6381 21.2657 11.6037 21.2482 11.5956 21.2457L11.1561 22.6799C12.0837 22.9641 12.8617 22.3546 13.4665 21.7262C14.119 21.0481 14.8958 19.9945 15.8714 18.6744L14.6652 17.7829ZM11.2026 16.4433C11.2026 15.8726 11.2042 15.3672 11.1482 14.9614C11.0888 14.5315 10.9526 14.1061 10.5994 13.7594L9.54867 14.8299C9.574 14.8547 9.62704 14.9112 9.66231 15.1666C9.70089 15.446 9.70256 15.8292 9.70255 16.4432L11.2026 16.4433ZM7.81775 14.6617C8.45436 14.6617 8.86029 14.6631 9.1584 14.7011C9.43842 14.7368 9.50974 14.7931 9.54018 14.8217L10.5678 13.7291C10.2116 13.394 9.78129 13.2684 9.34811 13.2132C8.93303 13.1602 8.41418 13.1617 7.81775 13.1617V14.6617ZM10.5937 13.7538L10.5736 13.7346L9.53439 14.8162L9.55442 14.8355L10.5937 13.7538ZM5.06639 9.46858C4.43935 10.3169 3.91585 11.0219 3.60649 11.6027C3.29909 12.1799 3.07635 12.8664 3.43042 13.55L4.76236 12.8601C4.75441 12.8448 4.74405 12.8244 4.75401 12.7576C4.76673 12.6723 4.81141 12.5313 4.93042 12.3078C5.17494 11.8487 5.61498 11.25 6.27267 10.3601L5.06639 9.46858ZM7.81775 13.1617C6.68413 13.1617 5.91564 13.1599 5.37851 13.0848C4.83147 13.0083 4.77695 12.8868 4.76966 12.8737L3.45933 13.6038C3.82699 14.2636 4.51467 14.4786 5.1708 14.5703C5.83685 14.6635 6.7325 14.6617 7.81775 14.6617V13.1617ZM3.43041 13.55C3.43979 13.5681 3.44943 13.586 3.45932 13.6038L4.76968 12.8737C4.76714 12.8692 4.76471 12.8646 4.76238 12.8601L3.43041 13.55ZM9.33481 6.21711C10.3385 4.85906 11.0463 3.90413 11.6143 3.31395C11.897 3.0202 12.0998 2.86611 12.2418 2.79466C12.3618 2.73428 12.3962 2.75181 12.4043 2.7543L12.8438 1.32013C11.9162 1.03587 11.1382 1.64542 10.5335 2.27383C9.8809 2.95193 9.10414 4.00554 8.12853 5.32554L9.33481 6.21711ZM14.2974 7.24712C14.2974 5.62939 14.2991 4.33537 14.1753 3.41638C14.0606 2.56532 13.788 1.60947 12.8438 1.32013L12.4043 2.7543C12.4099 2.75599 12.4399 2.7556 12.4952 2.85986C12.5638 2.98938 12.6354 3.22131 12.6887 3.6167C12.7957 4.41077 12.7974 5.58022 12.7974 7.24712H14.2974Z" fill="#8898AA"/>
</svg>
