<svg width="21" height="20" viewBox="0 0 21 20" fill="none" xmlns="http://www.w3.org/2000/svg">
<path d="M4.44049 13.4474C3.15254 12.1595 2.50857 11.5155 2.26895 10.68C2.02933 9.84449 2.23411 8.9571 2.64368 7.18231L2.87986 6.15883C3.22443 4.66569 3.39672 3.91912 3.90795 3.40789C4.41918 2.89666 5.16575 2.72437 6.65889 2.3798L7.68238 2.14361C9.45716 1.73405 10.3446 1.52927 11.1801 1.76889C12.0156 2.00851 12.6595 2.65248 13.9475 3.94042L15.4722 5.46512C17.713 7.70594 18.8334 8.82635 18.8334 10.2186C18.8334 11.6109 17.713 12.7313 15.4722 14.9721C13.2314 17.2129 12.111 18.3334 10.7187 18.3334C9.32641 18.3334 8.206 17.2129 5.96518 14.9721L4.44049 13.4474Z" stroke="#F5365C" stroke-width="1.5"/>
<circle cx="7.67245" cy="7.39917" r="1.66667" transform="rotate(-45 7.67245 7.39917)" stroke="#F5365C" stroke-width="1.5"/>
<path d="M10.1181 15.4164L15.934 9.6004" stroke="#F5365C" stroke-width="1.5" stroke-linecap="round"/>
</svg>
