<svg width="24" height="24" viewBox="0 0 24 24" fill="none" xmlns="http://www.w3.org/2000/svg">
<path d="M19 18H19.8H19ZM5 14.584H5.8C5.8 14.266 5.61168 13.9782 5.3203 13.8509L5 14.584ZM19 14.584L18.6797 13.8509C18.3883 13.9782 18.2 14.266 18.2 14.584H19ZM15.7 7C15.7 7.44183 16.0582 7.8 16.5 7.8C16.9418 7.8 17.3 7.44183 17.3 7H15.7ZM6.7 7C6.7 7.44183 7.05817 7.8 7.5 7.8C7.94183 7.8 8.3 7.44183 8.3 7H6.7ZM7 4.2C3.79675 4.2 1.2 6.79675 1.2 10H2.8C2.8 7.6804 4.6804 5.8 7 5.8V4.2ZM17 5.8C19.3196 5.8 21.2 7.6804 21.2 10H22.8C22.8 6.79675 20.2033 4.2 17 4.2V5.8ZM15 21.2H9V22.8H15V21.2ZM9 21.2C8.03457 21.2 7.39099 21.1983 6.91205 21.1339C6.45614 21.0726 6.27095 20.968 6.15147 20.8485L5.0201 21.9799C5.48641 22.4462 6.06552 22.6345 6.69886 22.7196C7.30918 22.8017 8.07981 22.8 9 22.8V21.2ZM4.2 18C4.2 18.9202 4.1983 19.6908 4.28036 20.3011C4.36551 20.9345 4.55379 21.5136 5.0201 21.9799L6.15147 20.8485C6.03199 20.729 5.92739 20.5439 5.86609 20.0879C5.8017 19.609 5.8 18.9654 5.8 18H4.2ZM18.2 18C18.2 18.9654 18.1983 19.609 18.1339 20.0879C18.0726 20.5439 17.968 20.729 17.8485 20.8485L18.9799 21.9799C19.4462 21.5136 19.6345 20.9345 19.7196 20.3011C19.8017 19.6908 19.8 18.9202 19.8 18H18.2ZM15 22.8C15.9202 22.8 16.6908 22.8017 17.3011 22.7196C17.9345 22.6345 18.5136 22.4462 18.9799 21.9799L17.8485 20.8485C17.729 20.968 17.5439 21.0726 17.0879 21.1339C16.609 21.1983 15.9654 21.2 15 21.2V22.8ZM7 5.8C7.21124 5.8 7.41836 5.81553 7.62039 5.84539L7.85434 4.26259C7.5751 4.22132 7.28979 4.2 7 4.2V5.8ZM12 1.2C9.66742 1.2 7.68874 2.70637 6.97974 4.79707L8.49498 5.31091C8.99049 3.84975 10.3737 2.8 12 2.8V1.2ZM6.97974 4.79707C6.79814 5.33257 6.7 5.90565 6.7 6.5H8.3C8.3 6.08268 8.36878 5.68307 8.49498 5.31091L6.97974 4.79707ZM17 4.2C16.7102 4.2 16.4249 4.22132 16.1457 4.26259L16.3796 5.84539C16.5816 5.81553 16.7888 5.8 17 5.8V4.2ZM12 2.8C13.6263 2.8 15.0095 3.84975 15.505 5.31091L17.0203 4.79707C16.3113 2.70637 14.3326 1.2 12 1.2V2.8ZM15.505 5.31091C15.6312 5.68307 15.7 6.08268 15.7 6.5H17.3C17.3 5.90565 17.2019 5.33257 17.0203 4.79707L15.505 5.31091ZM5.8 18V14.584H4.2V18H5.8ZM5.3203 13.8509C3.83526 13.202 2.8 11.721 2.8 10H1.2C1.2 12.3796 2.63293 14.4228 4.6797 15.317L5.3203 13.8509ZM18.2 14.584L18.2 18H19.8L19.8 14.584H18.2ZM21.2 10C21.2 11.721 20.1647 13.202 18.6797 13.8509L19.3203 15.317C21.3671 14.4228 22.8 12.3796 22.8 10H21.2ZM15.7 6.5V7H17.3V6.5H15.7ZM6.7 6.5V7H8.3V6.5H6.7Z" fill="#F5365C"/>
<path d="M5 18H19" stroke="#F5365C" stroke-width="1.6" stroke-linecap="round" stroke-linejoin="round"/>
</svg>
