<svg width="20" height="20" viewBox="0 0 20 20" fill="none" xmlns="http://www.w3.org/2000/svg">
<g clip-path="url(#clip0_650_15640)">
<path d="M15.625 0H4.375C1.95875 0 0 1.95875 0 4.375V6.66668H20V4.375C20 1.95875 18.0413 0 15.625 0Z" fill="#82AFFF"/>
<path d="M0 15.6251C0 18.0413 1.95875 20.0001 4.375 20.0001H15.625C18.0413 20.0001 20 18.0413 20 15.6251V13.3334H0V15.6251Z" fill="#73AF00"/>
<path d="M20 6.66675H0V13.3335H20V6.66675Z" fill="#EDBF4A"/>
<path d="M20 6.07458H0V6.90587H20V6.07458Z" fill="#FF4B55"/>
<path d="M20 13.0941H0V13.9254H20V13.0941Z" fill="#FF4B55"/>
<path d="M4.7338 4.99597C3.6563 4.99597 2.78294 4.12464 2.78294 3.05101C2.78294 1.97343 3.6563 1.09823 4.7338 1.09823C4.73791 1.09823 4.74201 1.09827 4.74611 1.09831C4.80951 1.09917 4.83177 1.01487 4.77587 0.984912C4.44408 0.8071 4.06541 0.706436 3.66283 0.709287C2.37357 0.718506 1.32634 1.78687 1.33998 3.07608C1.35349 4.35206 2.39662 5.38487 3.67962 5.38487C4.07669 5.38487 4.45001 5.28444 4.77763 5.10905C4.83337 5.07921 4.81084 4.99487 4.74763 4.99585C4.74302 4.99593 4.73841 4.99597 4.7338 4.99597Z" fill="#F5F5F5"/>
<path d="M7.25956 1.66635L7.13181 2.04949L6.72793 2.05264C6.67562 2.05305 6.65397 2.11979 6.69602 2.15084L7.02096 2.39076L6.8991 2.77585C6.88335 2.82569 6.94006 2.86693 6.98263 2.83657L7.31123 2.60169L7.63984 2.83657C7.6824 2.86699 7.73912 2.82574 7.72336 2.7759L7.60151 2.39081L7.92645 2.15089C7.9685 2.11984 7.94684 2.0531 7.89454 2.0527L7.49066 2.04955L7.36285 1.66641C7.34629 1.61674 7.27612 1.61674 7.25956 1.66635Z" fill="#F5F5F5"/>
<path d="M9.47934 1.66635L9.35153 2.04949L8.94765 2.05264C8.89535 2.05305 8.8737 2.11979 8.91575 2.15084L9.24068 2.39076L9.11883 2.77585C9.10308 2.82569 9.15985 2.86693 9.20236 2.83657L9.53096 2.60169L9.85956 2.83657C9.90213 2.86699 9.95884 2.82574 9.94309 2.7759L9.82124 2.39081L10.1462 2.15089C10.1882 2.11984 10.1666 2.0531 10.1143 2.0527L9.71039 2.04955L9.58258 1.66641C9.56602 1.61674 9.49584 1.61674 9.47934 1.66635Z" fill="#F5F5F5"/>
<path d="M6.16782 3.2844L6.04001 3.66754L5.63613 3.67069C5.58383 3.67109 5.56217 3.73783 5.60422 3.76888L5.92916 4.00881L5.80731 4.3939C5.79155 4.44374 5.84827 4.48498 5.89083 4.45456L6.21944 4.21968L6.54804 4.45456C6.59061 4.48498 6.64738 4.44374 6.63157 4.3939L6.50971 4.00881L6.83465 3.76888C6.8767 3.73783 6.85505 3.67109 6.80274 3.67069L6.39886 3.66754L6.27105 3.2844C6.2545 3.23479 6.18432 3.23479 6.16782 3.2844Z" fill="#F5F5F5"/>
<path d="M8.41679 3.2844L8.28903 3.66754L7.88515 3.67069C7.83285 3.67109 7.8112 3.73783 7.85325 3.76888L8.17818 4.00881L8.05633 4.3939C8.04058 4.44374 8.09729 4.48498 8.13986 4.45456L8.46846 4.21968L8.79706 4.45456C8.83963 4.48498 8.89634 4.44374 8.88059 4.3939L8.75874 4.00881L9.08368 3.76888C9.12572 3.73783 9.10407 3.67109 9.05177 3.67069L8.64789 3.66754L8.52008 3.2844C8.50352 3.23479 8.43334 3.23479 8.41679 3.2844Z" fill="#F5F5F5"/>
<path d="M10.6366 3.2844L10.5088 3.66754L10.1049 3.67069C10.0526 3.67109 10.0309 3.73783 10.073 3.76888L10.3979 4.00881L10.2761 4.3939C10.2603 4.44374 10.3171 4.48498 10.3596 4.45456L10.6882 4.21968L11.0168 4.45456C11.0594 4.48498 11.1161 4.44374 11.1003 4.3939L10.9785 4.00881L11.3034 3.76888C11.3455 3.73783 11.3238 3.67109 11.2715 3.67069L10.8676 3.66754L10.7398 3.2844C10.7232 3.23479 10.6531 3.23479 10.6366 3.2844Z" fill="#F5F5F5"/>
</g>
<defs>
<clipPath id="clip0_650_15640">
<rect width="20" height="20" fill="white"/>
</clipPath>
</defs>
</svg>
