<svg width="24" height="24" viewBox="0 0 24 24" fill="none" xmlns="http://www.w3.org/2000/svg">
<path d="M0.89624 8.14295C0.89624 5.72717 0.89624 4.51928 1.64673 3.7688C2.39721 3.01831 3.6051 3.01831 6.02088 3.01831H10.2914C12.7072 3.01831 13.9151 3.01831 14.6656 3.7688C15.416 4.51928 15.416 5.72717 15.416 8.14295C15.416 10.5587 15.416 11.7666 14.6656 12.5171C13.9151 13.2676 12.7072 13.2676 10.2914 13.2676H6.02088C3.6051 13.2676 2.39721 13.2676 1.64673 12.5171C0.89624 11.7666 0.89624 10.5587 0.89624 8.14295Z" stroke="#F5365C" stroke-width="1.5"/>
<path d="M15.4162 5.64575C16.249 5.72767 16.8096 5.91281 17.228 6.33122C17.9785 7.08171 17.9785 8.2896 17.9785 10.7054C17.9785 13.1212 17.9785 14.329 17.228 15.0795C16.4775 15.83 15.2696 15.83 12.8538 15.83H8.58331C6.16753 15.83 4.95964 15.83 4.20916 15.0795C3.79074 14.6611 3.6056 14.1005 3.52368 13.2677" stroke="#F5365C" stroke-width="1.5"/>
<path d="M17.984 8.22314C18.8169 8.30506 19.3775 8.4902 19.7959 8.90862C20.5464 9.6591 20.5464 10.867 20.5464 13.2828C20.5464 15.6985 20.5464 16.9064 19.7959 17.6569C19.0454 18.4074 17.8375 18.4074 15.4217 18.4074H11.1512C8.7354 18.4074 7.52751 18.4074 6.77703 17.6569C6.35861 17.2385 6.17347 16.6779 6.09155 15.845" stroke="#F5365C" stroke-width="1.5"/>
<path d="M20.5414 10.7961C21.3742 10.8781 21.9348 11.0632 22.3532 11.4816C23.1037 12.2321 23.1037 13.44 23.1037 15.8558C23.1037 18.2715 23.1037 19.4794 22.3532 20.2299C21.6028 20.9804 20.3949 20.9804 17.9791 20.9804H13.7086C11.2928 20.9804 10.0849 20.9804 9.3344 20.2299C8.91598 19.8115 8.73084 19.2509 8.64893 18.418" stroke="#F5365C" stroke-width="1.5"/>
<path d="M10.2915 8.14381C10.2915 9.32309 9.33554 10.2791 8.15626 10.2791C6.97699 10.2791 6.021 9.32309 6.021 8.14381C6.021 6.96454 6.97699 6.00854 8.15626 6.00854C9.33554 6.00854 10.2915 6.96454 10.2915 8.14381Z" stroke="#F5365C" stroke-width="1.5"/>
<path d="M12.8538 9.85156L12.8538 6.43514" stroke="#F5365C" stroke-width="1.5" stroke-linecap="round"/>
<path d="M3.4585 9.85156L3.4585 6.43514" stroke="#F5365C" stroke-width="1.5" stroke-linecap="round"/>
</svg>
