<svg width="24" height="24" viewBox="0 0 24 24" fill="none" xmlns="http://www.w3.org/2000/svg">
<path d="M12 8V12L14.5 14.5" stroke="#8898AA" stroke-width="1.5" stroke-linecap="round" stroke-linejoin="round"/>
<path d="M5.60414 5.60426L5.07381 5.07393V5.07393L5.60414 5.60426ZM4.33776 6.87064L3.58777 6.87441C3.58984 7.28568 3.92272 7.61857 4.33399 7.62063L4.33776 6.87064ZM6.87954 7.63343C7.29375 7.63551 7.63122 7.30141 7.6333 6.8872C7.63538 6.473 7.30129 6.13553 6.88708 6.13344L6.87954 7.63343ZM5.07496 4.32132C5.07288 3.90711 4.73541 3.57302 4.3212 3.5751C3.90699 3.57718 3.5729 3.91465 3.57498 4.32886L5.07496 4.32132ZM3.82661 10.785C3.88286 10.3747 3.59578 9.99639 3.1854 9.94014C2.77503 9.88389 2.39675 10.171 2.3405 10.5813L3.82661 10.785ZM18.8622 5.13789C15.042 1.3177 8.86873 1.27901 5.07381 5.07393L6.13447 6.13459C9.33358 2.93549 14.5571 2.95407 17.8016 6.19855L18.8622 5.13789ZM5.13777 18.8624C8.95796 22.6825 15.1313 22.7212 18.9262 18.9263L17.8655 17.8657C14.6664 21.0648 9.44291 21.0462 6.19843 17.8017L5.13777 18.8624ZM18.9262 18.9263C22.7211 15.1314 22.6824 8.95808 18.8622 5.13789L17.8016 6.19855C21.0461 9.44303 21.0646 14.6665 17.8655 17.8657L18.9262 18.9263ZM5.07381 5.07393L3.80743 6.34031L4.86809 7.40097L6.13447 6.13459L5.07381 5.07393ZM4.33399 7.62063L6.87954 7.63343L6.88708 6.13344L4.34153 6.12065L4.33399 7.62063ZM5.08775 6.86687L5.07496 4.32132L3.57498 4.32886L3.58777 6.87441L5.08775 6.86687ZM2.3405 10.5813C1.93907 13.51 2.87392 16.5985 5.13777 18.8624L6.19843 17.8017C4.27785 15.8811 3.48663 13.2653 3.82661 10.785L2.3405 10.5813Z" fill="#8898AA"/>
</svg>
