<svg width="24" height="24" viewBox="0 0 24 24" fill="none" xmlns="http://www.w3.org/2000/svg">
<path d="M22 14C22 17.7712 22 19.6569 20.8284 20.8284C19.6569 22 17.7712 22 14 22" stroke="#8898AA" stroke-width="1.6" stroke-linecap="round"/>
<path d="M10 22C6.22876 22 4.34315 22 3.17157 20.8284C2 19.6569 2 17.7712 2 14" stroke="#8898AA" stroke-width="1.6" stroke-linecap="round"/>
<path d="M10 2C6.22876 2 4.34315 2 3.17157 3.17157C2 4.34315 2 6.22876 2 10" stroke="#8898AA" stroke-width="1.6" stroke-linecap="round"/>
<path d="M14 2C17.7712 2 19.6569 2 20.8284 3.17157C22 4.34315 22 6.22876 22 10" stroke="#8898AA" stroke-width="1.6" stroke-linecap="round"/>
<path d="M4 11.5C4 11.5 6.4 9.5 12 9.5C17.6 9.5 20 11.5 20 11.5" stroke="#8898AA" stroke-width="1.6" stroke-linecap="round"/>
<path d="M5.2 10C5.2 10.4418 5.55817 10.8 6 10.8C6.44183 10.8 6.8 10.4418 6.8 10H5.2ZM17.4142 6.08579L16.8485 6.65147V6.65147L17.4142 6.08579ZM10 6.3H14V4.7H10V6.3ZM6.8 10V9.5H5.2V10H6.8ZM17.2 9.5V10H18.8V9.5H17.2ZM14 6.3C14.9654 6.3 15.609 6.3017 16.0879 6.36609C16.5439 6.42739 16.729 6.53199 16.8485 6.65147L17.9799 5.5201C17.5136 5.05379 16.9345 4.86551 16.3011 4.78036C15.6908 4.6983 14.9202 4.7 14 4.7V6.3ZM18.8 9.5C18.8 8.57981 18.8017 7.80918 18.7196 7.19886C18.6345 6.56552 18.4462 5.98641 17.9799 5.5201L16.8485 6.65147C16.968 6.77095 17.0726 6.95614 17.1339 7.41205C17.1983 7.89099 17.2 8.53458 17.2 9.5H18.8ZM10 4.7C9.07981 4.7 8.30918 4.6983 7.69886 4.78036C7.06552 4.86551 6.48641 5.05379 6.0201 5.5201L7.15147 6.65147C7.27095 6.53199 7.45614 6.42739 7.91205 6.36609C8.39099 6.3017 9.03458 6.3 10 6.3V4.7ZM6.8 9.5C6.8 8.53458 6.8017 7.89099 6.86609 7.41205C6.92739 6.95614 7.03199 6.77095 7.15147 6.65147L6.0201 5.5201C5.55379 5.98641 5.36551 6.56552 5.28036 7.19886C5.1983 7.80918 5.2 8.57981 5.2 9.5H6.8Z" fill="#8898AA"/>
<path d="M6 14V14.5C6 16.3856 6 17.3284 6.58579 17.9142C7.17157 18.5 8.11438 18.5 10 18.5H14C15.8856 18.5 16.8284 18.5 17.4142 17.9142C18 17.3284 18 16.3856 18 14.5V14" stroke="#8898AA" stroke-width="1.6" stroke-linecap="round"/>
</svg>
