<svg width="48" height="14" viewBox="0 0 48 14" fill="none" xmlns="http://www.w3.org/2000/svg">
<path d="M0 0H48V10C48 12.2091 46.2091 14 44 14H4C1.79086 14 0 12.2091 0 10V0Z" fill="#F5365C"/>
<path d="M4.35227 4.9375V4.18182H8.85511V4.9375H7.03977V10H6.16477V4.9375H4.35227ZM11.0298 10.0881C10.5999 10.0881 10.2296 9.99621 9.91903 9.8125C9.61032 9.62689 9.37169 9.36648 9.20312 9.03125C9.03646 8.69413 8.95312 8.29924 8.95312 7.84659C8.95312 7.39962 9.03646 7.00568 9.20312 6.66477C9.37169 6.32386 9.60653 6.05777 9.90767 5.86648C10.2107 5.67519 10.5649 5.57955 10.9702 5.57955C11.2164 5.57955 11.455 5.62027 11.6861 5.7017C11.9171 5.78314 12.1245 5.91098 12.3082 6.08523C12.492 6.25947 12.6368 6.4858 12.7429 6.7642C12.849 7.04072 12.902 7.37689 12.902 7.77273V8.07386H9.43324V7.4375H12.0696C12.0696 7.21402 12.0241 7.0161 11.9332 6.84375C11.8423 6.66951 11.7145 6.5322 11.5497 6.43182C11.3868 6.33144 11.1955 6.28125 10.9759 6.28125C10.7372 6.28125 10.5289 6.33996 10.3509 6.45739C10.1747 6.57292 10.0384 6.72443 9.94176 6.91193C9.84706 7.09754 9.79972 7.29924 9.79972 7.51705V8.0142C9.79972 8.30587 9.85085 8.55398 9.95312 8.75852C10.0573 8.96307 10.2022 9.11932 10.3878 9.22727C10.5734 9.33333 10.7902 9.38636 11.0384 9.38636C11.1993 9.38636 11.3461 9.36364 11.4787 9.31818C11.6113 9.27083 11.7259 9.20076 11.8224 9.10795C11.919 9.01515 11.9929 8.90057 12.044 8.7642L12.848 8.90909C12.7836 9.14583 12.6681 9.35322 12.5014 9.53125C12.3366 9.70739 12.1293 9.8447 11.8793 9.94318C11.6312 10.0398 11.348 10.0881 11.0298 10.0881ZM13.7536 10V9.41761L16.1172 6.41477V6.375H13.8303V5.63636H17.1768V6.25568L14.9041 9.22159V9.26136H17.2564V10H13.7536ZM21.157 8.51989L21.1513 7.48295H21.299L23.0376 5.63636H24.0547L22.0717 7.73864H21.9382L21.157 8.51989ZM20.3757 10V4.18182H21.2251V10H20.3757ZM23.1314 10L21.5689 7.92614L22.1541 7.33239L24.174 10H23.1314ZM27.593 8.19034V5.63636H28.4453V10H27.6101V9.24432H27.5646C27.4643 9.47727 27.3033 9.6714 27.0817 9.8267C26.862 9.98011 26.5883 10.0568 26.2607 10.0568C25.9804 10.0568 25.7322 9.99527 25.5163 9.87216C25.3023 9.74716 25.1338 9.5625 25.0107 9.31818C24.8894 9.07386 24.8288 8.77178 24.8288 8.41193V5.63636H25.6783V8.30966C25.6783 8.60701 25.7607 8.84375 25.9254 9.01989C26.0902 9.19602 26.3042 9.28409 26.5675 9.28409C26.7266 9.28409 26.8847 9.24432 27.0419 9.16477C27.201 9.08523 27.3326 8.96496 27.4368 8.80398C27.5429 8.64299 27.5949 8.43845 27.593 8.19034ZM30.4361 7.40909V10H29.5866V5.63636H30.402V6.34659H30.456C30.5563 6.11553 30.7135 5.92992 30.9276 5.78977C31.1435 5.64962 31.4152 5.57955 31.7429 5.57955C32.0402 5.57955 32.3007 5.64205 32.5241 5.76705C32.7476 5.89015 32.9209 6.07386 33.044 6.31818C33.1671 6.5625 33.2287 6.86458 33.2287 7.22443V10H32.3793V7.3267C32.3793 7.01042 32.2969 6.76326 32.1321 6.58523C31.9673 6.4053 31.741 6.31534 31.4531 6.31534C31.2562 6.31534 31.081 6.35795 30.9276 6.44318C30.776 6.52841 30.6558 6.65341 30.5668 6.81818C30.4796 6.98106 30.4361 7.17803 30.4361 7.40909ZM36.0014 10.0852C35.6491 10.0852 35.3348 9.99527 35.0582 9.81534C34.7836 9.63352 34.5677 9.375 34.4105 9.03977C34.2552 8.70265 34.1776 8.2983 34.1776 7.8267C34.1776 7.35511 34.2562 6.9517 34.4134 6.61648C34.5724 6.28125 34.7902 6.02462 35.0668 5.84659C35.3433 5.66856 35.6567 5.57955 36.0071 5.57955C36.2779 5.57955 36.4957 5.625 36.6605 5.71591C36.8272 5.80492 36.956 5.90909 37.0469 6.02841C37.1397 6.14773 37.2116 6.25284 37.2628 6.34375H37.3139V4.18182H38.1634V10H37.3338V9.32102H37.2628C37.2116 9.41383 37.1378 9.51989 37.0412 9.6392C36.9465 9.75852 36.8158 9.86269 36.6491 9.9517C36.4825 10.0407 36.2666 10.0852 36.0014 10.0852ZM36.1889 9.3608C36.4332 9.3608 36.6397 9.2964 36.8082 9.16761C36.9787 9.03693 37.1075 8.85606 37.1946 8.625C37.2836 8.39394 37.3281 8.125 37.3281 7.81818C37.3281 7.51515 37.2846 7.25 37.1974 7.02273C37.1103 6.79545 36.9825 6.61837 36.8139 6.49148C36.6454 6.36458 36.437 6.30114 36.1889 6.30114C35.9332 6.30114 35.7202 6.36742 35.5497 6.5C35.3793 6.63258 35.2505 6.81345 35.1634 7.04261C35.0781 7.27178 35.0355 7.5303 35.0355 7.81818C35.0355 8.10985 35.0791 8.37216 35.1662 8.60511C35.2533 8.83807 35.3821 9.02273 35.5526 9.15909C35.7249 9.29356 35.937 9.3608 36.1889 9.3608ZM40.6456 10.0966C40.3691 10.0966 40.1191 10.0455 39.8956 9.94318C39.6721 9.83902 39.495 9.68845 39.3643 9.49148C39.2356 9.29451 39.1712 9.05303 39.1712 8.76705C39.1712 8.52083 39.2185 8.31818 39.3132 8.15909C39.4079 8 39.5357 7.87405 39.6967 7.78125C39.8577 7.68845 40.0376 7.61837 40.2365 7.57102C40.4354 7.52367 40.638 7.48769 40.8445 7.46307C41.1058 7.43277 41.3179 7.40814 41.4808 7.3892C41.6437 7.36837 41.7621 7.33523 41.8359 7.28977C41.9098 7.24432 41.9467 7.17045 41.9467 7.06818V7.0483C41.9467 6.80019 41.8767 6.60795 41.7365 6.47159C41.5982 6.33523 41.3918 6.26705 41.1172 6.26705C40.8312 6.26705 40.6058 6.33049 40.4411 6.45739C40.2782 6.58239 40.1655 6.72159 40.103 6.875L39.3047 6.69318C39.3994 6.42803 39.5376 6.21402 39.7195 6.05114C39.9032 5.88636 40.1143 5.76705 40.353 5.69318C40.5916 5.61742 40.8426 5.57955 41.1058 5.57955C41.2801 5.57955 41.4647 5.60038 41.6598 5.64205C41.8568 5.68182 42.0405 5.75568 42.2109 5.86364C42.3833 5.97159 42.5244 6.12595 42.6342 6.3267C42.7441 6.52557 42.799 6.78409 42.799 7.10227V10H41.9695V9.40341H41.9354C41.8804 9.51326 41.7981 9.62121 41.6882 9.72727C41.5784 9.83333 41.4373 9.9214 41.2649 9.99148C41.0926 10.0616 40.8861 10.0966 40.6456 10.0966ZM40.8303 9.41477C41.0651 9.41477 41.2659 9.36837 41.4325 9.27557C41.6011 9.18277 41.7289 9.06155 41.8161 8.91193C41.9051 8.76042 41.9496 8.59848 41.9496 8.42614V7.86364C41.9193 7.89394 41.8606 7.92235 41.7734 7.94886C41.6882 7.97348 41.5907 7.99527 41.4808 8.0142C41.371 8.03125 41.264 8.04735 41.1598 8.0625C41.0556 8.07576 40.9685 8.08712 40.8984 8.09659C40.7337 8.11742 40.5831 8.15246 40.4467 8.2017C40.3123 8.25095 40.2043 8.32197 40.1229 8.41477C40.0433 8.50568 40.0036 8.62689 40.0036 8.77841C40.0036 8.98864 40.0812 9.14773 40.2365 9.25568C40.3918 9.36174 40.5897 9.41477 40.8303 9.41477Z" fill="white"/>
</svg>
