<svg width="28" height="29" viewBox="0 0 28 29" fill="none" xmlns="http://www.w3.org/2000/svg">
<path d="M11.1532 7.41533C12.4198 5.14308 13.0531 4.00696 14 4.00696C14.9469 4.00696 15.5802 5.14308 16.8468 7.41533L17.1745 8.00319C17.5345 8.64889 17.7144 8.97174 17.9951 9.18476C18.2757 9.39778 18.6251 9.47686 19.3241 9.63501L19.9605 9.77899C22.4201 10.3355 23.65 10.6138 23.9426 11.5547C24.2352 12.4956 23.3968 13.476 21.7199 15.4369L21.2861 15.9442C20.8096 16.5014 20.5713 16.78 20.4641 17.1247C20.357 17.4693 20.393 17.8411 20.465 18.5845L20.5306 19.2614C20.7841 21.8776 20.9109 23.1857 20.1449 23.7672C19.3788 24.3487 18.2273 23.8185 15.9243 22.7581L15.3285 22.4838C14.6741 22.1825 14.3469 22.0318 14 22.0318C13.6531 22.0318 13.3259 22.1825 12.6715 22.4838L12.0757 22.7581C9.77268 23.8185 8.62118 24.3487 7.85515 23.7672C7.08912 23.1857 7.21588 21.8776 7.4694 19.2614L7.53498 18.5845C7.60703 17.8411 7.64305 17.4693 7.53586 17.1247C7.42868 16.78 7.19043 16.5014 6.71392 15.9442L6.2801 15.4369C4.60325 13.476 3.76482 12.4956 4.05742 11.5547C4.35002 10.6138 5.57986 10.3355 8.03954 9.77899L8.67589 9.63501C9.37485 9.47686 9.72433 9.39778 10.0049 9.18476C10.2856 8.97174 10.4655 8.64889 10.8255 8.00319L11.1532 7.41533Z" fill="#F5365C"/>
</svg>
