<svg width="21" height="20" viewBox="0 0 21 20" fill="none" xmlns="http://www.w3.org/2000/svg">
<path d="M2.16675 10.0002C2.16675 6.85747 2.16675 5.28612 3.14306 4.30981C4.11937 3.3335 5.69072 3.3335 8.83342 3.3335H12.1667C15.3094 3.3335 16.8808 3.3335 17.8571 4.30981C18.8334 5.28612 18.8334 6.85747 18.8334 10.0002C18.8334 13.1429 18.8334 14.7142 17.8571 15.6905C16.8808 16.6668 15.3094 16.6668 12.1667 16.6668H8.83341C5.69072 16.6668 4.11937 16.6668 3.14306 15.6905C2.16675 14.7142 2.16675 13.1429 2.16675 10.0002Z" stroke="#F5365C" stroke-width="1.6" stroke-linecap="round"/>
<path d="M8.83333 13.3335H5.5" stroke="#F5365C" stroke-width="1.6" stroke-linecap="round"/>
<path d="M12.1667 13.3335H10.9167" stroke="#F5365C" stroke-width="1.6" stroke-linecap="round"/>
<path d="M2.16675 8.3335L18.8334 8.3335" stroke="#F5365C" stroke-width="1.6" stroke-linecap="round"/>
</svg>
