<svg width="20" height="20" viewBox="0 0 20 20" fill="none" xmlns="http://www.w3.org/2000/svg">
<g clip-path="url(#clip0_87_11488)">
<path d="M15.625 0H4.375C1.95875 0 0 1.95875 0 4.375V6.66668H20V4.375C20 1.95875 18.0413 0 15.625 0Z" fill="#82AFFF"/>
<path d="M0 15.625C0 18.0412 1.95875 20 4.375 20H15.625C18.0413 20 20 18.0412 20 15.625V13.3333H0V15.625Z" fill="#73AF00"/>
<path d="M20 6.66679H0V13.3336H20V6.66679Z" fill="#F5F5F5"/>
<path d="M20 6.07461H0V6.9059H20V6.07461Z" fill="#FF4B55"/>
<path d="M20 13.0941H0V13.9254H20V13.0941Z" fill="#FF4B55"/>
<path d="M4.7338 4.99602C3.6563 4.99602 2.78294 4.12469 2.78294 3.05106C2.78294 1.97348 3.6563 1.09829 4.7338 1.09829C4.73791 1.09829 4.74201 1.09833 4.74611 1.09836C4.80951 1.09922 4.83177 1.01493 4.77587 0.984966C4.44408 0.807153 4.06541 0.706489 3.66283 0.709341C2.37357 0.71856 1.32634 1.78692 1.33998 3.07614C1.35349 4.35211 2.39662 5.38493 3.67962 5.38493C4.07669 5.38493 4.45001 5.2845 4.77763 5.10911C4.83337 5.07926 4.81084 4.99493 4.74763 4.9959C4.74302 4.99598 4.73841 4.99602 4.7338 4.99602Z" fill="#F5F5F5"/>
<path d="M6.26173 4.45817L6.17458 4.71942L5.89919 4.72157C5.86353 4.72184 5.84876 4.76735 5.87744 4.78852L6.099 4.95212L6.01591 5.2147C6.00517 5.24868 6.04388 5.2768 6.07287 5.25606L6.29693 5.09591L6.52099 5.25606C6.55001 5.2768 6.58872 5.24868 6.57794 5.2147L6.49486 4.95212L6.71638 4.78852C6.74505 4.76735 6.73029 4.72184 6.69462 4.72157L6.41923 4.71942L6.33208 4.45817C6.32087 4.42434 6.27302 4.42434 6.26173 4.45817Z" fill="#F5F5F5"/>
<path d="M7.7822 4.45818L7.69509 4.71943L7.4197 4.72158C7.38404 4.72185 7.36927 4.76736 7.39794 4.78853L7.61951 4.95212L7.53642 5.2147C7.52568 5.24869 7.56435 5.27681 7.59337 5.25607L7.81744 5.09591L8.0415 5.25607C8.07052 5.27681 8.10923 5.24869 8.09845 5.2147L8.01537 4.95212L8.23693 4.78853C8.2656 4.76736 8.25083 4.72185 8.21517 4.72158L7.93978 4.71943L7.85263 4.45818C7.84134 4.42435 7.79349 4.42435 7.7822 4.45818Z" fill="#F5F5F5"/>
<path d="M10.8681 4.45818L10.781 4.71943L10.5056 4.72158C10.47 4.72185 10.4552 4.76736 10.4839 4.78853L10.7054 4.95212L10.6224 5.2147C10.6116 5.24869 10.6503 5.27681 10.6793 5.25607L10.9034 5.09591L11.1274 5.25607C11.1565 5.27681 11.1951 5.24869 11.1844 5.2147L11.1013 4.95212L11.3229 4.78853C11.3515 4.76736 11.3368 4.72185 11.3011 4.72158L11.0257 4.71943L10.9386 4.45818C10.9273 4.42435 10.8794 4.42435 10.8681 4.45818Z" fill="#F5F5F5"/>
<path d="M12.3818 4.45818L12.2947 4.71943L12.0193 4.72158C11.9836 4.72185 11.9689 4.76736 11.9976 4.78853L12.2191 4.95212L12.136 5.2147C12.1253 5.24869 12.164 5.27681 12.193 5.25607L12.417 5.09591L12.6411 5.25607C12.6701 5.27681 12.7088 5.24869 12.6981 5.2147L12.615 4.95212L12.8365 4.78853C12.8652 4.76736 12.8504 4.72185 12.8148 4.72158L12.5394 4.71943L12.4522 4.45818C12.441 4.42435 12.3931 4.42435 12.3818 4.45818Z" fill="#F5F5F5"/>
<path d="M7.7822 2.64726L7.69509 2.90851L7.4197 2.91066C7.38404 2.91093 7.36927 2.95644 7.39794 2.97761L7.61951 3.14121L7.53642 3.40378C7.52568 3.43777 7.56435 3.46589 7.59337 3.44519L7.81744 3.28503L8.0415 3.44519C8.07052 3.46593 8.10923 3.43781 8.09845 3.40382L8.01537 3.14125L8.23693 2.97765C8.2656 2.95648 8.25083 2.91097 8.21517 2.9107L7.93978 2.90855L7.85263 2.6473C7.84134 2.61343 7.79349 2.61343 7.7822 2.64726Z" fill="#F5F5F5"/>
<path d="M9.33498 2.64726L9.24783 2.90851L8.97244 2.91066C8.93677 2.91093 8.92201 2.95644 8.95068 2.97761L9.17224 3.14121L9.08915 3.40378C9.07841 3.43777 9.11708 3.46589 9.14611 3.44519L9.37017 3.28503L9.59423 3.44519C9.62326 3.46593 9.66197 3.43781 9.65119 3.40382L9.5681 3.14125L9.78966 2.97765C9.81833 2.95648 9.80357 2.91097 9.7679 2.9107L9.49251 2.90855L9.40537 2.6473C9.39408 2.61343 9.34623 2.61343 9.33498 2.64726Z" fill="#F5F5F5"/>
<path d="M10.8681 2.64726L10.781 2.90851L10.5056 2.91066C10.47 2.91093 10.4552 2.95644 10.4839 2.97761L10.7054 3.14121L10.6224 3.40378C10.6116 3.43777 10.6503 3.46589 10.6793 3.44519L10.9034 3.28503L11.1274 3.44519C11.1565 3.46593 11.1951 3.43781 11.1844 3.40382L11.1013 3.14125L11.3229 2.97765C11.3515 2.95648 11.3368 2.91097 11.3011 2.9107L11.0257 2.90855L10.9386 2.6473C10.9273 2.61343 10.8794 2.61343 10.8681 2.64726Z" fill="#F5F5F5"/>
<path d="M12.3818 2.64726L12.2947 2.90851L12.0193 2.91066C11.9836 2.91093 11.9689 2.95644 11.9976 2.97761L12.2191 3.14121L12.136 3.40378C12.1253 3.43777 12.164 3.46589 12.193 3.44519L12.417 3.28503L12.6411 3.44519C12.6701 3.46593 12.7088 3.43781 12.6981 3.40382L12.615 3.14125L12.8365 2.97765C12.8652 2.95648 12.8504 2.91097 12.8148 2.9107L12.5394 2.90855L12.4522 2.6473C12.441 2.61343 12.3931 2.61343 12.3818 2.64726Z" fill="#F5F5F5"/>
<path d="M9.33498 4.45818L9.24783 4.71943L8.97244 4.72158C8.93677 4.72185 8.92201 4.76736 8.95068 4.78853L9.17224 4.95212L9.08915 5.2147C9.07841 5.24869 9.11708 5.27681 9.14611 5.25607L9.37017 5.09591L9.59423 5.25607C9.62326 5.27681 9.66197 5.24869 9.65119 5.2147L9.5681 4.95212L9.78966 4.78853C9.81833 4.76736 9.80357 4.72185 9.7679 4.72158L9.49251 4.71943L9.40537 4.45818C9.39408 4.42435 9.34623 4.42435 9.33498 4.45818Z" fill="#F5F5F5"/>
<path d="M9.33498 0.836406L9.24783 1.09766L8.97244 1.0998C8.93677 1.10008 8.92201 1.14559 8.95068 1.16676L9.17224 1.33035L9.08915 1.59293C9.07841 1.62691 9.11708 1.65504 9.14611 1.6343L9.37017 1.47414L9.59423 1.6343C9.62326 1.65504 9.66197 1.62691 9.65119 1.59293L9.5681 1.33035L9.78966 1.16676C9.81833 1.14559 9.80357 1.10008 9.7679 1.0998L9.49251 1.09766L9.40537 0.836406C9.39408 0.802578 9.34623 0.802578 9.33498 0.836406Z" fill="#F5F5F5"/>
<path d="M10.8681 4.45818L10.781 4.71943L10.5056 4.72158C10.47 4.72185 10.4552 4.76736 10.4839 4.78853L10.7054 4.95212L10.6224 5.2147C10.6116 5.24869 10.6503 5.27681 10.6793 5.25607L10.9034 5.09591L11.1274 5.25607C11.1565 5.27681 11.1951 5.24869 11.1844 5.2147L11.1013 4.95212L11.3229 4.78853C11.3515 4.76736 11.3368 4.72185 11.3011 4.72158L11.0257 4.71943L10.9386 4.45818C10.9273 4.42435 10.8794 4.42435 10.8681 4.45818Z" fill="#F5F5F5"/>
<path d="M12.3818 4.45818L12.2947 4.71943L12.0193 4.72158C11.9836 4.72185 11.9689 4.76736 11.9976 4.78853L12.2191 4.95212L12.136 5.2147C12.1253 5.24869 12.164 5.27681 12.193 5.25607L12.417 5.09591L12.6411 5.25607C12.6701 5.27681 12.7088 5.24869 12.6981 5.2147L12.615 4.95212L12.8365 4.78853C12.8652 4.76736 12.8504 4.72185 12.8148 4.72158L12.5394 4.71943L12.4522 4.45818C12.441 4.42435 12.3931 4.42435 12.3818 4.45818Z" fill="#F5F5F5"/>
<path d="M10.8681 0.836406L10.781 1.09766L10.5056 1.0998C10.47 1.10008 10.4552 1.14559 10.4839 1.16676L10.7054 1.33035L10.6224 1.59293C10.6116 1.62691 10.6503 1.65504 10.6793 1.6343L10.9034 1.47414L11.1274 1.6343C11.1565 1.65504 11.1951 1.62691 11.1844 1.59293L11.1013 1.33035L11.3229 1.16676C11.3515 1.14559 11.3368 1.10008 11.3011 1.0998L11.0257 1.09766L10.9386 0.836406C10.9273 0.802578 10.8794 0.802578 10.8681 0.836406Z" fill="#F5F5F5"/>
<path d="M12.3818 0.836406L12.2947 1.09766L12.0193 1.0998C11.9836 1.10008 11.9689 1.14559 11.9976 1.16676L12.2191 1.33035L12.136 1.59293C12.1253 1.62691 12.164 1.65504 12.193 1.6343L12.417 1.47414L12.6411 1.6343C12.6701 1.65504 12.7088 1.62691 12.6981 1.59293L12.615 1.33035L12.8365 1.16676C12.8652 1.14559 12.8504 1.10008 12.8148 1.0998L12.5394 1.09766L12.4522 0.836406C12.441 0.802578 12.3931 0.802578 12.3818 0.836406Z" fill="#F5F5F5"/>
</g>
<defs>
<clipPath id="clip0_87_11488">
<rect width="20" height="20" fill="white"/>
</clipPath>
</defs>
</svg>
