<svg width="24" height="24" viewBox="0 0 24 24" fill="none" xmlns="http://www.w3.org/2000/svg">
<path fill-rule="evenodd" clip-rule="evenodd" d="M19.1654 12.582C19.1654 15.282 18.5487 17.2941 17.3165 18.6052C16.0825 19.9182 14.1803 20.5715 11.6137 20.5715C9.21543 20.5715 7.39755 19.9184 6.15547 18.6052C4.91525 17.294 4.29468 15.3147 4.29468 12.6743C4.29468 9.71794 4.29468 6.7617 4.29468 3.80537C4.29468 3.59821 4.46408 3.42871 4.67111 3.42871H9.01949C9.22652 3.42871 9.39592 3.59821 9.39592 3.80537C9.39592 6.82584 9.39592 9.84637 9.39592 12.8669C9.39592 13.9462 9.59557 14.7777 10.0015 15.3628C10.4056 15.9453 10.984 16.2376 11.7381 16.2376C12.496 16.2376 13.0736 15.9646 13.4705 15.415C13.8674 14.8653 14.064 14.0547 14.064 12.9833V11.2863H19.1654V12.582Z" fill="#014282"/>
<path fill-rule="evenodd" clip-rule="evenodd" d="M18.7724 10.2962H14.4597H14.0654V9.9017V8.74536V3.8232C14.0654 3.60625 14.2428 3.42871 14.4597 3.42871H15.1641C15.1657 5.63852 16.9566 7.42958 19.1655 7.42958L19.1667 7.42956V8.74536V9.9017V10.2962H18.7724H18.7724Z" fill="#014282"/>
<path fill-rule="evenodd" clip-rule="evenodd" d="M16.1682 3.42871C17.0368 3.42871 17.9053 3.42871 18.7738 3.42871C18.9907 3.42871 19.1681 3.60625 19.1681 3.8232C19.1681 4.69332 19.1681 5.56347 19.1681 6.43356C17.5113 6.43356 16.1682 5.08966 16.1682 3.43198L16.1683 3.42871H16.1682Z" fill="#FE8700"/>
</svg>
