<svg width="22" height="22" viewBox="0 0 22 22" fill="none" xmlns="http://www.w3.org/2000/svg">
<path d="M12.833 5.5H9.16634C7.92346 5.5 6.904 5.5 6.05806 5.54991C4.5511 5.63882 3.59478 5.88611 2.90695 6.57394C1.83301 7.64788 1.83301 9.37637 1.83301 12.8333C1.83301 16.2903 1.83301 18.0188 2.90695 19.0927C3.98089 20.1667 5.70937 20.1667 9.16634 20.1667H12.833C16.29 20.1667 18.0185 20.1667 19.0924 19.0927C20.1663 18.0188 20.1663 16.2903 20.1663 12.8333C20.1663 9.37637 20.1663 7.64788 19.0924 6.57394C18.4046 5.88611 17.4483 5.63882 15.9413 5.54991C15.0953 5.5 14.0759 5.5 12.833 5.5Z" stroke="#8898AA" stroke-width="1.8"/>
<path d="M6.05859 5.54991C6.81342 5.53078 7.47931 5.00033 7.73616 4.29029C7.74406 4.26845 7.75216 4.24415 7.76835 4.19556L7.79187 4.125C7.83055 4.00898 7.84989 3.95096 7.87057 3.8995C8.13475 3.24236 8.75381 2.79617 9.46077 2.75335C9.51613 2.75 9.57728 2.75 9.69958 2.75H12.3008C12.4231 2.75 12.4843 2.75 12.5396 2.75335C13.2466 2.79617 13.8657 3.24236 14.1298 3.8995C14.1505 3.95096 14.1699 4.00898 14.2085 4.125L14.2321 4.19556C14.2482 4.24409 14.2564 4.26847 14.2643 4.29029C14.5211 5.00033 15.187 5.53078 15.9418 5.54991" stroke="#8898AA" stroke-width="1.8"/>
<path d="M19.8567 7.9931C17.0977 9.78646 15.7181 10.6831 14.2639 11.135C12.1381 11.7954 9.86208 11.7954 7.73637 11.135C6.28208 10.6831 4.90257 9.78646 2.14355 7.9931" stroke="#8898AA" stroke-width="1.8"/>
<path d="M7.33301 10.0833V11.9166" stroke="#8898AA" stroke-width="1.8" stroke-linecap="round"/>
<path d="M14.667 10.0833V11.9166" stroke="#8898AA" stroke-width="1.8" stroke-linecap="round"/>
</svg>
