<svg width="20" height="20" viewBox="0 0 20 20" fill="none" xmlns="http://www.w3.org/2000/svg">
<path d="M2.7294 12.7464C2.02113 11.8262 1.66699 11.3661 1.66699 9.99998C1.66699 8.63383 2.02113 8.17375 2.7294 7.25359C4.14363 5.41628 6.51542 3.33331 10.0003 3.33331C13.4852 3.33331 15.857 5.41628 17.2712 7.25359C17.9795 8.17375 18.3337 8.63383 18.3337 9.99998C18.3337 11.3661 17.9795 11.8262 17.2712 12.7464C15.857 14.5837 13.4852 16.6666 10.0003 16.6666C6.51542 16.6666 4.14363 14.5837 2.7294 12.7464Z" stroke="white" stroke-width="1.5"/>
<path d="M12.5 10C12.5 11.3807 11.3807 12.5 10 12.5C8.61929 12.5 7.5 11.3807 7.5 10C7.5 8.61929 8.61929 7.5 10 7.5C11.3807 7.5 12.5 8.61929 12.5 10Z" stroke="white" stroke-width="1.5"/>
</svg>
