<svg width="22" height="22" viewBox="0 0 22 22" fill="none" xmlns="http://www.w3.org/2000/svg">
<path d="M1.83301 10.5417C1.83301 7.52816 1.83301 6.0214 2.6653 5.00725C2.81767 4.82159 2.98791 4.65135 3.17357 4.49898C4.18772 3.66669 5.69448 3.66669 8.70801 3.66669C11.7215 3.66669 13.2283 3.66669 14.2424 4.49898C14.4281 4.65135 14.5983 4.82159 14.7507 5.00725C15.583 6.0214 15.583 7.52816 15.583 10.5417V11.4584C15.583 14.4719 15.583 15.9786 14.7507 16.9928C14.5983 17.1785 14.4281 17.3487 14.2424 17.5011C13.2283 18.3334 11.7215 18.3334 8.70801 18.3334C5.69448 18.3334 4.18772 18.3334 3.17357 17.5011C2.98791 17.3487 2.81767 17.1785 2.6653 16.9928C1.83301 15.9786 1.83301 14.4719 1.83301 11.4584V10.5417Z" stroke="#8898AA" stroke-width="1.8"/>
<path d="M15.583 8.70831L16.1865 8.40656C17.9702 7.51469 18.8621 7.06876 19.5142 7.47179C20.1663 7.87482 20.1663 8.87196 20.1663 10.8662V11.1337C20.1663 13.128 20.1663 14.1251 19.5142 14.5282C18.8621 14.9312 17.9702 14.4853 16.1865 13.5934L15.583 13.2916V8.70831Z" stroke="#8898AA" stroke-width="1.8"/>
</svg>
